G04*
G04 #@! TF.GenerationSoftware,Altium Limited,Altium Designer,22.1.2 (22)*
G04*
G04 Layer_Color=2752767*
%FSLAX25Y25*%
%MOIN*%
G70*
G04*
G04 #@! TF.SameCoordinates,36DEEAF7-B38F-4887-853D-DC1A27ABF5B6*
G04*
G04*
G04 #@! TF.FilePolarity,Positive*
G04*
G01*
G75*
%ADD106C,0.00200*%
%ADD107C,0.00267*%
D106*
X16917Y65657D02*
Y67257D01*
X18517D01*
Y65657D01*
X16917D01*
X73858Y29121D02*
X73058Y30721D01*
X74658D01*
X73858Y29121D01*
Y39121D02*
X73058Y40721D01*
X74658D01*
X73858Y39121D01*
X83858Y29121D02*
X83058Y30721D01*
X84658D01*
X83858Y29121D01*
Y39121D02*
X83058Y40721D01*
X84658D01*
X83858Y39121D01*
X93858Y29121D02*
X93058Y30721D01*
X94658D01*
X93858Y29121D01*
Y39121D02*
X93058Y40721D01*
X94658D01*
X93858Y39121D01*
X103858Y29121D02*
X103058Y30721D01*
X104658D01*
X103858Y29121D01*
Y39121D02*
X103058Y40721D01*
X104658D01*
X103858Y39121D01*
X113858Y29121D02*
X113058Y30721D01*
X114658D01*
X113858Y29121D01*
Y39121D02*
X113058Y40721D01*
X114658D01*
X113858Y39121D01*
X123858Y29121D02*
X123058Y30721D01*
X124658D01*
X123858Y29121D01*
Y39121D02*
X123058Y40721D01*
X124658D01*
X123858Y39121D01*
X133858Y29121D02*
X133058Y30721D01*
X134658D01*
X133858Y29121D01*
Y39121D02*
X133058Y40721D01*
X134658D01*
X133858Y39121D01*
X181102Y14948D02*
X181502Y15348D01*
X181902D01*
X181502Y15748D01*
X181902Y16148D01*
X181502D01*
X181102Y16548D01*
X180702Y16148D01*
X180302D01*
X180702Y15748D01*
X180302Y15348D01*
X180702D01*
X181102Y14948D01*
X62992Y66129D02*
X63392Y66529D01*
X63792D01*
X63392Y66929D01*
X63792Y67329D01*
X63392D01*
X62992Y67729D01*
X62592Y67329D01*
X62192D01*
X62592Y66929D01*
X62192Y66529D01*
X62592D01*
X62992Y66129D01*
X15748Y199987D02*
X16148Y200387D01*
X16548D01*
X16148Y200787D01*
X16548Y201187D01*
X16148D01*
X15748Y201587D01*
X15348Y201187D01*
X14948D01*
X15348Y200787D01*
X14948Y200387D01*
X15348D01*
X15748Y199987D01*
X28728Y11326D02*
X29128Y12126D01*
X28728Y12926D01*
X29528Y12526D01*
X30328Y12926D01*
X29928Y12126D01*
X30328Y11326D01*
X29528Y11726D01*
X28728Y11326D01*
X161214Y205899D02*
Y205499D01*
X162014D01*
Y205899D01*
X162414D01*
Y206699D01*
X162014D01*
Y207099D01*
X161214D01*
Y206699D01*
X160814D01*
Y205899D01*
X161214D01*
X127750D02*
Y205499D01*
X128550D01*
Y205899D01*
X128950D01*
Y206699D01*
X128550D01*
Y207099D01*
X127750D01*
Y206699D01*
X127350D01*
Y205899D01*
X127750D01*
Y212494D02*
Y212094D01*
X128550D01*
Y212494D01*
X128950D01*
Y213294D01*
X128550D01*
Y213694D01*
X127750D01*
Y213294D01*
X127350D01*
Y212494D01*
X127750D01*
X167507Y205499D02*
X167907D01*
X168307Y205899D01*
X168707Y205499D01*
X169107D01*
Y205899D01*
X168707Y206299D01*
X169107Y206699D01*
Y207099D01*
X168707D01*
X168307Y206699D01*
X167907Y207099D01*
X167507D01*
Y206699D01*
X167907Y206299D01*
X167507Y205899D01*
Y205499D01*
X141031Y160531D02*
X141831Y161331D01*
X142631Y160531D01*
X141831Y159731D01*
X141031Y160531D01*
Y156595D02*
X141831Y157395D01*
X142631Y156595D01*
X141831Y155795D01*
X141031Y156595D01*
X144968D02*
X145768Y157395D01*
X146568Y156595D01*
X145768Y155795D01*
X144968Y156595D01*
Y160531D02*
X145768Y161331D01*
X146568Y160531D01*
X145768Y159731D01*
X144968Y160531D01*
X142999Y158563D02*
X143799Y159363D01*
X144599Y158563D01*
X143799Y157763D01*
X142999Y158563D01*
X154915Y96943D02*
Y96543D01*
X155715D01*
Y96943D01*
X156115D01*
Y97742D01*
X155715D01*
Y98142D01*
X154915D01*
Y97742D01*
X154515D01*
Y96943D01*
X154915D01*
X61903Y102676D02*
Y102276D01*
X62703D01*
Y102676D01*
X63103D01*
Y103476D01*
X62703D01*
Y103876D01*
X61903D01*
Y103476D01*
X61503D01*
Y102676D01*
X61903D01*
X65053D02*
Y102276D01*
X65853D01*
Y102676D01*
X66253D01*
Y103476D01*
X65853D01*
Y103876D01*
X65053D01*
Y103476D01*
X64653D01*
Y102676D01*
X65053D01*
Y99502D02*
Y99102D01*
X65853D01*
Y99502D01*
X66253D01*
Y100302D01*
X65853D01*
Y100702D01*
X65053D01*
Y100302D01*
X64653D01*
Y99502D01*
X65053D01*
X61903D02*
Y99102D01*
X62703D01*
Y99502D01*
X63103D01*
Y100302D01*
X62703D01*
Y100702D01*
X61903D01*
Y100302D01*
X61503D01*
Y99502D01*
X61903D01*
X149994Y177946D02*
Y177547D01*
X150794D01*
Y177946D01*
X151194D01*
Y178746D01*
X150794D01*
Y179147D01*
X149994D01*
Y178746D01*
X149594D01*
Y177946D01*
X149994D01*
X138970D02*
Y177547D01*
X139770D01*
Y177946D01*
X140170D01*
Y178746D01*
X139770D01*
Y179147D01*
X138970D01*
Y178746D01*
X138570D01*
Y177946D01*
X138970D01*
X144482D02*
Y177547D01*
X145282D01*
Y177946D01*
X145682D01*
Y178746D01*
X145282D01*
Y179147D01*
X144482D01*
Y178746D01*
X144082D01*
Y177946D01*
X144482D01*
X94974Y132769D02*
Y132369D01*
X95774D01*
Y132769D01*
X96174D01*
Y133569D01*
X95774D01*
Y133969D01*
X94974D01*
Y133569D01*
X94574D01*
Y132769D01*
X94974D01*
Y141037D02*
Y140637D01*
X95774D01*
Y141037D01*
X96174D01*
Y141837D01*
X95774D01*
Y142237D01*
X94974D01*
Y141837D01*
X94574D01*
Y141037D01*
X94974D01*
X67999Y110322D02*
X68399D01*
X68799Y110722D01*
X69199Y110322D01*
X69599D01*
Y110722D01*
X69199Y111122D01*
X69599Y111522D01*
Y111922D01*
X69199D01*
X68799Y111522D01*
X68399Y111922D01*
X67999D01*
Y111522D01*
X68399Y111122D01*
X67999Y110722D01*
Y110322D01*
X96450Y200387D02*
Y199987D01*
X97250D01*
Y200387D01*
X97650D01*
Y201187D01*
X97250D01*
Y201587D01*
X96450D01*
Y201187D01*
X96050D01*
Y200387D01*
X96450D01*
X155506Y3537D02*
Y3137D01*
X156306D01*
Y3537D01*
X156705D01*
Y4337D01*
X156306D01*
Y4737D01*
X155506D01*
Y4337D01*
X155105D01*
Y3537D01*
X155506D01*
X135820D02*
Y3137D01*
X136620D01*
Y3537D01*
X137021D01*
Y4337D01*
X136620D01*
Y4737D01*
X135820D01*
Y4337D01*
X135421D01*
Y3537D01*
X135820D01*
X116135D02*
Y3137D01*
X116935D01*
Y3537D01*
X117335D01*
Y4337D01*
X116935D01*
Y4737D01*
X116135D01*
Y4337D01*
X115735D01*
Y3537D01*
X116135D01*
X96450Y82277D02*
Y81877D01*
X97250D01*
Y82277D01*
X97650D01*
Y83077D01*
X97250D01*
Y83477D01*
X96450D01*
Y83077D01*
X96050D01*
Y82277D01*
X96450D01*
X106293Y23222D02*
Y22822D01*
X107093D01*
Y23222D01*
X107493D01*
Y24022D01*
X107093D01*
Y24422D01*
X106293D01*
Y24022D01*
X105893D01*
Y23222D01*
X106293D01*
X96450Y3537D02*
Y3137D01*
X97250D01*
Y3537D01*
X97650D01*
Y4337D01*
X97250D01*
Y4737D01*
X96450D01*
Y4337D01*
X96050D01*
Y3537D01*
X96450D01*
X76765Y200387D02*
Y199987D01*
X77565D01*
Y200387D01*
X77965D01*
Y201187D01*
X77565D01*
Y201587D01*
X76765D01*
Y201187D01*
X76365D01*
Y200387D01*
X76765D01*
X86608Y180702D02*
Y180302D01*
X87408D01*
Y180702D01*
X87808D01*
Y181502D01*
X87408D01*
Y181902D01*
X86608D01*
Y181502D01*
X86208D01*
Y180702D01*
X86608D01*
X76765Y82277D02*
Y81877D01*
X77565D01*
Y82277D01*
X77965D01*
Y83077D01*
X77565D01*
Y83477D01*
X76765D01*
Y83077D01*
X76365D01*
Y82277D01*
X76765D01*
X86608Y62592D02*
Y62192D01*
X87408D01*
Y62592D01*
X87808D01*
Y63392D01*
X87408D01*
Y63792D01*
X86608D01*
Y63392D01*
X86208D01*
Y62592D01*
X86608D01*
Y23222D02*
Y22822D01*
X87408D01*
Y23222D01*
X87808D01*
Y24022D01*
X87408D01*
Y24422D01*
X86608D01*
Y24022D01*
X86208D01*
Y23222D01*
X86608D01*
X76765Y3537D02*
Y3137D01*
X77565D01*
Y3537D01*
X77965D01*
Y4337D01*
X77565D01*
Y4737D01*
X76765D01*
Y4337D01*
X76365D01*
Y3537D01*
X76765D01*
X57080Y200387D02*
Y199987D01*
X57880D01*
Y200387D01*
X58280D01*
Y201187D01*
X57880D01*
Y201587D01*
X57080D01*
Y201187D01*
X56680D01*
Y200387D01*
X57080D01*
X66923Y180702D02*
Y180302D01*
X67723D01*
Y180702D01*
X68123D01*
Y181502D01*
X67723D01*
Y181902D01*
X66923D01*
Y181502D01*
X66523D01*
Y180702D01*
X66923D01*
Y141332D02*
Y140932D01*
X67723D01*
Y141332D01*
X68123D01*
Y142132D01*
X67723D01*
Y142532D01*
X66923D01*
Y142132D01*
X66523D01*
Y141332D01*
X66923D01*
X57080Y121647D02*
Y121247D01*
X57880D01*
Y121647D01*
X58280D01*
Y122447D01*
X57880D01*
Y122847D01*
X57080D01*
Y122447D01*
X56680D01*
Y121647D01*
X57080D01*
Y82277D02*
Y81877D01*
X57880D01*
Y82277D01*
X58280D01*
Y83077D01*
X57880D01*
Y83477D01*
X57080D01*
Y83077D01*
X56680D01*
Y82277D01*
X57080D01*
Y42907D02*
Y42507D01*
X57880D01*
Y42907D01*
X58280D01*
Y43707D01*
X57880D01*
Y44107D01*
X57080D01*
Y43707D01*
X56680D01*
Y42907D01*
X57080D01*
X66923Y23222D02*
Y22822D01*
X67723D01*
Y23222D01*
X68123D01*
Y24022D01*
X67723D01*
Y24422D01*
X66923D01*
Y24022D01*
X66523D01*
Y23222D01*
X66923D01*
X57080Y3537D02*
Y3137D01*
X57880D01*
Y3537D01*
X58280D01*
Y4337D01*
X57880D01*
Y4737D01*
X57080D01*
Y4337D01*
X56680D01*
Y3537D01*
X57080D01*
X37395Y200387D02*
Y199987D01*
X38195D01*
Y200387D01*
X38595D01*
Y201187D01*
X38195D01*
Y201587D01*
X37395D01*
Y201187D01*
X36995D01*
Y200387D01*
X37395D01*
X47238Y180702D02*
Y180302D01*
X48038D01*
Y180702D01*
X48438D01*
Y181502D01*
X48038D01*
Y181902D01*
X47238D01*
Y181502D01*
X46838D01*
Y180702D01*
X47238D01*
X37395Y161017D02*
Y160617D01*
X38195D01*
Y161017D01*
X38595D01*
Y161817D01*
X38195D01*
Y162217D01*
X37395D01*
Y161817D01*
X36995D01*
Y161017D01*
X37395D01*
X47238Y141332D02*
Y140932D01*
X48038D01*
Y141332D01*
X48438D01*
Y142132D01*
X48038D01*
Y142532D01*
X47238D01*
Y142132D01*
X46838D01*
Y141332D01*
X47238D01*
X37395Y121647D02*
Y121247D01*
X38195D01*
Y121647D01*
X38595D01*
Y122447D01*
X38195D01*
Y122847D01*
X37395D01*
Y122447D01*
X36995D01*
Y121647D01*
X37395D01*
Y82277D02*
Y81877D01*
X38195D01*
Y82277D01*
X38595D01*
Y83077D01*
X38195D01*
Y83477D01*
X37395D01*
Y83077D01*
X36995D01*
Y82277D01*
X37395D01*
X47238Y62592D02*
Y62192D01*
X48038D01*
Y62592D01*
X48438D01*
Y63392D01*
X48038D01*
Y63792D01*
X47238D01*
Y63392D01*
X46838D01*
Y62592D01*
X47238D01*
X37395Y42907D02*
Y42507D01*
X38195D01*
Y42907D01*
X38595D01*
Y43707D01*
X38195D01*
Y44107D01*
X37395D01*
Y43707D01*
X36995D01*
Y42907D01*
X37395D01*
Y3537D02*
Y3137D01*
X38195D01*
Y3537D01*
X38595D01*
Y4337D01*
X38195D01*
Y4737D01*
X37395D01*
Y4337D01*
X36995D01*
Y3537D01*
X37395D01*
X27553Y180702D02*
Y180302D01*
X28353D01*
Y180702D01*
X28753D01*
Y181502D01*
X28353D01*
Y181902D01*
X27553D01*
Y181502D01*
X27153D01*
Y180702D01*
X27553D01*
X17710Y161017D02*
Y160617D01*
X18510D01*
Y161017D01*
X18910D01*
Y161817D01*
X18510D01*
Y162217D01*
X17710D01*
Y161817D01*
X17310D01*
Y161017D01*
X17710D01*
X27553Y141332D02*
Y140932D01*
X28353D01*
Y141332D01*
X28753D01*
Y142132D01*
X28353D01*
Y142532D01*
X27553D01*
Y142132D01*
X27153D01*
Y141332D01*
X27553D01*
X17710Y121647D02*
Y121247D01*
X18510D01*
Y121647D01*
X18910D01*
Y122447D01*
X18510D01*
Y122847D01*
X17710D01*
Y122447D01*
X17310D01*
Y121647D01*
X17710D01*
Y82277D02*
Y81877D01*
X18510D01*
Y82277D01*
X18910D01*
Y83077D01*
X18510D01*
Y83477D01*
X17710D01*
Y83077D01*
X17310D01*
Y82277D01*
X17710D01*
Y42907D02*
Y42507D01*
X18510D01*
Y42907D01*
X18910D01*
Y43707D01*
X18510D01*
Y44107D01*
X17710D01*
Y43707D01*
X17310D01*
Y42907D01*
X17710D01*
X27553Y23222D02*
Y22822D01*
X28353D01*
Y23222D01*
X28753D01*
Y24022D01*
X28353D01*
Y24422D01*
X27553D01*
Y24022D01*
X27153D01*
Y23222D01*
X27553D01*
X17710Y3537D02*
Y3137D01*
X18510D01*
Y3537D01*
X18910D01*
Y4337D01*
X18510D01*
Y4737D01*
X17710D01*
Y4337D01*
X17310D01*
Y3537D01*
X17710D01*
X48806Y98917D02*
X49606Y99717D01*
X50406Y98917D01*
X49606Y98117D01*
X48806Y98917D01*
X74600Y109246D02*
Y108846D01*
X75400D01*
Y109246D01*
X75800D01*
Y110046D01*
X75400D01*
Y110446D01*
X74600D01*
Y110046D01*
X74200D01*
Y109246D01*
X74600D01*
Y112592D02*
Y112192D01*
X75400D01*
Y112592D01*
X75800D01*
Y113392D01*
X75400D01*
Y113792D01*
X74600D01*
Y113392D01*
X74200D01*
Y112592D01*
X74600D01*
Y115939D02*
Y115539D01*
X75400D01*
Y115939D01*
X75800D01*
Y116739D01*
X75400D01*
Y117139D01*
X74600D01*
Y116739D01*
X74200D01*
Y115939D01*
X74600D01*
Y119285D02*
Y118885D01*
X75400D01*
Y119285D01*
X75800D01*
Y120085D01*
X75400D01*
Y120485D01*
X74600D01*
Y120085D01*
X74200D01*
Y119285D01*
X74600D01*
Y122632D02*
Y122231D01*
X75400D01*
Y122632D01*
X75800D01*
Y123432D01*
X75400D01*
Y123831D01*
X74600D01*
Y123432D01*
X74200D01*
Y122632D01*
X74600D01*
X69646Y96352D02*
Y95952D01*
X70446D01*
Y96352D01*
X70846D01*
Y97152D01*
X70446D01*
Y97552D01*
X69646D01*
Y97152D01*
X69246D01*
Y96352D01*
X69646D01*
X73517Y89954D02*
Y89554D01*
X74317D01*
Y89954D01*
X74717D01*
Y90754D01*
X74317D01*
Y91154D01*
X73517D01*
Y90754D01*
X73117D01*
Y89954D01*
X73517D01*
Y93153D02*
Y92753D01*
X74317D01*
Y93153D01*
X74717D01*
Y93953D01*
X74317D01*
Y94353D01*
X73517D01*
Y93953D01*
X73117D01*
Y93153D01*
X73517D01*
Y96352D02*
Y95952D01*
X74317D01*
Y96352D01*
X74717D01*
Y97152D01*
X74317D01*
Y97552D01*
X73517D01*
Y97152D01*
X73117D01*
Y96352D01*
X73517D01*
X69646Y93153D02*
Y92753D01*
X70446D01*
Y93153D01*
X70846D01*
Y93953D01*
X70446D01*
Y94353D01*
X69646D01*
Y93953D01*
X69246D01*
Y93153D01*
X69646D01*
Y89954D02*
Y89554D01*
X70446D01*
Y89954D01*
X70846D01*
Y90754D01*
X70446D01*
Y91154D01*
X69646D01*
Y90754D01*
X69246D01*
Y89954D01*
X69646D01*
X61903D02*
Y89554D01*
X62703D01*
Y89954D01*
X63103D01*
Y90754D01*
X62703D01*
Y91154D01*
X61903D01*
Y90754D01*
X61503D01*
Y89954D01*
X61903D01*
Y93153D02*
Y92753D01*
X62703D01*
Y93153D01*
X63103D01*
Y93953D01*
X62703D01*
Y94353D01*
X61903D01*
Y93953D01*
X61503D01*
Y93153D01*
X61903D01*
X65775Y96352D02*
Y95952D01*
X66575D01*
Y96352D01*
X66975D01*
Y97152D01*
X66575D01*
Y97552D01*
X65775D01*
Y97152D01*
X65374D01*
Y96352D01*
X65775D01*
Y93153D02*
Y92753D01*
X66575D01*
Y93153D01*
X66975D01*
Y93953D01*
X66575D01*
Y94353D01*
X65775D01*
Y93953D01*
X65374D01*
Y93153D01*
X65775D01*
Y89954D02*
Y89554D01*
X66575D01*
Y89954D01*
X66975D01*
Y90754D01*
X66575D01*
Y91154D01*
X65775D01*
Y90754D01*
X65374D01*
Y89954D01*
X65775D01*
X61903Y96352D02*
Y95952D01*
X62703D01*
Y96352D01*
X63103D01*
Y97152D01*
X62703D01*
Y97552D01*
X61903D01*
Y97152D01*
X61503D01*
Y96352D01*
X61903D01*
X78045Y122632D02*
Y122231D01*
X78845D01*
Y122632D01*
X79245D01*
Y123432D01*
X78845D01*
Y123831D01*
X78045D01*
Y123432D01*
X77645D01*
Y122632D01*
X78045D01*
Y119285D02*
Y118885D01*
X78845D01*
Y119285D01*
X79245D01*
Y120085D01*
X78845D01*
Y120485D01*
X78045D01*
Y120085D01*
X77645D01*
Y119285D01*
X78045D01*
Y115939D02*
Y115539D01*
X78845D01*
Y115939D01*
X79245D01*
Y116739D01*
X78845D01*
Y117139D01*
X78045D01*
Y116739D01*
X77645D01*
Y115939D01*
X78045D01*
Y112592D02*
Y112192D01*
X78845D01*
Y112592D01*
X79245D01*
Y113392D01*
X78845D01*
Y113792D01*
X78045D01*
Y113392D01*
X77645D01*
Y112592D01*
X78045D01*
Y109246D02*
Y108846D01*
X78845D01*
Y109246D01*
X79245D01*
Y110046D01*
X78845D01*
Y110446D01*
X78045D01*
Y110046D01*
X77645D01*
Y109246D01*
X78045D01*
X122730Y47336D02*
Y46936D01*
X123530D01*
Y47336D01*
X123930D01*
Y48136D01*
X123530D01*
Y48536D01*
X122730D01*
Y48136D01*
X122330D01*
Y47336D01*
X122730D01*
X106194Y47631D02*
Y47232D01*
X106994D01*
Y47631D01*
X107395D01*
Y48432D01*
X106994D01*
Y48831D01*
X106194D01*
Y48432D01*
X105795D01*
Y47631D01*
X106194D01*
X155899Y24698D02*
Y24298D01*
X156699D01*
Y24698D01*
X157099D01*
Y25498D01*
X156699D01*
Y25898D01*
X155899D01*
Y25498D01*
X155499D01*
Y24698D01*
X155899D01*
X143596Y24797D02*
Y24397D01*
X144396D01*
Y24797D01*
X144796D01*
Y25597D01*
X144396D01*
Y25997D01*
X143596D01*
Y25597D01*
X143196D01*
Y24797D01*
X143596D01*
X170466Y32179D02*
Y31779D01*
X171266D01*
Y32179D01*
X171666D01*
Y32979D01*
X171266D01*
Y33379D01*
X170466D01*
Y32979D01*
X170066D01*
Y32179D01*
X170466D01*
X183163D02*
Y31779D01*
X183963D01*
Y32179D01*
X184363D01*
Y32979D01*
X183963D01*
Y33379D01*
X183163D01*
Y32979D01*
X182763D01*
Y32179D01*
X183163D01*
X176667D02*
Y31779D01*
X177467D01*
Y32179D01*
X177867D01*
Y32979D01*
X177467D01*
Y33379D01*
X176667D01*
Y32979D01*
X176267D01*
Y32179D01*
X176667D01*
X164167D02*
Y31779D01*
X164967D01*
Y32179D01*
X165367D01*
Y32979D01*
X164967D01*
Y33379D01*
X164167D01*
Y32979D01*
X163767D01*
Y32179D01*
X164167D01*
X147139Y35328D02*
Y34928D01*
X147939D01*
Y35328D01*
X148339D01*
Y36128D01*
X147939D01*
Y36528D01*
X147139D01*
Y36128D01*
X146739D01*
Y35328D01*
X147139D01*
X147435Y45663D02*
Y45263D01*
X148235D01*
Y45663D01*
X148635D01*
Y46463D01*
X148235D01*
Y46863D01*
X147435D01*
Y46463D01*
X147035D01*
Y45663D01*
X147435D01*
X161214Y212494D02*
Y212094D01*
X162014D01*
Y212494D01*
X162414D01*
Y213294D01*
X162014D01*
Y213694D01*
X161214D01*
Y213294D01*
X160814D01*
Y212494D01*
X161214D01*
Y199206D02*
Y198806D01*
X162014D01*
Y199206D01*
X162414D01*
Y200006D01*
X162014D01*
Y200406D01*
X161214D01*
Y200006D01*
X160814D01*
Y199206D01*
X161214D01*
X127750D02*
Y198806D01*
X128550D01*
Y199206D01*
X128950D01*
Y200006D01*
X128550D01*
Y200406D01*
X127750D01*
Y200006D01*
X127350D01*
Y199206D01*
X127750D01*
X74994Y149895D02*
Y149495D01*
X75794D01*
Y149895D01*
X76194D01*
Y150695D01*
X75794D01*
Y151095D01*
X74994D01*
Y150695D01*
X74594D01*
Y149895D01*
X74994D01*
Y153242D02*
Y152842D01*
X75794D01*
Y153242D01*
X76194D01*
Y154042D01*
X75794D01*
Y154442D01*
X74994D01*
Y154042D01*
X74594D01*
Y153242D01*
X74994D01*
X78832D02*
Y152842D01*
X79632D01*
Y153242D01*
X80032D01*
Y154042D01*
X79632D01*
Y154442D01*
X78832D01*
Y154042D01*
X78432D01*
Y153242D01*
X78832D01*
X74994Y146549D02*
Y146149D01*
X75794D01*
Y146549D01*
X76194D01*
Y147349D01*
X75794D01*
Y147749D01*
X74994D01*
Y147349D01*
X74594D01*
Y146549D01*
X74994D01*
Y143202D02*
Y142802D01*
X75794D01*
Y143202D01*
X76194D01*
Y144002D01*
X75794D01*
Y144402D01*
X74994D01*
Y144002D01*
X74594D01*
Y143202D01*
X74994D01*
X78832D02*
Y142802D01*
X79632D01*
Y143202D01*
X80032D01*
Y144002D01*
X79632D01*
Y144402D01*
X78832D01*
Y144002D01*
X78432D01*
Y143202D01*
X78832D01*
Y146549D02*
Y146149D01*
X79632D01*
Y146549D01*
X80032D01*
Y147349D01*
X79632D01*
Y147749D01*
X78832D01*
Y147349D01*
X78432D01*
Y146549D01*
X78832D01*
Y149895D02*
Y149495D01*
X79632D01*
Y149895D01*
X80032D01*
Y150695D01*
X79632D01*
Y151095D01*
X78832D01*
Y150695D01*
X78432D01*
Y149895D01*
X78832D01*
X44876Y33557D02*
Y33157D01*
X45676D01*
Y33557D01*
X46076D01*
Y34357D01*
X45676D01*
Y34757D01*
X44876D01*
Y34357D01*
X44476D01*
Y33557D01*
X44876D01*
Y36706D02*
Y36306D01*
X45676D01*
Y36706D01*
X46076D01*
Y37506D01*
X45676D01*
Y37906D01*
X44876D01*
Y37506D01*
X44476D01*
Y36706D01*
X44876D01*
X41037D02*
Y36306D01*
X41837D01*
Y36706D01*
X42237D01*
Y37506D01*
X41837D01*
Y37906D01*
X41037D01*
Y37506D01*
X40637D01*
Y36706D01*
X41037D01*
Y33557D02*
Y33157D01*
X41837D01*
Y33557D01*
X42237D01*
Y34357D01*
X41837D01*
Y34757D01*
X41037D01*
Y34357D01*
X40637D01*
Y33557D01*
X41037D01*
Y20171D02*
Y19771D01*
X41837D01*
Y20171D01*
X42237D01*
Y20971D01*
X41837D01*
Y21371D01*
X41037D01*
Y20971D01*
X40637D01*
Y20171D01*
X41037D01*
Y23321D02*
Y22920D01*
X41837D01*
Y23321D01*
X42237D01*
Y24121D01*
X41837D01*
Y24521D01*
X41037D01*
Y24121D01*
X40637D01*
Y23321D01*
X41037D01*
Y30112D02*
Y29712D01*
X41837D01*
Y30112D01*
X42237D01*
Y30912D01*
X41837D01*
Y31312D01*
X41037D01*
Y30912D01*
X40637D01*
Y30112D01*
X41037D01*
X44876Y23321D02*
Y22920D01*
X45676D01*
Y23321D01*
X46076D01*
Y24121D01*
X45676D01*
Y24521D01*
X44876D01*
Y24121D01*
X44476D01*
Y23321D01*
X44876D01*
Y30309D02*
Y29909D01*
X45676D01*
Y30309D01*
X46076D01*
Y31109D01*
X45676D01*
Y31509D01*
X44876D01*
Y31109D01*
X44476D01*
Y30309D01*
X44876D01*
Y26765D02*
Y26365D01*
X45676D01*
Y26765D01*
X46076D01*
Y27565D01*
X45676D01*
Y27965D01*
X44876D01*
Y27565D01*
X44476D01*
Y26765D01*
X44876D01*
X41037D02*
Y26365D01*
X41837D01*
Y26765D01*
X42237D01*
Y27565D01*
X41837D01*
Y27965D01*
X41037D01*
Y27565D01*
X40637D01*
Y26765D01*
X41037D01*
X44876Y20171D02*
Y19771D01*
X45676D01*
Y20171D01*
X46076D01*
Y20971D01*
X45676D01*
Y21371D01*
X44876D01*
Y20971D01*
X44476D01*
Y20171D01*
X44876D01*
X131287Y177428D02*
X132087Y178228D01*
X132887Y177428D01*
X132087Y176628D01*
X131287Y177428D01*
Y167717D02*
X132087Y168517D01*
X132887Y167717D01*
X132087Y166917D01*
X131287Y167717D01*
Y182283D02*
X132087Y183083D01*
X132887Y182283D01*
X132087Y181483D01*
X131287Y182283D01*
Y172572D02*
X132087Y173372D01*
X132887Y172572D01*
X132087Y171772D01*
X131287Y172572D01*
Y186811D02*
X132087Y187611D01*
X132887Y186811D01*
X132087Y186011D01*
X131287Y186811D01*
X156582Y167520D02*
X157382Y168320D01*
X158182Y167520D01*
X157382Y166720D01*
X156582Y167520D01*
Y172441D02*
X157382Y173241D01*
X158182Y172441D01*
X157382Y171641D01*
X156582Y172441D01*
Y177362D02*
X157382Y178162D01*
X158182Y177362D01*
X157382Y176562D01*
X156582Y177362D01*
Y182283D02*
X157382Y183083D01*
X158182Y182283D01*
X157382Y181483D01*
X156582Y182283D01*
X143491Y108760D02*
X144291Y109560D01*
X145091Y108760D01*
X144291Y107960D01*
X143491Y108760D01*
X149889Y112106D02*
X150689Y112906D01*
X151489Y112106D01*
X150689Y111306D01*
X149889Y112106D01*
Y108760D02*
X150689Y109560D01*
X151489Y108760D01*
X150689Y107960D01*
X149889Y108760D01*
Y115453D02*
X150689Y116253D01*
X151489Y115453D01*
X150689Y114653D01*
X149889Y115453D01*
X143491D02*
X144291Y116253D01*
X145091Y115453D01*
X144291Y114653D01*
X143491Y115453D01*
X146690Y108760D02*
X147490Y109560D01*
X148290Y108760D01*
X147490Y107960D01*
X146690Y108760D01*
Y115453D02*
X147490Y116253D01*
X148290Y115453D01*
X147490Y114653D01*
X146690Y115453D01*
Y112106D02*
X147490Y112906D01*
X148290Y112106D01*
X147490Y111306D01*
X146690Y112106D01*
X143491D02*
X144291Y112906D01*
X145091Y112106D01*
X144291Y111306D01*
X143491Y112106D01*
X138078Y164764D02*
X138878Y165564D01*
X139678Y164764D01*
X138878Y163964D01*
X138078Y164764D01*
X140539Y167618D02*
X141339Y168418D01*
X142139Y167618D01*
X141339Y166818D01*
X140539Y167618D01*
X167409Y104626D02*
X168209Y105426D01*
X169009Y104626D01*
X168209Y103826D01*
X167409Y104626D01*
X171739D02*
X172539Y105426D01*
X173339Y104626D01*
X172539Y103826D01*
X171739Y104626D01*
X172336Y126372D02*
Y125972D01*
X173136D01*
Y126372D01*
X173536D01*
Y127172D01*
X173136D01*
Y127572D01*
X172336D01*
Y127172D01*
X171936D01*
Y126372D01*
X172336D01*
X162887Y108655D02*
Y108255D01*
X163687D01*
Y108655D01*
X164087D01*
Y109455D01*
X163687D01*
Y109855D01*
X162887D01*
Y109455D01*
X162487D01*
Y108655D01*
X162887D01*
X161706Y130112D02*
Y129712D01*
X162506D01*
Y130112D01*
X162906D01*
Y130912D01*
X162506D01*
Y131312D01*
X161706D01*
Y130912D01*
X161306D01*
Y130112D01*
X161706D01*
X151470Y169088D02*
Y168688D01*
X152270D01*
Y169088D01*
X152670D01*
Y169888D01*
X152270D01*
Y170288D01*
X151470D01*
Y169888D01*
X151070D01*
Y169088D01*
X151470D01*
X116234Y98321D02*
Y97921D01*
X117034D01*
Y98321D01*
X117434D01*
Y99120D01*
X117034D01*
Y99520D01*
X116234D01*
Y99120D01*
X115834D01*
Y98321D01*
X116234D01*
X119777D02*
Y97921D01*
X120577D01*
Y98321D01*
X120977D01*
Y99120D01*
X120577D01*
Y99520D01*
X119777D01*
Y99120D01*
X119377D01*
Y98321D01*
X119777D01*
X123419D02*
Y97921D01*
X124219D01*
Y98321D01*
X124619D01*
Y99120D01*
X124219D01*
Y99520D01*
X123419D01*
Y99120D01*
X123019D01*
Y98321D01*
X123419D01*
X134246Y133163D02*
Y132763D01*
X135046D01*
Y133163D01*
X135446D01*
Y133963D01*
X135046D01*
Y134363D01*
X134246D01*
Y133963D01*
X133846D01*
Y133163D01*
X134246D01*
X129915D02*
Y132763D01*
X130715D01*
Y133163D01*
X131115D01*
Y133963D01*
X130715D01*
Y134363D01*
X129915D01*
Y133963D01*
X129515D01*
Y133163D01*
X129915D01*
X125486D02*
Y132763D01*
X126286D01*
Y133163D01*
X126686D01*
Y133963D01*
X126286D01*
Y134363D01*
X125486D01*
Y133963D01*
X125086D01*
Y133163D01*
X125486D01*
X122041D02*
Y132763D01*
X122841D01*
Y133163D01*
X123241D01*
Y133963D01*
X122841D01*
Y134363D01*
X122041D01*
Y133963D01*
X121641D01*
Y133163D01*
X122041D01*
X138576D02*
Y132763D01*
X139376D01*
Y133163D01*
X139776D01*
Y133963D01*
X139376D01*
Y134363D01*
X138576D01*
Y133963D01*
X138176D01*
Y133163D01*
X138576D01*
X132769Y162198D02*
Y161798D01*
X133569D01*
Y162198D01*
X133969D01*
Y162998D01*
X133569D01*
Y163398D01*
X132769D01*
Y162998D01*
X132369D01*
Y162198D01*
X132769D01*
X123911Y162395D02*
Y161995D01*
X124711D01*
Y162395D01*
X125111D01*
Y163195D01*
X124711D01*
Y163595D01*
X123911D01*
Y163195D01*
X123511D01*
Y162395D01*
X123911D01*
X119679D02*
Y161995D01*
X120479D01*
Y162395D01*
X120879D01*
Y163195D01*
X120479D01*
Y163595D01*
X119679D01*
Y163195D01*
X119279D01*
Y162395D01*
X119679D01*
X142999Y149705D02*
X143799Y150505D01*
X144599Y149705D01*
X143799Y148905D01*
X142999Y149705D01*
X161805Y125880D02*
Y125479D01*
X162605D01*
Y125880D01*
X163005D01*
Y126680D01*
X162605D01*
Y127079D01*
X161805D01*
Y126680D01*
X161405D01*
Y125880D01*
X161805D01*
X115545Y118990D02*
Y118590D01*
X116345D01*
Y118990D01*
X116745D01*
Y119790D01*
X116345D01*
Y120190D01*
X115545D01*
Y119790D01*
X115145D01*
Y118990D01*
X115545D01*
X163078Y104626D02*
X163878Y105426D01*
X164678Y104626D01*
X163878Y103826D01*
X163078Y104626D01*
X111608Y126372D02*
Y125972D01*
X112408D01*
Y126372D01*
X112808D01*
Y127172D01*
X112408D01*
Y127572D01*
X111608D01*
Y127172D01*
X111208D01*
Y126372D01*
X111608D01*
Y129816D02*
Y129417D01*
X112408D01*
Y129816D01*
X112808D01*
Y130616D01*
X112408D01*
Y131017D01*
X111608D01*
Y130616D01*
X111208D01*
Y129816D01*
X111608D01*
X122041D02*
Y129417D01*
X122841D01*
Y129816D01*
X123241D01*
Y130616D01*
X122841D01*
Y131017D01*
X122041D01*
Y130616D01*
X121641D01*
Y129816D01*
X122041D01*
X126864Y120565D02*
Y120165D01*
X127664D01*
Y120565D01*
X128064D01*
Y121365D01*
X127664D01*
Y121765D01*
X126864D01*
Y121365D01*
X126464D01*
Y120565D01*
X126864D01*
X170466Y90447D02*
Y90047D01*
X171266D01*
Y90447D01*
X171666D01*
Y91246D01*
X171266D01*
Y91646D01*
X170466D01*
Y91246D01*
X170066D01*
Y90447D01*
X170466D01*
Y87002D02*
Y86602D01*
X171266D01*
Y87002D01*
X171666D01*
Y87802D01*
X171266D01*
Y88202D01*
X170466D01*
Y87802D01*
X170066D01*
Y87002D01*
X170466D01*
X174009D02*
Y86602D01*
X174809D01*
Y87002D01*
X175209D01*
Y87802D01*
X174809D01*
Y88202D01*
X174009D01*
Y87802D01*
X173609D01*
Y87002D01*
X174009D01*
X177258D02*
Y86602D01*
X178058D01*
Y87002D01*
X178457D01*
Y87802D01*
X178058D01*
Y88202D01*
X177258D01*
Y87802D01*
X176857D01*
Y87002D01*
X177258D01*
Y90643D02*
Y90243D01*
X178058D01*
Y90643D01*
X178457D01*
Y91443D01*
X178058D01*
Y91843D01*
X177258D01*
Y91443D01*
X176857D01*
Y90643D01*
X177258D01*
X178045Y101175D02*
Y100775D01*
X178845D01*
Y101175D01*
X179245D01*
Y101975D01*
X178845D01*
Y102375D01*
X178045D01*
Y101975D01*
X177645D01*
Y101175D01*
X178045D01*
X177848Y104423D02*
Y104023D01*
X178648D01*
Y104423D01*
X179048D01*
Y105223D01*
X178648D01*
Y105623D01*
X177848D01*
Y105223D01*
X177448D01*
Y104423D01*
X177848D01*
X119279Y140243D02*
X119679D01*
X120079Y140643D01*
X120479Y140243D01*
X120879D01*
Y140643D01*
X120479Y141043D01*
X120879Y141443D01*
Y141843D01*
X120479D01*
X120079Y141443D01*
X119679Y141843D01*
X119279D01*
Y141443D01*
X119679Y141043D01*
X119279Y140643D01*
Y140243D01*
X120657Y205499D02*
X121057D01*
X121457Y205899D01*
X121857Y205499D01*
X122257D01*
Y205899D01*
X121857Y206299D01*
X122257Y206699D01*
Y207099D01*
X121857D01*
X121457Y206699D01*
X121057Y207099D01*
X120657D01*
Y206699D01*
X121057Y206299D01*
X120657Y205899D01*
Y205499D01*
X176169Y139665D02*
X176969Y140465D01*
X177769Y139665D01*
X176969Y138865D01*
X176169Y139665D01*
X177743Y136614D02*
X178543Y137414D01*
X179343Y136614D01*
X178543Y135814D01*
X177743Y136614D01*
X137297Y96943D02*
Y96543D01*
X138097D01*
Y96943D01*
X138497D01*
Y97742D01*
X138097D01*
Y98142D01*
X137297D01*
Y97742D01*
X136897D01*
Y96943D01*
X137297D01*
X142316D02*
Y96543D01*
X143116D01*
Y96943D01*
X143517D01*
Y97742D01*
X143116D01*
Y98142D01*
X142316D01*
Y97742D01*
X141917D01*
Y96943D01*
X142316D01*
X146352D02*
Y96543D01*
X147152D01*
Y96943D01*
X147552D01*
Y97742D01*
X147152D01*
Y98142D01*
X146352D01*
Y97742D01*
X145952D01*
Y96943D01*
X146352D01*
X150486D02*
Y96543D01*
X151286D01*
Y96943D01*
X151686D01*
Y97742D01*
X151286D01*
Y98142D01*
X150486D01*
Y97742D01*
X150086D01*
Y96943D01*
X150486D01*
X153432Y165945D02*
X154232Y166745D01*
X155032Y165945D01*
X154232Y165145D01*
X153432Y165945D01*
X167310Y145079D02*
X168110Y145879D01*
X168910Y145079D01*
X168110Y144279D01*
X167310Y145079D01*
X142802Y128051D02*
X143602Y128851D01*
X144402Y128051D01*
X143602Y127251D01*
X142802Y128051D01*
X133655Y100289D02*
Y99889D01*
X134455D01*
Y100289D01*
X134855D01*
Y101089D01*
X134455D01*
Y101489D01*
X133655D01*
Y101089D01*
X133255D01*
Y100289D01*
X133655D01*
X173616Y48813D02*
Y48413D01*
X174416D01*
Y48813D01*
X174816D01*
Y49613D01*
X174416D01*
Y50013D01*
X173616D01*
Y49613D01*
X173216D01*
Y48813D01*
X173616D01*
X181490D02*
Y48413D01*
X182290D01*
Y48813D01*
X182690D01*
Y49613D01*
X182290D01*
Y50013D01*
X181490D01*
Y49613D01*
X181090D01*
Y48813D01*
X181490D01*
X158852Y92710D02*
Y92310D01*
X159652D01*
Y92710D01*
X160052D01*
Y93510D01*
X159652D01*
Y93910D01*
X158852D01*
Y93510D01*
X158452D01*
Y92710D01*
X158852D01*
X115840Y129816D02*
Y129417D01*
X116640D01*
Y129816D01*
X117040D01*
Y130616D01*
X116640D01*
Y131017D01*
X115840D01*
Y130616D01*
X115440D01*
Y129816D01*
X115840D01*
X140243Y149705D02*
X141043Y150505D01*
X141843Y149705D01*
X141043Y148905D01*
X140243Y149705D01*
X138078Y152362D02*
X138878Y153162D01*
X139678Y152362D01*
X138878Y151562D01*
X138078Y152362D01*
X115643Y159836D02*
Y159436D01*
X116443D01*
Y159836D01*
X116843D01*
Y160636D01*
X116443D01*
Y161036D01*
X115643D01*
Y160636D01*
X115243D01*
Y159836D01*
X115643D01*
X128242Y162297D02*
Y161897D01*
X129042D01*
Y162297D01*
X129442D01*
Y163097D01*
X129042D01*
Y163497D01*
X128242D01*
Y163097D01*
X127842D01*
Y162297D01*
X128242D01*
X123320Y101864D02*
Y101464D01*
X124120D01*
Y101864D01*
X124521D01*
Y102664D01*
X124120D01*
Y103064D01*
X123320D01*
Y102664D01*
X122921D01*
Y101864D01*
X123320D01*
X116234D02*
Y101464D01*
X117034D01*
Y101864D01*
X117434D01*
Y102664D01*
X117034D01*
Y103064D01*
X116234D01*
Y102664D01*
X115834D01*
Y101864D01*
X116234D01*
X115545Y115643D02*
Y115243D01*
X116345D01*
Y115643D01*
X116745D01*
Y116443D01*
X116345D01*
Y116843D01*
X115545D01*
Y116443D01*
X115145D01*
Y115643D01*
X115545D01*
X123124Y118990D02*
Y118590D01*
X123924D01*
Y118990D01*
X124324D01*
Y119790D01*
X123924D01*
Y120190D01*
X123124D01*
Y119790D01*
X122724D01*
Y118990D01*
X123124D01*
X130302Y116240D02*
X131102Y117040D01*
X131902Y116240D01*
X131102Y115440D01*
X130302Y116240D01*
X125972D02*
X126772Y117040D01*
X127572Y116240D01*
X126772Y115440D01*
X125972Y116240D01*
X121641D02*
X122441Y117040D01*
X123241Y116240D01*
X122441Y115440D01*
X121641Y116240D01*
X119630Y118990D02*
Y118590D01*
X120430D01*
Y118990D01*
X120829D01*
Y119790D01*
X120430D01*
Y120190D01*
X119630D01*
Y119790D01*
X119229D01*
Y118990D01*
X119630D01*
X162881Y68799D02*
X163681Y69599D01*
X164481Y68799D01*
X163681Y67999D01*
X162881Y68799D01*
X157608D02*
X158408Y69599D01*
X159208Y68799D01*
X158408Y67999D01*
X157608Y68799D01*
X152336D02*
X153136Y69599D01*
X153936Y68799D01*
X153136Y67999D01*
X152336Y68799D01*
X147063D02*
X147863Y69599D01*
X148663Y68799D01*
X147863Y67999D01*
X147063Y68799D01*
X141790D02*
X142590Y69599D01*
X143390Y68799D01*
X142590Y67999D01*
X141790Y68799D01*
X136517D02*
X137317Y69599D01*
X138117Y68799D01*
X137317Y67999D01*
X136517Y68799D01*
X131244D02*
X132044Y69599D01*
X132844Y68799D01*
X132044Y67999D01*
X131244Y68799D01*
X156582Y186811D02*
X157382Y187611D01*
X158182Y186811D01*
X157382Y186011D01*
X156582Y186811D01*
X162717Y186811D02*
X163517Y187611D01*
X164317Y186811D01*
X163517Y186011D01*
X162717Y186811D01*
X173314D02*
X174114Y187611D01*
X174914Y186811D01*
X174114Y186011D01*
X173314Y186811D01*
X114751D02*
X115551Y187611D01*
X116351Y186811D01*
X115551Y186011D01*
X114751Y186811D01*
X183452Y213287D02*
X184252Y214087D01*
X185052Y213287D01*
X184252Y212487D01*
X183452Y213287D01*
Y208117D02*
X184252Y208917D01*
X185052Y208117D01*
X184252Y207317D01*
X183452Y208117D01*
Y202946D02*
X184252Y203746D01*
X185052Y202946D01*
X184252Y202146D01*
X183452Y202946D01*
Y197776D02*
X184252Y198576D01*
X185052Y197776D01*
X184252Y196976D01*
X183452Y197776D01*
Y192605D02*
X184252Y193405D01*
X185052Y192605D01*
X184252Y191805D01*
X183452Y192605D01*
X104712Y212697D02*
X105512Y213497D01*
X106312Y212697D01*
X105512Y211897D01*
X104712Y212697D01*
Y207526D02*
X105512Y208326D01*
X106312Y207526D01*
X105512Y206726D01*
X104712Y207526D01*
Y197185D02*
X105512Y197985D01*
X106312Y197185D01*
X105512Y196385D01*
X104712Y197185D01*
Y202356D02*
X105512Y203156D01*
X106312Y202356D01*
X105512Y201556D01*
X104712Y202356D01*
Y192014D02*
X105512Y192814D01*
X106312Y192014D01*
X105512Y191214D01*
X104712Y192014D01*
X183452Y176969D02*
X184252Y177769D01*
X185052Y176969D01*
X184252Y176169D01*
X183452Y176969D01*
Y168052D02*
X184252Y168852D01*
X185052Y168052D01*
X184252Y167252D01*
X183452Y168052D01*
Y159136D02*
X184252Y159936D01*
X185052Y159136D01*
X184252Y158336D01*
X183452Y159136D01*
Y150220D02*
X184252Y151020D01*
X185052Y150220D01*
X184252Y149420D01*
X183452Y150220D01*
Y141304D02*
X184252Y142104D01*
X185052Y141304D01*
X184252Y140504D01*
X183452Y141304D01*
Y132387D02*
X184252Y133187D01*
X185052Y132387D01*
X184252Y131587D01*
X183452Y132387D01*
Y123471D02*
X184252Y124271D01*
X185052Y123471D01*
X184252Y122671D01*
X183452Y123471D01*
Y114555D02*
X184252Y115355D01*
X185052Y114555D01*
X184252Y113755D01*
X183452Y114555D01*
Y105639D02*
X184252Y106439D01*
X185052Y105639D01*
X184252Y104839D01*
X183452Y105639D01*
Y96722D02*
X184252Y97522D01*
X185052Y96722D01*
X184252Y95922D01*
X183452Y96722D01*
Y87806D02*
X184252Y88606D01*
X185052Y87806D01*
X184252Y87006D01*
X183452Y87806D01*
Y78890D02*
X184252Y79690D01*
X185052Y78890D01*
X184252Y78090D01*
X183452Y78890D01*
X114653Y68799D02*
X115453Y69599D01*
X116253Y68799D01*
X115453Y67999D01*
X114653Y68799D01*
X125611Y186811D02*
X126411Y187611D01*
X127211Y186811D01*
X126411Y186011D01*
X125611Y186811D01*
X125972Y68799D02*
X126772Y69599D01*
X127572Y68799D01*
X126772Y67999D01*
X125972Y68799D01*
X173413D02*
X174213Y69599D01*
X175013Y68799D01*
X174213Y67999D01*
X173413Y68799D01*
X104712Y78584D02*
X105512Y79384D01*
X106312Y78584D01*
X105512Y77784D01*
X104712Y78584D01*
Y87500D02*
X105512Y88300D01*
X106312Y87500D01*
X105512Y86700D01*
X104712Y87500D01*
Y96416D02*
X105512Y97216D01*
X106312Y96416D01*
X105512Y95616D01*
X104712Y96416D01*
Y105333D02*
X105512Y106132D01*
X106312Y105333D01*
X105512Y104533D01*
X104712Y105333D01*
Y114249D02*
X105512Y115049D01*
X106312Y114249D01*
X105512Y113449D01*
X104712Y114249D01*
Y123165D02*
X105512Y123965D01*
X106312Y123165D01*
X105512Y122365D01*
X104712Y123165D01*
Y132081D02*
X105512Y132881D01*
X106312Y132081D01*
X105512Y131281D01*
X104712Y132081D01*
Y140997D02*
X105512Y141797D01*
X106312Y140997D01*
X105512Y140197D01*
X104712Y140997D01*
Y149914D02*
X105512Y150714D01*
X106312Y149914D01*
X105512Y149114D01*
X104712Y149914D01*
Y158830D02*
X105512Y159630D01*
X106312Y158830D01*
X105512Y158030D01*
X104712Y158830D01*
Y167746D02*
X105512Y168546D01*
X106312Y167746D01*
X105512Y166946D01*
X104712Y167746D01*
Y176662D02*
X105512Y177462D01*
X106312Y176662D01*
X105512Y175862D01*
X104712Y176662D01*
D107*
X87414Y121417D02*
X86861Y122178D01*
X85967Y121888D01*
Y120947D01*
X86861Y120657D01*
X87414Y121417D01*
Y131417D02*
X86861Y132178D01*
X85967Y131888D01*
Y130947D01*
X86861Y130657D01*
X87414Y131417D01*
Y141417D02*
X86861Y142178D01*
X85967Y141888D01*
Y140947D01*
X86861Y140656D01*
X87414Y141417D01*
Y101417D02*
X86861Y102178D01*
X85967Y101888D01*
Y100947D01*
X86861Y100656D01*
X87414Y101417D01*
Y111417D02*
X86861Y112178D01*
X85967Y111888D01*
Y110947D01*
X86861Y110656D01*
X87414Y111417D01*
Y151417D02*
X86861Y152178D01*
X85967Y151888D01*
Y150947D01*
X86861Y150656D01*
X87414Y151417D01*
Y161417D02*
X86861Y162178D01*
X85967Y161888D01*
Y160947D01*
X86861Y160656D01*
X87414Y161417D01*
X24422Y29134D02*
X23869Y29895D01*
X22975Y29604D01*
Y28664D01*
X23869Y28373D01*
X24422Y29134D01*
X36233D02*
X35680Y29895D01*
X34786Y29604D01*
Y28664D01*
X35680Y28373D01*
X36233Y29134D01*
M02*
