G04*
G04 #@! TF.GenerationSoftware,Altium Limited,Altium Designer,22.1.2 (22)*
G04*
G04 Layer_Physical_Order=1*
G04 Layer_Color=255*
%FSLAX25Y25*%
%MOIN*%
G70*
G04*
G04 #@! TF.SameCoordinates,36DEEAF7-B38F-4887-853D-DC1A27ABF5B6*
G04*
G04*
G04 #@! TF.FilePolarity,Positive*
G04*
G01*
G75*
%ADD10C,0.00787*%
%ADD49R,0.05984X0.20000*%
%ADD50R,0.02756X0.03150*%
%ADD51R,0.01181X0.02559*%
%ADD52R,0.10236X0.10236*%
%ADD53R,0.02362X0.02756*%
%ADD54R,0.01575X0.01890*%
%ADD55O,0.03543X0.00984*%
%ADD56O,0.00984X0.03543*%
%ADD57R,0.02677X0.02520*%
%ADD58R,0.02520X0.02677*%
%ADD59R,0.02362X0.02657*%
G04:AMPARAMS|DCode=60|XSize=39.37mil|YSize=31.5mil|CornerRadius=2.36mil|HoleSize=0mil|Usage=FLASHONLY|Rotation=0.000|XOffset=0mil|YOffset=0mil|HoleType=Round|Shape=RoundedRectangle|*
%AMROUNDEDRECTD60*
21,1,0.03937,0.02677,0,0,0.0*
21,1,0.03465,0.03150,0,0,0.0*
1,1,0.00472,0.01732,-0.01339*
1,1,0.00472,-0.01732,-0.01339*
1,1,0.00472,-0.01732,0.01339*
1,1,0.00472,0.01732,0.01339*
%
%ADD60ROUNDEDRECTD60*%
G04:AMPARAMS|DCode=61|XSize=39.37mil|YSize=31.5mil|CornerRadius=2.36mil|HoleSize=0mil|Usage=FLASHONLY|Rotation=270.000|XOffset=0mil|YOffset=0mil|HoleType=Round|Shape=RoundedRectangle|*
%AMROUNDEDRECTD61*
21,1,0.03937,0.02677,0,0,270.0*
21,1,0.03465,0.03150,0,0,270.0*
1,1,0.00472,-0.01339,-0.01732*
1,1,0.00472,-0.01339,0.01732*
1,1,0.00472,0.01339,0.01732*
1,1,0.00472,0.01339,-0.01732*
%
%ADD61ROUNDEDRECTD61*%
%ADD62R,0.01968X0.01968*%
%ADD63R,0.01968X0.01968*%
%ADD64R,0.02165X0.02165*%
%ADD65O,0.00984X0.03150*%
%ADD66O,0.03150X0.00984*%
%ADD67R,0.06693X0.06693*%
%ADD68R,0.02657X0.02362*%
%ADD69R,0.02165X0.02362*%
%ADD70R,0.02736X0.01654*%
%ADD71R,0.02165X0.00984*%
%ADD72R,0.02165X0.02165*%
%ADD73R,0.03937X0.04724*%
%ADD74C,0.01323*%
%ADD75C,0.02756*%
%ADD76C,0.01968*%
%ADD77C,0.00394*%
%ADD78C,0.02362*%
%ADD79C,0.00896*%
%ADD80C,0.01181*%
%ADD81C,0.06000*%
%ADD82C,0.05984*%
%ADD83C,0.04882*%
%ADD84R,0.04882X0.04882*%
%ADD85C,0.23622*%
%ADD86C,0.06024*%
%ADD87R,0.06024X0.06024*%
%ADD88C,0.02362*%
%ADD89C,0.03150*%
%ADD90C,0.01772*%
G36*
X146205Y196618D02*
X146205D01*
X146080Y196605D01*
X145967Y196565D01*
X145868Y196498D01*
X145782Y196405D01*
X145709Y196285D01*
X145650Y196138D01*
X145603Y195964D01*
X145570Y195764D01*
X145550Y195537D01*
X145544Y195283D01*
X144220D01*
X144214Y195537D01*
X144194Y195764D01*
X144161Y195964D01*
X144114Y196138D01*
X144055Y196285D01*
X143982Y196405D01*
X143896Y196498D01*
X143797Y196565D01*
X143684Y196605D01*
X143559Y196618D01*
X143559D01*
X143559Y196618D01*
X146205D01*
X146205Y196618D01*
D02*
G37*
G36*
X149550Y177520D02*
X149464Y177602D01*
X149375Y177676D01*
X149284Y177741D01*
X149190Y177797D01*
X149093Y177845D01*
X148994Y177884D01*
X148892Y177914D01*
X148839Y177925D01*
X148793Y177917D01*
X148689Y177890D01*
X148601Y177854D01*
X148529Y177811D01*
X148473Y177760D01*
X148433Y177701D01*
X148409Y177634D01*
X148401Y177559D01*
Y179134D01*
X148409Y179059D01*
X148433Y178992D01*
X148473Y178933D01*
X148529Y178882D01*
X148601Y178839D01*
X148689Y178803D01*
X148793Y178776D01*
X148839Y178768D01*
X148892Y178779D01*
X148994Y178809D01*
X149093Y178848D01*
X149190Y178896D01*
X149284Y178952D01*
X149375Y179017D01*
X149464Y179091D01*
X149550Y179173D01*
Y177520D01*
D02*
G37*
G36*
X145681Y177559D02*
X145673Y177634D01*
X145650Y177701D01*
X145610Y177760D01*
X145555Y177811D01*
X145484Y177854D01*
X145398Y177890D01*
X145296Y177917D01*
X145177Y177937D01*
X145044Y177949D01*
X144894Y177953D01*
Y178740D01*
X145044Y178744D01*
X145177Y178756D01*
X145296Y178776D01*
X145398Y178803D01*
X145484Y178839D01*
X145555Y178882D01*
X145610Y178933D01*
X145650Y178992D01*
X145673Y179059D01*
X145681Y179134D01*
Y177559D01*
D02*
G37*
G36*
X144079Y179059D02*
X144103Y178992D01*
X144142Y178933D01*
X144198Y178882D01*
X144270Y178839D01*
X144358Y178803D01*
X144462Y178776D01*
X144582Y178756D01*
X144718Y178744D01*
X144870Y178740D01*
Y177953D01*
X144718Y177949D01*
X144582Y177937D01*
X144462Y177917D01*
X144358Y177890D01*
X144270Y177854D01*
X144198Y177811D01*
X144142Y177760D01*
X144103Y177701D01*
X144079Y177634D01*
X144070Y177559D01*
Y179134D01*
X144079Y179059D01*
D02*
G37*
G36*
X140300Y179091D02*
X140389Y179017D01*
X140480Y178952D01*
X140574Y178896D01*
X140671Y178848D01*
X140770Y178809D01*
X140871Y178779D01*
X140922Y178769D01*
X140965Y178776D01*
X141067Y178803D01*
X141154Y178839D01*
X141225Y178882D01*
X141280Y178933D01*
X141319Y178992D01*
X141343Y179059D01*
X141351Y179134D01*
Y177559D01*
X141343Y177634D01*
X141319Y177701D01*
X141280Y177760D01*
X141225Y177811D01*
X141154Y177854D01*
X141067Y177890D01*
X140965Y177917D01*
X140922Y177924D01*
X140871Y177914D01*
X140770Y177884D01*
X140671Y177845D01*
X140574Y177797D01*
X140480Y177741D01*
X140389Y177676D01*
X140300Y177602D01*
X140214Y177520D01*
Y179173D01*
X140300Y179091D01*
D02*
G37*
G36*
X145812D02*
X145900Y179017D01*
X145992Y178952D01*
X146086Y178896D01*
X146182Y178848D01*
X146282Y178809D01*
X146383Y178779D01*
X146488Y178758D01*
X146595Y178744D01*
X146704Y178740D01*
Y177953D01*
X146595Y177948D01*
X146488Y177935D01*
X146383Y177914D01*
X146282Y177884D01*
X146182Y177845D01*
X146086Y177797D01*
X145992Y177741D01*
X145900Y177676D01*
X145812Y177602D01*
X145725Y177520D01*
Y179173D01*
X145812Y179091D01*
D02*
G37*
G36*
X144038Y177520D02*
X143952Y177602D01*
X143863Y177676D01*
X143772Y177741D01*
X143678Y177797D01*
X143581Y177845D01*
X143482Y177884D01*
X143380Y177914D01*
X143276Y177935D01*
X143169Y177948D01*
X143060Y177953D01*
Y178740D01*
X143169Y178744D01*
X143276Y178758D01*
X143380Y178779D01*
X143482Y178809D01*
X143581Y178848D01*
X143678Y178896D01*
X143772Y178952D01*
X143863Y179017D01*
X143952Y179091D01*
X144038Y179173D01*
Y177520D01*
D02*
G37*
G36*
X145550Y171808D02*
X145568Y171583D01*
X145598Y171385D01*
X145641Y171212D01*
X145695Y171067D01*
X145762Y170948D01*
X145841Y170855D01*
X145931Y170789D01*
X146034Y170749D01*
X146149Y170736D01*
X143559Y170724D01*
X143684Y170738D01*
X143797Y170778D01*
X143896Y170845D01*
X143982Y170939D01*
X144055Y171059D01*
X144114Y171206D01*
X144161Y171380D01*
X144194Y171580D01*
X144214Y171806D01*
X144220Y172059D01*
X145544D01*
X145550Y171808D01*
D02*
G37*
G36*
X151027Y168661D02*
X150940Y168744D01*
X150852Y168817D01*
X150760Y168882D01*
X150666Y168939D01*
X150570Y168986D01*
X150470Y169025D01*
X150369Y169055D01*
X150264Y169077D01*
X150195Y169086D01*
X150118Y169079D01*
X150000Y169059D01*
X149898Y169032D01*
X149811Y168996D01*
X149740Y168953D01*
X149685Y168902D01*
X149645Y168842D01*
X149622Y168776D01*
X149614Y168701D01*
Y170276D01*
X149622Y170201D01*
X149645Y170134D01*
X149685Y170075D01*
X149740Y170024D01*
X149811Y169980D01*
X149898Y169945D01*
X150000Y169917D01*
X150118Y169898D01*
X150195Y169891D01*
X150264Y169899D01*
X150369Y169921D01*
X150470Y169951D01*
X150570Y169990D01*
X150666Y170038D01*
X150760Y170094D01*
X150852Y170159D01*
X150940Y170233D01*
X151027Y170315D01*
Y168661D01*
D02*
G37*
G36*
X148902Y168244D02*
X148835Y168220D01*
X148776Y168180D01*
X148724Y168124D01*
X148681Y168052D01*
X148646Y167965D01*
X148618Y167861D01*
X148598Y167741D01*
X148587Y167605D01*
X148583Y167453D01*
X147795D01*
X147791Y167605D01*
X147780Y167741D01*
X147760Y167861D01*
X147732Y167965D01*
X147697Y168052D01*
X147653Y168124D01*
X147602Y168180D01*
X147543Y168220D01*
X147476Y168244D01*
X147402Y168252D01*
X148976D01*
X148902Y168244D01*
D02*
G37*
G36*
X145981Y168238D02*
X145869Y168198D01*
X145769Y168131D01*
X145683Y168037D01*
X145611Y167917D01*
X145551Y167770D01*
X145505Y167597D01*
X145472Y167397D01*
X145452Y167170D01*
X145445Y166917D01*
X144122D01*
X144115Y167168D01*
X144097Y167393D01*
X144065Y167592D01*
X144022Y167764D01*
X143965Y167910D01*
X143897Y168029D01*
X143815Y168121D01*
X143721Y168187D01*
X143615Y168227D01*
X143496Y168240D01*
X146107Y168252D01*
X145981Y168238D01*
D02*
G37*
G36*
X147798Y165844D02*
X147653Y165693D01*
X147421Y165417D01*
X147334Y165293D01*
X147268Y165177D01*
X147221Y165070D01*
X147193Y164972D01*
X147186Y164883D01*
X147198Y164802D01*
X147230Y164730D01*
X146565Y165807D01*
X146590Y165816D01*
X146624Y165836D01*
X146668Y165867D01*
X146781Y165961D01*
X147020Y166183D01*
X147225Y166384D01*
X147798Y165844D01*
D02*
G37*
G36*
X154809Y165265D02*
X154771Y165214D01*
X154737Y165157D01*
X154708Y165095D01*
X154683Y165028D01*
X154662Y164956D01*
X154646Y164880D01*
X154635Y164798D01*
X154629Y164725D01*
X154630Y164701D01*
X154642Y164567D01*
X154661Y164449D01*
X154689Y164346D01*
X154724Y164260D01*
X154768Y164189D01*
X154819Y164134D01*
X154878Y164094D01*
X154945Y164071D01*
X155020Y164063D01*
X153445D01*
X153520Y164071D01*
X153587Y164094D01*
X153646Y164134D01*
X153697Y164189D01*
X153740Y164260D01*
X153776Y164346D01*
X153803Y164449D01*
X153823Y164567D01*
X153835Y164701D01*
X153835Y164725D01*
X153830Y164798D01*
X153818Y164880D01*
X153802Y164956D01*
X153782Y165028D01*
X153757Y165095D01*
X153728Y165157D01*
X153694Y165214D01*
X153655Y165265D01*
X153612Y165312D01*
X154852D01*
X154809Y165265D01*
D02*
G37*
G36*
X142303Y168385D02*
X142299Y168374D01*
X142303Y168330D01*
Y168292D01*
X142292Y168235D01*
X142303Y168180D01*
Y167293D01*
X142305Y167288D01*
X142341Y167223D01*
X142385Y167158D01*
X142434Y167092D01*
X142491Y167026D01*
X142554Y166960D01*
X142421Y166827D01*
Y166339D01*
X142905D01*
Y164272D01*
X143048Y163553D01*
X143078Y163508D01*
Y163189D01*
X143175Y162697D01*
X140396D01*
X140380Y162722D01*
X139826Y163092D01*
X139173Y163222D01*
X137697D01*
Y166732D01*
X140354D01*
Y168602D01*
Y168701D01*
X142303D01*
Y168385D01*
D02*
G37*
G36*
X153174Y162229D02*
X153166Y162294D01*
X153144Y162351D01*
X153107Y162402D01*
X153055Y162446D01*
X152988Y162483D01*
X152906Y162513D01*
X152809Y162537D01*
X152698Y162554D01*
X152571Y162564D01*
X152430Y162568D01*
Y163355D01*
X152571Y163358D01*
X152698Y163368D01*
X152809Y163385D01*
X152906Y163409D01*
X152988Y163440D01*
X153055Y163477D01*
X153107Y163521D01*
X153144Y163571D01*
X153166Y163629D01*
X153174Y163693D01*
Y162229D01*
D02*
G37*
G36*
X159236Y163606D02*
X159260Y163539D01*
X159300Y163480D01*
X159356Y163429D01*
X159428Y163386D01*
X159516Y163350D01*
X159620Y163323D01*
X159740Y163303D01*
X159876Y163291D01*
X160027Y163287D01*
Y162500D01*
X159876Y162496D01*
X159740Y162484D01*
X159620Y162465D01*
X159516Y162437D01*
X159428Y162402D01*
X159356Y162358D01*
X159300Y162307D01*
X159260Y162248D01*
X159236Y162181D01*
X159228Y162106D01*
Y163681D01*
X159236Y163606D01*
D02*
G37*
G36*
X151899Y161874D02*
X151623Y161600D01*
X150841Y160909D01*
X150805Y160906D01*
X150809Y160949D01*
X150853Y161037D01*
X150937Y161170D01*
X150360Y161993D01*
X150411Y161941D01*
X150473Y161910D01*
X150548Y161903D01*
X150634Y161918D01*
X150731Y161956D01*
X150841Y162016D01*
X150962Y162099D01*
X151095Y162205D01*
X151239Y162333D01*
X151396Y162484D01*
X151899Y161874D01*
D02*
G37*
G36*
X150221Y161030D02*
X150154Y161006D01*
X150094Y160966D01*
X150043Y160910D01*
X150000Y160838D01*
X149965Y160750D01*
X149937Y160646D01*
X149918Y160531D01*
X149937Y160416D01*
X149965Y160313D01*
X150000Y160225D01*
X150043Y160153D01*
X150094Y160097D01*
X150154Y160057D01*
X150221Y160033D01*
X150295Y160025D01*
X148721D01*
X148795Y160033D01*
X148862Y160057D01*
X148921Y160097D01*
X148972Y160153D01*
X149016Y160225D01*
X149051Y160313D01*
X149079Y160416D01*
X149098Y160531D01*
X149079Y160646D01*
X149051Y160750D01*
X149016Y160838D01*
X148972Y160910D01*
X148921Y160966D01*
X148862Y161006D01*
X148795Y161030D01*
X148721Y161038D01*
X150295D01*
X150221Y161030D01*
D02*
G37*
G36*
X157111Y158661D02*
X157103Y158736D01*
X157079Y158803D01*
X157039Y158862D01*
X156983Y158913D01*
X156911Y158957D01*
X156823Y158992D01*
X156719Y159020D01*
X156599Y159039D01*
X156463Y159051D01*
X156311Y159055D01*
Y159843D01*
X156463Y159846D01*
X156599Y159858D01*
X156719Y159878D01*
X156823Y159906D01*
X156911Y159941D01*
X156983Y159984D01*
X157039Y160035D01*
X157079Y160094D01*
X157103Y160161D01*
X157111Y160236D01*
Y158661D01*
D02*
G37*
G36*
X155299Y160161D02*
X155323Y160094D01*
X155363Y160035D01*
X155419Y159984D01*
X155491Y159941D01*
X155579Y159906D01*
X155683Y159878D01*
X155803Y159858D01*
X155938Y159846D01*
X156090Y159843D01*
Y159055D01*
X155938Y159051D01*
X155803Y159039D01*
X155683Y159020D01*
X155579Y158992D01*
X155491Y158957D01*
X155419Y158913D01*
X155363Y158862D01*
X155323Y158803D01*
X155299Y158736D01*
X155291Y158661D01*
Y160236D01*
X155299Y160161D01*
D02*
G37*
G36*
X154275Y158390D02*
X154215Y158433D01*
X154144Y158455D01*
X154060Y158453D01*
X153966Y158430D01*
X153861Y158384D01*
X153744Y158316D01*
X153615Y158226D01*
X153475Y158113D01*
X153162Y157821D01*
X152605Y158378D01*
X152762Y158541D01*
X153009Y158832D01*
X153100Y158960D01*
X153168Y159077D01*
X153213Y159183D01*
X153237Y159277D01*
X153238Y159360D01*
X153217Y159432D01*
X153174Y159492D01*
X154275Y158390D01*
D02*
G37*
G36*
X135039Y161417D02*
X134941D01*
X134993Y161365D01*
Y158465D01*
X134722D01*
Y158071D01*
X134220Y158083D01*
X134215Y158465D01*
X117539D01*
Y158059D01*
X117256Y158002D01*
X116916Y157776D01*
X114370D01*
Y164272D01*
X135039D01*
Y161417D01*
D02*
G37*
G36*
X150802Y158020D02*
X150841Y158010D01*
X150893Y158001D01*
X151040Y157987D01*
X151366Y157975D01*
X151653Y157972D01*
Y157185D01*
X151503Y157184D01*
X150802Y157138D01*
X150778Y157126D01*
Y158031D01*
X150802Y158020D01*
D02*
G37*
G36*
X136820Y157126D02*
X136796Y157138D01*
X136758Y157148D01*
X136705Y157156D01*
X136558Y157170D01*
X136232Y157183D01*
X135945Y157185D01*
Y157972D01*
X136096Y157973D01*
X136796Y158020D01*
X136820Y158031D01*
Y157126D01*
D02*
G37*
G36*
X150813Y156044D02*
X150861Y156028D01*
X150922Y156013D01*
X150996Y156001D01*
X151182Y155982D01*
X151420Y155970D01*
X151709Y155966D01*
X151597Y155179D01*
X150778Y155158D01*
Y156062D01*
X150813Y156044D01*
D02*
G37*
G36*
X136820Y155158D02*
X136796Y155169D01*
X136758Y155179D01*
X136705Y155188D01*
X136558Y155202D01*
X136232Y155214D01*
X135945Y155217D01*
Y156004D01*
X136096Y156005D01*
X136796Y156051D01*
X136820Y156062D01*
Y155158D01*
D02*
G37*
G36*
X153174Y154785D02*
X153166Y154860D01*
X153142Y154927D01*
X153102Y154986D01*
X153046Y155037D01*
X152974Y155080D01*
X152886Y155116D01*
X152782Y155143D01*
X152662Y155163D01*
X152526Y155175D01*
X152374Y155179D01*
Y155966D01*
X152526Y155970D01*
X152662Y155982D01*
X152782Y156002D01*
X152886Y156029D01*
X152974Y156065D01*
X153046Y156108D01*
X153102Y156159D01*
X153142Y156218D01*
X153166Y156285D01*
X153174Y156360D01*
Y154785D01*
D02*
G37*
G36*
X155299Y152681D02*
X155323Y152614D01*
X155363Y152555D01*
X155419Y152504D01*
X155491Y152461D01*
X155579Y152425D01*
X155683Y152398D01*
X155803Y152378D01*
X155938Y152366D01*
X156090Y152362D01*
Y151575D01*
X155938Y151571D01*
X155803Y151559D01*
X155683Y151539D01*
X155579Y151512D01*
X155491Y151476D01*
X155419Y151433D01*
X155363Y151382D01*
X155323Y151323D01*
X155299Y151256D01*
X155291Y151181D01*
Y152756D01*
X155299Y152681D01*
D02*
G37*
G36*
X145176Y154590D02*
X145046Y153937D01*
Y153618D01*
X145016Y153573D01*
X144873Y152854D01*
Y151477D01*
X145130Y151426D01*
X145132Y151421D01*
X145133Y151405D01*
X145136Y151339D01*
X145140Y150864D01*
X144873D01*
Y150562D01*
X144949Y150511D01*
X144886Y150444D01*
X144873Y150429D01*
Y148721D01*
X137795D01*
Y153904D01*
X139173D01*
X139826Y154034D01*
X140380Y154404D01*
X140528Y154626D01*
X145200D01*
X145176Y154590D01*
D02*
G37*
G36*
X133839Y156859D02*
X134056D01*
X134472Y156443D01*
X134472Y156443D01*
X134993Y156095D01*
X135531Y155988D01*
Y153937D01*
X122736D01*
X122539Y153740D01*
Y148031D01*
X117717D01*
X117618Y148130D01*
X117717Y148228D01*
Y156862D01*
X117726Y156868D01*
X117774Y156878D01*
X117804Y156890D01*
X133684D01*
X133839Y156859D01*
D02*
G37*
G36*
X163188Y147376D02*
X163479Y147128D01*
X163608Y147038D01*
X163725Y146970D01*
X163830Y146924D01*
X163925Y146901D01*
X164008Y146900D01*
X164079Y146921D01*
X164139Y146964D01*
X163038Y145863D01*
X163081Y145923D01*
X163102Y145994D01*
X163101Y146077D01*
X163077Y146172D01*
X163032Y146277D01*
X162964Y146394D01*
X162873Y146523D01*
X162761Y146662D01*
X162469Y146976D01*
X163026Y147533D01*
X163188Y147376D01*
D02*
G37*
G36*
X175811Y145374D02*
X175803Y145449D01*
X175779Y145516D01*
X175740Y145575D01*
X175683Y145626D01*
X175612Y145669D01*
X175524Y145705D01*
X175420Y145732D01*
X175300Y145752D01*
X175164Y145764D01*
X175012Y145768D01*
Y146555D01*
X175164Y146559D01*
X175300Y146571D01*
X175420Y146591D01*
X175524Y146618D01*
X175612Y146654D01*
X175683Y146697D01*
X175740Y146748D01*
X175779Y146807D01*
X175803Y146874D01*
X175811Y146949D01*
Y145374D01*
D02*
G37*
G36*
X173388Y146874D02*
X173412Y146807D01*
X173451Y146748D01*
X173507Y146697D01*
X173579Y146654D01*
X173667Y146618D01*
X173771Y146591D01*
X173891Y146571D01*
X174027Y146559D01*
X174179Y146555D01*
Y145768D01*
X174027Y145764D01*
X173891Y145752D01*
X173771Y145732D01*
X173667Y145705D01*
X173579Y145669D01*
X173507Y145626D01*
X173451Y145575D01*
X173412Y145516D01*
X173388Y145449D01*
X173380Y145374D01*
Y146949D01*
X173388Y146874D01*
D02*
G37*
G36*
X172400Y145342D02*
X172388Y145328D01*
X172377Y145305D01*
X172368Y145272D01*
X172360Y145230D01*
X172354Y145179D01*
X172345Y145049D01*
X172343Y144882D01*
X171555D01*
X171554Y144970D01*
X171537Y145230D01*
X171529Y145272D01*
X171520Y145305D01*
X171510Y145328D01*
X171498Y145342D01*
X171484Y145347D01*
X172414D01*
X172400Y145342D01*
D02*
G37*
G36*
X168101Y144193D02*
X168038Y144190D01*
X167974Y144181D01*
X167910Y144165D01*
X167845Y144142D01*
X167780Y144112D01*
X167715Y144076D01*
X167650Y144033D01*
X167584Y143983D01*
X167518Y143927D01*
X167452Y143863D01*
X166895Y144420D01*
X166958Y144487D01*
X167015Y144553D01*
X167064Y144618D01*
X167107Y144684D01*
X167144Y144749D01*
X167173Y144814D01*
X167196Y144878D01*
X167212Y144942D01*
X167222Y145006D01*
X167225Y145070D01*
X168101Y144193D01*
D02*
G37*
G36*
X165734Y144315D02*
X165758Y144248D01*
X165798Y144189D01*
X165854Y144138D01*
X165926Y144095D01*
X166014Y144059D01*
X166118Y144032D01*
X166238Y144012D01*
X166374Y144000D01*
X166525Y143996D01*
Y143209D01*
X166374Y143205D01*
X166238Y143193D01*
X166118Y143173D01*
X166014Y143146D01*
X165926Y143110D01*
X165854Y143067D01*
X165798Y143016D01*
X165758Y142957D01*
X165734Y142890D01*
X165726Y142815D01*
Y144390D01*
X165734Y144315D01*
D02*
G37*
G36*
X177632Y141551D02*
X177565Y141527D01*
X177506Y141488D01*
X177455Y141431D01*
X177411Y141360D01*
X177376Y141272D01*
X177348Y141168D01*
X177329Y141048D01*
X177317Y140912D01*
X177317Y140905D01*
X177323Y140835D01*
X177334Y140753D01*
X177351Y140678D01*
X177373Y140607D01*
X177399Y140541D01*
X177430Y140481D01*
X177466Y140426D01*
X177507Y140376D01*
X177552Y140331D01*
X176314Y140262D01*
X176354Y140311D01*
X176390Y140365D01*
X176422Y140423D01*
X176450Y140486D01*
X176473Y140554D01*
X176492Y140626D01*
X176507Y140703D01*
X176517Y140786D01*
X176523Y140864D01*
X176522Y140912D01*
X176510Y141048D01*
X176490Y141168D01*
X176463Y141272D01*
X176427Y141360D01*
X176384Y141431D01*
X176333Y141488D01*
X176274Y141527D01*
X176207Y141551D01*
X176132Y141559D01*
X177707D01*
X177632Y141551D01*
D02*
G37*
G36*
X165734Y141756D02*
X165758Y141689D01*
X165798Y141630D01*
X165854Y141579D01*
X165926Y141535D01*
X166014Y141500D01*
X166118Y141472D01*
X166238Y141453D01*
X166374Y141441D01*
X166525Y141437D01*
Y140650D01*
X166374Y140646D01*
X166238Y140634D01*
X166118Y140614D01*
X166014Y140587D01*
X165926Y140551D01*
X165854Y140508D01*
X165798Y140457D01*
X165758Y140398D01*
X165734Y140331D01*
X165726Y140256D01*
Y141831D01*
X165734Y141756D01*
D02*
G37*
G36*
X172661Y140221D02*
X172594Y140197D01*
X172535Y140158D01*
X172484Y140103D01*
X172441Y140032D01*
X172406Y139945D01*
X172378Y139843D01*
X172358Y139725D01*
X172346Y139591D01*
X172343Y139441D01*
X171555D01*
X171551Y139591D01*
X171539Y139725D01*
X171520Y139843D01*
X171492Y139945D01*
X171457Y140032D01*
X171413Y140103D01*
X171362Y140158D01*
X171303Y140197D01*
X171236Y140221D01*
X171161Y140228D01*
X172736D01*
X172661Y140221D01*
D02*
G37*
G36*
X172346Y138222D02*
X172358Y138086D01*
X172378Y137966D01*
X172406Y137862D01*
X172441Y137774D01*
X172484Y137702D01*
X172535Y137646D01*
X172594Y137606D01*
X172661Y137582D01*
X172736Y137574D01*
X171161D01*
X171236Y137582D01*
X171303Y137606D01*
X171362Y137646D01*
X171413Y137702D01*
X171457Y137774D01*
X171492Y137862D01*
X171520Y137966D01*
X171539Y138086D01*
X171551Y138222D01*
X171555Y138374D01*
X172343D01*
X172346Y138222D01*
D02*
G37*
G36*
X176559Y137278D02*
X176583Y137211D01*
X176623Y137152D01*
X176679Y137100D01*
X176751Y137057D01*
X176839Y137022D01*
X176943Y136994D01*
X177062Y136974D01*
X177198Y136963D01*
X177273Y136961D01*
X177287Y136961D01*
X177374Y136968D01*
X177455Y136980D01*
X177531Y136997D01*
X177602Y137019D01*
X177667Y137045D01*
X177728Y137076D01*
X177783Y137112D01*
X177833Y137153D01*
X177877Y137198D01*
X177946Y135960D01*
X177897Y136000D01*
X177844Y136036D01*
X177786Y136068D01*
X177723Y136095D01*
X177655Y136118D01*
X177583Y136137D01*
X177505Y136152D01*
X177423Y136163D01*
X177336Y136169D01*
X177301Y136170D01*
X177198Y136167D01*
X177062Y136155D01*
X176943Y136136D01*
X176839Y136108D01*
X176751Y136073D01*
X176679Y136030D01*
X176623Y135978D01*
X176583Y135919D01*
X176559Y135852D01*
X176551Y135778D01*
Y137352D01*
X176559Y137278D01*
D02*
G37*
G36*
X163583Y124803D02*
X162992D01*
Y124508D01*
X157973D01*
Y127570D01*
X157984Y127626D01*
X157974Y127673D01*
X157980Y127720D01*
X157973Y127746D01*
Y128169D01*
Y129242D01*
X157980Y129268D01*
X157974Y129316D01*
X157984Y129362D01*
X157973Y129418D01*
Y132253D01*
X160039D01*
X160039Y132253D01*
X160195Y132283D01*
X163583D01*
Y124803D01*
D02*
G37*
G36*
X156008Y132494D02*
X156020Y132358D01*
X156039Y132238D01*
X156067Y132134D01*
X156102Y132046D01*
X156146Y131974D01*
X156197Y131918D01*
X156256Y131878D01*
X156323Y131854D01*
X156398Y131846D01*
X154823D01*
X154898Y131854D01*
X154965Y131878D01*
X155024Y131918D01*
X155075Y131974D01*
X155118Y132046D01*
X155154Y132134D01*
X155181Y132238D01*
X155201Y132358D01*
X155213Y132494D01*
X155217Y132645D01*
X156004D01*
X156008Y132494D01*
D02*
G37*
G36*
X147418Y131572D02*
X147450Y131148D01*
X147479Y130976D01*
X147516Y130831D01*
X147561Y130712D01*
X147614Y130619D01*
X147675Y130553D01*
X147745Y130513D01*
X147823Y130500D01*
X145681D01*
X145759Y130513D01*
X145828Y130553D01*
X145890Y130619D01*
X145943Y130712D01*
X145988Y130831D01*
X146025Y130976D01*
X146054Y131148D01*
X146074Y131347D01*
X146090Y131823D01*
X147414D01*
X147418Y131572D01*
D02*
G37*
G36*
X140551Y129344D02*
X140628Y129340D01*
X140726Y129339D01*
Y128551D01*
X140224Y128563D01*
X140219Y128945D01*
X137785D01*
X137729Y128956D01*
X137682Y128947D01*
X137634Y128952D01*
X137608Y128945D01*
X136535D01*
Y128945D01*
X135926D01*
X135906Y128951D01*
X135850Y128945D01*
X135795Y128956D01*
X135739Y128945D01*
X133355D01*
X133299Y128956D01*
X133253Y128947D01*
X133205Y128952D01*
X133179Y128945D01*
X131585D01*
X131559Y128952D01*
X131511Y128947D01*
X131464Y128956D01*
X131408Y128945D01*
X129025D01*
X128969Y128956D01*
X128922Y128947D01*
X128875Y128952D01*
X128848Y128945D01*
X127776D01*
Y128945D01*
X127254D01*
X127228Y128952D01*
X127180Y128947D01*
X127134Y128956D01*
X127078Y128945D01*
X124694D01*
X124638Y128956D01*
X124616Y128952D01*
X124594Y128955D01*
X124312Y128945D01*
X123445D01*
Y128913D01*
X122886Y128893D01*
X121063D01*
Y135039D01*
X140551D01*
Y129344D01*
D02*
G37*
G36*
X133299Y127614D02*
X133827Y127606D01*
Y125244D01*
X133378Y125242D01*
X133299Y125238D01*
Y125099D01*
X133276Y125126D01*
X133205Y125151D01*
X133087Y125173D01*
X132922Y125192D01*
X132736Y125203D01*
X131488Y125126D01*
X131464Y125099D01*
Y125236D01*
X130937Y125244D01*
Y127606D01*
X131386Y127608D01*
X131464Y127612D01*
Y127752D01*
X131488Y127724D01*
X131559Y127699D01*
X131677Y127678D01*
X131842Y127659D01*
X132028Y127647D01*
X133276Y127724D01*
X133299Y127752D01*
Y127614D01*
D02*
G37*
G36*
X128969Y127614D02*
X129496Y127606D01*
Y125244D01*
X129047Y125242D01*
X128969Y125238D01*
Y125099D01*
X128945Y125126D01*
X128874Y125151D01*
X128756Y125173D01*
X128591Y125192D01*
X128405Y125203D01*
X127157Y125126D01*
X127134Y125099D01*
Y125236D01*
X126607Y125244D01*
Y127606D01*
X127055Y127608D01*
X127134Y127612D01*
Y127752D01*
X127157Y127724D01*
X127228Y127699D01*
X127346Y127678D01*
X127512Y127658D01*
X127697Y127647D01*
X128945Y127724D01*
X128969Y127752D01*
Y127614D01*
D02*
G37*
G36*
X137729Y127612D02*
X138091Y127606D01*
Y125244D01*
X137729Y125243D01*
Y125099D01*
X137705Y125126D01*
X137634Y125151D01*
X137516Y125173D01*
X137351Y125192D01*
X137097Y125207D01*
X135818Y125126D01*
X135795Y125099D01*
Y125237D01*
X135366Y125244D01*
Y127606D01*
X135795Y127608D01*
Y127752D01*
X135818Y127724D01*
X135887Y127699D01*
X136002Y127678D01*
X136162Y127659D01*
X136399Y127644D01*
X137705Y127724D01*
X137729Y127752D01*
Y127612D01*
D02*
G37*
G36*
X151177Y128515D02*
X151201Y128500D01*
X151240Y128487D01*
X151295Y128476D01*
X151366Y128466D01*
X151555Y128453D01*
X151956Y128445D01*
Y127657D01*
X151807Y127657D01*
X151295Y127626D01*
X151240Y127615D01*
X151201Y127602D01*
X151177Y127587D01*
X151169Y127571D01*
Y128531D01*
X151177Y128515D01*
D02*
G37*
G36*
X144282Y128628D02*
X144334Y128590D01*
X144390Y128556D01*
X144452Y128526D01*
X144519Y128501D01*
X144591Y128481D01*
X144667Y128465D01*
X144749Y128454D01*
X144836Y128447D01*
X144921Y128445D01*
X145044Y128446D01*
X145555Y128476D01*
X145610Y128487D01*
X145650Y128500D01*
X145673Y128515D01*
X145681Y128531D01*
Y127571D01*
X145673Y127587D01*
X145650Y127602D01*
X145610Y127615D01*
X145555Y127626D01*
X145484Y127636D01*
X145296Y127650D01*
X144913Y127657D01*
X144836Y127655D01*
X144749Y127648D01*
X144667Y127637D01*
X144591Y127621D01*
X144519Y127601D01*
X144452Y127576D01*
X144390Y127547D01*
X144334Y127513D01*
X144282Y127474D01*
X144235Y127431D01*
Y128671D01*
X144282Y128628D01*
D02*
G37*
G36*
X171893Y125945D02*
X171807Y126027D01*
X171718Y126101D01*
X171626Y126166D01*
X171532Y126222D01*
X171436Y126270D01*
X171337Y126309D01*
X171284Y126324D01*
X171248Y126315D01*
X171160Y126279D01*
X171088Y126236D01*
X171032Y126185D01*
X170992Y126126D01*
X170968Y126059D01*
X170960Y125984D01*
Y126376D01*
X170914Y126378D01*
Y127165D01*
X170960Y127167D01*
Y127559D01*
X170968Y127484D01*
X170992Y127417D01*
X171032Y127358D01*
X171088Y127307D01*
X171160Y127264D01*
X171248Y127228D01*
X171284Y127219D01*
X171337Y127235D01*
X171436Y127274D01*
X171532Y127321D01*
X171626Y127377D01*
X171718Y127443D01*
X171807Y127516D01*
X171893Y127598D01*
Y125945D01*
D02*
G37*
G36*
X156635Y129539D02*
X156646Y129362D01*
X156779D01*
X156752Y129339D01*
X156727Y129268D01*
X156705Y129150D01*
X156686Y128984D01*
X156678Y128848D01*
X156752Y127649D01*
X156779Y127626D01*
X156643D01*
X156634Y127000D01*
X154272D01*
X154270Y127449D01*
X154259Y127626D01*
X154126D01*
X154154Y127649D01*
X154179Y127720D01*
X154200Y127838D01*
X154219Y128004D01*
X154228Y128140D01*
X154154Y129339D01*
X154126Y129362D01*
X154262D01*
X154272Y129988D01*
X156634D01*
X156635Y129539D01*
D02*
G37*
G36*
X154138Y126287D02*
X154130Y126351D01*
X154108Y126408D01*
X154070Y126458D01*
X154018Y126502D01*
X153951Y126539D01*
X153870Y126569D01*
X153774Y126592D01*
X153663Y126609D01*
X153537Y126619D01*
X153397Y126623D01*
Y127410D01*
X153536Y127412D01*
X153769Y127429D01*
X153864Y127445D01*
X153944Y127464D01*
X154009Y127488D01*
X154061Y127516D01*
X154097Y127548D01*
X154119Y127585D01*
X154126Y127626D01*
X154138Y126287D01*
D02*
G37*
G36*
X155318Y125142D02*
X155255Y125182D01*
X155181Y125200D01*
X155096Y125197D01*
X155000Y125172D01*
X154894Y125126D01*
X154778Y125059D01*
X154650Y124970D01*
X154512Y124859D01*
X154205Y124573D01*
X153569Y125051D01*
X153730Y125217D01*
X153982Y125513D01*
X154074Y125643D01*
X154142Y125760D01*
X154187Y125865D01*
X154210Y125959D01*
X154209Y126040D01*
X154185Y126108D01*
X154138Y126165D01*
X155318Y125142D01*
D02*
G37*
G36*
X124638Y125099D02*
X124614Y125137D01*
X124543Y125172D01*
X124425Y125203D01*
X124260Y125229D01*
X124047Y125252D01*
X123126Y125295D01*
X122276Y125303D01*
Y127665D01*
X124638Y127752D01*
Y125099D01*
D02*
G37*
G36*
X170358Y125528D02*
X170291Y125504D01*
X170232Y125464D01*
X170181Y125408D01*
X170138Y125336D01*
X170102Y125248D01*
X170075Y125144D01*
X170055Y125024D01*
X170043Y124888D01*
X170039Y124736D01*
X169252D01*
X169248Y124888D01*
X169236Y125024D01*
X169217Y125144D01*
X169189Y125248D01*
X169154Y125336D01*
X169110Y125408D01*
X169059Y125464D01*
X169000Y125504D01*
X168933Y125528D01*
X168858Y125536D01*
X170433D01*
X170358Y125528D01*
D02*
G37*
G36*
X166894D02*
X166827Y125504D01*
X166768Y125464D01*
X166717Y125408D01*
X166673Y125336D01*
X166638Y125248D01*
X166610Y125144D01*
X166591Y125024D01*
X166579Y124888D01*
X166575Y124736D01*
X165787D01*
X165784Y124888D01*
X165772Y125024D01*
X165752Y125144D01*
X165724Y125248D01*
X165689Y125336D01*
X165646Y125408D01*
X165594Y125464D01*
X165535Y125504D01*
X165469Y125528D01*
X165394Y125536D01*
X166969D01*
X166894Y125528D01*
D02*
G37*
G36*
X118307Y124606D02*
X110236D01*
Y131890D01*
X118307D01*
Y124606D01*
D02*
G37*
G36*
X140169Y126152D02*
X140148Y126080D01*
X140149Y125997D01*
X140173Y125903D01*
X140218Y125797D01*
X140286Y125680D01*
X140376Y125552D01*
X140489Y125412D01*
X140781Y125099D01*
X140224Y124542D01*
X140062Y124699D01*
X139771Y124946D01*
X139642Y125037D01*
X139525Y125104D01*
X139420Y125150D01*
X139325Y125174D01*
X139242Y125175D01*
X139171Y125154D01*
X139111Y125110D01*
X140212Y126212D01*
X140169Y126152D01*
D02*
G37*
G36*
X170043Y124246D02*
X170055Y124111D01*
X170075Y123992D01*
X170102Y123888D01*
X170138Y123800D01*
X170181Y123728D01*
X170232Y123672D01*
X170291Y123631D01*
X170358Y123607D01*
X170433Y123598D01*
X169303Y123610D01*
X169294Y123618D01*
X169285Y123642D01*
X169277Y123681D01*
X169271Y123736D01*
X169260Y123893D01*
X169252Y124397D01*
X170039D01*
X170043Y124246D01*
D02*
G37*
G36*
X166579Y124246D02*
X166591Y124110D01*
X166610Y123990D01*
X166638Y123886D01*
X166673Y123798D01*
X166717Y123726D01*
X166768Y123670D01*
X166827Y123630D01*
X166894Y123606D01*
X166969Y123598D01*
X165394D01*
X165469Y123606D01*
X165535Y123630D01*
X165594Y123670D01*
X165646Y123726D01*
X165689Y123798D01*
X165724Y123886D01*
X165752Y123990D01*
X165772Y124110D01*
X165784Y124246D01*
X165787Y124397D01*
X166575D01*
X166579Y124246D01*
D02*
G37*
G36*
X151809Y122069D02*
X151830Y121250D01*
X150926D01*
X150944Y121286D01*
X150960Y121334D01*
X150975Y121395D01*
X150987Y121468D01*
X151006Y121655D01*
X151018Y121892D01*
X151022Y122182D01*
X151809Y122069D01*
D02*
G37*
G36*
X145867Y121975D02*
X145914Y121275D01*
X145925Y121250D01*
X145020D01*
X145031Y121275D01*
X145041Y121313D01*
X145050Y121366D01*
X145064Y121513D01*
X145076Y121838D01*
X145079Y122125D01*
X145866D01*
X145867Y121975D01*
D02*
G37*
G36*
X134543Y121579D02*
X134567Y121512D01*
X134606Y121453D01*
X134661Y121402D01*
X134732Y121358D01*
X134819Y121323D01*
X134921Y121295D01*
X135039Y121276D01*
X135173Y121264D01*
X135323Y121260D01*
Y120472D01*
X135173Y120468D01*
X135039Y120457D01*
X134921Y120437D01*
X134819Y120409D01*
X134732Y120374D01*
X134661Y120331D01*
X134606Y120280D01*
X134567Y120220D01*
X134543Y120153D01*
X134535Y120079D01*
Y121653D01*
X134543Y121579D01*
D02*
G37*
G36*
X128251Y121631D02*
X128332Y121553D01*
X128418Y121484D01*
X128506Y121425D01*
X128599Y121374D01*
X128649Y121353D01*
X128663Y121358D01*
X128735Y121402D01*
X128791Y121453D01*
X128831Y121512D01*
X128855Y121579D01*
X128863Y121653D01*
Y121286D01*
X128898Y121278D01*
X129005Y121264D01*
X129116Y121260D01*
X129046Y120472D01*
X128938Y120468D01*
X128863Y120460D01*
Y120079D01*
X128855Y120153D01*
X128831Y120220D01*
X128791Y120280D01*
X128735Y120331D01*
X128663Y120374D01*
X128599Y120400D01*
X128521Y120372D01*
X128421Y120328D01*
X128322Y120275D01*
X128225Y120215D01*
X128129Y120147D01*
X128035Y120070D01*
X128069Y120472D01*
X128063Y120472D01*
Y121260D01*
X128135Y121262D01*
X128173Y121718D01*
X128251Y121631D01*
D02*
G37*
G36*
X164185Y118910D02*
X164177Y118945D01*
X164154Y118976D01*
X164114Y119004D01*
X164059Y119028D01*
X163988Y119048D01*
X163902Y119065D01*
X163799Y119078D01*
X163548Y119093D01*
X163398Y119095D01*
Y119882D01*
X163549Y119886D01*
X163684Y119898D01*
X163804Y119917D01*
X163908Y119945D01*
X163996Y119980D01*
X164068Y120024D01*
X164124Y120075D01*
X164164Y120134D01*
X164189Y120201D01*
X164197Y120276D01*
X164185Y118910D01*
D02*
G37*
G36*
X162189Y120201D02*
X162213Y120134D01*
X162253Y120075D01*
X162309Y120024D01*
X162381Y119980D01*
X162469Y119945D01*
X162572Y119917D01*
X162692Y119898D01*
X162828Y119886D01*
X162980Y119882D01*
Y119095D01*
X162828Y119091D01*
X162692Y119079D01*
X162572Y119059D01*
X162469Y119032D01*
X162381Y118996D01*
X162309Y118953D01*
X162253Y118902D01*
X162213Y118842D01*
X162189Y118776D01*
X162181Y118701D01*
Y120276D01*
X162189Y120201D01*
D02*
G37*
G36*
X138297Y115591D02*
X138263Y115609D01*
X138217Y115626D01*
X138161Y115640D01*
X138094Y115653D01*
X137927Y115672D01*
X137717Y115683D01*
X137462Y115687D01*
X137478Y116475D01*
X138297Y116496D01*
Y115591D01*
D02*
G37*
G36*
X160063Y115539D02*
X160057Y115579D01*
X160039Y115614D01*
X160008Y115646D01*
X159965Y115673D01*
X159910Y115696D01*
X159842Y115715D01*
X159762Y115729D01*
X159670Y115740D01*
X159566Y115746D01*
X159449Y115748D01*
Y116535D01*
X159566Y116537D01*
X159762Y116554D01*
X159842Y116569D01*
X159910Y116588D01*
X159965Y116611D01*
X160008Y116638D01*
X160039Y116669D01*
X160057Y116705D01*
X160063Y116744D01*
Y115539D01*
D02*
G37*
G36*
X125492Y118799D02*
X131201D01*
Y118504D01*
X134615D01*
Y117323D01*
X134615Y117323D01*
X134717Y116810D01*
X134737Y116708D01*
X134941Y116403D01*
Y115947D01*
X134980Y115941D01*
X135106Y115931D01*
X135247Y115928D01*
Y115140D01*
X135106Y115137D01*
X134980Y115127D01*
X134941Y115121D01*
Y114961D01*
X134560D01*
X134533Y114924D01*
X134511Y114866D01*
X134504Y114802D01*
Y114961D01*
X132076D01*
X132020Y114972D01*
X131973Y114962D01*
X131926Y114968D01*
X131899Y114961D01*
X130306D01*
X130279Y114968D01*
X130232Y114962D01*
X130185Y114972D01*
X130129Y114961D01*
X127745D01*
X127689Y114972D01*
X127642Y114962D01*
X127595Y114968D01*
X127568Y114961D01*
X125975D01*
X125948Y114968D01*
X125901Y114962D01*
X125854Y114972D01*
X125798Y114961D01*
X123415D01*
X123359Y114972D01*
X123312Y114962D01*
X123264Y114968D01*
X123238Y114961D01*
X121644D01*
X121618Y114968D01*
X121570Y114962D01*
X121523Y114972D01*
X121467Y114961D01*
X117835D01*
Y114173D01*
X114075D01*
X113976Y114272D01*
Y118799D01*
Y121063D01*
X125492D01*
Y118799D01*
D02*
G37*
G36*
X127689Y113630D02*
X128216Y113622D01*
Y111260D01*
X127768Y111258D01*
X127689Y111254D01*
Y111114D01*
X127666Y111142D01*
X127595Y111167D01*
X127477Y111189D01*
X127311Y111207D01*
X127126Y111219D01*
X125878Y111142D01*
X125854Y111114D01*
Y111252D01*
X125327Y111260D01*
Y113622D01*
X125776Y113623D01*
X125854Y113628D01*
Y113768D01*
X125878Y113740D01*
X125949Y113715D01*
X126067Y113693D01*
X126232Y113674D01*
X126417Y113663D01*
X127666Y113740D01*
X127689Y113768D01*
Y113630D01*
D02*
G37*
G36*
X132020D02*
X132547Y113622D01*
Y111260D01*
X132098Y111258D01*
X132020Y111254D01*
Y111114D01*
X131996Y111142D01*
X131925Y111167D01*
X131807Y111189D01*
X131642Y111207D01*
X131457Y111219D01*
X130209Y111142D01*
X130185Y111114D01*
Y111252D01*
X129658Y111260D01*
Y113622D01*
X130106Y113623D01*
X130185Y113628D01*
Y113768D01*
X130209Y113740D01*
X130279Y113715D01*
X130397Y113693D01*
X130563Y113674D01*
X130748Y113663D01*
X131996Y113740D01*
X132020Y113768D01*
Y113630D01*
D02*
G37*
G36*
X123359D02*
X123886Y113622D01*
Y111260D01*
X123437Y111258D01*
X123359Y111254D01*
Y111114D01*
X123335Y111142D01*
X123264Y111167D01*
X123146Y111189D01*
X122980Y111207D01*
X122795Y111219D01*
X121547Y111142D01*
X121523Y111114D01*
X121511Y111091D01*
X121499Y111020D01*
X121489Y110902D01*
X121463Y109957D01*
X121457Y108752D01*
X119095D01*
X119028Y111114D01*
X121523D01*
Y111252D01*
X120996Y111260D01*
Y113622D01*
X121445Y113623D01*
X121523Y113628D01*
Y113768D01*
X121547Y113740D01*
X121618Y113715D01*
X121736Y113693D01*
X121901Y113674D01*
X122087Y113663D01*
X123335Y113740D01*
X123359Y113768D01*
Y113630D01*
D02*
G37*
G36*
X156609Y114516D02*
X156645Y114506D01*
X156693Y114497D01*
X156755Y114490D01*
X157012Y114474D01*
X157382Y114469D01*
Y113681D01*
X157246Y113681D01*
X156645Y113644D01*
X156609Y113634D01*
X156585Y113622D01*
Y114527D01*
X156609Y114516D01*
D02*
G37*
G36*
X138297Y113622D02*
X138272Y113634D01*
X138234Y113644D01*
X138181Y113652D01*
X138034Y113666D01*
X137709Y113679D01*
X137422Y113681D01*
Y114469D01*
X137572Y114469D01*
X138272Y114516D01*
X138297Y114527D01*
Y113622D01*
D02*
G37*
G36*
Y111654D02*
X138272Y111665D01*
X138234Y111675D01*
X138181Y111684D01*
X138034Y111698D01*
X137709Y111710D01*
X137422Y111713D01*
Y112500D01*
X137572Y112501D01*
X138272Y112547D01*
X138297Y112559D01*
Y111654D01*
D02*
G37*
G36*
X171146Y112221D02*
X171079Y112197D01*
X171020Y112157D01*
X170968Y112101D01*
X170925Y112029D01*
X170890Y111941D01*
X170862Y111837D01*
X170843Y111717D01*
X170831Y111581D01*
X170827Y111429D01*
X170039D01*
X170035Y111581D01*
X170024Y111717D01*
X170004Y111837D01*
X169976Y111941D01*
X169941Y112029D01*
X169898Y112101D01*
X169846Y112157D01*
X169787Y112197D01*
X169720Y112221D01*
X169646Y112229D01*
X171221D01*
X171146Y112221D01*
D02*
G37*
G36*
X166854D02*
X166787Y112197D01*
X166728Y112157D01*
X166677Y112101D01*
X166634Y112029D01*
X166598Y111941D01*
X166571Y111837D01*
X166551Y111717D01*
X166539Y111581D01*
X166535Y111429D01*
X165748D01*
X165744Y111581D01*
X165732Y111717D01*
X165713Y111837D01*
X165685Y111941D01*
X165650Y112029D01*
X165606Y112101D01*
X165555Y112157D01*
X165496Y112197D01*
X165429Y112221D01*
X165354Y112229D01*
X166929D01*
X166854Y112221D01*
D02*
G37*
G36*
X134512Y112819D02*
X134536Y112752D01*
X134575Y112693D01*
X134632Y112642D01*
X134703Y112598D01*
X134791Y112563D01*
X134895Y112535D01*
X135015Y112516D01*
X135151Y112504D01*
X135303Y112500D01*
Y111713D01*
X135151Y111709D01*
X135015Y111697D01*
X134895Y111677D01*
X134791Y111650D01*
X134703Y111614D01*
X134632Y111571D01*
X134575Y111520D01*
X134536Y111461D01*
X134512Y111394D01*
X134504Y111319D01*
Y112894D01*
X134512Y112819D01*
D02*
G37*
G36*
X170828Y110941D02*
X170863Y110500D01*
X170879Y110429D01*
X170898Y110374D01*
X170920Y110335D01*
X170945Y110311D01*
X170972Y110303D01*
X169646Y110291D01*
X169720Y110300D01*
X169787Y110324D01*
X169846Y110364D01*
X169898Y110421D01*
X169941Y110493D01*
X169976Y110580D01*
X170004Y110684D01*
X170024Y110804D01*
X170035Y110939D01*
X170039Y111090D01*
X170827D01*
X170828Y110941D01*
D02*
G37*
G36*
X166539Y110939D02*
X166551Y110803D01*
X166571Y110683D01*
X166598Y110579D01*
X166634Y110491D01*
X166677Y110419D01*
X166728Y110363D01*
X166787Y110323D01*
X166854Y110299D01*
X166929Y110291D01*
X165354D01*
X165429Y110299D01*
X165496Y110323D01*
X165555Y110363D01*
X165606Y110419D01*
X165650Y110491D01*
X165685Y110579D01*
X165713Y110683D01*
X165732Y110803D01*
X165744Y110939D01*
X165748Y111090D01*
X166535D01*
X166539Y110939D01*
D02*
G37*
G36*
X138297Y109686D02*
X138272Y109697D01*
X138234Y109707D01*
X138181Y109715D01*
X138034Y109729D01*
X137709Y109742D01*
X137422Y109744D01*
Y110531D01*
X137572Y110532D01*
X138272Y110579D01*
X138297Y110590D01*
Y109686D01*
D02*
G37*
G36*
X164217Y109800D02*
X164306Y109726D01*
X164397Y109661D01*
X164491Y109605D01*
X164588Y109557D01*
X164640Y109537D01*
X164667Y109547D01*
X164739Y109591D01*
X164795Y109642D01*
X164834Y109701D01*
X164858Y109768D01*
X164866Y109843D01*
Y109472D01*
X164893Y109466D01*
X165000Y109453D01*
X165110Y109449D01*
Y108661D01*
X165000Y108657D01*
X164893Y108644D01*
X164866Y108639D01*
Y108268D01*
X164858Y108343D01*
X164834Y108409D01*
X164795Y108468D01*
X164739Y108520D01*
X164667Y108563D01*
X164640Y108574D01*
X164588Y108553D01*
X164491Y108505D01*
X164397Y108449D01*
X164306Y108384D01*
X164217Y108311D01*
X164131Y108228D01*
Y108660D01*
X164067Y108661D01*
Y109449D01*
X164131Y109450D01*
Y109882D01*
X164217Y109800D01*
D02*
G37*
G36*
X135211Y109131D02*
X135231Y109105D01*
X135265Y109081D01*
X135312Y109061D01*
X135372Y109044D01*
X135446Y109029D01*
X135533Y109019D01*
X135747Y109006D01*
X135874Y109004D01*
Y108217D01*
X135746Y108214D01*
X135528Y108192D01*
X135439Y108173D01*
X135364Y108148D01*
X135303Y108118D01*
X135255Y108082D01*
X135221Y108040D01*
X135200Y107993D01*
X135193Y107941D01*
X135205Y109161D01*
X135211Y109131D01*
D02*
G37*
G36*
X156907Y108386D02*
X156963Y108352D01*
X157036Y108297D01*
X157129Y108220D01*
X157515Y107859D01*
X157680Y107696D01*
X157108Y107154D01*
X156957Y107300D01*
X156683Y107530D01*
X156560Y107615D01*
X156447Y107679D01*
X156344Y107722D01*
X156250Y107746D01*
X156165Y107748D01*
X156091Y107730D01*
X156026Y107692D01*
X156850Y108357D01*
X156851Y108388D01*
X156870Y108398D01*
X156907Y108386D01*
D02*
G37*
G36*
X135201Y104372D02*
X135224Y104309D01*
X135263Y104254D01*
X135318Y104207D01*
X135387Y104166D01*
X135472Y104133D01*
X135572Y104108D01*
X135688Y104089D01*
X135818Y104078D01*
X135965Y104075D01*
Y103287D01*
X135820Y103285D01*
X135577Y103265D01*
X135478Y103248D01*
X135395Y103226D01*
X135326Y103200D01*
X135273Y103168D01*
X135235Y103131D01*
X135212Y103090D01*
X135205Y103043D01*
X135193Y104441D01*
X135201Y104372D01*
D02*
G37*
G36*
X151824Y103702D02*
X151812Y103621D01*
X151819Y103532D01*
X151847Y103434D01*
X151894Y103327D01*
X151960Y103211D01*
X152047Y103087D01*
X152153Y102953D01*
X152424Y102660D01*
X151851Y102120D01*
X151744Y102226D01*
X151216Y102688D01*
X151191Y102697D01*
X151856Y103774D01*
X151824Y103702D01*
D02*
G37*
G36*
X149851Y102938D02*
X149841Y102899D01*
X149832Y102847D01*
X149818Y102700D01*
X149805Y102374D01*
X149803Y102087D01*
X149016D01*
X149015Y102238D01*
X148968Y102938D01*
X148957Y102962D01*
X149862D01*
X149851Y102938D01*
D02*
G37*
G36*
X147882D02*
X147872Y102899D01*
X147863Y102847D01*
X147849Y102700D01*
X147837Y102374D01*
X147835Y102087D01*
X147047D01*
X147047Y102238D01*
X147000Y102938D01*
X146989Y102962D01*
X147893D01*
X147882Y102938D01*
D02*
G37*
G36*
X145914D02*
X145904Y102899D01*
X145895Y102847D01*
X145881Y102700D01*
X145869Y102374D01*
X145866Y102087D01*
X145079D01*
X145078Y102238D01*
X145031Y102938D01*
X145020Y102962D01*
X145925D01*
X145914Y102938D01*
D02*
G37*
G36*
X143945D02*
X143935Y102899D01*
X143926Y102847D01*
X143912Y102700D01*
X143900Y102374D01*
X143898Y102087D01*
X143110D01*
X143110Y102238D01*
X143063Y102938D01*
X143052Y102962D01*
X143956D01*
X143945Y102938D01*
D02*
G37*
G36*
X173457Y101918D02*
X173984Y101909D01*
Y99547D01*
X173535Y99546D01*
X173457Y99541D01*
Y99402D01*
X175953D01*
X175940Y99378D01*
X175928Y99307D01*
X175918Y99189D01*
X175892Y98244D01*
X175886Y97040D01*
X173524D01*
X173457Y99402D01*
X173433Y99429D01*
X173362Y99454D01*
X173244Y99476D01*
X173079Y99495D01*
X172894Y99506D01*
X171645Y99429D01*
X171622Y99402D01*
Y99539D01*
X171095Y99547D01*
Y101909D01*
X171544Y101911D01*
X171622Y101916D01*
Y102055D01*
X171645Y102027D01*
X171716Y102003D01*
X171835Y101981D01*
X172000Y101962D01*
X172185Y101950D01*
X173433Y102027D01*
X173457Y102055D01*
Y101918D01*
D02*
G37*
G36*
X169126D02*
X169653Y101909D01*
Y99547D01*
X169204Y99546D01*
X169126Y99541D01*
Y99402D01*
X169103Y99429D01*
X169032Y99454D01*
X168914Y99476D01*
X168748Y99495D01*
X168563Y99506D01*
X167315Y99429D01*
X167291Y99402D01*
Y99539D01*
X166764Y99547D01*
Y101909D01*
X167213Y101911D01*
X167291Y101916D01*
Y102055D01*
X167315Y102027D01*
X167386Y102003D01*
X167504Y101981D01*
X167669Y101962D01*
X167854Y101950D01*
X169103Y102027D01*
X169126Y102055D01*
Y101918D01*
D02*
G37*
G36*
X164795D02*
X165323Y101909D01*
Y99547D01*
X164874Y99546D01*
X164795Y99541D01*
Y99402D01*
X164772Y99429D01*
X164701Y99454D01*
X164583Y99476D01*
X164418Y99495D01*
X164232Y99506D01*
X162984Y99429D01*
X162960Y99402D01*
Y99539D01*
X162433Y99547D01*
Y101909D01*
X162882Y101911D01*
X162960Y101916D01*
Y102055D01*
X162984Y102027D01*
X163055Y102003D01*
X163173Y101981D01*
X163338Y101962D01*
X163524Y101950D01*
X164772Y102027D01*
X164795Y102055D01*
Y101918D01*
D02*
G37*
G36*
X134768Y103036D02*
X134701Y103012D01*
X134642Y102973D01*
X134591Y102918D01*
X134547Y102847D01*
X134512Y102760D01*
X134484Y102658D01*
X134465Y102540D01*
X134453Y102408D01*
X134453Y102402D01*
X134466Y102295D01*
X134488Y102190D01*
X134518Y102089D01*
X134557Y101989D01*
X134605Y101893D01*
X134661Y101799D01*
X134726Y101707D01*
X134800Y101619D01*
X134882Y101532D01*
X133228D01*
X133311Y101619D01*
X133384Y101707D01*
X133449Y101799D01*
X133505Y101893D01*
X133553Y101989D01*
X133592Y102089D01*
X133622Y102190D01*
X133644Y102295D01*
X133657Y102402D01*
X133657Y102408D01*
X133646Y102540D01*
X133626Y102658D01*
X133598Y102760D01*
X133563Y102847D01*
X133520Y102918D01*
X133468Y102973D01*
X133409Y103012D01*
X133343Y103036D01*
X133268Y103043D01*
X134843D01*
X134768Y103036D01*
D02*
G37*
G36*
X160465Y102055D02*
X160477Y101172D01*
X160471Y101192D01*
X160456Y101211D01*
X160430Y101227D01*
X160394Y101241D01*
X160348Y101253D01*
X160291Y101262D01*
X160225Y101270D01*
X160061Y101278D01*
X159964Y101279D01*
Y102067D01*
X160465Y102055D01*
D02*
G37*
G36*
X179694Y99508D02*
X177146D01*
Y103248D01*
X173513D01*
X173457Y103259D01*
X173410Y103250D01*
X173363Y103255D01*
X173336Y103248D01*
X171742D01*
X171716Y103255D01*
X171669Y103250D01*
X171622Y103259D01*
X171566Y103248D01*
X169182D01*
X169126Y103259D01*
X169079Y103250D01*
X169032Y103255D01*
X169006Y103248D01*
X167412D01*
X167385Y103255D01*
X167338Y103250D01*
X167291Y103259D01*
X167235Y103248D01*
X164851D01*
X164795Y103259D01*
X164749Y103250D01*
X164701Y103255D01*
X164675Y103248D01*
X163081D01*
X163055Y103255D01*
X163007Y103250D01*
X162960Y103259D01*
X162904Y103248D01*
X161002D01*
X160846Y103279D01*
X160846Y103279D01*
X160759D01*
Y105519D01*
X160728D01*
X160759Y105523D01*
Y106595D01*
X179694D01*
Y99508D01*
D02*
G37*
G36*
X155412Y99116D02*
X155427Y99009D01*
X155452Y98908D01*
X155486Y98813D01*
X155530Y98724D01*
X155584Y98641D01*
X155648Y98564D01*
X155722Y98493D01*
X155806Y98428D01*
X155899Y98369D01*
X154300Y97947D01*
X154361Y98054D01*
X154463Y98268D01*
X154505Y98374D01*
X154540Y98480D01*
X154569Y98586D01*
X154591Y98691D01*
X154607Y98796D01*
X154617Y98901D01*
X154620Y99006D01*
X155407Y99229D01*
X155412Y99116D01*
D02*
G37*
G36*
X150245Y98933D02*
X150327Y98865D01*
X150413Y98803D01*
X150504Y98744D01*
X150599Y98691D01*
X150700Y98642D01*
X150805Y98598D01*
X150915Y98559D01*
X151149Y98494D01*
X149740Y97628D01*
X149762Y97737D01*
X149773Y97844D01*
X149773Y97947D01*
X149763Y98048D01*
X149741Y98145D01*
X149709Y98240D01*
X149665Y98332D01*
X149611Y98421D01*
X149546Y98507D01*
X149469Y98590D01*
X150168Y99005D01*
X150245Y98933D01*
D02*
G37*
G36*
X144250Y98418D02*
X144175Y98336D01*
X144109Y98251D01*
X144052Y98162D01*
X144003Y98068D01*
X143963Y97971D01*
X143932Y97870D01*
X143910Y97764D01*
X143896Y97655D01*
X143891Y97541D01*
X143895Y97424D01*
X142659Y98522D01*
X142779Y98532D01*
X142895Y98549D01*
X143006Y98572D01*
X143113Y98603D01*
X143215Y98642D01*
X143313Y98687D01*
X143406Y98739D01*
X143494Y98799D01*
X143579Y98866D01*
X143658Y98939D01*
X144250Y98418D01*
D02*
G37*
G36*
X139264Y98353D02*
X139189Y98272D01*
X139123Y98187D01*
X139064Y98098D01*
X139014Y98005D01*
X138971Y97907D01*
X138937Y97805D01*
X138910Y97699D01*
X138891Y97588D01*
X138881Y97474D01*
X138878Y97354D01*
X137709Y98524D01*
X137828Y98526D01*
X137943Y98537D01*
X138053Y98556D01*
X138160Y98582D01*
X138261Y98617D01*
X138359Y98660D01*
X138452Y98710D01*
X138542Y98769D01*
X138626Y98835D01*
X138707Y98909D01*
X139264Y98353D01*
D02*
G37*
G36*
X125295Y97244D02*
X115157D01*
Y104331D01*
X125295D01*
Y97244D01*
D02*
G37*
G36*
X138881Y97212D02*
X138891Y97097D01*
X138910Y96986D01*
X138937Y96880D01*
X138971Y96778D01*
X139014Y96680D01*
X139064Y96587D01*
X139123Y96498D01*
X139189Y96413D01*
X139264Y96332D01*
X138707Y95776D01*
X138626Y95850D01*
X138542Y95916D01*
X138452Y95975D01*
X138359Y96026D01*
X138261Y96068D01*
X138160Y96103D01*
X138053Y96129D01*
X137943Y96148D01*
X137828Y96159D01*
X137709Y96162D01*
X138878Y97331D01*
X138881Y97212D01*
D02*
G37*
G36*
X159650Y94823D02*
X159663Y94716D01*
X159685Y94612D01*
X159715Y94510D01*
X159754Y94411D01*
X159802Y94314D01*
X159858Y94220D01*
X159923Y94129D01*
X159996Y94040D01*
X160079Y93954D01*
X158425D01*
X158508Y94040D01*
X158581Y94129D01*
X158646Y94220D01*
X158702Y94314D01*
X158750Y94411D01*
X158789Y94510D01*
X158819Y94612D01*
X158841Y94716D01*
X158854Y94823D01*
X158858Y94932D01*
X159646D01*
X159650Y94823D01*
D02*
G37*
G36*
X178937Y85925D02*
X169390D01*
Y92520D01*
X178937D01*
Y85925D01*
D02*
G37*
G36*
X107087Y188484D02*
X133760D01*
Y185335D01*
Y165650D01*
X130315D01*
Y185335D01*
X108110D01*
X107087Y184311D01*
Y181004D01*
Y74705D01*
Y71398D01*
X108110Y70374D01*
X164469D01*
Y70397D01*
X181677D01*
X182677Y71398D01*
Y85180D01*
X182708Y85335D01*
X182708Y85335D01*
Y85944D01*
X182783Y86055D01*
X182803Y86157D01*
X182905Y86670D01*
X182905Y86670D01*
Y150098D01*
X182783Y150713D01*
X182677Y150871D01*
Y181004D01*
Y184311D01*
X181653Y185335D01*
X159055D01*
Y165650D01*
X155610D01*
Y185335D01*
Y188484D01*
Y188509D01*
X159055D01*
Y188484D01*
X182677D01*
Y214440D01*
X183789Y214293D01*
X185529Y213827D01*
X185827Y213704D01*
X185827Y188484D01*
X185827D01*
Y185335D01*
Y181004D01*
Y67224D01*
X178347D01*
Y67247D01*
X164469D01*
Y67224D01*
X103937D01*
Y181004D01*
Y185335D01*
Y188484D01*
Y214528D01*
X107087D01*
X107087Y188484D01*
D02*
G37*
G36*
X98425Y141732D02*
Y114173D01*
Y55118D01*
X194843D01*
Y15748D01*
Y14847D01*
X194608Y13061D01*
X194142Y11322D01*
X193453Y9657D01*
X192552Y8098D01*
X191455Y6668D01*
X190182Y5395D01*
X188753Y4298D01*
X187193Y3398D01*
X185529Y2708D01*
X183789Y2242D01*
X182003Y2007D01*
X14847D01*
X13061Y2242D01*
X11322Y2708D01*
X9657Y3398D01*
X8098Y4298D01*
X6668Y5395D01*
X5395Y6668D01*
X4298Y8098D01*
X3398Y9657D01*
X2708Y11322D01*
X2242Y13061D01*
X2007Y14847D01*
Y15748D01*
Y200787D01*
Y201688D01*
X2242Y203474D01*
X2708Y205214D01*
X3398Y206878D01*
X4298Y208438D01*
X5395Y209867D01*
X6668Y211141D01*
X8098Y212237D01*
X9657Y213138D01*
X11322Y213827D01*
X13061Y214293D01*
X14847Y214528D01*
X98425D01*
Y141732D01*
D02*
G37*
%LPC*%
G36*
X87164Y165591D02*
X86065D01*
X85003Y165306D01*
X84052Y164757D01*
X83275Y163980D01*
X82725Y163028D01*
X82441Y161967D01*
Y160868D01*
X82725Y159807D01*
X83275Y158855D01*
X84052Y158078D01*
X85003Y157528D01*
X86065Y157244D01*
X87164D01*
X88225Y157528D01*
X89177Y158078D01*
X89954Y158855D01*
X90503Y159807D01*
X90787Y160868D01*
Y161967D01*
X90503Y163028D01*
X89954Y163980D01*
X89177Y164757D01*
X88225Y165306D01*
X87164Y165591D01*
D02*
G37*
G36*
Y145590D02*
X86065D01*
X85003Y145306D01*
X84052Y144757D01*
X83275Y143980D01*
X82725Y143028D01*
X82441Y141967D01*
Y140868D01*
X82725Y139806D01*
X83275Y138855D01*
X84052Y138078D01*
X85003Y137529D01*
X86065Y137244D01*
X87164D01*
X88225Y137529D01*
X89177Y138078D01*
X89954Y138855D01*
X90503Y139806D01*
X90787Y140868D01*
Y141967D01*
X90503Y143028D01*
X89954Y143980D01*
X89177Y144757D01*
X88225Y145306D01*
X87164Y145590D01*
D02*
G37*
G36*
Y135591D02*
X86065D01*
X85003Y135306D01*
X84052Y134757D01*
X83275Y133980D01*
X82725Y133028D01*
X82441Y131967D01*
Y130868D01*
X82725Y129806D01*
X83275Y128855D01*
X84052Y128078D01*
X85003Y127529D01*
X86065Y127244D01*
X87164D01*
X88225Y127529D01*
X89177Y128078D01*
X89954Y128855D01*
X90503Y129806D01*
X90787Y130868D01*
Y131967D01*
X90503Y133028D01*
X89954Y133980D01*
X89177Y134757D01*
X88225Y135306D01*
X87164Y135591D01*
D02*
G37*
G36*
X75394Y105633D02*
X70768D01*
X70669Y105614D01*
X69210D01*
X69094Y105591D01*
X68976D01*
X68799Y105555D01*
X68623Y105591D01*
X68504D01*
X68388Y105614D01*
X66930D01*
X66831Y105633D01*
X60827D01*
X60366Y105542D01*
X59975Y105281D01*
X59714Y104890D01*
X59623Y104429D01*
Y88976D01*
X59714Y88516D01*
X59975Y88125D01*
X60366Y87864D01*
X60827Y87772D01*
X75394D01*
X75854Y87864D01*
X76245Y88125D01*
X76506Y88516D01*
X76598Y88976D01*
Y98819D01*
X77588D01*
X77756Y98797D01*
X77924Y98819D01*
X80118D01*
Y98836D01*
X82132D01*
X82135Y98835D01*
X82419Y98829D01*
X82650Y98812D01*
X82856Y98786D01*
X83036Y98751D01*
X83190Y98709D01*
X83318Y98664D01*
X83421Y98617D01*
X83503Y98570D01*
X83566Y98524D01*
X83667Y98432D01*
X83744Y98386D01*
X84052Y98078D01*
X85003Y97528D01*
X86065Y97244D01*
X87164D01*
X88225Y97528D01*
X89177Y98078D01*
X89954Y98855D01*
X90503Y99806D01*
X90787Y100868D01*
Y101967D01*
X90503Y103028D01*
X89954Y103980D01*
X89177Y104757D01*
X88225Y105306D01*
X87164Y105590D01*
X86065D01*
X85003Y105306D01*
X84052Y104757D01*
X83744Y104449D01*
X83667Y104402D01*
X83566Y104311D01*
X83503Y104265D01*
X83421Y104218D01*
X83318Y104171D01*
X83190Y104125D01*
X83036Y104084D01*
X82873Y104052D01*
X82402Y104005D01*
X82135Y103999D01*
X82132Y103998D01*
X77795D01*
X77328Y103937D01*
X76598D01*
Y104429D01*
X76506Y104890D01*
X76245Y105281D01*
X75854Y105542D01*
X75394Y105633D01*
D02*
G37*
G36*
X50017Y100984D02*
X49195D01*
X48436Y100670D01*
X47854Y100088D01*
X47539Y99329D01*
Y98506D01*
X47854Y97746D01*
X48436Y97165D01*
X49195Y96850D01*
X50017D01*
X50777Y97165D01*
X51359Y97746D01*
X51673Y98506D01*
Y99329D01*
X51359Y100088D01*
X50777Y100670D01*
X50017Y100984D01*
D02*
G37*
G36*
X17717Y78304D02*
X15863Y78158D01*
X14055Y77724D01*
X12338Y77013D01*
X10753Y76042D01*
X9339Y74834D01*
X8132Y73421D01*
X7160Y71835D01*
X6449Y70118D01*
X6015Y68310D01*
X5869Y66457D01*
X6015Y64603D01*
X6449Y62796D01*
X7160Y61078D01*
X8132Y59493D01*
X9339Y58079D01*
X10753Y56872D01*
X12338Y55901D01*
X14055Y55189D01*
X15863Y54755D01*
X17717Y54609D01*
X19570Y54755D01*
X21378Y55189D01*
X23095Y55901D01*
X24680Y56872D01*
X26094Y58079D01*
X27301Y59493D01*
X28273Y61078D01*
X28984Y62796D01*
X29418Y64603D01*
X29564Y66457D01*
X29418Y68310D01*
X28984Y70118D01*
X28273Y71835D01*
X27301Y73421D01*
X26094Y74834D01*
X24680Y76042D01*
X23095Y77013D01*
X21378Y77724D01*
X19570Y78158D01*
X17717Y78304D01*
D02*
G37*
G36*
X182360Y51575D02*
X181420D01*
X180552Y51215D01*
X179887Y50551D01*
X179528Y49683D01*
Y48743D01*
X179887Y47875D01*
X180552Y47210D01*
X181420Y46850D01*
X182360D01*
X183228Y47210D01*
X183892Y47875D01*
X184252Y48743D01*
Y49683D01*
X183892Y50551D01*
X183228Y51215D01*
X182360Y51575D01*
D02*
G37*
G36*
X174486D02*
X173546D01*
X172678Y51215D01*
X172013Y50551D01*
X171653Y49683D01*
Y48743D01*
X172013Y47875D01*
X172678Y47210D01*
X173546Y46850D01*
X174486D01*
X175354Y47210D01*
X176018Y47875D01*
X176378Y48743D01*
Y49683D01*
X176018Y50551D01*
X175354Y51215D01*
X174486Y51575D01*
D02*
G37*
G36*
X148304Y48425D02*
X147365D01*
X146497Y48066D01*
X145832Y47401D01*
X145473Y46533D01*
Y46280D01*
X145455Y46216D01*
X145448Y46135D01*
X145443Y46098D01*
X145436Y46068D01*
X145430Y46046D01*
X145424Y46029D01*
X145418Y46016D01*
X145416Y46014D01*
X136795Y37393D01*
X113878D01*
X113264Y37271D01*
X112743Y36923D01*
X112743Y36923D01*
X107461Y31641D01*
X107410Y31670D01*
X107258Y31771D01*
X107095Y31894D01*
X106675Y32262D01*
X106447Y32487D01*
X106352Y32550D01*
X106082Y32820D01*
X105256Y33296D01*
X104335Y33543D01*
X103381D01*
X102460Y33296D01*
X101634Y32820D01*
X100960Y32145D01*
X100483Y31319D01*
X100236Y30398D01*
Y29444D01*
X100483Y28523D01*
X100960Y27697D01*
X101634Y27023D01*
X102460Y26546D01*
X103381Y26299D01*
X104335D01*
X105256Y26546D01*
X106082Y27023D01*
X106352Y27293D01*
X106447Y27355D01*
X106675Y27580D01*
X107095Y27949D01*
X107258Y28071D01*
X107410Y28172D01*
X107537Y28245D01*
X107636Y28290D01*
X107703Y28313D01*
X107713Y28316D01*
X108012D01*
X108012Y28316D01*
X108525Y28418D01*
X108627Y28438D01*
X109148Y28786D01*
X110236Y29875D01*
Y29444D01*
X110483Y28523D01*
X110960Y27697D01*
X111634Y27023D01*
X112460Y26546D01*
X113381Y26299D01*
X114335D01*
X115256Y26546D01*
X116082Y27023D01*
X116757Y27697D01*
X117234Y28523D01*
X117480Y29444D01*
Y30398D01*
X117234Y31319D01*
X116757Y32145D01*
X116082Y32820D01*
X115256Y33296D01*
X114335Y33543D01*
X113905D01*
X114543Y34182D01*
X137461D01*
X137461Y34182D01*
X137973Y34284D01*
X138075Y34304D01*
X138596Y34652D01*
X147627Y43683D01*
X147642Y43683D01*
X147714Y43681D01*
X147833Y43701D01*
X148304D01*
X149173Y44060D01*
X149837Y44725D01*
X150197Y45593D01*
Y46533D01*
X149837Y47401D01*
X149173Y48066D01*
X148304Y48425D01*
D02*
G37*
G36*
X134335Y33543D02*
X133381D01*
X132460Y33296D01*
X131634Y32820D01*
X130960Y32145D01*
X130483Y31319D01*
X130236Y30398D01*
Y29444D01*
X130483Y28523D01*
X130960Y27697D01*
X131634Y27023D01*
X132460Y26546D01*
X133381Y26299D01*
X134335D01*
X135256Y26546D01*
X136082Y27023D01*
X136757Y27697D01*
X137233Y28523D01*
X137480Y29444D01*
Y30398D01*
X137233Y31319D01*
X136757Y32145D01*
X136082Y32820D01*
X135256Y33296D01*
X134335Y33543D01*
D02*
G37*
G36*
X124335D02*
X123381D01*
X122460Y33296D01*
X121634Y32820D01*
X120960Y32145D01*
X120483Y31319D01*
X120236Y30398D01*
Y29444D01*
X120483Y28523D01*
X120960Y27697D01*
X121634Y27023D01*
X122460Y26546D01*
X123381Y26299D01*
X124335D01*
X125256Y26546D01*
X126082Y27023D01*
X126757Y27697D01*
X127234Y28523D01*
X127480Y29444D01*
Y30398D01*
X127234Y31319D01*
X126757Y32145D01*
X126082Y32820D01*
X125256Y33296D01*
X124335Y33543D01*
D02*
G37*
G36*
X94335D02*
X93381D01*
X92460Y33296D01*
X91634Y32820D01*
X90960Y32145D01*
X90483Y31319D01*
X90236Y30398D01*
Y29444D01*
X90483Y28523D01*
X90960Y27697D01*
X91634Y27023D01*
X92460Y26546D01*
X93381Y26299D01*
X94335D01*
X95256Y26546D01*
X96082Y27023D01*
X96757Y27697D01*
X97233Y28523D01*
X97480Y29444D01*
Y30398D01*
X97233Y31319D01*
X96757Y32145D01*
X96082Y32820D01*
X95256Y33296D01*
X94335Y33543D01*
D02*
G37*
G36*
X84335D02*
X83381D01*
X82460Y33296D01*
X81634Y32820D01*
X80960Y32145D01*
X80483Y31319D01*
X80236Y30398D01*
Y29444D01*
X80483Y28523D01*
X80960Y27697D01*
X81634Y27023D01*
X82460Y26546D01*
X83381Y26299D01*
X84335D01*
X85256Y26546D01*
X86082Y27023D01*
X86757Y27697D01*
X87234Y28523D01*
X87480Y29444D01*
Y30398D01*
X87234Y31319D01*
X86757Y32145D01*
X86082Y32820D01*
X85256Y33296D01*
X84335Y33543D01*
D02*
G37*
G36*
X24174Y33327D02*
X23070D01*
X22004Y33041D01*
X21047Y32489D01*
X20267Y31708D01*
X19715Y30752D01*
X19429Y29686D01*
Y28582D01*
X19715Y27516D01*
X20267Y26559D01*
X21047Y25779D01*
X22004Y25227D01*
X23070Y24941D01*
X24174D01*
X25240Y25227D01*
X26197Y25779D01*
X26977Y26559D01*
X27529Y27516D01*
X27815Y28582D01*
Y29686D01*
X27529Y30752D01*
X26977Y31708D01*
X26197Y32489D01*
X25240Y33041D01*
X24174Y33327D01*
D02*
G37*
G36*
X30226Y19213D02*
X28830D01*
X27461Y18940D01*
X26171Y18406D01*
X25010Y17630D01*
X24023Y16643D01*
X23247Y15483D01*
X22713Y14193D01*
X22441Y12824D01*
Y11428D01*
X22713Y10059D01*
X23247Y8769D01*
X24023Y7609D01*
X25010Y6622D01*
X26171Y5846D01*
X27461Y5312D01*
X28830Y5039D01*
X30226D01*
X31595Y5312D01*
X32884Y5846D01*
X34045Y6622D01*
X35032Y7609D01*
X35808Y8769D01*
X36342Y10059D01*
X36614Y11428D01*
Y12824D01*
X36342Y14193D01*
X35808Y15483D01*
X35032Y16643D01*
X34045Y17630D01*
X32884Y18406D01*
X31595Y18940D01*
X30226Y19213D01*
D02*
G37*
%LPD*%
G36*
X75394Y88976D02*
X60827D01*
Y104429D01*
X66831D01*
Y104409D01*
X68388D01*
X68799Y104328D01*
X69210Y104409D01*
X70768D01*
Y104429D01*
X75394D01*
Y88976D01*
D02*
G37*
G36*
X84477Y99323D02*
X84328Y99459D01*
X84160Y99581D01*
X83974Y99688D01*
X83770Y99781D01*
X83548Y99860D01*
X83307Y99925D01*
X83048Y99975D01*
X82771Y100011D01*
X82476Y100032D01*
X82163Y100039D01*
Y102795D01*
X82476Y102802D01*
X83048Y102860D01*
X83307Y102910D01*
X83548Y102974D01*
X83770Y103053D01*
X83974Y103146D01*
X84160Y103254D01*
X84328Y103376D01*
X84477Y103512D01*
Y99323D01*
D02*
G37*
G36*
X147753Y44885D02*
X147636Y44889D01*
X147522Y44884D01*
X147413Y44870D01*
X147308Y44848D01*
X147206Y44817D01*
X147109Y44777D01*
X147016Y44728D01*
X146926Y44671D01*
X146841Y44605D01*
X146760Y44530D01*
X146238Y45121D01*
X146312Y45201D01*
X146378Y45285D01*
X146438Y45374D01*
X146490Y45467D01*
X146536Y45565D01*
X146574Y45667D01*
X146605Y45774D01*
X146629Y45885D01*
X146645Y46001D01*
X146655Y46121D01*
X147753Y44885D01*
D02*
G37*
G36*
X105855Y31380D02*
X106334Y30959D01*
X106561Y30788D01*
X106779Y30644D01*
X106987Y30525D01*
X107187Y30433D01*
X107377Y30368D01*
X107559Y30328D01*
X107732Y30315D01*
Y29528D01*
X107559Y29514D01*
X107377Y29475D01*
X107187Y29409D01*
X106987Y29317D01*
X106779Y29199D01*
X106561Y29054D01*
X106334Y28883D01*
X105855Y28462D01*
X105601Y28213D01*
Y31630D01*
X105855Y31380D01*
D02*
G37*
D10*
X163484Y117913D02*
X168898D01*
X169685Y116142D02*
Y117126D01*
X168898Y117913D02*
X169685Y117126D01*
Y116142D02*
X171260Y114567D01*
X161122Y116240D02*
X162205Y117323D01*
X162894D02*
X163484Y117913D01*
X162205Y117323D02*
X162894D01*
X144882Y178347D02*
X150394D01*
X139370D02*
X144882D01*
X146752Y97342D02*
Y97769D01*
X147441Y98458D02*
Y104429D01*
X146752Y97769D02*
X147441Y98458D01*
X180020Y84252D02*
X181102Y85335D01*
X181299Y86670D02*
Y150098D01*
X181102Y85335D02*
Y86473D01*
X181299Y86670D01*
X168799Y84252D02*
X180020D01*
X162894Y90158D02*
X168799Y84252D01*
X147736Y46063D02*
X147835D01*
X137461Y35787D02*
X147736Y46063D01*
X113878Y35787D02*
X137461D01*
X108012Y29921D02*
X113878Y35787D01*
X103858Y29921D02*
X108012D01*
X154232Y151969D02*
X158034D01*
X163841Y146161D02*
X164382D01*
X158034Y151969D02*
X163841Y146161D01*
X163949Y145728D02*
X164382Y146161D01*
X162643Y145728D02*
X163949D01*
X161341Y144427D02*
X162643Y145728D01*
X161341Y135160D02*
Y144427D01*
X160039Y133858D02*
X161341Y135160D01*
X156783Y133858D02*
X160039D01*
X155610Y132685D02*
X156783Y133858D01*
X155453Y130610D02*
X155610Y130768D01*
Y132685D01*
X154232Y151969D02*
X154460Y151741D01*
X133957Y104370D02*
X134646Y103681D01*
X137402Y110138D02*
X139764D01*
X133957Y107835D02*
X134733Y108611D01*
X135874D02*
X137402Y110138D01*
X134733Y108611D02*
X135874D01*
X151416Y119821D02*
Y122341D01*
X157162Y112080D02*
X161516Y107726D01*
Y104390D02*
X161713Y104193D01*
X161516Y104390D02*
Y107726D01*
X143504Y101083D02*
Y104429D01*
X137697Y97342D02*
X140453Y100098D01*
X142520D01*
X143504Y101083D01*
X149409Y99207D02*
Y104429D01*
Y99207D02*
X150886Y97730D01*
Y97342D02*
Y97730D01*
X157157Y110106D02*
X159153Y108109D01*
Y102483D02*
Y108109D01*
Y102483D02*
X159964Y101673D01*
X136706Y114075D02*
X139764D01*
X133268Y115905D02*
X133639Y115534D01*
X135247D01*
X136706Y114075D01*
X151378Y103150D02*
X155014Y99514D01*
X145473Y100197D02*
Y104429D01*
X142717Y97342D02*
Y97441D01*
X145473Y100197D01*
X138976Y126346D02*
X143466Y121856D01*
Y119821D02*
Y121856D01*
Y119821D02*
X143504Y119783D01*
X156687Y108132D02*
X157776Y107043D01*
Y99311D02*
Y107043D01*
Y99311D02*
X159252Y97835D01*
Y93110D02*
Y97835D01*
X136614Y107087D02*
X137659Y108132D01*
X135965Y103681D02*
X136614Y104331D01*
X134646Y103681D02*
X135965D01*
X136614Y104331D02*
Y107087D01*
X133602Y112106D02*
X139764D01*
X133268Y112441D02*
X133602Y112106D01*
X157382Y114075D02*
X159449Y116142D01*
X161122D01*
Y116240D01*
X155178Y116103D02*
X157082D01*
X160335Y118701D02*
X161122Y119488D01*
X159679Y118701D02*
X160335D01*
X157082Y116103D02*
X159679Y118701D01*
X145473Y119783D02*
Y122343D01*
X138813Y130053D02*
X138976Y129890D01*
X141417Y126398D02*
X145473Y122343D01*
X140726Y128945D02*
X141417Y128253D01*
Y126398D02*
Y128253D01*
X133465Y120768D02*
X133692Y120540D01*
X135433Y120866D02*
X136221Y120079D01*
X137462Y116081D02*
X139726D01*
X136221Y117323D02*
Y120079D01*
Y117323D02*
X137462Y116081D01*
X139726D02*
X139764Y116043D01*
X155118Y110138D02*
X155150Y110106D01*
X157157D01*
X151378Y103150D02*
Y104429D01*
X155118Y112106D02*
X155145Y112080D01*
X157162D01*
X143504Y104429D02*
X143504Y104429D01*
X155118Y108169D02*
X155156Y108132D01*
X156687D01*
X137659D02*
X139726D01*
X139764Y108169D01*
X155118Y114075D02*
X157382D01*
X155118Y116043D02*
X155178Y116103D01*
X151378Y119783D02*
X151416Y119821D01*
Y122341D02*
X154508Y125433D01*
X133563Y120866D02*
X135433D01*
X133465Y120768D02*
X133563Y120866D01*
X139842Y128945D02*
X140726D01*
X138976Y129811D02*
X139842Y128945D01*
X138976Y129811D02*
Y129890D01*
X155014Y97644D02*
Y99514D01*
Y97644D02*
X155315Y97342D01*
X161713Y100728D02*
Y100807D01*
X160846Y101673D02*
X161713Y100807D01*
X159964Y101673D02*
X160846D01*
X142777Y164309D02*
X142815Y164272D01*
X142777Y164309D02*
Y166179D01*
X141339Y167618D02*
X142777Y166179D01*
X144746Y150864D02*
Y152817D01*
X143799Y149705D02*
Y149918D01*
X144746Y152817D02*
X144783Y152854D01*
X143799Y149918D02*
X144746Y150864D01*
X148287Y169488D02*
X151870D01*
X168504Y162894D02*
X181299Y150098D01*
X144882Y90158D02*
X162894D01*
X158268Y162894D02*
X168504D01*
X152362Y128051D02*
X153397Y127016D01*
X154508D01*
X150098Y128051D02*
X152362D01*
X158917Y126378D02*
X159016Y126476D01*
Y130512D01*
X158917Y130610D02*
X159016Y130512D01*
X148189Y166791D02*
Y169390D01*
X148287Y169488D01*
X146752Y165354D02*
X148189Y166791D01*
X146752Y164272D02*
Y165354D01*
X149508Y159547D02*
Y161516D01*
X169646Y126772D02*
X172736D01*
X163287Y109055D02*
X166181D01*
X166142Y109095D02*
Y114567D01*
Y109095D02*
X166181Y109055D01*
X169646D02*
X170433Y109843D01*
Y113740D01*
X171260Y114567D01*
X169646Y122874D02*
Y126772D01*
Y122874D02*
X171260Y121260D01*
X166142D02*
X166181Y121299D01*
Y126772D01*
X164370Y119488D02*
X166142Y121260D01*
X161122Y119488D02*
X164370D01*
X138976Y126346D02*
Y126425D01*
X137500Y125835D02*
X138386D01*
X138976Y126425D01*
X146752Y163242D02*
Y164272D01*
X129823Y120866D02*
X129921Y120768D01*
X127362Y120866D02*
X129823D01*
X127264Y120965D02*
X127362Y120866D01*
X134055Y100689D02*
Y103484D01*
X134252Y103681D01*
X176870Y142618D02*
X176919Y142569D01*
Y139715D02*
X176969Y139665D01*
X176919Y139715D02*
Y142569D01*
X178494Y136565D02*
X178543Y136614D01*
X175541Y136565D02*
X178494D01*
X175492Y136516D02*
X175541Y136565D01*
X137697Y97342D02*
X144882Y90158D01*
X154232Y162992D02*
Y165945D01*
Y162992D02*
X154232Y162992D01*
X154201Y162961D02*
X154232Y162992D01*
X171949Y144882D02*
Y146075D01*
X172035Y146161D01*
X164382Y141043D02*
X168110D01*
X171949Y144882D01*
X164382Y143602D02*
X166634D01*
X168110Y145079D01*
X164382Y143602D02*
X164382Y143602D01*
X143602Y128051D02*
X146752D01*
X158169Y162992D02*
X158268Y162894D01*
X171949Y136516D02*
Y140957D01*
X172035Y141043D01*
Y146161D02*
X176870D01*
X152430Y162961D02*
X154201D01*
X151022Y161553D02*
X152430Y162961D01*
X149546Y161553D02*
X151022D01*
X149508Y161516D02*
X149546Y161553D01*
X154232Y159449D02*
X158169D01*
X149508Y157579D02*
X152362D01*
X154232Y159449D01*
X149546Y155573D02*
X154172D01*
X154232Y155512D01*
X149508Y155610D02*
X149546Y155573D01*
X140847Y152854D02*
X142815D01*
X144783D01*
X133839Y158465D02*
X134722D01*
X132972Y159331D02*
X133839Y158465D01*
X132972Y159331D02*
Y159409D01*
X135607Y157579D02*
X138091D01*
X134722Y158465D02*
X135607Y157579D01*
X132972Y155945D02*
X133307Y155610D01*
X138091D01*
D49*
X128189Y206594D02*
D03*
X144882D02*
D03*
X161575D02*
D03*
X161575Y206594D02*
D03*
X144882D02*
D03*
X128189D02*
D03*
D50*
X142717Y178347D02*
D03*
X147047D02*
D03*
D51*
X144882Y174606D02*
D03*
Y182087D02*
D03*
D52*
X147441Y112106D02*
D03*
D53*
X73819Y101378D02*
D03*
X77756D02*
D03*
D54*
X68799Y106535D02*
D03*
Y101339D02*
D03*
D55*
X139764Y108169D02*
D03*
Y110138D02*
D03*
Y112106D02*
D03*
Y114075D02*
D03*
Y116043D02*
D03*
X155118D02*
D03*
Y114075D02*
D03*
Y112106D02*
D03*
Y110138D02*
D03*
Y108169D02*
D03*
D56*
X143504Y119783D02*
D03*
X145473D02*
D03*
X147441D02*
D03*
X149409D02*
D03*
X151378D02*
D03*
Y104429D02*
D03*
X149409D02*
D03*
X147441D02*
D03*
X145473D02*
D03*
X143504D02*
D03*
D57*
X155453Y126378D02*
D03*
X158917D02*
D03*
X155453Y130610D02*
D03*
X158917D02*
D03*
X148287Y169488D02*
D03*
X144823D02*
D03*
X166181Y109055D02*
D03*
X169646D02*
D03*
Y126772D02*
D03*
X166181D02*
D03*
D58*
X161713Y104193D02*
D03*
Y100728D02*
D03*
X166043Y104193D02*
D03*
Y100728D02*
D03*
X170374Y104193D02*
D03*
Y100728D02*
D03*
X174705D02*
D03*
Y104193D02*
D03*
X132972Y155945D02*
D03*
Y159409D02*
D03*
X128642Y155945D02*
D03*
Y159409D02*
D03*
X124311Y155945D02*
D03*
Y159409D02*
D03*
X119980Y155945D02*
D03*
Y159409D02*
D03*
X125886Y129890D02*
D03*
Y126425D02*
D03*
X120276Y115905D02*
D03*
Y112441D02*
D03*
X128937D02*
D03*
Y115905D02*
D03*
X133268Y112441D02*
D03*
Y115905D02*
D03*
X124606Y112441D02*
D03*
Y115905D02*
D03*
X133957Y107835D02*
D03*
Y104370D02*
D03*
X138976Y126425D02*
D03*
Y129890D02*
D03*
X130217Y126425D02*
D03*
Y129890D02*
D03*
X134547Y126425D02*
D03*
Y129890D02*
D03*
D59*
X174705Y95669D02*
D03*
Y90945D02*
D03*
X120079Y145866D02*
D03*
Y150591D02*
D03*
X120276Y107283D02*
D03*
Y102559D02*
D03*
D60*
X184252Y84547D02*
D03*
Y171161D02*
D03*
X105512D02*
D03*
Y84547D02*
D03*
D61*
X168504Y186909D02*
D03*
Y68799D02*
D03*
X121260D02*
D03*
Y186909D02*
D03*
D62*
X105512Y68799D02*
D03*
X184252Y186909D02*
D03*
D63*
Y68799D02*
D03*
X105512Y186909D02*
D03*
D64*
X158169Y159449D02*
D03*
Y162992D02*
D03*
X154232Y159449D02*
D03*
Y162992D02*
D03*
Y155512D02*
D03*
Y151969D02*
D03*
X176870Y142618D02*
D03*
Y146161D02*
D03*
D65*
X140847Y152854D02*
D03*
X142815D02*
D03*
X144783D02*
D03*
X146752D02*
D03*
Y164272D02*
D03*
X144783D02*
D03*
X142815D02*
D03*
X140847D02*
D03*
D66*
X149508Y155610D02*
D03*
Y157579D02*
D03*
Y159547D02*
D03*
Y161516D02*
D03*
X138091D02*
D03*
Y159547D02*
D03*
Y157579D02*
D03*
Y155610D02*
D03*
D67*
X143799Y158563D02*
D03*
D68*
X120866Y126484D02*
D03*
X116142D02*
D03*
D69*
X161122Y116142D02*
D03*
Y119488D02*
D03*
D70*
X172035Y146161D02*
D03*
Y141043D02*
D03*
X164382D02*
D03*
Y143602D02*
D03*
Y146161D02*
D03*
D71*
X150098Y126083D02*
D03*
X146752D02*
D03*
X150098Y130020D02*
D03*
X146752D02*
D03*
X150098Y128051D02*
D03*
X146752D02*
D03*
D72*
X171949Y136516D02*
D03*
X175492D02*
D03*
X133465Y120768D02*
D03*
X129921D02*
D03*
D73*
X171260Y114567D02*
D03*
Y121260D02*
D03*
X166142D02*
D03*
Y114567D02*
D03*
D74*
X144882Y182087D02*
Y206594D01*
Y169547D02*
Y174606D01*
X144783Y164272D02*
Y169449D01*
X146752Y130020D02*
Y152854D01*
D75*
X77756Y101378D02*
X77795Y101417D01*
X86614D01*
D76*
X73799Y101358D02*
X73819Y101378D01*
X68799Y106535D02*
Y111122D01*
D77*
X86466Y111565D02*
X86614Y111713D01*
D78*
X166043Y100728D02*
X174705D01*
X155453Y126378D02*
Y130610D01*
X130217Y126425D02*
X134547D01*
Y126425D02*
X138091D01*
X130217Y126425D02*
X130217Y126425D01*
X125886Y126425D02*
X130217D01*
X125827Y126484D02*
X125886Y126425D01*
X120866Y126484D02*
X125827D01*
X174705Y95669D02*
Y100728D01*
X161713D02*
X166043D01*
X120079Y141043D02*
Y145866D01*
X128937Y112441D02*
X133268D01*
X124606D02*
X128937D01*
X120276D02*
X124606D01*
X120276Y107283D02*
Y112441D01*
D79*
X147458Y119800D02*
Y121707D01*
X149392Y119800D02*
Y121707D01*
X147441Y119783D02*
X147458Y119800D01*
X149392D02*
X149409Y119783D01*
X149508Y126083D02*
X150098D01*
X149464Y126038D02*
X149508Y126083D01*
X149464Y125320D02*
Y126038D01*
X149123Y124979D02*
X149464Y125320D01*
X149123Y121977D02*
Y124979D01*
Y121977D02*
X149392Y121707D01*
X147458D02*
X147727Y121977D01*
Y124979D01*
X147387Y125320D02*
X147727Y124979D01*
X147387Y125320D02*
Y126038D01*
X147343Y126083D02*
X147387Y126038D01*
X146752Y126083D02*
X147343D01*
D80*
X116142Y126484D02*
X116142Y126484D01*
D81*
X17717Y66457D02*
D03*
D82*
X86614Y121417D02*
D03*
Y131417D02*
D03*
Y141417D02*
D03*
Y101417D02*
D03*
Y111417D02*
D03*
Y151417D02*
D03*
Y161417D02*
D03*
D83*
X73858Y29921D02*
D03*
Y39921D02*
D03*
X83858Y29921D02*
D03*
Y39921D02*
D03*
X93858Y29921D02*
D03*
Y39921D02*
D03*
X103858Y29921D02*
D03*
Y39921D02*
D03*
X113858Y29921D02*
D03*
Y39921D02*
D03*
X123858Y29921D02*
D03*
Y39921D02*
D03*
X133858Y29921D02*
D03*
D84*
Y39921D02*
D03*
D85*
X181102Y15748D02*
D03*
X62992Y66929D02*
D03*
X15748Y200787D02*
D03*
D86*
X23622Y29134D02*
D03*
D87*
X35433D02*
D03*
D88*
X161614Y206299D02*
D03*
X128150D02*
D03*
Y212894D02*
D03*
X155315Y97342D02*
D03*
X62303Y103076D02*
D03*
X65453D02*
D03*
Y99902D02*
D03*
X62303D02*
D03*
X150394Y178347D02*
D03*
X139370D02*
D03*
X144882D02*
D03*
X95374Y133169D02*
D03*
Y141437D02*
D03*
X96850Y200787D02*
D03*
X155905Y3937D02*
D03*
X136221D02*
D03*
X116535D02*
D03*
X96850Y82677D02*
D03*
X106693Y23622D02*
D03*
X96850Y3937D02*
D03*
X77165Y200787D02*
D03*
X87008Y181102D02*
D03*
X77165Y82677D02*
D03*
X87008Y62992D02*
D03*
Y23622D02*
D03*
X77165Y3937D02*
D03*
X57480Y200787D02*
D03*
X67323Y181102D02*
D03*
Y141732D02*
D03*
X57480Y122047D02*
D03*
Y82677D02*
D03*
Y43307D02*
D03*
X67323Y23622D02*
D03*
X57480Y3937D02*
D03*
X37795Y200787D02*
D03*
X47638Y181102D02*
D03*
X37795Y161417D02*
D03*
X47638Y141732D02*
D03*
X37795Y122047D02*
D03*
Y82677D02*
D03*
X47638Y62992D02*
D03*
X37795Y43307D02*
D03*
Y3937D02*
D03*
X27953Y181102D02*
D03*
X18110Y161417D02*
D03*
X27953Y141732D02*
D03*
X18110Y122047D02*
D03*
Y82677D02*
D03*
Y43307D02*
D03*
X27953Y23622D02*
D03*
X18110Y3937D02*
D03*
X75000Y109646D02*
D03*
Y112992D02*
D03*
Y116339D02*
D03*
Y119685D02*
D03*
Y123031D02*
D03*
X70046Y96752D02*
D03*
X73917Y90354D02*
D03*
Y93553D02*
D03*
Y96752D02*
D03*
X70046Y93553D02*
D03*
Y90354D02*
D03*
X62303D02*
D03*
Y93553D02*
D03*
X66175Y96752D02*
D03*
Y93553D02*
D03*
Y90354D02*
D03*
X62303Y96752D02*
D03*
X78445Y123031D02*
D03*
Y119685D02*
D03*
Y116339D02*
D03*
Y112992D02*
D03*
Y109646D02*
D03*
X123130Y47736D02*
D03*
X106595Y48031D02*
D03*
X156299Y25098D02*
D03*
X143996Y25197D02*
D03*
X170866Y32579D02*
D03*
X183563D02*
D03*
X177067D02*
D03*
X164567D02*
D03*
X147539Y35728D02*
D03*
X147835Y46063D02*
D03*
X161614Y212894D02*
D03*
Y199606D02*
D03*
X128150D02*
D03*
X75394Y150295D02*
D03*
Y153642D02*
D03*
X79232D02*
D03*
X75394Y146949D02*
D03*
Y143602D02*
D03*
X79232D02*
D03*
Y146949D02*
D03*
Y150295D02*
D03*
X45276Y33957D02*
D03*
Y37106D02*
D03*
X41437D02*
D03*
Y33957D02*
D03*
Y20571D02*
D03*
Y23720D02*
D03*
Y30512D02*
D03*
X45276Y23720D02*
D03*
Y30709D02*
D03*
Y27165D02*
D03*
X41437D02*
D03*
X45276Y20571D02*
D03*
X172736Y126772D02*
D03*
X163287Y109055D02*
D03*
X162106Y130512D02*
D03*
X151870Y169488D02*
D03*
X116634Y98721D02*
D03*
X120177D02*
D03*
X123819D02*
D03*
X134646Y133563D02*
D03*
X130315D02*
D03*
X125886D02*
D03*
X122441D02*
D03*
X138976D02*
D03*
X133169Y162598D02*
D03*
X124311Y162795D02*
D03*
X120079D02*
D03*
X162205Y126279D02*
D03*
X115945Y119390D02*
D03*
X112008Y126772D02*
D03*
Y130217D02*
D03*
X122441D02*
D03*
X127264Y120965D02*
D03*
X170866Y90847D02*
D03*
Y87402D02*
D03*
X174409D02*
D03*
X177657D02*
D03*
Y91043D02*
D03*
X178445Y101575D02*
D03*
X178248Y104823D02*
D03*
X137697Y97342D02*
D03*
X142717D02*
D03*
X146752D02*
D03*
X150886D02*
D03*
X134055Y100689D02*
D03*
X174016Y49213D02*
D03*
X181890D02*
D03*
X159252Y93110D02*
D03*
X116240Y130217D02*
D03*
X116043Y160236D02*
D03*
X128642Y162697D02*
D03*
X123721Y102264D02*
D03*
X116634D02*
D03*
X115945Y116043D02*
D03*
X123524Y119390D02*
D03*
X120029D02*
D03*
D89*
X168307Y206299D02*
D03*
X68799Y111122D02*
D03*
X120079Y141043D02*
D03*
X121457Y206299D02*
D03*
D90*
X141831Y160531D02*
D03*
Y156595D02*
D03*
X145768D02*
D03*
Y160531D02*
D03*
X143799Y158563D02*
D03*
X49606Y98917D02*
D03*
X132087Y177428D02*
D03*
Y167717D02*
D03*
Y182283D02*
D03*
Y172572D02*
D03*
Y186811D02*
D03*
X157382Y167520D02*
D03*
Y172441D02*
D03*
Y177362D02*
D03*
Y182283D02*
D03*
X144291Y108760D02*
D03*
X150689Y112106D02*
D03*
Y108760D02*
D03*
Y115453D02*
D03*
X144291D02*
D03*
X147490Y108760D02*
D03*
Y115453D02*
D03*
Y112106D02*
D03*
X144291D02*
D03*
X138878Y164764D02*
D03*
X141339Y167618D02*
D03*
X168209Y104626D02*
D03*
X172539D02*
D03*
X143799Y149705D02*
D03*
X163878Y104626D02*
D03*
X176969Y139665D02*
D03*
X178543Y136614D02*
D03*
X154232Y165945D02*
D03*
X168110Y145079D02*
D03*
X143602Y128051D02*
D03*
X141043Y149705D02*
D03*
X138878Y152362D02*
D03*
X131102Y116240D02*
D03*
X126772D02*
D03*
X122441D02*
D03*
X163681Y68799D02*
D03*
X158408D02*
D03*
X153136D02*
D03*
X147863D02*
D03*
X142590D02*
D03*
X137317D02*
D03*
X132044D02*
D03*
X157382Y186811D02*
D03*
X163517Y186811D02*
D03*
X174114D02*
D03*
X115551D02*
D03*
X184252Y213287D02*
D03*
Y208117D02*
D03*
Y202946D02*
D03*
Y197776D02*
D03*
Y192605D02*
D03*
X105512Y212697D02*
D03*
Y207526D02*
D03*
Y197185D02*
D03*
Y202356D02*
D03*
Y192014D02*
D03*
X184252Y176969D02*
D03*
Y168052D02*
D03*
Y159136D02*
D03*
Y150220D02*
D03*
Y141304D02*
D03*
Y132387D02*
D03*
Y123471D02*
D03*
Y114555D02*
D03*
Y105639D02*
D03*
Y96722D02*
D03*
Y87806D02*
D03*
Y78890D02*
D03*
X115453Y68799D02*
D03*
X126411Y186811D02*
D03*
X126772Y68799D02*
D03*
X174213D02*
D03*
X105512Y78584D02*
D03*
Y87500D02*
D03*
Y96416D02*
D03*
Y105333D02*
D03*
Y114249D02*
D03*
Y123165D02*
D03*
Y132081D02*
D03*
Y140997D02*
D03*
Y149914D02*
D03*
Y158830D02*
D03*
Y167746D02*
D03*
Y176662D02*
D03*
M02*
