G04*
G04 #@! TF.GenerationSoftware,Altium Limited,Altium Designer,22.1.2 (22)*
G04*
G04 Layer_Color=65535*
%FSLAX25Y25*%
%MOIN*%
G70*
G04*
G04 #@! TF.SameCoordinates,36DEEAF7-B38F-4887-853D-DC1A27ABF5B6*
G04*
G04*
G04 #@! TF.FilePolarity,Positive*
G04*
G01*
G75*
%ADD10C,0.00787*%
%ADD11C,0.00394*%
%ADD12C,0.00984*%
%ADD13C,0.00500*%
%ADD14C,0.00591*%
%ADD15C,0.00598*%
G36*
X29869Y205927D02*
X30401D01*
Y205750D01*
X30934D01*
Y205572D01*
X31467D01*
Y205395D01*
X31999D01*
Y205217D01*
X32532D01*
Y205040D01*
X33065D01*
Y204862D01*
X33597D01*
Y204684D01*
X34130D01*
Y204507D01*
X34663D01*
Y202199D01*
X34130D01*
Y202376D01*
X33420D01*
Y202554D01*
X32887D01*
Y202731D01*
X32355D01*
Y202909D01*
X31822D01*
Y203086D01*
X31289D01*
Y203264D01*
X30756D01*
Y203442D01*
X30224D01*
Y203619D01*
X29691D01*
Y203797D01*
X29513D01*
Y206105D01*
X29869D01*
Y205927D01*
D02*
G37*
G36*
X29691Y201133D02*
X30224D01*
Y200956D01*
X30756D01*
Y200778D01*
X31289D01*
Y200600D01*
X31822D01*
Y200423D01*
X32355D01*
Y200245D01*
X32887D01*
Y200068D01*
X33420D01*
Y199890D01*
X33953D01*
Y199713D01*
X34485D01*
Y199535D01*
X34663D01*
Y197227D01*
X34485D01*
Y197404D01*
X33953D01*
Y197582D01*
X33420D01*
Y197759D01*
X32887D01*
Y197937D01*
X32355D01*
Y198114D01*
X31822D01*
Y198292D01*
X31289D01*
Y198469D01*
X30579D01*
Y198647D01*
X30046D01*
Y198825D01*
X29513D01*
Y201311D01*
X29691D01*
Y201133D01*
D02*
G37*
G36*
X77254Y202151D02*
X77319D01*
Y202087D01*
X77447D01*
Y202023D01*
X77575D01*
Y201959D01*
X77640D01*
Y201894D01*
X77768D01*
Y201830D01*
X77832D01*
Y201766D01*
X77961D01*
Y201702D01*
X78025D01*
Y201638D01*
X78089D01*
Y201573D01*
X78217D01*
Y201509D01*
X78282D01*
Y201445D01*
X78346D01*
Y201381D01*
X78410D01*
Y201317D01*
X78474D01*
Y201252D01*
X78603D01*
Y201188D01*
X78667D01*
Y201124D01*
X78731D01*
Y201060D01*
X78795D01*
Y200996D01*
X78860D01*
Y200931D01*
X78924D01*
Y200867D01*
X78988D01*
Y200803D01*
X79052D01*
Y200739D01*
X79116D01*
Y200675D01*
X79181D01*
Y200610D01*
X79245D01*
Y200546D01*
X79309D01*
Y200482D01*
X79373D01*
Y200418D01*
X79437D01*
Y200354D01*
X79501D01*
Y200289D01*
X79566D01*
Y200161D01*
X79630D01*
Y200097D01*
X79694D01*
Y200032D01*
X79758D01*
Y199968D01*
X79823D01*
Y199904D01*
X79887D01*
Y199776D01*
X79951D01*
Y199712D01*
X80015D01*
Y199647D01*
X80079D01*
Y199519D01*
X80144D01*
Y199455D01*
X80208D01*
Y199390D01*
X80272D01*
Y199262D01*
X80336D01*
Y199198D01*
X80400D01*
Y199069D01*
X80465D01*
Y199005D01*
X80529D01*
Y198877D01*
X80593D01*
Y198813D01*
X80657D01*
Y198684D01*
X80721D01*
Y198556D01*
X80786D01*
Y198492D01*
X80850D01*
Y198363D01*
X80914D01*
Y198235D01*
X80978D01*
Y198106D01*
X81042D01*
Y197978D01*
X81107D01*
Y197850D01*
X81171D01*
Y197785D01*
X81235D01*
Y197657D01*
X81299D01*
Y197464D01*
X81363D01*
Y197336D01*
X81428D01*
Y197207D01*
X81492D01*
Y197079D01*
X81556D01*
Y196951D01*
X81620D01*
Y196758D01*
X81684D01*
Y196630D01*
X81749D01*
Y196437D01*
X81813D01*
Y196309D01*
X81877D01*
Y196116D01*
X81941D01*
Y195923D01*
X82006D01*
Y195795D01*
X82070D01*
Y195602D01*
X82134D01*
Y195410D01*
X82198D01*
Y195217D01*
X82262D01*
Y194960D01*
X82327D01*
Y194768D01*
X82391D01*
Y194511D01*
X82455D01*
Y194254D01*
X82519D01*
Y193997D01*
X82583D01*
Y193740D01*
X82648D01*
Y193483D01*
X82712D01*
Y193163D01*
X82776D01*
Y192841D01*
X82840D01*
Y192456D01*
X82904D01*
Y192007D01*
X82969D01*
Y191557D01*
X83033D01*
Y190915D01*
X83097D01*
Y190016D01*
X83161D01*
Y187898D01*
X83097D01*
Y187063D01*
X83033D01*
Y186549D01*
X82969D01*
Y186100D01*
X82904D01*
Y185779D01*
X82840D01*
Y185458D01*
X82776D01*
Y185201D01*
X82712D01*
Y184944D01*
X82648D01*
Y184751D01*
X82583D01*
Y184495D01*
X82519D01*
Y184302D01*
X82455D01*
Y184109D01*
X82391D01*
Y183917D01*
X82327D01*
Y183724D01*
X82262D01*
Y183532D01*
X82198D01*
Y183339D01*
X82134D01*
Y183146D01*
X82070D01*
Y182954D01*
X82006D01*
Y182825D01*
X81941D01*
Y182633D01*
X81877D01*
Y182440D01*
X81813D01*
Y182312D01*
X81749D01*
Y182183D01*
X81684D01*
Y181991D01*
X81620D01*
Y181862D01*
X81556D01*
Y181734D01*
X81492D01*
Y181541D01*
X81428D01*
Y181413D01*
X81363D01*
Y181284D01*
X81299D01*
Y181156D01*
X81235D01*
Y181027D01*
X81171D01*
Y180899D01*
X81107D01*
Y180771D01*
X81042D01*
Y180642D01*
X80978D01*
Y180514D01*
X80914D01*
Y180450D01*
X80850D01*
Y180321D01*
X80786D01*
Y180257D01*
X80721D01*
Y180129D01*
X80657D01*
Y180064D01*
X80593D01*
Y180000D01*
X80529D01*
Y179872D01*
X80465D01*
Y179808D01*
X80400D01*
Y179743D01*
X80336D01*
Y179679D01*
X80272D01*
Y179615D01*
X80208D01*
Y179487D01*
X80144D01*
Y179422D01*
X80079D01*
Y179358D01*
X80015D01*
Y179294D01*
X79951D01*
Y179230D01*
X79887D01*
Y179166D01*
X79823D01*
Y179101D01*
X79758D01*
Y179037D01*
X79694D01*
Y178973D01*
X79630D01*
Y178909D01*
X79566D01*
Y178844D01*
X79501D01*
Y178780D01*
X79437D01*
Y178716D01*
X79309D01*
Y178652D01*
X79245D01*
Y178588D01*
X79181D01*
Y178524D01*
X79116D01*
Y178459D01*
X79052D01*
Y178395D01*
X78924D01*
Y178331D01*
X78860D01*
Y178267D01*
X78795D01*
Y178202D01*
X78667D01*
Y178138D01*
X78603D01*
Y178074D01*
X78538D01*
Y178010D01*
X78410D01*
Y177946D01*
X78346D01*
Y177881D01*
X78217D01*
Y177817D01*
X78153D01*
Y177753D01*
X78025D01*
Y177689D01*
X77896D01*
Y177625D01*
X77832D01*
Y177560D01*
X77704D01*
Y177496D01*
X77640D01*
Y177432D01*
X77511D01*
Y177368D01*
X77319D01*
Y177304D01*
X77126D01*
Y177239D01*
X76933D01*
Y177175D01*
X76741D01*
Y177111D01*
X76612D01*
Y177047D01*
X76420D01*
Y176983D01*
X76227D01*
Y176918D01*
X76034D01*
Y176854D01*
X75842D01*
Y176790D01*
X75649D01*
Y176726D01*
X75457D01*
Y176662D01*
X75264D01*
Y176597D01*
X75071D01*
Y176533D01*
X74879D01*
Y176469D01*
X74686D01*
Y176405D01*
X74622D01*
Y176340D01*
X74558D01*
Y176276D01*
X74493D01*
Y176148D01*
X74429D01*
Y176084D01*
X74365D01*
Y175955D01*
X74301D01*
Y175891D01*
X74237D01*
Y175827D01*
X74172D01*
Y175763D01*
X74108D01*
Y175698D01*
X74044D01*
Y175634D01*
X73980D01*
Y175570D01*
X73916D01*
Y175506D01*
X73851D01*
Y175442D01*
X73723D01*
Y175377D01*
X73659D01*
Y175313D01*
X73530D01*
Y175249D01*
X73402D01*
Y175185D01*
X73209D01*
Y175121D01*
X72888D01*
Y175056D01*
X72246D01*
Y175121D01*
X71925D01*
Y175185D01*
X71668D01*
Y175249D01*
X71476D01*
Y175313D01*
X71283D01*
Y175377D01*
X71155D01*
Y175442D01*
X71026D01*
Y175506D01*
X70898D01*
Y175570D01*
X70770D01*
Y175634D01*
X70641D01*
Y175698D01*
X70513D01*
Y175763D01*
X70448D01*
Y175827D01*
X70320D01*
Y175891D01*
X70192D01*
Y175955D01*
X70127D01*
Y176020D01*
X69999D01*
Y176084D01*
X69935D01*
Y176148D01*
X69806D01*
Y176212D01*
X69742D01*
Y176276D01*
X69678D01*
Y176340D01*
X69550D01*
Y176405D01*
X69485D01*
Y176469D01*
X69357D01*
Y176533D01*
X69293D01*
Y176597D01*
X69229D01*
Y176662D01*
X69164D01*
Y176726D01*
X69036D01*
Y176790D01*
X68972D01*
Y176854D01*
X68907D01*
Y176918D01*
X68843D01*
Y176983D01*
X68715D01*
Y177047D01*
X68651D01*
Y177111D01*
X68586D01*
Y177175D01*
X68522D01*
Y177368D01*
X68586D01*
Y177432D01*
X69742D01*
Y177496D01*
X70448D01*
Y177560D01*
X70641D01*
Y177625D01*
X70834D01*
Y177689D01*
X70962D01*
Y177753D01*
X71026D01*
Y177817D01*
X71091D01*
Y177881D01*
X71155D01*
Y177946D01*
X71219D01*
Y178010D01*
X71283D01*
Y178074D01*
X71347D01*
Y178202D01*
X71412D01*
Y178267D01*
X71476D01*
Y178395D01*
X71540D01*
Y178524D01*
X71604D01*
Y178652D01*
X71668D01*
Y178844D01*
X71733D01*
Y178973D01*
X71797D01*
Y179101D01*
X71861D01*
Y179230D01*
X71925D01*
Y179358D01*
X71989D01*
Y179551D01*
X72054D01*
Y179679D01*
X72118D01*
Y179808D01*
X72182D01*
Y179936D01*
X72246D01*
Y180129D01*
X72311D01*
Y180257D01*
X72375D01*
Y180450D01*
X72439D01*
Y180578D01*
X72503D01*
Y180771D01*
X72567D01*
Y180899D01*
X72632D01*
Y181092D01*
X72696D01*
Y181284D01*
X72760D01*
Y181413D01*
X72824D01*
Y181605D01*
X72888D01*
Y181798D01*
X72953D01*
Y181991D01*
X73017D01*
Y182247D01*
X73081D01*
Y182440D01*
X73145D01*
Y182697D01*
X73209D01*
Y182954D01*
X73274D01*
Y183211D01*
X73338D01*
Y183532D01*
X73402D01*
Y184816D01*
X73338D01*
Y185073D01*
X73274D01*
Y185329D01*
X73209D01*
Y185458D01*
X73145D01*
Y185586D01*
X73081D01*
Y185715D01*
X73017D01*
Y185843D01*
X72953D01*
Y185907D01*
X72888D01*
Y186036D01*
X72824D01*
Y186100D01*
X72760D01*
Y186228D01*
X72696D01*
Y186292D01*
X72632D01*
Y186357D01*
X72567D01*
Y186485D01*
X72503D01*
Y186549D01*
X72439D01*
Y186614D01*
X72375D01*
Y186678D01*
X72311D01*
Y186742D01*
X72246D01*
Y186806D01*
X72182D01*
Y186870D01*
X72054D01*
Y186934D01*
X71989D01*
Y186999D01*
X71925D01*
Y187063D01*
X71797D01*
Y187127D01*
X71733D01*
Y187191D01*
X71604D01*
Y187256D01*
X71540D01*
Y187320D01*
X71412D01*
Y187384D01*
X71283D01*
Y187448D01*
X71155D01*
Y187512D01*
X71026D01*
Y187576D01*
X70834D01*
Y187641D01*
X70641D01*
Y187705D01*
X70384D01*
Y187769D01*
X69999D01*
Y187833D01*
X69036D01*
Y187769D01*
X68651D01*
Y187705D01*
X68394D01*
Y187641D01*
X68201D01*
Y187576D01*
X68009D01*
Y187512D01*
X67880D01*
Y187448D01*
X67752D01*
Y187384D01*
X67623D01*
Y187320D01*
X67495D01*
Y187256D01*
X67367D01*
Y187191D01*
X67302D01*
Y187127D01*
X67174D01*
Y187063D01*
X67110D01*
Y186999D01*
X67046D01*
Y186934D01*
X66917D01*
Y186870D01*
X66853D01*
Y186806D01*
X66789D01*
Y186742D01*
X66724D01*
Y186678D01*
X66660D01*
Y186614D01*
X66596D01*
Y186549D01*
X66532D01*
Y186485D01*
X66468D01*
Y186421D01*
X66404D01*
Y186292D01*
X66339D01*
Y186228D01*
X66275D01*
Y186164D01*
X66211D01*
Y186036D01*
X66147D01*
Y185971D01*
X66083D01*
Y185843D01*
X66018D01*
Y185715D01*
X65954D01*
Y185586D01*
X65890D01*
Y185458D01*
X65826D01*
Y185329D01*
X65762D01*
Y185137D01*
X65697D01*
Y184944D01*
X65633D01*
Y184687D01*
X65569D01*
Y184366D01*
X65505D01*
Y183275D01*
X65569D01*
Y182954D01*
X65633D01*
Y182697D01*
X65697D01*
Y182504D01*
X65762D01*
Y182312D01*
X65826D01*
Y182183D01*
X65890D01*
Y182055D01*
X65954D01*
Y181926D01*
X66018D01*
Y181798D01*
X66083D01*
Y181670D01*
X66147D01*
Y181605D01*
X66211D01*
Y181477D01*
X66275D01*
Y181413D01*
X66339D01*
Y181349D01*
X66404D01*
Y181284D01*
X66468D01*
Y181156D01*
X66532D01*
Y181092D01*
X66596D01*
Y181027D01*
X66660D01*
Y180963D01*
X66724D01*
Y180899D01*
X66789D01*
Y180835D01*
X66853D01*
Y180771D01*
X66981D01*
Y180707D01*
X67046D01*
Y180642D01*
X67110D01*
Y180578D01*
X67238D01*
Y180514D01*
X67302D01*
Y180450D01*
X67431D01*
Y180385D01*
X67495D01*
Y180321D01*
X67623D01*
Y180257D01*
X67752D01*
Y180193D01*
X67880D01*
Y180064D01*
X67945D01*
Y179872D01*
X67752D01*
Y179936D01*
X67559D01*
Y180000D01*
X67367D01*
Y180064D01*
X67174D01*
Y180129D01*
X67046D01*
Y180193D01*
X66917D01*
Y180257D01*
X66724D01*
Y180321D01*
X66596D01*
Y180385D01*
X66468D01*
Y180450D01*
X66404D01*
Y180514D01*
X66275D01*
Y180578D01*
X66147D01*
Y180642D01*
X66018D01*
Y180707D01*
X65954D01*
Y180771D01*
X65826D01*
Y180835D01*
X65762D01*
Y180899D01*
X65697D01*
Y180963D01*
X65569D01*
Y181027D01*
X65505D01*
Y181092D01*
X65440D01*
Y181156D01*
X65376D01*
Y181220D01*
X65312D01*
Y181284D01*
X65184D01*
Y181349D01*
X65119D01*
Y181413D01*
X65055D01*
Y181541D01*
X64991D01*
Y181605D01*
X64927D01*
Y181670D01*
X64863D01*
Y181734D01*
X64798D01*
Y181798D01*
X64734D01*
Y181926D01*
X64670D01*
Y181991D01*
X64606D01*
Y182055D01*
X64542D01*
Y182183D01*
X64477D01*
Y182312D01*
X64413D01*
Y182440D01*
X64349D01*
Y182569D01*
X64285D01*
Y182697D01*
X64220D01*
Y182889D01*
X64156D01*
Y183082D01*
X64092D01*
Y183339D01*
X64028D01*
Y183853D01*
X63964D01*
Y184430D01*
X64028D01*
Y184880D01*
X64092D01*
Y185137D01*
X64156D01*
Y185201D01*
X64220D01*
Y185265D01*
X64413D01*
Y185329D01*
X64477D01*
Y185394D01*
X64413D01*
Y185586D01*
X64477D01*
Y185843D01*
X64349D01*
Y185779D01*
X64220D01*
Y185715D01*
X64156D01*
Y185650D01*
X64028D01*
Y185586D01*
X63964D01*
Y185522D01*
X63899D01*
Y185458D01*
X63835D01*
Y185394D01*
X63771D01*
Y185329D01*
X63707D01*
Y185265D01*
X63643D01*
Y185201D01*
X63578D01*
Y185137D01*
X63514D01*
Y185073D01*
X63450D01*
Y184944D01*
X63386D01*
Y184880D01*
X63322D01*
Y184751D01*
X63257D01*
Y184687D01*
X63193D01*
Y184559D01*
X63129D01*
Y184366D01*
X63065D01*
Y184238D01*
X63001D01*
Y184045D01*
X62936D01*
Y183853D01*
X62872D01*
Y183596D01*
X62808D01*
Y183275D01*
X62744D01*
Y182954D01*
X62680D01*
Y182569D01*
X62615D01*
Y181734D01*
X62551D01*
Y181284D01*
X62615D01*
Y180514D01*
X62680D01*
Y180129D01*
X62744D01*
Y179872D01*
X62808D01*
Y179615D01*
X62872D01*
Y179422D01*
X62936D01*
Y179230D01*
X63001D01*
Y179101D01*
X63065D01*
Y178909D01*
X63129D01*
Y178780D01*
X63193D01*
Y178652D01*
X63257D01*
Y178524D01*
X63322D01*
Y178395D01*
X63386D01*
Y178331D01*
X63450D01*
Y178202D01*
X63514D01*
Y178074D01*
X63578D01*
Y178010D01*
X63643D01*
Y177881D01*
X63707D01*
Y177817D01*
X63771D01*
Y177689D01*
X63835D01*
Y177625D01*
X63899D01*
Y177560D01*
X63964D01*
Y177496D01*
X64028D01*
Y177368D01*
X64092D01*
Y177304D01*
X64156D01*
Y177239D01*
X64220D01*
Y177175D01*
X64285D01*
Y177111D01*
X64349D01*
Y177047D01*
X64413D01*
Y176983D01*
X64477D01*
Y176918D01*
X64542D01*
Y176854D01*
X64606D01*
Y176790D01*
X64670D01*
Y176726D01*
X64734D01*
Y176662D01*
X64798D01*
Y176597D01*
X64863D01*
Y176533D01*
X64991D01*
Y176469D01*
X65055D01*
Y176405D01*
X65119D01*
Y176340D01*
X65248D01*
Y176276D01*
X65312D01*
Y176212D01*
X65376D01*
Y176148D01*
X65505D01*
Y176084D01*
X65569D01*
Y176020D01*
X65697D01*
Y175955D01*
X65762D01*
Y175891D01*
X65890D01*
Y175827D01*
X65954D01*
Y175763D01*
X66083D01*
Y175698D01*
X66211D01*
Y175634D01*
X66339D01*
Y175570D01*
X66468D01*
Y175506D01*
X66596D01*
Y175442D01*
X66724D01*
Y175377D01*
X66853D01*
Y175313D01*
X66981D01*
Y175249D01*
X67110D01*
Y175185D01*
X67302D01*
Y175121D01*
X67431D01*
Y175056D01*
X67623D01*
Y174992D01*
X67816D01*
Y174928D01*
X67880D01*
Y174735D01*
X67816D01*
Y174671D01*
X67431D01*
Y174735D01*
X67110D01*
Y174800D01*
X66853D01*
Y174864D01*
X66596D01*
Y174928D01*
X66404D01*
Y174992D01*
X66147D01*
Y175056D01*
X65954D01*
Y175121D01*
X65762D01*
Y175185D01*
X65569D01*
Y175249D01*
X65440D01*
Y175313D01*
X65248D01*
Y175377D01*
X65119D01*
Y175442D01*
X64927D01*
Y175506D01*
X64798D01*
Y175570D01*
X64670D01*
Y175634D01*
X64542D01*
Y175698D01*
X64413D01*
Y175763D01*
X64285D01*
Y175827D01*
X64156D01*
Y175891D01*
X64028D01*
Y175955D01*
X63899D01*
Y176020D01*
X63771D01*
Y176084D01*
X63643D01*
Y176148D01*
X63578D01*
Y176212D01*
X63450D01*
Y176276D01*
X63322D01*
Y176340D01*
X63257D01*
Y176405D01*
X63129D01*
Y176469D01*
X63065D01*
Y176533D01*
X62936D01*
Y176597D01*
X62872D01*
Y176662D01*
X62744D01*
Y176726D01*
X62680D01*
Y176790D01*
X62615D01*
Y176854D01*
X62487D01*
Y176918D01*
X62423D01*
Y176983D01*
X62358D01*
Y177047D01*
X62294D01*
Y177111D01*
X62166D01*
Y177175D01*
X62102D01*
Y177239D01*
X62037D01*
Y177304D01*
X61973D01*
Y177368D01*
X61909D01*
Y177432D01*
X61845D01*
Y177496D01*
X61781D01*
Y177560D01*
X61717D01*
Y177625D01*
X61652D01*
Y177689D01*
X61588D01*
Y177753D01*
X61524D01*
Y177817D01*
X61460D01*
Y177881D01*
X61396D01*
Y177946D01*
X61331D01*
Y178074D01*
X61267D01*
Y178138D01*
X61203D01*
Y178202D01*
X61139D01*
Y178331D01*
X61074D01*
Y178395D01*
X61010D01*
Y178524D01*
X60946D01*
Y178652D01*
X60882D01*
Y178780D01*
X60818D01*
Y178909D01*
X60753D01*
Y179037D01*
X60689D01*
Y179166D01*
X60625D01*
Y179294D01*
X60561D01*
Y179487D01*
X60497D01*
Y179679D01*
X60432D01*
Y179872D01*
X60368D01*
Y180064D01*
X60304D01*
Y180321D01*
X60240D01*
Y180578D01*
X60176D01*
Y180899D01*
X60111D01*
Y181220D01*
X60047D01*
Y181734D01*
X59983D01*
Y182633D01*
X59919D01*
Y183532D01*
X59983D01*
Y184109D01*
X59919D01*
Y183981D01*
X59855D01*
Y183724D01*
X59790D01*
Y183467D01*
X59726D01*
Y183146D01*
X59662D01*
Y182825D01*
X59598D01*
Y182440D01*
X59534D01*
Y181862D01*
X59469D01*
Y180129D01*
X59405D01*
Y180000D01*
X59341D01*
Y179872D01*
X59277D01*
Y179808D01*
X59212D01*
Y180000D01*
X59148D01*
Y180385D01*
X59084D01*
Y180835D01*
X59020D01*
Y181284D01*
X58956D01*
Y181991D01*
X58891D01*
Y184559D01*
X58956D01*
Y185137D01*
X59020D01*
Y185586D01*
X59084D01*
Y185971D01*
X59148D01*
Y186228D01*
X59212D01*
Y186485D01*
X59277D01*
Y186742D01*
X59341D01*
Y186999D01*
X59405D01*
Y187191D01*
X59469D01*
Y187384D01*
X59534D01*
Y187512D01*
X59598D01*
Y187705D01*
X59662D01*
Y187833D01*
X59726D01*
Y188026D01*
X59790D01*
Y188154D01*
X59855D01*
Y188283D01*
X59919D01*
Y188411D01*
X59983D01*
Y188540D01*
X60047D01*
Y188668D01*
X60111D01*
Y188732D01*
X60176D01*
Y188861D01*
X60240D01*
Y188989D01*
X60176D01*
Y188925D01*
X60111D01*
Y188796D01*
X60047D01*
Y188732D01*
X59983D01*
Y188668D01*
X59919D01*
Y188540D01*
X59855D01*
Y188411D01*
X59790D01*
Y188283D01*
X59726D01*
Y188154D01*
X59662D01*
Y188026D01*
X59598D01*
Y187898D01*
X59534D01*
Y187769D01*
X59469D01*
Y187576D01*
X59405D01*
Y187384D01*
X59341D01*
Y187191D01*
X59277D01*
Y186999D01*
X59212D01*
Y186806D01*
X59148D01*
Y186549D01*
X59084D01*
Y186228D01*
X59020D01*
Y185907D01*
X58956D01*
Y185522D01*
X58891D01*
Y185008D01*
X58827D01*
Y184559D01*
X58763D01*
Y183788D01*
X58699D01*
Y183660D01*
X58635D01*
Y183532D01*
X58570D01*
Y183403D01*
X58506D01*
Y183660D01*
X58442D01*
Y184238D01*
X58378D01*
Y186292D01*
X58442D01*
Y186934D01*
X58506D01*
Y187384D01*
X58570D01*
Y187705D01*
X58635D01*
Y188026D01*
X58699D01*
Y188347D01*
X58763D01*
Y188540D01*
X58827D01*
Y188796D01*
X58891D01*
Y188989D01*
X58956D01*
Y189182D01*
X59020D01*
Y189374D01*
X59084D01*
Y189567D01*
X59148D01*
Y189760D01*
X59084D01*
Y189631D01*
X59020D01*
Y189503D01*
X58956D01*
Y189374D01*
X58891D01*
Y189246D01*
X58827D01*
Y189118D01*
X58763D01*
Y188989D01*
X58699D01*
Y188796D01*
X58635D01*
Y188668D01*
X58570D01*
Y188540D01*
X58506D01*
Y188347D01*
X58442D01*
Y188219D01*
X58378D01*
Y188026D01*
X58314D01*
Y187833D01*
X58249D01*
Y187641D01*
X58185D01*
Y187448D01*
X58121D01*
Y187256D01*
X58057D01*
Y187063D01*
X57993D01*
Y186870D01*
X57928D01*
Y186614D01*
X57864D01*
Y186421D01*
X57800D01*
Y186164D01*
X57736D01*
Y186036D01*
X57671D01*
Y185907D01*
X57607D01*
Y185843D01*
X57543D01*
Y185779D01*
X57479D01*
Y186036D01*
X57415D01*
Y186292D01*
X57479D01*
Y186742D01*
X57543D01*
Y187191D01*
X57607D01*
Y187576D01*
X57671D01*
Y187898D01*
X57736D01*
Y188219D01*
X57800D01*
Y188475D01*
X57864D01*
Y188732D01*
X57928D01*
Y188989D01*
X57993D01*
Y189182D01*
X58057D01*
Y189438D01*
X58121D01*
Y189631D01*
X58185D01*
Y189824D01*
X58249D01*
Y190016D01*
X58314D01*
Y190145D01*
X58378D01*
Y190337D01*
X58442D01*
Y190466D01*
X58506D01*
Y190658D01*
X58570D01*
Y190787D01*
X58635D01*
Y190915D01*
X58699D01*
Y191108D01*
X58763D01*
Y191236D01*
X58827D01*
Y191365D01*
X58891D01*
Y191493D01*
X58956D01*
Y191621D01*
X59020D01*
Y191686D01*
X59084D01*
Y191814D01*
X59148D01*
Y191943D01*
X59212D01*
Y192071D01*
X59277D01*
Y192135D01*
X59341D01*
Y192264D01*
X59405D01*
Y192392D01*
X59469D01*
Y192456D01*
X59534D01*
Y192585D01*
X59598D01*
Y192649D01*
X59662D01*
Y192777D01*
X59726D01*
Y192841D01*
X59790D01*
Y192906D01*
X59855D01*
Y193034D01*
X59919D01*
Y193098D01*
X59983D01*
Y193163D01*
X60047D01*
Y193291D01*
X60111D01*
Y193355D01*
X60176D01*
Y193419D01*
X60240D01*
Y193483D01*
X60304D01*
Y193612D01*
X60368D01*
Y193676D01*
X60432D01*
Y193740D01*
X60497D01*
Y193805D01*
X60561D01*
Y193869D01*
X60625D01*
Y193933D01*
X60689D01*
Y193997D01*
X60753D01*
Y194061D01*
X60818D01*
Y194125D01*
X60882D01*
Y194190D01*
X60946D01*
Y194254D01*
X61010D01*
Y194318D01*
X61074D01*
Y194382D01*
X61139D01*
Y194447D01*
X61203D01*
Y194511D01*
X61267D01*
Y194575D01*
X61331D01*
Y194639D01*
X61396D01*
Y194703D01*
X61460D01*
Y194768D01*
X61588D01*
Y194832D01*
X61652D01*
Y194896D01*
X61717D01*
Y194960D01*
X61781D01*
Y195024D01*
X61845D01*
Y195089D01*
X61973D01*
Y195153D01*
X62037D01*
Y195217D01*
X62102D01*
Y195281D01*
X62230D01*
Y195345D01*
X62294D01*
Y195410D01*
X62423D01*
Y195474D01*
X62487D01*
Y195538D01*
X62615D01*
Y195602D01*
X62680D01*
Y195667D01*
X62808D01*
Y195731D01*
X62872D01*
Y195795D01*
X63001D01*
Y195859D01*
X63129D01*
Y195923D01*
X63193D01*
Y195987D01*
X63322D01*
Y196052D01*
X63450D01*
Y196116D01*
X63578D01*
Y196180D01*
X63707D01*
Y196244D01*
X63835D01*
Y196309D01*
X63964D01*
Y196373D01*
X64092D01*
Y196437D01*
X64220D01*
Y196501D01*
X64413D01*
Y196565D01*
X64542D01*
Y196630D01*
X64670D01*
Y196694D01*
X64863D01*
Y196758D01*
X65055D01*
Y196822D01*
X65248D01*
Y196886D01*
X65376D01*
Y196951D01*
X65505D01*
Y197015D01*
X65826D01*
Y197079D01*
X66018D01*
Y197143D01*
X66211D01*
Y197207D01*
X66468D01*
Y197272D01*
X66724D01*
Y197336D01*
X66981D01*
Y197400D01*
X67238D01*
Y197464D01*
X67495D01*
Y197529D01*
X67367D01*
Y197593D01*
X66917D01*
Y197657D01*
X66275D01*
Y197721D01*
X64606D01*
Y197657D01*
X63964D01*
Y197593D01*
X63514D01*
Y197529D01*
X63193D01*
Y197464D01*
X62872D01*
Y197400D01*
X62615D01*
Y197336D01*
X62358D01*
Y197272D01*
X62102D01*
Y197207D01*
X61909D01*
Y197143D01*
X61717D01*
Y197079D01*
X61524D01*
Y197015D01*
X61396D01*
Y196951D01*
X61203D01*
Y196886D01*
X60946D01*
Y196951D01*
X60882D01*
Y197079D01*
X60946D01*
Y197207D01*
X61074D01*
Y197272D01*
X61139D01*
Y197336D01*
X61203D01*
Y197400D01*
X61267D01*
Y197464D01*
X61396D01*
Y197529D01*
X61460D01*
Y197593D01*
X61524D01*
Y197657D01*
X61588D01*
Y197721D01*
X61717D01*
Y197785D01*
X61781D01*
Y197850D01*
X61909D01*
Y197914D01*
X61973D01*
Y197978D01*
X62037D01*
Y198042D01*
X62166D01*
Y198106D01*
X62230D01*
Y198170D01*
X62358D01*
Y198235D01*
X62423D01*
Y198299D01*
X62551D01*
Y198363D01*
X62615D01*
Y198427D01*
X62744D01*
Y198492D01*
X62872D01*
Y198556D01*
X62936D01*
Y198620D01*
X63065D01*
Y198684D01*
X63193D01*
Y198748D01*
X63257D01*
Y198813D01*
X63386D01*
Y198877D01*
X63514D01*
Y198941D01*
X63643D01*
Y199005D01*
X63707D01*
Y199069D01*
X63835D01*
Y199134D01*
X63964D01*
Y199198D01*
X64092D01*
Y199262D01*
X64220D01*
Y199326D01*
X64349D01*
Y199390D01*
X64542D01*
Y199455D01*
X64670D01*
Y199519D01*
X64798D01*
Y199583D01*
X64927D01*
Y199647D01*
X65119D01*
Y199712D01*
X65248D01*
Y199776D01*
X65440D01*
Y199840D01*
X65569D01*
Y199904D01*
X65762D01*
Y199968D01*
X65954D01*
Y200032D01*
X66147D01*
Y200097D01*
X66339D01*
Y200161D01*
X66596D01*
Y200225D01*
X66789D01*
Y200289D01*
X67046D01*
Y200354D01*
X67367D01*
Y200418D01*
X67688D01*
Y200482D01*
X68073D01*
Y200546D01*
X68586D01*
Y200610D01*
X70770D01*
Y200546D01*
X71219D01*
Y200482D01*
X71604D01*
Y200418D01*
X71925D01*
Y200354D01*
X72182D01*
Y200289D01*
X72439D01*
Y200225D01*
X72632D01*
Y200161D01*
X72824D01*
Y200097D01*
X73017D01*
Y200032D01*
X73209D01*
Y199968D01*
X73402D01*
Y199904D01*
X73530D01*
Y199840D01*
X73723D01*
Y199776D01*
X73851D01*
Y199712D01*
X73980D01*
Y199647D01*
X74108D01*
Y199583D01*
X74301D01*
Y199519D01*
X74429D01*
Y199455D01*
X74558D01*
Y199390D01*
X74686D01*
Y199326D01*
X74814D01*
Y199262D01*
X74879D01*
Y199198D01*
X75007D01*
Y199134D01*
X75135D01*
Y199069D01*
X75264D01*
Y199005D01*
X75328D01*
Y198941D01*
X75457D01*
Y198877D01*
X75521D01*
Y198813D01*
X75649D01*
Y198748D01*
X75713D01*
Y198684D01*
X75842D01*
Y198620D01*
X75906D01*
Y198556D01*
X75970D01*
Y198492D01*
X76099D01*
Y198427D01*
X76163D01*
Y198363D01*
X76227D01*
Y198299D01*
X76291D01*
Y198235D01*
X76420D01*
Y198170D01*
X76484D01*
Y198106D01*
X76548D01*
Y198042D01*
X76612D01*
Y197978D01*
X76676D01*
Y197914D01*
X76741D01*
Y197850D01*
X76805D01*
Y197785D01*
X76869D01*
Y197721D01*
X76933D01*
Y197657D01*
X76998D01*
Y197593D01*
X77062D01*
Y197529D01*
X77126D01*
Y197464D01*
X77190D01*
Y197400D01*
X77254D01*
Y197336D01*
X77319D01*
Y197207D01*
X77383D01*
Y197143D01*
X77447D01*
Y197079D01*
X77511D01*
Y197015D01*
X77575D01*
Y196886D01*
X77640D01*
Y196822D01*
X77704D01*
Y196694D01*
X77768D01*
Y196630D01*
X77832D01*
Y196501D01*
X77896D01*
Y196437D01*
X77961D01*
Y196309D01*
X78025D01*
Y196180D01*
X78089D01*
Y196052D01*
X78153D01*
Y195923D01*
X78217D01*
Y195795D01*
X78282D01*
Y195667D01*
X78346D01*
Y195474D01*
X78410D01*
Y195281D01*
X78474D01*
Y195089D01*
X78538D01*
Y194896D01*
X78603D01*
Y194639D01*
X78667D01*
Y194254D01*
X78731D01*
Y193291D01*
X78538D01*
Y193355D01*
X78474D01*
Y193419D01*
X78410D01*
Y193548D01*
X78346D01*
Y193676D01*
X78282D01*
Y193805D01*
X78217D01*
Y193869D01*
X78153D01*
Y193933D01*
X78089D01*
Y193997D01*
X78025D01*
Y194061D01*
X77961D01*
Y194125D01*
X77832D01*
Y194190D01*
X77768D01*
Y194254D01*
X77640D01*
Y194318D01*
X77575D01*
Y194382D01*
X77447D01*
Y194447D01*
X77254D01*
Y194511D01*
X77126D01*
Y194575D01*
X76933D01*
Y194639D01*
X76676D01*
Y194703D01*
X76355D01*
Y194768D01*
X75842D01*
Y194832D01*
X74943D01*
Y194768D01*
X75007D01*
Y194703D01*
X75071D01*
Y194639D01*
X75135D01*
Y194575D01*
X75200D01*
Y194511D01*
X75264D01*
Y194382D01*
X75328D01*
Y194318D01*
X75392D01*
Y194254D01*
X75457D01*
Y194190D01*
X75521D01*
Y194061D01*
X75585D01*
Y193997D01*
X75649D01*
Y193933D01*
X75713D01*
Y193805D01*
X75778D01*
Y193740D01*
X75842D01*
Y193676D01*
X75906D01*
Y193548D01*
X75970D01*
Y193483D01*
X76034D01*
Y193355D01*
X76099D01*
Y193291D01*
X76163D01*
Y193163D01*
X76227D01*
Y193034D01*
X76291D01*
Y192970D01*
X76355D01*
Y192841D01*
X76420D01*
Y192713D01*
X76484D01*
Y192649D01*
X76548D01*
Y192520D01*
X76612D01*
Y192392D01*
X76676D01*
Y192264D01*
X76741D01*
Y192135D01*
X76805D01*
Y192007D01*
X76869D01*
Y191878D01*
X76933D01*
Y191750D01*
X76998D01*
Y191621D01*
X77062D01*
Y191429D01*
X77126D01*
Y191300D01*
X77190D01*
Y191172D01*
X77254D01*
Y190980D01*
X77319D01*
Y190787D01*
X77383D01*
Y190594D01*
X77447D01*
Y190402D01*
X77511D01*
Y190209D01*
X77575D01*
Y189952D01*
X77640D01*
Y189760D01*
X77704D01*
Y189438D01*
X77768D01*
Y189182D01*
X77832D01*
Y188796D01*
X77896D01*
Y188732D01*
X77961D01*
Y188989D01*
X78025D01*
Y189374D01*
X78089D01*
Y190081D01*
X78025D01*
Y190530D01*
X77961D01*
Y190787D01*
X77896D01*
Y191044D01*
X77832D01*
Y191236D01*
X77768D01*
Y191429D01*
X77704D01*
Y191557D01*
X77640D01*
Y191750D01*
X77575D01*
Y191878D01*
X77511D01*
Y192007D01*
X77447D01*
Y192135D01*
X77383D01*
Y192264D01*
X77319D01*
Y192392D01*
X77254D01*
Y192520D01*
X77190D01*
Y192649D01*
X77126D01*
Y192777D01*
X77062D01*
Y192841D01*
X76998D01*
Y192970D01*
X76933D01*
Y193034D01*
X76869D01*
Y193163D01*
X76805D01*
Y193227D01*
X76741D01*
Y193548D01*
X76998D01*
Y193483D01*
X77190D01*
Y193419D01*
X77319D01*
Y193355D01*
X77447D01*
Y193291D01*
X77511D01*
Y193227D01*
X77640D01*
Y193163D01*
X77704D01*
Y193098D01*
X77832D01*
Y193034D01*
X77896D01*
Y192970D01*
X77961D01*
Y192906D01*
X78089D01*
Y192841D01*
X78153D01*
Y192777D01*
X78217D01*
Y192713D01*
X78282D01*
Y192649D01*
X78346D01*
Y192585D01*
X78410D01*
Y192520D01*
X78474D01*
Y192456D01*
X78538D01*
Y192392D01*
X78603D01*
Y192328D01*
X78667D01*
Y192264D01*
X78731D01*
Y192199D01*
X78795D01*
Y192135D01*
X78860D01*
Y192071D01*
X78924D01*
Y192007D01*
X78988D01*
Y191943D01*
X79052D01*
Y191878D01*
X79116D01*
Y191814D01*
X79181D01*
Y191686D01*
X79245D01*
Y191621D01*
X79309D01*
Y191557D01*
X79373D01*
Y191493D01*
X79437D01*
Y191365D01*
X79501D01*
Y191300D01*
X79566D01*
Y191236D01*
X79630D01*
Y191108D01*
X79694D01*
Y191044D01*
X79758D01*
Y190980D01*
X79823D01*
Y191172D01*
X79887D01*
Y191365D01*
X79951D01*
Y191557D01*
X80015D01*
Y191814D01*
X80079D01*
Y192135D01*
X80144D01*
Y192456D01*
X80208D01*
Y192906D01*
X80272D01*
Y194960D01*
X80208D01*
Y195410D01*
X80144D01*
Y195795D01*
X80079D01*
Y196116D01*
X80015D01*
Y196373D01*
X79951D01*
Y196630D01*
X79887D01*
Y196822D01*
X79823D01*
Y197015D01*
X79758D01*
Y197207D01*
X79694D01*
Y197400D01*
X79630D01*
Y197593D01*
X79566D01*
Y197785D01*
X79501D01*
Y197914D01*
X79437D01*
Y198042D01*
X79373D01*
Y198235D01*
X79309D01*
Y198363D01*
X79245D01*
Y198492D01*
X79181D01*
Y198620D01*
X79116D01*
Y198748D01*
X79052D01*
Y198877D01*
X78988D01*
Y199005D01*
X78924D01*
Y199134D01*
X78860D01*
Y199262D01*
X78795D01*
Y199390D01*
X78731D01*
Y199519D01*
X78667D01*
Y199647D01*
X78603D01*
Y199712D01*
X78538D01*
Y199840D01*
X78474D01*
Y199968D01*
X78410D01*
Y200032D01*
X78346D01*
Y200161D01*
X78282D01*
Y200225D01*
X78217D01*
Y200354D01*
X78153D01*
Y200418D01*
X78089D01*
Y200546D01*
X78025D01*
Y200610D01*
X77961D01*
Y200739D01*
X77896D01*
Y200803D01*
X77832D01*
Y200931D01*
X77768D01*
Y200996D01*
X77704D01*
Y201060D01*
X77640D01*
Y201188D01*
X77575D01*
Y201252D01*
X77511D01*
Y201317D01*
X77447D01*
Y201445D01*
X77383D01*
Y201509D01*
X77319D01*
Y201573D01*
X77254D01*
Y201638D01*
X77190D01*
Y201766D01*
X77126D01*
Y201830D01*
X77062D01*
Y201894D01*
X76998D01*
Y201959D01*
X76933D01*
Y202087D01*
X76869D01*
Y202216D01*
X77254D01*
Y202151D01*
D02*
G37*
G36*
X30046Y196161D02*
X30579D01*
Y195984D01*
X31111D01*
Y195806D01*
X31644D01*
Y195628D01*
X32177D01*
Y195451D01*
X32710D01*
Y195273D01*
X33242D01*
Y195096D01*
X33775D01*
Y194918D01*
X34308D01*
Y194740D01*
X34663D01*
Y189946D01*
X34485D01*
Y190124D01*
X33953D01*
Y190301D01*
X33420D01*
Y190479D01*
X32887D01*
Y190656D01*
X32355D01*
Y190834D01*
X31822D01*
Y191012D01*
X31289D01*
Y191189D01*
X30756D01*
Y191367D01*
X30224D01*
Y191544D01*
X29691D01*
Y191722D01*
X29513D01*
Y196339D01*
X30046D01*
Y196161D01*
D02*
G37*
G36*
X36261Y203797D02*
X36794D01*
Y203619D01*
X37504D01*
Y203442D01*
X37859D01*
Y203264D01*
X38037D01*
Y203086D01*
X38214D01*
Y202909D01*
X38392D01*
Y202376D01*
X38925D01*
Y202199D01*
X39457D01*
Y202021D01*
X39990D01*
Y201843D01*
X40523D01*
Y201666D01*
X41056D01*
Y201488D01*
X41588D01*
Y201311D01*
X42121D01*
Y201133D01*
X42654D01*
Y200956D01*
X43186D01*
Y200778D01*
X43719D01*
Y200600D01*
X44252D01*
Y200423D01*
X44784D01*
Y200245D01*
X45317D01*
Y200068D01*
X45850D01*
Y199890D01*
X46383D01*
Y199713D01*
X46915D01*
Y199535D01*
X47448D01*
Y199357D01*
X47981D01*
Y199180D01*
X48513D01*
Y199357D01*
X48691D01*
Y199713D01*
X48869D01*
Y199890D01*
X49046D01*
Y200245D01*
X49224D01*
Y200423D01*
X49401D01*
Y200778D01*
X49579D01*
Y201133D01*
X49756D01*
Y201311D01*
X49934D01*
Y201666D01*
X50112D01*
Y201843D01*
X50289D01*
Y202199D01*
X50467D01*
Y188525D01*
X50289D01*
Y188170D01*
X50112D01*
Y187993D01*
X49934D01*
Y187638D01*
X49756D01*
Y187283D01*
X49579D01*
Y187105D01*
X49401D01*
Y186750D01*
X49224D01*
Y186572D01*
X49046D01*
Y186395D01*
X48513D01*
Y186572D01*
X47981D01*
Y186750D01*
X47626D01*
Y186927D01*
X47270D01*
Y187105D01*
X47093D01*
Y187460D01*
X46915D01*
Y190479D01*
X47448D01*
Y190656D01*
X47626D01*
Y196871D01*
X47448D01*
Y196694D01*
X47270D01*
Y196339D01*
X47093D01*
Y195984D01*
X46915D01*
Y195806D01*
X46738D01*
Y195628D01*
X46205D01*
Y195806D01*
X45672D01*
Y195984D01*
X45140D01*
Y196161D01*
X44607D01*
Y190124D01*
X44252D01*
Y190301D01*
X43719D01*
Y190479D01*
X43186D01*
Y190656D01*
X42654D01*
Y190834D01*
X41943D01*
Y191012D01*
X41588D01*
Y191189D01*
X41233D01*
Y191544D01*
X41056D01*
Y191899D01*
X40878D01*
Y194740D01*
X41588D01*
Y195096D01*
X41766D01*
Y197227D01*
X41411D01*
Y197404D01*
X40878D01*
Y197582D01*
X40345D01*
Y197759D01*
X39812D01*
Y197937D01*
X39280D01*
Y198114D01*
X38570D01*
Y193853D01*
X38747D01*
Y193320D01*
X38925D01*
Y193142D01*
X39102D01*
Y192965D01*
X39280D01*
Y189769D01*
X38214D01*
Y189946D01*
X37682D01*
Y190124D01*
X37149D01*
Y190301D01*
X36616D01*
Y190479D01*
X36083D01*
Y190656D01*
X35728D01*
Y203974D01*
X36261D01*
Y203797D01*
D02*
G37*
G36*
X30046Y188881D02*
X30579D01*
Y188703D01*
X31111D01*
Y188525D01*
X31644D01*
Y188348D01*
X32177D01*
Y188170D01*
X32710D01*
Y187993D01*
X33242D01*
Y187815D01*
X33775D01*
Y187638D01*
X34308D01*
Y187460D01*
X34663D01*
Y182666D01*
X34485D01*
Y182843D01*
X33953D01*
Y183021D01*
X33420D01*
Y183198D01*
X32887D01*
Y183376D01*
X32355D01*
Y183554D01*
X31822D01*
Y183731D01*
X31289D01*
Y183909D01*
X30756D01*
Y184086D01*
X30224D01*
Y184264D01*
X29691D01*
Y184441D01*
X29513D01*
Y189058D01*
X30046D01*
Y188881D01*
D02*
G37*
G36*
X42298Y186040D02*
X42831D01*
Y185862D01*
X43364D01*
Y185684D01*
X43897D01*
Y185507D01*
X44607D01*
Y176983D01*
X44252D01*
Y177161D01*
X43719D01*
Y177339D01*
X43186D01*
Y177516D01*
X42654D01*
Y177694D01*
X42121D01*
Y177871D01*
X41766D01*
Y186217D01*
X42298D01*
Y186040D01*
D02*
G37*
G36*
X30046Y181600D02*
X30579D01*
Y181423D01*
X31111D01*
Y181245D01*
X31644D01*
Y181068D01*
X32177D01*
Y180890D01*
X32710D01*
Y180712D01*
X33242D01*
Y180535D01*
X33775D01*
Y180357D01*
X34308D01*
Y180180D01*
X34663D01*
Y173077D01*
X34130D01*
Y173255D01*
X33597D01*
Y173432D01*
X33065D01*
Y173610D01*
X32532D01*
Y173787D01*
X31999D01*
Y173965D01*
X31467D01*
Y174142D01*
X30934D01*
Y174320D01*
X30401D01*
Y174497D01*
X29869D01*
Y174675D01*
X29513D01*
Y181778D01*
X30046D01*
Y181600D01*
D02*
G37*
G36*
X35906Y178404D02*
X36616D01*
Y178226D01*
X37149D01*
Y178049D01*
X37682D01*
Y177871D01*
X38037D01*
Y177694D01*
X38214D01*
Y177339D01*
X38392D01*
Y176806D01*
X38747D01*
Y176628D01*
X38925D01*
Y176451D01*
X39280D01*
Y176273D01*
X39457D01*
Y176096D01*
X39812D01*
Y175918D01*
X39990D01*
Y175741D01*
X40345D01*
Y175563D01*
X40700D01*
Y175385D01*
X40878D01*
Y175208D01*
X41233D01*
Y175030D01*
X41411D01*
Y174853D01*
X41766D01*
Y174675D01*
X41943D01*
Y174497D01*
X42298D01*
Y174320D01*
X42476D01*
Y174142D01*
X42831D01*
Y173965D01*
X43009D01*
Y173787D01*
X43364D01*
Y173610D01*
X43541D01*
Y173432D01*
X43897D01*
Y173255D01*
X44252D01*
Y173077D01*
X44429D01*
Y172899D01*
X44784D01*
Y172722D01*
X44962D01*
Y172544D01*
X45317D01*
Y172367D01*
X45495D01*
Y172189D01*
X45850D01*
Y172011D01*
X46027D01*
Y171834D01*
X46383D01*
Y171656D01*
X46560D01*
Y171479D01*
X46915D01*
Y171301D01*
X47093D01*
Y171124D01*
X47448D01*
Y170946D01*
X47626D01*
Y170768D01*
X47981D01*
Y170591D01*
X48336D01*
Y170413D01*
X48513D01*
Y170591D01*
X48691D01*
Y170946D01*
X48869D01*
Y171301D01*
X49046D01*
Y171479D01*
X49224D01*
Y171834D01*
X49401D01*
Y172011D01*
X49579D01*
Y172367D01*
X49756D01*
Y172722D01*
X49934D01*
Y172899D01*
X50112D01*
Y173255D01*
X50289D01*
Y173610D01*
X50467D01*
Y164554D01*
X50289D01*
Y164198D01*
X50112D01*
Y164021D01*
X49756D01*
Y163843D01*
X38392D01*
Y163311D01*
X37326D01*
Y163488D01*
X36794D01*
Y163666D01*
X36261D01*
Y163843D01*
X35728D01*
Y169703D01*
X35906D01*
Y169526D01*
X36439D01*
Y169348D01*
X36971D01*
Y169170D01*
X37504D01*
Y168993D01*
X37859D01*
Y168815D01*
X38037D01*
Y168638D01*
X38214D01*
Y168282D01*
X38392D01*
Y168105D01*
X39280D01*
Y172189D01*
X39102D01*
Y172367D01*
X38747D01*
Y172544D01*
X38570D01*
Y172722D01*
X38392D01*
Y172367D01*
X38214D01*
Y172189D01*
X37326D01*
Y172367D01*
X36794D01*
Y172544D01*
X36083D01*
Y172722D01*
X35728D01*
Y178582D01*
X35906D01*
Y178404D01*
D02*
G37*
G36*
X29691Y172011D02*
X30401D01*
Y171834D01*
X30934D01*
Y171656D01*
X31467D01*
Y171479D01*
X31999D01*
Y171301D01*
X32532D01*
Y171124D01*
X33065D01*
Y170946D01*
X33597D01*
Y170768D01*
X34130D01*
Y170591D01*
X34663D01*
Y163311D01*
X34308D01*
Y163488D01*
X33775D01*
Y163666D01*
X33242D01*
Y163843D01*
X32710D01*
Y164021D01*
X32177D01*
Y164198D01*
X31644D01*
Y164376D01*
X31111D01*
Y164554D01*
X30579D01*
Y164731D01*
X30046D01*
Y164909D01*
X29513D01*
Y172189D01*
X29691D01*
Y172011D01*
D02*
G37*
G36*
X30046Y162245D02*
X30579D01*
Y162068D01*
X31111D01*
Y161890D01*
X31644D01*
Y161712D01*
X32177D01*
Y161535D01*
X32710D01*
Y161357D01*
X33242D01*
Y161180D01*
X33775D01*
Y161002D01*
X34308D01*
Y160825D01*
X34663D01*
Y151236D01*
X34308D01*
Y151413D01*
X33775D01*
Y151591D01*
X33242D01*
Y151769D01*
X32710D01*
Y151946D01*
X31999D01*
Y152124D01*
X31467D01*
Y152301D01*
X30934D01*
Y152479D01*
X30401D01*
Y152656D01*
X29869D01*
Y152834D01*
X29513D01*
Y162423D01*
X30046D01*
Y162245D01*
D02*
G37*
G36*
X38214Y161712D02*
X38925D01*
Y161535D01*
X39457D01*
Y161357D01*
X39990D01*
Y161180D01*
X40523D01*
Y161002D01*
X41233D01*
Y160825D01*
X41766D01*
Y160647D01*
X42298D01*
Y160469D01*
X42831D01*
Y160292D01*
X43364D01*
Y160114D01*
X43897D01*
Y159937D01*
X44429D01*
Y159759D01*
X44962D01*
Y159582D01*
X45495D01*
Y159404D01*
X46027D01*
Y159226D01*
X46560D01*
Y159049D01*
X47093D01*
Y158871D01*
X47626D01*
Y158694D01*
X48158D01*
Y158516D01*
X48336D01*
Y158339D01*
X48691D01*
Y158161D01*
X48869D01*
Y157983D01*
X49046D01*
Y157806D01*
X49224D01*
Y157628D01*
X49401D01*
Y157451D01*
X49579D01*
Y157096D01*
X49756D01*
Y156918D01*
X49934D01*
Y156563D01*
X50112D01*
Y156208D01*
X50289D01*
Y155498D01*
X50467D01*
Y147862D01*
X50289D01*
Y147507D01*
X50112D01*
Y147329D01*
X49934D01*
Y146974D01*
X49756D01*
Y146797D01*
X49579D01*
Y146441D01*
X49401D01*
Y146086D01*
X49224D01*
Y145909D01*
X49046D01*
Y145731D01*
X48691D01*
Y145909D01*
X48158D01*
Y146086D01*
X47626D01*
Y146264D01*
X47270D01*
Y146441D01*
X47093D01*
Y146797D01*
X46915D01*
Y149815D01*
X47270D01*
Y149993D01*
X47448D01*
Y150170D01*
X47626D01*
Y156385D01*
X47448D01*
Y156208D01*
X47270D01*
Y155853D01*
X47093D01*
Y155498D01*
X46915D01*
Y155142D01*
X46738D01*
Y154965D01*
X46383D01*
Y155142D01*
X45850D01*
Y155320D01*
X45317D01*
Y155498D01*
X44784D01*
Y155675D01*
X44252D01*
Y155853D01*
X43719D01*
Y156030D01*
X43009D01*
Y156208D01*
X42476D01*
Y156385D01*
X41943D01*
Y156563D01*
X41411D01*
Y156740D01*
X40878D01*
Y156918D01*
X40345D01*
Y157096D01*
X39812D01*
Y157273D01*
X39280D01*
Y157451D01*
X38925D01*
Y157273D01*
X38747D01*
Y157096D01*
X38570D01*
Y153189D01*
X39102D01*
Y153012D01*
X39635D01*
Y152834D01*
X40345D01*
Y152656D01*
X40878D01*
Y152479D01*
X41411D01*
Y152301D01*
X42121D01*
Y152479D01*
X42298D01*
Y152834D01*
X42476D01*
Y153189D01*
X42654D01*
Y153367D01*
X42831D01*
Y153722D01*
X43009D01*
Y154077D01*
X43186D01*
Y154254D01*
X43364D01*
Y154610D01*
X43541D01*
Y154965D01*
X43719D01*
Y147507D01*
X43364D01*
Y147684D01*
X42831D01*
Y147862D01*
X42298D01*
Y148039D01*
X41588D01*
Y148217D01*
X41056D01*
Y148395D01*
X40523D01*
Y148572D01*
X39990D01*
Y148750D01*
X39457D01*
Y148927D01*
X38925D01*
Y149105D01*
X38392D01*
Y149283D01*
X37859D01*
Y149460D01*
X37149D01*
Y149638D01*
X36616D01*
Y149815D01*
X36083D01*
Y149993D01*
X35728D01*
Y159937D01*
X35906D01*
Y160647D01*
X36083D01*
Y161002D01*
X36261D01*
Y161180D01*
X36439D01*
Y161357D01*
X36616D01*
Y161535D01*
X36971D01*
Y161712D01*
X37504D01*
Y161890D01*
X38214D01*
Y161712D01*
D02*
G37*
G36*
X36083Y148217D02*
X36794D01*
Y148039D01*
X37326D01*
Y147862D01*
X37859D01*
Y147684D01*
X38037D01*
Y147507D01*
X38214D01*
Y147152D01*
X38392D01*
Y146797D01*
X38570D01*
Y146619D01*
X39102D01*
Y146441D01*
X39635D01*
Y146264D01*
X40168D01*
Y146086D01*
X40700D01*
Y145909D01*
X41233D01*
Y145731D01*
X41943D01*
Y145554D01*
X42476D01*
Y145376D01*
X43009D01*
Y145198D01*
X43541D01*
Y145021D01*
X44074D01*
Y144843D01*
X44607D01*
Y144666D01*
X45140D01*
Y144488D01*
X45672D01*
Y144310D01*
X46205D01*
Y144133D01*
X46738D01*
Y143955D01*
X47270D01*
Y143778D01*
X47981D01*
Y143600D01*
X48691D01*
Y143955D01*
X48869D01*
Y144310D01*
X49046D01*
Y144488D01*
X49224D01*
Y144843D01*
X49401D01*
Y145198D01*
X49579D01*
Y145376D01*
X49756D01*
Y145731D01*
X49934D01*
Y146086D01*
X50112D01*
Y146264D01*
X50289D01*
Y146619D01*
X50467D01*
Y137918D01*
X50289D01*
Y138096D01*
X49756D01*
Y138273D01*
X49224D01*
Y138451D01*
X48691D01*
Y138628D01*
X48336D01*
Y138806D01*
X48158D01*
Y138983D01*
X47981D01*
Y139516D01*
X47803D01*
Y141114D01*
X47626D01*
Y140759D01*
X47448D01*
Y140582D01*
X47270D01*
Y140226D01*
X47093D01*
Y139871D01*
X46738D01*
Y140049D01*
X46205D01*
Y140226D01*
X45672D01*
Y140404D01*
X45140D01*
Y140582D01*
X44607D01*
Y140759D01*
X44074D01*
Y140937D01*
X43541D01*
Y141114D01*
X42831D01*
Y141292D01*
X42298D01*
Y141469D01*
X41766D01*
Y141647D01*
X41233D01*
Y141824D01*
X40700D01*
Y142002D01*
X40168D01*
Y142180D01*
X39635D01*
Y142357D01*
X39102D01*
Y142535D01*
X38570D01*
Y138096D01*
X38747D01*
Y137740D01*
X38925D01*
Y137563D01*
X39280D01*
Y134367D01*
X39102D01*
Y134189D01*
X38214D01*
Y134367D01*
X37682D01*
Y134544D01*
X37149D01*
Y134722D01*
X36616D01*
Y134899D01*
X36083D01*
Y135077D01*
X35728D01*
Y148395D01*
X36083D01*
Y148217D01*
D02*
G37*
G36*
X29869Y150170D02*
X30401D01*
Y149993D01*
X30934D01*
Y149815D01*
X31467D01*
Y149638D01*
X31999D01*
Y149460D01*
X32532D01*
Y149283D01*
X33065D01*
Y149105D01*
X33597D01*
Y148927D01*
X34130D01*
Y148750D01*
X34663D01*
Y121049D01*
X34130D01*
Y121226D01*
X33597D01*
Y121404D01*
X32887D01*
Y121581D01*
X32355D01*
Y121759D01*
X31822D01*
Y121937D01*
X31289D01*
Y122114D01*
X30756D01*
Y122292D01*
X30224D01*
Y122469D01*
X29691D01*
Y122647D01*
X29513D01*
Y150348D01*
X29869D01*
Y150170D01*
D02*
G37*
G36*
X39635Y119628D02*
X39457D01*
Y119451D01*
X39280D01*
Y122647D01*
X39635D01*
Y119628D01*
D02*
G37*
G36*
X38747Y113058D02*
X38570D01*
Y112881D01*
X38392D01*
Y112525D01*
X38214D01*
Y112170D01*
X38037D01*
Y111993D01*
X37859D01*
Y111638D01*
X37682D01*
Y111815D01*
X37149D01*
Y111993D01*
X36794D01*
Y112170D01*
X36616D01*
Y112348D01*
X36439D01*
Y112881D01*
X36261D01*
Y114301D01*
X36794D01*
Y115544D01*
X36616D01*
Y115367D01*
X36439D01*
Y115189D01*
X36261D01*
Y115367D01*
X35728D01*
Y115544D01*
X35196D01*
Y115722D01*
X34663D01*
Y115899D01*
X34130D01*
Y116077D01*
X33597D01*
Y116254D01*
X32887D01*
Y116432D01*
X32355D01*
Y116610D01*
X31822D01*
Y116787D01*
X31289D01*
Y116610D01*
X30224D01*
Y116787D01*
X29691D01*
Y116965D01*
X29513D01*
Y120694D01*
X30046D01*
Y120516D01*
X30579D01*
Y120338D01*
X30934D01*
Y120161D01*
X31111D01*
Y119983D01*
X31289D01*
Y119628D01*
X31822D01*
Y119451D01*
X32355D01*
Y119273D01*
X32887D01*
Y119096D01*
X33420D01*
Y118918D01*
X33953D01*
Y118740D01*
X34485D01*
Y118563D01*
X35018D01*
Y118385D01*
X35551D01*
Y118208D01*
X36261D01*
Y118030D01*
X36794D01*
Y118563D01*
X36616D01*
Y118918D01*
X36439D01*
Y119273D01*
X36616D01*
Y119628D01*
X36794D01*
Y119806D01*
X36971D01*
Y120161D01*
X37149D01*
Y120516D01*
X37326D01*
Y120694D01*
X37504D01*
Y121049D01*
X37682D01*
Y121404D01*
X37859D01*
Y121581D01*
X38037D01*
Y121937D01*
X38214D01*
Y122114D01*
X38392D01*
Y122469D01*
X38570D01*
Y122825D01*
X38747D01*
Y113058D01*
D02*
G37*
G36*
X35906Y133834D02*
X36439D01*
Y133656D01*
X36971D01*
Y133479D01*
X37682D01*
Y133301D01*
X38037D01*
Y132946D01*
X38214D01*
Y132768D01*
X38392D01*
Y132413D01*
X38570D01*
Y132236D01*
X39102D01*
Y132058D01*
X39635D01*
Y131881D01*
X40168D01*
Y131703D01*
X40700D01*
Y131526D01*
X41233D01*
Y131348D01*
X41766D01*
Y131170D01*
X42298D01*
Y130993D01*
X42831D01*
Y130815D01*
X43364D01*
Y130638D01*
X43897D01*
Y130460D01*
X44429D01*
Y130282D01*
X44962D01*
Y130105D01*
X45495D01*
Y129927D01*
X46027D01*
Y129750D01*
X46560D01*
Y129572D01*
X47093D01*
Y129395D01*
X47626D01*
Y129217D01*
X48158D01*
Y129040D01*
X48513D01*
Y129217D01*
X48691D01*
Y129572D01*
X48869D01*
Y129927D01*
X49046D01*
Y130105D01*
X49224D01*
Y130460D01*
X49401D01*
Y130638D01*
X49579D01*
Y130993D01*
X49756D01*
Y131348D01*
X49934D01*
Y131526D01*
X50112D01*
Y131881D01*
X50289D01*
Y132058D01*
X50467D01*
Y118385D01*
X50289D01*
Y118030D01*
X50112D01*
Y117853D01*
X49934D01*
Y117497D01*
X49756D01*
Y117320D01*
X49579D01*
Y116965D01*
X49401D01*
Y116787D01*
X49224D01*
Y116432D01*
X49046D01*
Y116254D01*
X48691D01*
Y116432D01*
X48158D01*
Y116610D01*
X47626D01*
Y116787D01*
X47270D01*
Y117142D01*
X47093D01*
Y117497D01*
X46915D01*
Y120338D01*
X47270D01*
Y120516D01*
X47626D01*
Y126731D01*
X47448D01*
Y126553D01*
X47270D01*
Y126198D01*
X47093D01*
Y126021D01*
X46915D01*
Y125666D01*
X46738D01*
Y125488D01*
X46383D01*
Y125666D01*
X45850D01*
Y125843D01*
X45317D01*
Y126021D01*
X44784D01*
Y126198D01*
X44607D01*
Y119983D01*
X44429D01*
Y120161D01*
X43897D01*
Y120338D01*
X43364D01*
Y120516D01*
X42831D01*
Y120694D01*
X42121D01*
Y120871D01*
X41766D01*
Y121049D01*
X41411D01*
Y121226D01*
X41233D01*
Y121404D01*
X41056D01*
Y121759D01*
X40878D01*
Y124600D01*
X41411D01*
Y124778D01*
X41588D01*
Y124955D01*
X41766D01*
Y127086D01*
X41588D01*
Y127264D01*
X41056D01*
Y127441D01*
X40523D01*
Y127619D01*
X39990D01*
Y127796D01*
X39457D01*
Y127974D01*
X38925D01*
Y128152D01*
X38570D01*
Y123357D01*
X38392D01*
Y123180D01*
X38214D01*
Y122825D01*
X38037D01*
Y122469D01*
X37859D01*
Y122292D01*
X37682D01*
Y121937D01*
X37504D01*
Y121581D01*
X37326D01*
Y121404D01*
X37149D01*
Y121049D01*
X36971D01*
Y120871D01*
X36794D01*
Y120516D01*
X36616D01*
Y120338D01*
X36261D01*
Y120516D01*
X35728D01*
Y134011D01*
X35906D01*
Y133834D01*
D02*
G37*
G36*
X29869Y113236D02*
X30401D01*
Y113058D01*
X30934D01*
Y112881D01*
X31111D01*
Y112525D01*
X31289D01*
Y112348D01*
X31644D01*
Y112170D01*
X32177D01*
Y111993D01*
X32710D01*
Y111815D01*
X33242D01*
Y111638D01*
X33775D01*
Y111460D01*
X34308D01*
Y111283D01*
X35018D01*
Y111105D01*
X35551D01*
Y110927D01*
X36083D01*
Y110750D01*
X36616D01*
Y110572D01*
X37149D01*
Y110395D01*
X37504D01*
Y110572D01*
X37682D01*
Y110927D01*
X37859D01*
Y111283D01*
X38037D01*
Y111460D01*
X38214D01*
Y111815D01*
X38392D01*
Y111993D01*
X38570D01*
Y112348D01*
X38747D01*
Y104535D01*
X38570D01*
Y104180D01*
X38392D01*
Y103824D01*
X38214D01*
Y103647D01*
X38037D01*
Y103292D01*
X37859D01*
Y103114D01*
X37682D01*
Y102759D01*
X36794D01*
Y102937D01*
X36083D01*
Y103114D01*
X35551D01*
Y103292D01*
X35018D01*
Y103469D01*
X34663D01*
Y103647D01*
X34308D01*
Y103824D01*
X34130D01*
Y104002D01*
X33953D01*
Y104180D01*
X33775D01*
Y104357D01*
X33597D01*
Y104535D01*
X33420D01*
Y104890D01*
X33242D01*
Y105245D01*
X31111D01*
Y104890D01*
X30224D01*
Y105068D01*
X29691D01*
Y105245D01*
X29513D01*
Y107909D01*
X32177D01*
Y108086D01*
X32887D01*
Y108264D01*
X33065D01*
Y109329D01*
X32710D01*
Y109507D01*
X31999D01*
Y109684D01*
X31467D01*
Y109862D01*
X31111D01*
Y109507D01*
X30579D01*
Y109684D01*
X30046D01*
Y109862D01*
X29513D01*
Y113413D01*
X29869D01*
Y113236D01*
D02*
G37*
G36*
X40345Y117675D02*
X40878D01*
Y117497D01*
X41411D01*
Y117320D01*
X41943D01*
Y117142D01*
X42476D01*
Y116965D01*
X43009D01*
Y116787D01*
X43541D01*
Y116610D01*
X44074D01*
Y116432D01*
X44607D01*
Y116254D01*
X45140D01*
Y116077D01*
X45672D01*
Y115899D01*
X46205D01*
Y115722D01*
X46738D01*
Y115544D01*
X47270D01*
Y115367D01*
X47803D01*
Y115189D01*
X48336D01*
Y115011D01*
X49046D01*
Y114834D01*
X49579D01*
Y114656D01*
X49756D01*
Y96011D01*
X49401D01*
Y96189D01*
X48869D01*
Y96367D01*
X48336D01*
Y96544D01*
X47803D01*
Y96722D01*
X47270D01*
Y96899D01*
X46738D01*
Y97077D01*
X46205D01*
Y97254D01*
X45672D01*
Y97432D01*
X45140D01*
Y97610D01*
X44607D01*
Y97787D01*
X44074D01*
Y97965D01*
X43541D01*
Y98142D01*
X43009D01*
Y98320D01*
X42476D01*
Y98497D01*
X41943D01*
Y98675D01*
X41411D01*
Y98852D01*
X40878D01*
Y99030D01*
X40345D01*
Y99208D01*
X39990D01*
Y117853D01*
X40345D01*
Y117675D01*
D02*
G37*
G36*
X29869Y104535D02*
X30401D01*
Y104357D01*
X30934D01*
Y104180D01*
X31111D01*
Y103824D01*
X31289D01*
Y103647D01*
X31822D01*
Y103469D01*
X32355D01*
Y103292D01*
X32887D01*
Y103114D01*
X33420D01*
Y102937D01*
X33953D01*
Y102759D01*
X34485D01*
Y102582D01*
X35018D01*
Y102404D01*
X35551D01*
Y102226D01*
X36083D01*
Y102049D01*
X36616D01*
Y101871D01*
X37149D01*
Y101694D01*
X37504D01*
Y102049D01*
X37682D01*
Y102226D01*
X37859D01*
Y102582D01*
X38037D01*
Y102759D01*
X38214D01*
Y103114D01*
X38392D01*
Y103292D01*
X38570D01*
Y103647D01*
X38747D01*
Y95301D01*
X38570D01*
Y94946D01*
X38392D01*
Y94591D01*
X38214D01*
Y94413D01*
X38037D01*
Y94058D01*
X37859D01*
Y93881D01*
X37326D01*
Y94058D01*
X36794D01*
Y94236D01*
X36616D01*
Y94591D01*
X36439D01*
Y96367D01*
X36794D01*
Y96544D01*
X36971D01*
Y100273D01*
X36794D01*
Y100095D01*
X36616D01*
Y99918D01*
X36439D01*
Y99563D01*
X35906D01*
Y99740D01*
X35373D01*
Y99918D01*
X35018D01*
Y96189D01*
X34663D01*
Y96367D01*
X34130D01*
Y96544D01*
X33420D01*
Y96722D01*
X33065D01*
Y96899D01*
X32887D01*
Y97254D01*
X32710D01*
Y99030D01*
X33242D01*
Y100628D01*
X32710D01*
Y100806D01*
X32177D01*
Y100983D01*
X31644D01*
Y101161D01*
X31289D01*
Y98320D01*
X31467D01*
Y97965D01*
X31822D01*
Y96011D01*
X31644D01*
Y95834D01*
X31289D01*
Y96011D01*
X30756D01*
Y96189D01*
X30224D01*
Y96367D01*
X29691D01*
Y96544D01*
X29513D01*
Y104712D01*
X29869D01*
Y104535D01*
D02*
G37*
G36*
X40168Y96544D02*
X40700D01*
Y96367D01*
X41233D01*
Y96189D01*
X41766D01*
Y96011D01*
X42298D01*
Y95834D01*
X42831D01*
Y95656D01*
X43364D01*
Y95479D01*
X43897D01*
Y95301D01*
X44429D01*
Y95124D01*
X44962D01*
Y94946D01*
X45495D01*
Y94768D01*
X46027D01*
Y94591D01*
X46560D01*
Y94413D01*
X47093D01*
Y94236D01*
X47626D01*
Y94058D01*
X48158D01*
Y93881D01*
X48691D01*
Y93703D01*
X49224D01*
Y93525D01*
X49756D01*
Y86245D01*
X49579D01*
Y86423D01*
X49046D01*
Y86600D01*
X48513D01*
Y86778D01*
X47981D01*
Y86955D01*
X47448D01*
Y87133D01*
X46915D01*
Y87310D01*
X46383D01*
Y87488D01*
X45850D01*
Y87666D01*
X45317D01*
Y87843D01*
X44784D01*
Y88021D01*
X44252D01*
Y88198D01*
X43719D01*
Y88376D01*
X43186D01*
Y88554D01*
X42654D01*
Y88731D01*
X42121D01*
Y88909D01*
X41588D01*
Y89086D01*
X41056D01*
Y89264D01*
X40523D01*
Y89441D01*
X39990D01*
Y96722D01*
X40168D01*
Y96544D01*
D02*
G37*
G36*
X29869Y95301D02*
X30401D01*
Y95124D01*
X30756D01*
Y94946D01*
X31111D01*
Y94591D01*
X31289D01*
Y94413D01*
X31644D01*
Y94236D01*
X32177D01*
Y94058D01*
X32710D01*
Y93881D01*
X33242D01*
Y93703D01*
X33775D01*
Y93525D01*
X34308D01*
Y93348D01*
X34841D01*
Y93170D01*
X35373D01*
Y92993D01*
X35906D01*
Y92815D01*
X36616D01*
Y92638D01*
X37149D01*
Y92460D01*
X37504D01*
Y92638D01*
X37682D01*
Y92993D01*
X37859D01*
Y93348D01*
X38037D01*
Y93525D01*
X38214D01*
Y93881D01*
X38392D01*
Y94236D01*
X38570D01*
Y94413D01*
X38747D01*
Y89264D01*
X38570D01*
Y88909D01*
X38392D01*
Y88731D01*
X36971D01*
Y88554D01*
X34841D01*
Y88376D01*
X34308D01*
Y88198D01*
X34663D01*
Y88021D01*
X35196D01*
Y87843D01*
X35728D01*
Y87666D01*
X36261D01*
Y87488D01*
X36794D01*
Y87310D01*
X36971D01*
Y87488D01*
X37149D01*
Y87666D01*
X37859D01*
Y87488D01*
X38392D01*
Y87310D01*
X38747D01*
Y85890D01*
X38570D01*
Y85712D01*
X38392D01*
Y85357D01*
X38214D01*
Y85180D01*
X38037D01*
Y84825D01*
X37859D01*
Y84647D01*
X37682D01*
Y84292D01*
X37504D01*
Y84114D01*
X37326D01*
Y84292D01*
X37149D01*
Y84825D01*
X36794D01*
Y85002D01*
X36261D01*
Y85180D01*
X35728D01*
Y85357D01*
X35018D01*
Y85535D01*
X34485D01*
Y85712D01*
X33953D01*
Y85890D01*
X33420D01*
Y86067D01*
X32887D01*
Y86245D01*
X32355D01*
Y86423D01*
X31822D01*
Y86600D01*
X31111D01*
Y86245D01*
X30934D01*
Y86423D01*
X30224D01*
Y86600D01*
X29691D01*
Y86778D01*
X29513D01*
Y89974D01*
X29691D01*
Y90329D01*
X29869D01*
Y90507D01*
X30756D01*
Y90684D01*
X33065D01*
Y90862D01*
X34130D01*
Y91039D01*
X33775D01*
Y91217D01*
X33242D01*
Y91395D01*
X32532D01*
Y91572D01*
X31999D01*
Y91750D01*
X31467D01*
Y91927D01*
X31111D01*
Y91572D01*
X30579D01*
Y91750D01*
X29869D01*
Y91927D01*
X29513D01*
Y95479D01*
X29869D01*
Y95301D01*
D02*
G37*
G36*
X38747Y75946D02*
X38570D01*
Y75768D01*
X38392D01*
Y75413D01*
X38214D01*
Y75058D01*
X38037D01*
Y74880D01*
X37859D01*
Y74525D01*
X37326D01*
Y74703D01*
X36971D01*
Y74880D01*
X36794D01*
Y75058D01*
X36616D01*
Y75236D01*
X36439D01*
Y76656D01*
X36616D01*
Y76834D01*
X36794D01*
Y77011D01*
X36971D01*
Y78787D01*
X36794D01*
Y78610D01*
X36616D01*
Y78254D01*
X36439D01*
Y78077D01*
X35728D01*
Y78254D01*
X35196D01*
Y78432D01*
X34663D01*
Y78610D01*
X34130D01*
Y78787D01*
X33597D01*
Y78965D01*
X33065D01*
Y79142D01*
X32532D01*
Y79320D01*
X31999D01*
Y79497D01*
X31467D01*
Y79675D01*
X31111D01*
Y79320D01*
X30401D01*
Y79497D01*
X29869D01*
Y79675D01*
X29513D01*
Y83226D01*
X29691D01*
Y83049D01*
X30401D01*
Y82871D01*
X30756D01*
Y82694D01*
X31111D01*
Y82161D01*
X31467D01*
Y81983D01*
X31999D01*
Y81806D01*
X32532D01*
Y81628D01*
X33065D01*
Y81451D01*
X33775D01*
Y81273D01*
X34308D01*
Y81095D01*
X34841D01*
Y80918D01*
X35373D01*
Y80740D01*
X35906D01*
Y80563D01*
X36439D01*
Y80385D01*
X36971D01*
Y81095D01*
X36794D01*
Y81451D01*
X36616D01*
Y81628D01*
X36439D01*
Y81806D01*
X36616D01*
Y81983D01*
X36794D01*
Y82339D01*
X36971D01*
Y82516D01*
X37149D01*
Y82871D01*
X37326D01*
Y83226D01*
X37504D01*
Y83404D01*
X37682D01*
Y83759D01*
X37859D01*
Y83937D01*
X38037D01*
Y84292D01*
X38214D01*
Y84647D01*
X38392D01*
Y84825D01*
X38570D01*
Y85180D01*
X38747D01*
Y75946D01*
D02*
G37*
G36*
X40345Y86778D02*
X40878D01*
Y86600D01*
X41411D01*
Y86423D01*
X41943D01*
Y86245D01*
X42476D01*
Y86067D01*
X43009D01*
Y85890D01*
X43541D01*
Y85712D01*
X44074D01*
Y85535D01*
X44607D01*
Y85357D01*
X45140D01*
Y85180D01*
X45672D01*
Y85002D01*
X46205D01*
Y84825D01*
X46738D01*
Y84647D01*
X47448D01*
Y84469D01*
X47981D01*
Y84292D01*
X48513D01*
Y84114D01*
X49046D01*
Y83937D01*
X49579D01*
Y83759D01*
X49756D01*
Y78965D01*
X49579D01*
Y79142D01*
X49046D01*
Y79320D01*
X48513D01*
Y79497D01*
X47981D01*
Y79675D01*
X47448D01*
Y79852D01*
X46915D01*
Y80030D01*
X46383D01*
Y80208D01*
X45850D01*
Y80385D01*
X45317D01*
Y80563D01*
X44784D01*
Y80740D01*
X44252D01*
Y80918D01*
X43719D01*
Y81095D01*
X43186D01*
Y81273D01*
X42654D01*
Y81451D01*
X42121D01*
Y81628D01*
X41588D01*
Y81806D01*
X41056D01*
Y81983D01*
X40523D01*
Y82161D01*
X39990D01*
Y86955D01*
X40345D01*
Y86778D01*
D02*
G37*
G36*
Y79497D02*
X40878D01*
Y79320D01*
X41411D01*
Y79142D01*
X41943D01*
Y78965D01*
X42654D01*
Y78787D01*
X43186D01*
Y78610D01*
X43719D01*
Y78432D01*
X44252D01*
Y78254D01*
X44784D01*
Y78077D01*
X45317D01*
Y77899D01*
X45850D01*
Y77722D01*
X46383D01*
Y77544D01*
X46915D01*
Y77367D01*
X47448D01*
Y77189D01*
X47981D01*
Y77011D01*
X48513D01*
Y76834D01*
X49046D01*
Y76656D01*
X49579D01*
Y76479D01*
X49756D01*
Y71684D01*
X49579D01*
Y71862D01*
X49046D01*
Y72039D01*
X48513D01*
Y72217D01*
X47981D01*
Y72395D01*
X47448D01*
Y72572D01*
X46915D01*
Y72750D01*
X46383D01*
Y72927D01*
X45850D01*
Y73105D01*
X45317D01*
Y73282D01*
X44784D01*
Y73460D01*
X44252D01*
Y73637D01*
X43719D01*
Y73815D01*
X43186D01*
Y73993D01*
X42654D01*
Y74170D01*
X42121D01*
Y74348D01*
X41588D01*
Y74525D01*
X41056D01*
Y74703D01*
X40523D01*
Y74880D01*
X39990D01*
Y79675D01*
X40345D01*
Y79497D01*
D02*
G37*
G36*
X40523Y72217D02*
X41056D01*
Y72039D01*
X41588D01*
Y71862D01*
X42121D01*
Y71684D01*
X42654D01*
Y71507D01*
X43186D01*
Y71329D01*
X43719D01*
Y71152D01*
X44252D01*
Y70974D01*
X44784D01*
Y70796D01*
X45317D01*
Y70619D01*
X45850D01*
Y70441D01*
X46383D01*
Y70264D01*
X46915D01*
Y70086D01*
X47448D01*
Y69909D01*
X47981D01*
Y69731D01*
X48513D01*
Y69553D01*
X49046D01*
Y69376D01*
X49579D01*
Y69198D01*
X49756D01*
Y66890D01*
X49401D01*
Y67067D01*
X48869D01*
Y67245D01*
X48336D01*
Y67423D01*
X47803D01*
Y67600D01*
X47270D01*
Y67778D01*
X46738D01*
Y67955D01*
X46205D01*
Y68133D01*
X45672D01*
Y68310D01*
X45140D01*
Y68488D01*
X44607D01*
Y68666D01*
X44074D01*
Y68843D01*
X43541D01*
Y69021D01*
X43009D01*
Y69198D01*
X42476D01*
Y69376D01*
X41943D01*
Y69553D01*
X41411D01*
Y69731D01*
X40878D01*
Y69909D01*
X40345D01*
Y70086D01*
X39990D01*
Y72395D01*
X40523D01*
Y72217D01*
D02*
G37*
G36*
X30934Y75768D02*
X31467D01*
Y75591D01*
X31999D01*
Y75413D01*
X32532D01*
Y75236D01*
X33065D01*
Y75058D01*
X33597D01*
Y74880D01*
X34130D01*
Y74703D01*
X34663D01*
Y74525D01*
X35373D01*
Y74348D01*
X35906D01*
Y74170D01*
X36439D01*
Y73993D01*
X36971D01*
Y73815D01*
X37504D01*
Y73637D01*
X37859D01*
Y73460D01*
X38037D01*
Y73105D01*
X38214D01*
Y72927D01*
X38392D01*
Y72572D01*
X38570D01*
Y71684D01*
X38747D01*
Y67600D01*
X38570D01*
Y67245D01*
X38392D01*
Y67067D01*
X38214D01*
Y66712D01*
X38037D01*
Y66535D01*
X37859D01*
Y66180D01*
X37682D01*
Y66002D01*
X36971D01*
Y66180D01*
X36439D01*
Y66357D01*
X35906D01*
Y66535D01*
X35373D01*
Y66712D01*
X34841D01*
Y66890D01*
X34308D01*
Y67067D01*
X33775D01*
Y67245D01*
X33242D01*
Y67423D01*
X32710D01*
Y67600D01*
X32177D01*
Y67778D01*
X31467D01*
Y67955D01*
X30934D01*
Y68133D01*
X30579D01*
Y68310D01*
X30401D01*
Y68488D01*
X30224D01*
Y68666D01*
X30046D01*
Y68843D01*
X29869D01*
Y69198D01*
X29691D01*
Y69909D01*
X29513D01*
Y74880D01*
X29691D01*
Y75413D01*
X29869D01*
Y75591D01*
X30046D01*
Y75768D01*
X30224D01*
Y75946D01*
X30934D01*
Y75768D01*
D02*
G37*
G36*
X40345Y67423D02*
X40878D01*
Y67245D01*
X41411D01*
Y67067D01*
X41943D01*
Y66890D01*
X42476D01*
Y66712D01*
X43009D01*
Y66535D01*
X43541D01*
Y66357D01*
X44074D01*
Y66180D01*
X44607D01*
Y66002D01*
X45140D01*
Y65825D01*
X45672D01*
Y65647D01*
X46205D01*
Y65469D01*
X46738D01*
Y65292D01*
X47270D01*
Y65114D01*
X47803D01*
Y64937D01*
X48336D01*
Y64759D01*
X48869D01*
Y64582D01*
X49401D01*
Y64404D01*
X49756D01*
Y62095D01*
X49401D01*
Y62273D01*
X48691D01*
Y62451D01*
X48158D01*
Y62628D01*
X47626D01*
Y62806D01*
X47093D01*
Y62983D01*
X46560D01*
Y63161D01*
X46027D01*
Y63339D01*
X45495D01*
Y63516D01*
X44962D01*
Y63694D01*
X44429D01*
Y63871D01*
X43897D01*
Y64049D01*
X43364D01*
Y64226D01*
X42831D01*
Y64404D01*
X42298D01*
Y64582D01*
X41766D01*
Y64759D01*
X41233D01*
Y64937D01*
X40700D01*
Y65114D01*
X40168D01*
Y65292D01*
X39990D01*
Y67600D01*
X40345D01*
Y67423D01*
D02*
G37*
%LPC*%
G36*
X68330Y196758D02*
X66468D01*
Y196694D01*
X65954D01*
Y196630D01*
X65505D01*
Y196565D01*
X65184D01*
Y196501D01*
X64991D01*
Y196437D01*
X64798D01*
Y196373D01*
X64670D01*
Y196309D01*
X64542D01*
Y196244D01*
X64349D01*
Y196180D01*
X64220D01*
Y196116D01*
X64092D01*
Y196052D01*
X63964D01*
Y195987D01*
X63835D01*
Y195923D01*
X63707D01*
Y195859D01*
X63578D01*
Y195795D01*
X63450D01*
Y195731D01*
X63322D01*
Y195667D01*
X63257D01*
Y195602D01*
X63129D01*
Y195538D01*
X63001D01*
Y195474D01*
X62936D01*
Y195410D01*
X62808D01*
Y195345D01*
X62744D01*
Y195281D01*
X62615D01*
Y195217D01*
X62551D01*
Y195153D01*
X62423D01*
Y195089D01*
X62358D01*
Y195024D01*
X62230D01*
Y194960D01*
X62166D01*
Y194896D01*
X62102D01*
Y194832D01*
X62037D01*
Y194768D01*
X61909D01*
Y194703D01*
X61845D01*
Y194639D01*
X61781D01*
Y194575D01*
X61717D01*
Y194511D01*
X61588D01*
Y194447D01*
X61524D01*
Y194382D01*
X61460D01*
Y194318D01*
X61396D01*
Y194254D01*
X61331D01*
Y194190D01*
X61267D01*
Y194125D01*
X61203D01*
Y194061D01*
X61139D01*
Y193997D01*
X61074D01*
Y193933D01*
X61010D01*
Y193869D01*
X60946D01*
Y193805D01*
X60882D01*
Y193740D01*
X60818D01*
Y193676D01*
X60753D01*
Y193612D01*
X60689D01*
Y193548D01*
X60625D01*
Y193419D01*
X60561D01*
Y193355D01*
X60497D01*
Y193291D01*
X60432D01*
Y193227D01*
X60368D01*
Y193163D01*
X60304D01*
Y193034D01*
X60240D01*
Y192970D01*
X60176D01*
Y192906D01*
X60111D01*
Y192777D01*
X60047D01*
Y192713D01*
X59983D01*
Y192649D01*
X59919D01*
Y192520D01*
X59855D01*
Y192456D01*
X59790D01*
Y192328D01*
X59726D01*
Y192264D01*
X59662D01*
Y192135D01*
X59598D01*
Y192007D01*
X59534D01*
Y191943D01*
X59469D01*
Y191814D01*
X59405D01*
Y191686D01*
X59341D01*
Y191557D01*
X59277D01*
Y191429D01*
X59212D01*
Y191365D01*
X59148D01*
Y191236D01*
X59084D01*
Y191108D01*
X59020D01*
Y190915D01*
X58956D01*
Y190787D01*
X58891D01*
Y190658D01*
X58827D01*
Y190530D01*
X58763D01*
Y190337D01*
X58699D01*
Y190209D01*
X58635D01*
Y190016D01*
X58570D01*
Y189888D01*
X58506D01*
Y189695D01*
X58442D01*
Y189503D01*
X58378D01*
Y189310D01*
X58314D01*
Y189053D01*
X58249D01*
Y188861D01*
X58185D01*
Y188604D01*
X58121D01*
Y188347D01*
X58185D01*
Y188475D01*
X58249D01*
Y188668D01*
X58314D01*
Y188796D01*
X58378D01*
Y188925D01*
X58442D01*
Y189118D01*
X58506D01*
Y189246D01*
X58570D01*
Y189374D01*
X58635D01*
Y189503D01*
X58699D01*
Y189631D01*
X58763D01*
Y189760D01*
X58827D01*
Y189888D01*
X58891D01*
Y190016D01*
X58956D01*
Y190081D01*
X59020D01*
Y190209D01*
X59084D01*
Y190337D01*
X59148D01*
Y190466D01*
X59212D01*
Y190530D01*
X59277D01*
Y190658D01*
X59341D01*
Y190723D01*
X59405D01*
Y190851D01*
X59469D01*
Y190915D01*
X59534D01*
Y191044D01*
X59598D01*
Y191108D01*
X59662D01*
Y191172D01*
X59726D01*
Y191300D01*
X59790D01*
Y191365D01*
X59855D01*
Y191429D01*
X59919D01*
Y191493D01*
X59983D01*
Y191621D01*
X60047D01*
Y191686D01*
X60111D01*
Y191750D01*
X60176D01*
Y191814D01*
X60240D01*
Y191878D01*
X60304D01*
Y192007D01*
X60368D01*
Y192071D01*
X60432D01*
Y192135D01*
X60497D01*
Y192199D01*
X60561D01*
Y192264D01*
X60625D01*
Y192328D01*
X60753D01*
Y192392D01*
X60818D01*
Y192456D01*
X60882D01*
Y192520D01*
X60946D01*
Y192585D01*
X61010D01*
Y192649D01*
X61139D01*
Y192713D01*
X61203D01*
Y192777D01*
X61267D01*
Y192841D01*
X61396D01*
Y192906D01*
X61460D01*
Y192970D01*
X61588D01*
Y193034D01*
X61652D01*
Y193098D01*
X61781D01*
Y193163D01*
X61909D01*
Y193227D01*
X62037D01*
Y193291D01*
X62102D01*
Y193355D01*
X62230D01*
Y193419D01*
X62423D01*
Y193483D01*
X62551D01*
Y193548D01*
X62744D01*
Y193612D01*
X62872D01*
Y193676D01*
X63065D01*
Y193740D01*
X63322D01*
Y193805D01*
X63578D01*
Y193869D01*
X63899D01*
Y193933D01*
X64477D01*
Y193997D01*
X65633D01*
Y193933D01*
X66211D01*
Y193869D01*
X66596D01*
Y193805D01*
X66917D01*
Y193740D01*
X67174D01*
Y193676D01*
X67367D01*
Y193612D01*
X67623D01*
Y193548D01*
X67816D01*
Y193483D01*
X68009D01*
Y193419D01*
X68137D01*
Y193355D01*
X68330D01*
Y193291D01*
X68458D01*
Y193227D01*
X68651D01*
Y193163D01*
X68779D01*
Y193098D01*
X68907D01*
Y193034D01*
X69036D01*
Y192970D01*
X69164D01*
Y192906D01*
X69293D01*
Y192777D01*
X69229D01*
Y192649D01*
X69164D01*
Y192585D01*
X69100D01*
Y192649D01*
X68972D01*
Y192713D01*
X68779D01*
Y192777D01*
X68651D01*
Y192713D01*
X68522D01*
Y192777D01*
X68458D01*
Y192841D01*
X68330D01*
Y192906D01*
X68009D01*
Y192970D01*
X67431D01*
Y193034D01*
X66660D01*
Y192970D01*
X66083D01*
Y192906D01*
X65697D01*
Y192841D01*
X65376D01*
Y192777D01*
X65119D01*
Y192713D01*
X64927D01*
Y192649D01*
X64670D01*
Y192585D01*
X64477D01*
Y192520D01*
X64285D01*
Y192456D01*
X64092D01*
Y192392D01*
X63899D01*
Y192328D01*
X63771D01*
Y192264D01*
X63578D01*
Y192199D01*
X63450D01*
Y192135D01*
X63322D01*
Y192071D01*
X63193D01*
Y192007D01*
X63001D01*
Y191943D01*
X62872D01*
Y191878D01*
X62744D01*
Y191814D01*
X62615D01*
Y191750D01*
X62487D01*
Y191686D01*
X62423D01*
Y191621D01*
X62294D01*
Y191557D01*
X62166D01*
Y191493D01*
X62037D01*
Y191429D01*
X61909D01*
Y191365D01*
X61845D01*
Y191300D01*
X61717D01*
Y191236D01*
X61652D01*
Y191172D01*
X61524D01*
Y191108D01*
X61460D01*
Y191044D01*
X61396D01*
Y190980D01*
X61331D01*
Y190915D01*
X61267D01*
Y190851D01*
X61203D01*
Y190787D01*
X61139D01*
Y190723D01*
X61074D01*
Y190658D01*
X61010D01*
Y190594D01*
X60946D01*
Y190530D01*
X60882D01*
Y190466D01*
X60818D01*
Y190402D01*
X60753D01*
Y190337D01*
X60882D01*
Y190402D01*
X61074D01*
Y190466D01*
X61267D01*
Y190530D01*
X61460D01*
Y190594D01*
X61717D01*
Y190658D01*
X62037D01*
Y190723D01*
X63001D01*
Y190658D01*
X63386D01*
Y190594D01*
X63771D01*
Y190530D01*
X64092D01*
Y190466D01*
X64156D01*
Y190402D01*
X64285D01*
Y190337D01*
X64349D01*
Y190273D01*
X64285D01*
Y190209D01*
X64028D01*
Y190145D01*
X63771D01*
Y190081D01*
X63578D01*
Y190016D01*
X63386D01*
Y189952D01*
X63257D01*
Y189888D01*
X63129D01*
Y189824D01*
X63001D01*
Y189760D01*
X62872D01*
Y189695D01*
X62744D01*
Y189631D01*
X62680D01*
Y189567D01*
X62551D01*
Y189503D01*
X62487D01*
Y189438D01*
X62358D01*
Y189374D01*
X62294D01*
Y189310D01*
X62230D01*
Y189246D01*
X62102D01*
Y189182D01*
X62037D01*
Y189118D01*
X61973D01*
Y189053D01*
X61909D01*
Y188989D01*
X61845D01*
Y188925D01*
X61781D01*
Y188861D01*
X61717D01*
Y188796D01*
X61652D01*
Y188732D01*
X61588D01*
Y188668D01*
X61524D01*
Y188604D01*
X61460D01*
Y188540D01*
X61396D01*
Y188475D01*
X61331D01*
Y188347D01*
X61396D01*
Y188411D01*
X61460D01*
Y188475D01*
X61524D01*
Y188540D01*
X61588D01*
Y188604D01*
X61652D01*
Y188668D01*
X61781D01*
Y188732D01*
X61845D01*
Y188796D01*
X61909D01*
Y188861D01*
X61973D01*
Y188925D01*
X62102D01*
Y188989D01*
X62166D01*
Y189053D01*
X62294D01*
Y189118D01*
X62358D01*
Y189182D01*
X62487D01*
Y189246D01*
X62615D01*
Y189310D01*
X62744D01*
Y189374D01*
X62872D01*
Y189438D01*
X63001D01*
Y189503D01*
X63193D01*
Y189567D01*
X63386D01*
Y189631D01*
X63578D01*
Y189695D01*
X63835D01*
Y189760D01*
X64156D01*
Y189824D01*
X64798D01*
Y189888D01*
X65184D01*
Y189824D01*
X65826D01*
Y189760D01*
X66147D01*
Y189695D01*
X66404D01*
Y189631D01*
X66596D01*
Y189567D01*
X66789D01*
Y189503D01*
X66917D01*
Y189438D01*
X67046D01*
Y189374D01*
X67238D01*
Y189310D01*
X67367D01*
Y189246D01*
X67431D01*
Y189182D01*
X67559D01*
Y189118D01*
X67623D01*
Y189053D01*
X67752D01*
Y188989D01*
X67816D01*
Y188925D01*
X67945D01*
Y188861D01*
X68009D01*
Y188796D01*
X68073D01*
Y188732D01*
X68137D01*
Y188668D01*
X68201D01*
Y188604D01*
X68330D01*
Y188540D01*
X68394D01*
Y188475D01*
X68458D01*
Y188411D01*
X68522D01*
Y188347D01*
X68586D01*
Y188283D01*
X68651D01*
Y188219D01*
X68715D01*
Y188154D01*
X68779D01*
Y188090D01*
X70192D01*
Y188026D01*
X70513D01*
Y187962D01*
X70770D01*
Y187898D01*
X70962D01*
Y187833D01*
X71155D01*
Y187769D01*
X71283D01*
Y187705D01*
X71412D01*
Y187641D01*
X71540D01*
Y187576D01*
X71668D01*
Y187512D01*
X71797D01*
Y187448D01*
X71861D01*
Y187384D01*
X71989D01*
Y187320D01*
X72054D01*
Y187256D01*
X72118D01*
Y187191D01*
X72246D01*
Y187127D01*
X72311D01*
Y187063D01*
X72375D01*
Y186999D01*
X72439D01*
Y186934D01*
X72503D01*
Y186870D01*
X72567D01*
Y186806D01*
X72632D01*
Y186742D01*
X72696D01*
Y186678D01*
X72760D01*
Y186614D01*
X72824D01*
Y186549D01*
X72888D01*
Y186421D01*
X72953D01*
Y186357D01*
X73017D01*
Y186292D01*
X73081D01*
Y186164D01*
X73145D01*
Y186036D01*
X73209D01*
Y185971D01*
X73274D01*
Y185843D01*
X73338D01*
Y185715D01*
X73402D01*
Y185586D01*
X73466D01*
Y185458D01*
X73530D01*
Y185265D01*
X73595D01*
Y185137D01*
X73659D01*
Y185008D01*
X73723D01*
Y184880D01*
X73787D01*
Y184751D01*
X73851D01*
Y184559D01*
X73916D01*
Y184430D01*
X73980D01*
Y184238D01*
X74044D01*
Y184109D01*
X74108D01*
Y183917D01*
X74172D01*
Y183724D01*
X74237D01*
Y183532D01*
X74301D01*
Y183403D01*
X74365D01*
Y183211D01*
X74429D01*
Y183018D01*
X74493D01*
Y182761D01*
X74558D01*
Y182569D01*
X74622D01*
Y182376D01*
X74750D01*
Y182440D01*
X74814D01*
Y182504D01*
X74879D01*
Y182569D01*
X74943D01*
Y182633D01*
X75007D01*
Y182697D01*
X75071D01*
Y182825D01*
X75135D01*
Y182889D01*
X75200D01*
Y183018D01*
X75264D01*
Y183146D01*
X75328D01*
Y183339D01*
X75392D01*
Y183596D01*
X75457D01*
Y183917D01*
X75521D01*
Y184751D01*
X75457D01*
Y185073D01*
X75392D01*
Y185265D01*
X75328D01*
Y185394D01*
X75264D01*
Y185522D01*
X75200D01*
Y185586D01*
X75135D01*
Y185394D01*
X75071D01*
Y185201D01*
X75007D01*
Y185073D01*
X74943D01*
Y185008D01*
X74879D01*
Y184880D01*
X74814D01*
Y184816D01*
X74750D01*
Y184751D01*
X74686D01*
Y184687D01*
X74622D01*
Y184623D01*
X74493D01*
Y184559D01*
X74301D01*
Y184816D01*
X74237D01*
Y185137D01*
X74172D01*
Y185394D01*
X74108D01*
Y185522D01*
X74044D01*
Y185715D01*
X73980D01*
Y185843D01*
X73916D01*
Y185907D01*
X73851D01*
Y186036D01*
X73787D01*
Y186164D01*
X73723D01*
Y186228D01*
X73659D01*
Y186357D01*
X73595D01*
Y186421D01*
X73530D01*
Y186485D01*
X73466D01*
Y186549D01*
X73402D01*
Y186678D01*
X73338D01*
Y186742D01*
X73274D01*
Y186806D01*
X73209D01*
Y186934D01*
X73145D01*
Y187127D01*
X73466D01*
Y187063D01*
X73659D01*
Y186999D01*
X73787D01*
Y186934D01*
X73916D01*
Y186870D01*
X73980D01*
Y186806D01*
X74108D01*
Y186742D01*
X74172D01*
Y186678D01*
X74237D01*
Y186549D01*
X74301D01*
Y186485D01*
X74365D01*
Y186614D01*
X74301D01*
Y186999D01*
X74237D01*
Y187127D01*
X74301D01*
Y187191D01*
X74686D01*
Y187127D01*
X74879D01*
Y187063D01*
X75007D01*
Y186999D01*
X75135D01*
Y186934D01*
X75264D01*
Y186870D01*
X75392D01*
Y186806D01*
X75457D01*
Y186742D01*
X75585D01*
Y186678D01*
X75649D01*
Y186614D01*
X75713D01*
Y186549D01*
X75778D01*
Y186485D01*
X75842D01*
Y186421D01*
X75906D01*
Y186357D01*
X75970D01*
Y186292D01*
X76034D01*
Y186164D01*
X76099D01*
Y186100D01*
X76163D01*
Y186036D01*
X76227D01*
Y185907D01*
X76291D01*
Y185843D01*
X76355D01*
Y185715D01*
X76420D01*
Y185586D01*
X76484D01*
Y185458D01*
X76548D01*
Y185329D01*
X76612D01*
Y185201D01*
X76676D01*
Y185008D01*
X76741D01*
Y184816D01*
X76805D01*
Y184623D01*
X76869D01*
Y184430D01*
X76933D01*
Y184366D01*
X77640D01*
Y184302D01*
X77832D01*
Y184238D01*
X77961D01*
Y184174D01*
X78089D01*
Y184109D01*
X78217D01*
Y184045D01*
X78282D01*
Y183981D01*
X78346D01*
Y183917D01*
X78410D01*
Y184238D01*
X78346D01*
Y184366D01*
X78282D01*
Y184430D01*
X78217D01*
Y184495D01*
X78153D01*
Y184623D01*
X78089D01*
Y184687D01*
X77961D01*
Y185008D01*
X78667D01*
Y184944D01*
X78795D01*
Y184880D01*
X78924D01*
Y184816D01*
X79052D01*
Y184751D01*
X79116D01*
Y184687D01*
X79181D01*
Y184751D01*
X79309D01*
Y184880D01*
X79373D01*
Y184944D01*
X79437D01*
Y185008D01*
X79501D01*
Y185073D01*
X79566D01*
Y185201D01*
X79630D01*
Y185265D01*
X79694D01*
Y185394D01*
X79758D01*
Y185522D01*
X79823D01*
Y185586D01*
X79887D01*
Y185715D01*
X79951D01*
Y185843D01*
X80015D01*
Y185971D01*
X80079D01*
Y186036D01*
X80144D01*
Y186100D01*
X80272D01*
Y186164D01*
X80336D01*
Y186228D01*
X80400D01*
Y185779D01*
X80336D01*
Y185458D01*
X80272D01*
Y185201D01*
X80208D01*
Y184944D01*
X80144D01*
Y184751D01*
X80079D01*
Y184495D01*
X80015D01*
Y184302D01*
X79951D01*
Y184174D01*
X79887D01*
Y183981D01*
X79823D01*
Y183853D01*
X79758D01*
Y183660D01*
X79694D01*
Y183532D01*
X79630D01*
Y183403D01*
X79566D01*
Y183275D01*
X79501D01*
Y183146D01*
X79437D01*
Y183018D01*
X79373D01*
Y182889D01*
X79309D01*
Y182761D01*
X79245D01*
Y182697D01*
X79181D01*
Y182569D01*
X79116D01*
Y182440D01*
X79052D01*
Y182376D01*
X78988D01*
Y182247D01*
X78924D01*
Y182183D01*
X78860D01*
Y182119D01*
X78795D01*
Y181991D01*
X78731D01*
Y181926D01*
X78667D01*
Y181862D01*
X78603D01*
Y181798D01*
X78538D01*
Y181670D01*
X78474D01*
Y181605D01*
X78410D01*
Y181541D01*
X78346D01*
Y181477D01*
X78282D01*
Y181413D01*
X78217D01*
Y181349D01*
X78153D01*
Y181284D01*
X78089D01*
Y181220D01*
X78025D01*
Y181156D01*
X77961D01*
Y181092D01*
X77896D01*
Y181027D01*
X77832D01*
Y180899D01*
X77768D01*
Y180835D01*
X77704D01*
Y180771D01*
X77640D01*
Y180642D01*
X77575D01*
Y180578D01*
X77511D01*
Y180450D01*
X77447D01*
Y180321D01*
X77383D01*
Y180193D01*
X77319D01*
Y180064D01*
X77254D01*
Y179936D01*
X77190D01*
Y179743D01*
X77126D01*
Y179551D01*
X77062D01*
Y179358D01*
X76998D01*
Y179101D01*
X76933D01*
Y178202D01*
X76998D01*
Y178010D01*
X77062D01*
Y177881D01*
X77126D01*
Y177817D01*
X77190D01*
Y177753D01*
X77254D01*
Y177689D01*
X77447D01*
Y177753D01*
X77575D01*
Y177817D01*
X77640D01*
Y177881D01*
X77768D01*
Y177946D01*
X77896D01*
Y178010D01*
X77961D01*
Y178074D01*
X78089D01*
Y178138D01*
X78217D01*
Y178202D01*
X78282D01*
Y178267D01*
X78346D01*
Y178331D01*
X78474D01*
Y178395D01*
X78538D01*
Y178459D01*
X78667D01*
Y178524D01*
X78731D01*
Y178588D01*
X78795D01*
Y178652D01*
X78924D01*
Y178716D01*
X78988D01*
Y178780D01*
X79052D01*
Y178844D01*
X79116D01*
Y178909D01*
X79181D01*
Y178973D01*
X79245D01*
Y179037D01*
X79373D01*
Y179101D01*
X79437D01*
Y179166D01*
X79501D01*
Y179230D01*
X79566D01*
Y179294D01*
X79630D01*
Y179358D01*
X79694D01*
Y179422D01*
X79758D01*
Y179487D01*
X79823D01*
Y179551D01*
X79887D01*
Y179679D01*
X79951D01*
Y179743D01*
X80015D01*
Y179808D01*
X80079D01*
Y179872D01*
X80144D01*
Y179936D01*
X80208D01*
Y180000D01*
X80272D01*
Y180129D01*
X80336D01*
Y180193D01*
X80400D01*
Y180257D01*
X80465D01*
Y180385D01*
X80529D01*
Y180450D01*
X80593D01*
Y180578D01*
X80657D01*
Y180707D01*
X80721D01*
Y180771D01*
X80786D01*
Y180899D01*
X80850D01*
Y181027D01*
X80914D01*
Y181156D01*
X80978D01*
Y181284D01*
X81042D01*
Y181413D01*
X81107D01*
Y181541D01*
X81171D01*
Y181670D01*
X81235D01*
Y181862D01*
X81299D01*
Y181991D01*
X81363D01*
Y182119D01*
X81428D01*
Y182312D01*
X81492D01*
Y182440D01*
X81556D01*
Y182633D01*
X81620D01*
Y182761D01*
X81684D01*
Y182954D01*
X81749D01*
Y183082D01*
X81813D01*
Y183275D01*
X81877D01*
Y183467D01*
X81941D01*
Y183660D01*
X82006D01*
Y183853D01*
X82070D01*
Y184045D01*
X82134D01*
Y184238D01*
X82198D01*
Y184430D01*
X82262D01*
Y184623D01*
X82327D01*
Y184880D01*
X82391D01*
Y185586D01*
X82455D01*
Y188090D01*
X82391D01*
Y189053D01*
X82327D01*
Y189695D01*
X82262D01*
Y190145D01*
X82198D01*
Y190594D01*
X82134D01*
Y190915D01*
X82070D01*
Y191236D01*
X82006D01*
Y191493D01*
X81941D01*
Y191750D01*
X81877D01*
Y192007D01*
X81813D01*
Y192199D01*
X81749D01*
Y192392D01*
X81684D01*
Y192585D01*
X81620D01*
Y192777D01*
X81556D01*
Y192906D01*
X81492D01*
Y193034D01*
X81428D01*
Y193098D01*
X81363D01*
Y192649D01*
X81299D01*
Y192264D01*
X81235D01*
Y191943D01*
X81171D01*
Y191686D01*
X81107D01*
Y191429D01*
X81042D01*
Y191236D01*
X80978D01*
Y191044D01*
X80914D01*
Y190851D01*
X80850D01*
Y190658D01*
X80786D01*
Y190530D01*
X80721D01*
Y190337D01*
X80657D01*
Y190209D01*
X80593D01*
Y190081D01*
X80529D01*
Y189952D01*
X80465D01*
Y189824D01*
X80400D01*
Y189760D01*
X80336D01*
Y189631D01*
X80272D01*
Y189503D01*
X80208D01*
Y189438D01*
X80144D01*
Y189374D01*
X80079D01*
Y189246D01*
X79823D01*
Y189310D01*
X79758D01*
Y189374D01*
X79694D01*
Y189503D01*
X79630D01*
Y189567D01*
X79566D01*
Y189631D01*
X79501D01*
Y189695D01*
X79437D01*
Y189824D01*
X79373D01*
Y189888D01*
X79309D01*
Y189952D01*
X79245D01*
Y190016D01*
X79181D01*
Y190145D01*
X79052D01*
Y189567D01*
X78988D01*
Y189182D01*
X78924D01*
Y188925D01*
X78860D01*
Y188732D01*
X78795D01*
Y188475D01*
X78731D01*
Y188283D01*
X78667D01*
Y188154D01*
X78603D01*
Y187962D01*
X78538D01*
Y187833D01*
X78474D01*
Y187705D01*
X78410D01*
Y187576D01*
X78346D01*
Y187448D01*
X78282D01*
Y187320D01*
X78217D01*
Y187191D01*
X78153D01*
Y187063D01*
X78089D01*
Y186999D01*
X78025D01*
Y186934D01*
X77961D01*
Y186870D01*
X77768D01*
Y186934D01*
X77704D01*
Y187127D01*
X77640D01*
Y187384D01*
X77575D01*
Y187576D01*
X77511D01*
Y187769D01*
X77447D01*
Y187962D01*
X77383D01*
Y188154D01*
X77319D01*
Y188347D01*
X77254D01*
Y188540D01*
X77190D01*
Y188668D01*
X77126D01*
Y188861D01*
X77062D01*
Y188989D01*
X76998D01*
Y189182D01*
X76933D01*
Y189310D01*
X76869D01*
Y189438D01*
X76805D01*
Y189631D01*
X76741D01*
Y189760D01*
X76676D01*
Y189888D01*
X76612D01*
Y190016D01*
X76548D01*
Y190145D01*
X76484D01*
Y190273D01*
X76420D01*
Y190402D01*
X76355D01*
Y190530D01*
X76291D01*
Y190658D01*
X76227D01*
Y190787D01*
X76163D01*
Y190915D01*
X76099D01*
Y191044D01*
X76034D01*
Y191108D01*
X75970D01*
Y191236D01*
X75906D01*
Y191365D01*
X75842D01*
Y191493D01*
X75778D01*
Y191557D01*
X75713D01*
Y191686D01*
X75649D01*
Y191814D01*
X75585D01*
Y191878D01*
X75521D01*
Y192007D01*
X75457D01*
Y192071D01*
X75392D01*
Y192199D01*
X75328D01*
Y192264D01*
X75264D01*
Y192392D01*
X75200D01*
Y192456D01*
X75135D01*
Y192520D01*
X75071D01*
Y192649D01*
X75007D01*
Y192713D01*
X74943D01*
Y192777D01*
X74879D01*
Y192906D01*
X74814D01*
Y192970D01*
X74750D01*
Y193034D01*
X74686D01*
Y193098D01*
X74622D01*
Y193227D01*
X74558D01*
Y193291D01*
X74493D01*
Y193355D01*
X74429D01*
Y193419D01*
X74365D01*
Y193483D01*
X74301D01*
Y193548D01*
X74237D01*
Y193612D01*
X74172D01*
Y193740D01*
X74108D01*
Y193805D01*
X74044D01*
Y193869D01*
X73980D01*
Y193933D01*
X73916D01*
Y193997D01*
X73851D01*
Y194061D01*
X73787D01*
Y194125D01*
X73723D01*
Y194190D01*
X73659D01*
Y194254D01*
X73595D01*
Y194318D01*
X73530D01*
Y194382D01*
X73466D01*
Y194447D01*
X73338D01*
Y194511D01*
X73274D01*
Y194575D01*
X73209D01*
Y194639D01*
X73145D01*
Y194703D01*
X73081D01*
Y194768D01*
X73017D01*
Y194832D01*
X72888D01*
Y194896D01*
X72824D01*
Y194960D01*
X72760D01*
Y195024D01*
X72632D01*
Y195089D01*
X72567D01*
Y195153D01*
X72503D01*
Y195217D01*
X72375D01*
Y195281D01*
X72311D01*
Y195345D01*
X72182D01*
Y195410D01*
X72118D01*
Y195474D01*
X71989D01*
Y195538D01*
X71861D01*
Y195602D01*
X71797D01*
Y195667D01*
X71668D01*
Y195731D01*
X71540D01*
Y195795D01*
X71412D01*
Y195859D01*
X71283D01*
Y195923D01*
X71155D01*
Y195987D01*
X71026D01*
Y196052D01*
X70898D01*
Y196116D01*
X70705D01*
Y196180D01*
X70577D01*
Y196244D01*
X70384D01*
Y196309D01*
X70192D01*
Y196373D01*
X69999D01*
Y196437D01*
X69742D01*
Y196501D01*
X69550D01*
Y196565D01*
X69229D01*
Y196630D01*
X68843D01*
Y196694D01*
X68330D01*
Y196758D01*
D02*
G37*
G36*
X59277Y189952D02*
X59212D01*
Y189888D01*
X59277D01*
Y189952D01*
D02*
G37*
G36*
X59212Y189888D02*
X59148D01*
Y189760D01*
X59212D01*
Y189888D01*
D02*
G37*
G36*
X60304Y189053D02*
X60240D01*
Y188989D01*
X60304D01*
Y189053D01*
D02*
G37*
G36*
X61331Y188347D02*
X61267D01*
Y188283D01*
X61331D01*
Y188347D01*
D02*
G37*
G36*
X61267Y188283D02*
X61203D01*
Y188219D01*
X61267D01*
Y188283D01*
D02*
G37*
G36*
X58121Y188347D02*
X58057D01*
Y188219D01*
X58121D01*
Y188347D01*
D02*
G37*
G36*
X61203Y188219D02*
X61139D01*
Y188154D01*
X61203D01*
Y188219D01*
D02*
G37*
G36*
X77832Y183211D02*
X76869D01*
Y183146D01*
X76676D01*
Y183082D01*
X76548D01*
Y183018D01*
X76420D01*
Y182954D01*
X76355D01*
Y182889D01*
X76291D01*
Y182825D01*
X76227D01*
Y182761D01*
X76163D01*
Y182697D01*
X76099D01*
Y182633D01*
X76034D01*
Y182504D01*
X75970D01*
Y182376D01*
X75906D01*
Y182055D01*
X75842D01*
Y181798D01*
X75906D01*
Y181477D01*
X75970D01*
Y181284D01*
X76034D01*
Y181156D01*
X76099D01*
Y180963D01*
X76163D01*
Y180899D01*
X76227D01*
Y180771D01*
X76291D01*
Y180642D01*
X76355D01*
Y180578D01*
X76420D01*
Y180514D01*
X76484D01*
Y180385D01*
X76612D01*
Y180450D01*
X76676D01*
Y180578D01*
X76741D01*
Y180707D01*
X76805D01*
Y180771D01*
X76869D01*
Y180899D01*
X76933D01*
Y181092D01*
X76869D01*
Y181284D01*
X76805D01*
Y181926D01*
X76869D01*
Y181991D01*
X76933D01*
Y182055D01*
X76998D01*
Y182119D01*
X77126D01*
Y182183D01*
X77896D01*
Y182504D01*
X77961D01*
Y182954D01*
X78025D01*
Y183082D01*
X77961D01*
Y183146D01*
X77832D01*
Y183211D01*
D02*
G37*
G36*
X43009Y169881D02*
X42654D01*
Y167927D01*
X45672D01*
Y168105D01*
X45495D01*
Y168282D01*
X45140D01*
Y168460D01*
X44962D01*
Y168638D01*
X44607D01*
Y168815D01*
X44429D01*
Y168993D01*
X44074D01*
Y169170D01*
X43719D01*
Y169348D01*
X43541D01*
Y169526D01*
X43186D01*
Y169703D01*
X43009D01*
Y169881D01*
D02*
G37*
G36*
X36971Y108974D02*
X36794D01*
Y108797D01*
X36616D01*
Y108619D01*
X36439D01*
Y108264D01*
X35906D01*
Y108441D01*
X35373D01*
Y108619D01*
X35018D01*
Y106310D01*
X35196D01*
Y105955D01*
X35373D01*
Y105778D01*
X35728D01*
Y105600D01*
X36439D01*
Y105423D01*
X36794D01*
Y105600D01*
X36971D01*
Y108974D01*
D02*
G37*
G36*
X31822Y73105D02*
X31467D01*
Y72927D01*
X31289D01*
Y70619D01*
X31467D01*
Y70441D01*
X31644D01*
Y70264D01*
X32177D01*
Y70086D01*
X32710D01*
Y69909D01*
X33420D01*
Y69731D01*
X33953D01*
Y69553D01*
X34485D01*
Y69376D01*
X35018D01*
Y69198D01*
X35551D01*
Y69021D01*
X36083D01*
Y68843D01*
X36971D01*
Y69021D01*
X37149D01*
Y72217D01*
X36794D01*
Y71862D01*
X36616D01*
Y71507D01*
X36261D01*
Y71684D01*
X35728D01*
Y71862D01*
X35196D01*
Y72039D01*
X34663D01*
Y72217D01*
X34130D01*
Y72395D01*
X33420D01*
Y72572D01*
X32887D01*
Y72750D01*
X32355D01*
Y72927D01*
X31822D01*
Y73105D01*
D02*
G37*
%LPD*%
D10*
X145276Y193374D02*
X144488D01*
X145276D01*
X145276Y193374D02*
X144488D01*
X145276D01*
X70374Y103646D02*
Y104228D01*
X67225Y103646D02*
Y104228D01*
X155905Y103642D02*
Y106102D01*
X153445Y103642D02*
X155905D01*
Y118110D02*
Y120571D01*
X153445D02*
X155905D01*
X138976D02*
X141437D01*
X138976Y118110D02*
Y120571D01*
Y103642D02*
Y106102D01*
Y103642D02*
X141437D01*
X137106Y151870D02*
X138779D01*
X137106D02*
Y153543D01*
Y163583D02*
Y165256D01*
X138779D01*
X148819D02*
X150492D01*
Y163583D02*
Y165256D01*
X148819Y151870D02*
X150492D01*
Y153543D01*
X163012Y147973D02*
X165748D01*
X167126Y139665D02*
Y147539D01*
Y139665D02*
X169291D01*
Y147539D01*
X167126D02*
X169291D01*
D11*
X69095Y99213D02*
D03*
X144291Y130020D02*
D03*
D12*
X140059Y101083D02*
X139321Y101509D01*
Y100656D01*
X140059Y101083D01*
X138189Y149311D02*
X137451Y149737D01*
Y148885D01*
X138189Y149311D01*
D13*
X149409Y216634D02*
X157283D01*
X132480D02*
X140354D01*
X132480Y216634D02*
X140354D01*
X149409D02*
X157283D01*
X84114Y96417D02*
X86614D01*
X81614Y98917D02*
X84114Y96417D01*
X89114D02*
X91614Y98917D01*
X86614Y96417D02*
X89114D01*
X91614Y98917D02*
Y163917D01*
X89114Y166417D02*
X91614Y163917D01*
X84114Y166417D02*
X89114D01*
X81614Y163917D02*
X84114Y166417D01*
X81614Y98917D02*
Y163917D01*
X142520Y174409D02*
Y175512D01*
Y174409D02*
X143032D01*
X146732D02*
X147244D01*
Y175512D01*
X142520Y181181D02*
Y182283D01*
X143032D01*
X146732D02*
X147244D01*
Y181181D02*
Y182283D01*
X137559Y26969D02*
X153858D01*
X53858D02*
X70157D01*
X53858Y1969D02*
Y26969D01*
X153858Y1969D02*
Y26969D01*
X10531Y1969D02*
Y32992D01*
X48524D01*
Y1969D02*
Y32992D01*
X146850Y124331D02*
X150000D01*
X146850Y131772D02*
X150000D01*
D14*
X98163Y97264D02*
X97639Y97789D01*
Y98838D01*
X98163Y99363D01*
X98688D01*
X99213Y98838D01*
Y98313D01*
Y98838D01*
X99738Y99363D01*
X100263D01*
X100787Y98838D01*
Y97789D01*
X100263Y97264D01*
X97639Y100412D02*
X99738D01*
X100787Y101462D01*
X99738Y102511D01*
X97639D01*
X98163Y103561D02*
X97639Y104086D01*
Y105135D01*
X98163Y105660D01*
X98688D01*
X99213Y105135D01*
Y104611D01*
Y105135D01*
X99738Y105660D01*
X100263D01*
X100787Y105135D01*
Y104086D01*
X100263Y103561D01*
X98163Y110190D02*
X97639Y109665D01*
Y108615D01*
X98163Y108090D01*
X100263D01*
X100787Y108615D01*
Y109665D01*
X100263Y110190D01*
X99213D01*
Y109140D01*
X100787Y111239D02*
X97639D01*
X100787Y113338D01*
X97639D01*
Y114388D02*
X100787D01*
Y115962D01*
X100263Y116487D01*
X98163D01*
X97639Y115962D01*
Y114388D01*
X98163Y121016D02*
X97639Y120492D01*
Y119442D01*
X98163Y118917D01*
X100263D01*
X100787Y119442D01*
Y120492D01*
X100263Y121016D01*
X99213D01*
Y119967D01*
X100787Y122066D02*
X97639D01*
X100787Y124165D01*
X97639D01*
Y125215D02*
X100787D01*
Y126789D01*
X100263Y127313D01*
X98163D01*
X97639Y126789D01*
Y125215D01*
X98163Y149560D02*
X97639Y149035D01*
Y147985D01*
X98163Y147461D01*
X100263D01*
X100787Y147985D01*
Y149035D01*
X100263Y149560D01*
X99213D01*
Y148510D01*
X100787Y150609D02*
X97639D01*
X100787Y152708D01*
X97639D01*
Y153758D02*
X100787D01*
Y155332D01*
X100263Y155857D01*
X98163D01*
X97639Y155332D01*
Y153758D01*
X100787Y158287D02*
Y159337D01*
Y158812D01*
X97639D01*
X98163Y158287D01*
X100787Y163010D02*
Y160911D01*
X98688Y163010D01*
X98163D01*
X97639Y162486D01*
Y161436D01*
X98163Y160911D01*
X97639Y164060D02*
X99738D01*
X100787Y165109D01*
X99738Y166159D01*
X97639D01*
D15*
X19890Y36746D02*
X22023D01*
X20956Y37812D02*
Y35679D01*
X23089Y35146D02*
X24156D01*
X23623D01*
Y38345D01*
X23089Y37812D01*
X27889Y35146D02*
X25756D01*
X27889Y37279D01*
Y37812D01*
X27356Y38345D01*
X26289D01*
X25756Y37812D01*
X33243D02*
X32710Y38345D01*
X31644D01*
X31110Y37812D01*
Y35679D01*
X31644Y35146D01*
X32710D01*
X33243Y35679D01*
Y36746D01*
X32177D01*
X34310Y35146D02*
Y38345D01*
X36443Y35146D01*
Y38345D01*
X37510D02*
Y35146D01*
X39110D01*
X39643Y35679D01*
Y37812D01*
X39110Y38345D01*
X37510D01*
M02*
