G04*
G04 #@! TF.GenerationSoftware,Altium Limited,Altium Designer,22.1.2 (22)*
G04*
G04 Layer_Color=16711935*
%FSLAX25Y25*%
%MOIN*%
G70*
G04*
G04 #@! TF.SameCoordinates,36DEEAF7-B38F-4887-853D-DC1A27ABF5B6*
G04*
G04*
G04 #@! TF.FilePolarity,Negative*
G04*
G01*
G75*
%ADD16R,0.06784X0.20800*%
%ADD31R,0.02965X0.02965*%
%ADD41C,0.15449*%
%ADD42C,0.06784*%
%ADD43C,0.05682*%
%ADD44R,0.05682X0.05682*%
%ADD45C,0.24422*%
%ADD46C,0.00800*%
%ADD47C,0.06824*%
%ADD48R,0.06824X0.06824*%
%ADD102R,0.04619X0.04225*%
%ADD103R,0.05524X0.05131*%
D16*
X128189Y206594D02*
D03*
X161575D02*
D03*
X128189Y206594D02*
D03*
X161575D02*
D03*
D31*
X56299Y109350D02*
D03*
Y112894D02*
D03*
D41*
X17717Y66457D02*
D03*
D42*
X86614Y121417D02*
D03*
Y131417D02*
D03*
Y141417D02*
D03*
Y101417D02*
D03*
Y111417D02*
D03*
Y151417D02*
D03*
Y161417D02*
D03*
D43*
X73858Y29921D02*
D03*
Y39921D02*
D03*
X83858Y29921D02*
D03*
Y39921D02*
D03*
X93858Y29921D02*
D03*
Y39921D02*
D03*
X103858Y29921D02*
D03*
Y39921D02*
D03*
X113858Y29921D02*
D03*
Y39921D02*
D03*
X123858Y29921D02*
D03*
Y39921D02*
D03*
X133858Y29921D02*
D03*
D44*
Y39921D02*
D03*
D45*
X181102Y15748D02*
D03*
X62992Y66929D02*
D03*
X15748Y200787D02*
D03*
D46*
X29528Y12126D02*
D03*
D47*
X23622Y29134D02*
D03*
D48*
X35433D02*
D03*
D102*
X158366Y41850D02*
D03*
Y35709D02*
D03*
X170866D02*
D03*
Y41850D02*
D03*
X164567Y35709D02*
D03*
Y41850D02*
D03*
X183465D02*
D03*
Y35709D02*
D03*
X177126D02*
D03*
Y41850D02*
D03*
X152165D02*
D03*
Y35709D02*
D03*
D103*
X49606Y104626D02*
D03*
Y112894D02*
D03*
X174016Y53740D02*
D03*
Y62008D02*
D03*
X181890D02*
D03*
Y53740D02*
D03*
M02*
