G04*
G04 #@! TF.GenerationSoftware,Altium Limited,Altium Designer,22.1.2 (22)*
G04*
G04 Layer_Color=16711935*
%FSLAX25Y25*%
%MOIN*%
G70*
G04*
G04 #@! TF.SameCoordinates,36DEEAF7-B38F-4887-853D-DC1A27ABF5B6*
G04*
G04*
G04 #@! TF.FilePolarity,Positive*
G04*
G01*
G75*
%ADD105C,0.00098*%
D105*
X181102Y0D02*
X182091Y31D01*
X183076Y124D01*
X184053Y279D01*
X185019Y495D01*
X185969Y771D01*
X186900Y1106D01*
X187808Y1499D01*
X188689Y1948D01*
X189541Y2451D01*
X190359Y3008D01*
X191141Y3614D01*
X191883Y4268D01*
X192582Y4968D01*
X193236Y5710D01*
X193843Y6492D01*
X194399Y7310D01*
X194903Y8161D01*
X195352Y9043D01*
X195745Y9951D01*
X196080Y10882D01*
X196356Y11832D01*
X196572Y12797D01*
X196726Y13774D01*
X196819Y14759D01*
X196850Y15748D01*
Y200787D02*
X196819Y201776D01*
X196726Y202761D01*
X196572Y203738D01*
X196356Y204704D01*
X196080Y205654D01*
X195745Y206585D01*
X195352Y207493D01*
X194903Y208374D01*
X194399Y209226D01*
X193843Y210044D01*
X193236Y210826D01*
X192582Y211568D01*
X191883Y212267D01*
X191140Y212922D01*
X190359Y213528D01*
X189541Y214084D01*
X188689Y214587D01*
X187808Y215037D01*
X186900Y215430D01*
X185969Y215765D01*
X185019Y216041D01*
X184053Y216256D01*
X183076Y216411D01*
X182091Y216504D01*
X181102Y216535D01*
X15748D02*
X14759Y216504D01*
X13774Y216411D01*
X12797Y216256D01*
X11832Y216041D01*
X10882Y215765D01*
X9951Y215430D01*
X9043Y215037D01*
X8161Y214587D01*
X7310Y214084D01*
X6492Y213528D01*
X5710Y212922D01*
X4968Y212267D01*
X4268Y211568D01*
X3614Y210826D01*
X3008Y210044D01*
X2451Y209226D01*
X1948Y208374D01*
X1499Y207493D01*
X1106Y206585D01*
X771Y205654D01*
X495Y204704D01*
X279Y203738D01*
X124Y202761D01*
X31Y201776D01*
X0Y200787D01*
Y15748D02*
X31Y14759D01*
X124Y13774D01*
X279Y12797D01*
X495Y11832D01*
X771Y10882D01*
X1106Y9951D01*
X1499Y9043D01*
X1948Y8161D01*
X2451Y7310D01*
X3008Y6492D01*
X3614Y5710D01*
X4268Y4968D01*
X4968Y4268D01*
X5710Y3614D01*
X6492Y3008D01*
X7310Y2451D01*
X8161Y1948D01*
X9043Y1499D01*
X9951Y1106D01*
X10882Y771D01*
X11832Y495D01*
X12797Y279D01*
X13774Y124D01*
X14759Y31D01*
X15748Y0D01*
X181102D01*
X196850Y15748D02*
Y200787D01*
X15748Y216535D02*
X181102D01*
X0Y15748D02*
Y200787D01*
M02*
