M48
;Layer_Color=9474304
;FILE_FORMAT=2:4
INCH,TZ
;TYPE=PLATED
T1F00S00C0.0079
T2F00S00C0.0118
T3F00S00C0.0157
T4F00S00C0.0350
T5F00S00C0.0402
T6F00S00C0.1339
;TYPE=NON_PLATED
T7F00S00C0.1181
T8F00S00C0.1260
%
T01
X4961Y9892
X10551Y9642
Y8750
Y7858
X11545Y6880
X12677
X13204
X13732
X14259
X14786
X15314
X15841
X16368
X17421
X18425Y7889
Y8781
Y9672
Y10564
Y11455
Y12347
Y13239
Y14130
Y15022
Y15914
Y16805
Y17697
X15738Y17736
Y17244
Y16752
X15423Y16594
X14577Y16053
X14183
Y15659
X14380Y15856
X14577Y15659
X14380Y14970
X14104
X13888Y15236
Y16476
X14134Y16762
X13209Y16772
Y17257
X10551Y17666
Y16775
Y15883
Y14991
Y14100
Y13208
Y12316
Y11425
Y10533
X12244Y11624
X12677
X13110
X14429Y11545
X14749
X15069
Y11211
X14749
X14429
Y10876
X14749
X15069
X16388Y10463
X16821
X17254
X17854Y13661
X17697Y13967
X16811Y14508
X14360Y12805
X13209Y17743
Y18228
Y18681
X12641
X11555
X10551Y19201
Y19719
Y20236
Y20753
Y21270
X15738Y18681
Y18228
X16352Y18681
X17411
X18425Y19260
Y19778
Y20295
Y20812
Y21329
T02
X5748Y394
X7717
X9685
X11654
X13622
X15591
X3780
X1811
X4144Y2057
X4528
Y2372
Y2717
Y3071
Y3396
Y3711
X4144
Y3396
Y3051
Y2717
Y2372
X2795Y2362
X3780Y4331
X1811
Y8268
X3780
X4764Y6299
X3780Y12205
X1811
X2795Y14173
X4764
X3780Y16142
X1811
X7539Y15364
Y15030
Y14695
Y14360
X7923
Y14695
Y15030
Y15364
X6732Y14173
X7500Y12303
Y11968
Y11634
Y11299
Y10965
X7844Y10965
Y11299
Y11634
Y11968
Y12303
X5748Y12205
X6230Y10308
X6545
Y9990
X6230
Y9675
Y9355
Y9035
X6617
Y9355
Y9675
X7005
Y9355
Y9035
X7392
Y9355
Y9675
X7717Y8268
X9685
X8701Y6299
X10659Y4803
X12313Y4774
X14783Y4606
X14754Y3573
X14400Y2520
X15630Y2510
X16457Y3258
X17087
X17707
X18356
X18189Y4921
X17402
X17441Y8740
X17766
Y9104
X17087Y9085
Y8740
X15925Y9311
X15532Y9734
X15089
X14675
X14272
X13770
X13406Y10069
X12372Y10226
X12382Y9872
X12018
X11663
Y10226
X11594Y11604
Y11939
X12003
X12352
X12726Y12096
X12589Y13356
X12244
Y13022
X11624
X11201
Y12677
X9537Y13317
Y14144
X11604Y16024
X12008Y16280
X12431
X12864Y16270
X13317Y16260
X15187Y16949
X13898Y13356
X13465
X13032
X16211Y13051
X16220Y12628
X17274Y12677
X16329Y10906
X17825Y10482
X17844Y10157
X5748Y8268
Y4331
X6732Y2362
X8701
X10669
X8701Y18110
X6732
X7717Y20079
X9685
X12815Y19961
Y20630
Y21289
X16161
Y20630
Y19961
X15039Y17835
X14488
X13937
X5748Y20079
X3780
X4764Y18110
X2795
T03
X6880Y11112
X12008Y14104
X12146Y20630
X16831
T04
X7386Y2992
Y3992
X8386
Y2992
X9386
Y3992
X10386
Y2992
X11386
Y3992
X12386
Y2992
X13386
Y3992
T05
X2362Y2913
X3543
X8661Y10142
Y11142
Y12142
Y13142
Y14142
Y15142
Y16142
T06
X18110Y1575
X6299Y6693
X1575Y20079
T07
X2953Y1213
T08
X1772Y6646
M30
