G04*
G04 #@! TF.GenerationSoftware,Altium Limited,Altium Designer,22.1.2 (22)*
G04*
G04 Layer_Color=8388736*
%FSLAX25Y25*%
%MOIN*%
G70*
G04*
G04 #@! TF.SameCoordinates,36DEEAF7-B38F-4887-853D-DC1A27ABF5B6*
G04*
G04*
G04 #@! TF.FilePolarity,Negative*
G04*
G01*
G75*
%ADD16R,0.06784X0.20800*%
%ADD17R,0.03556X0.03950*%
%ADD18R,0.01981X0.03359*%
%ADD19R,0.11036X0.11036*%
%ADD20R,0.03162X0.03556*%
%ADD21R,0.02375X0.02690*%
%ADD22O,0.04343X0.01784*%
%ADD23O,0.01784X0.04343*%
%ADD24R,0.03477X0.03320*%
%ADD25R,0.03320X0.03477*%
%ADD26R,0.03162X0.03458*%
G04:AMPARAMS|DCode=27|XSize=47.37mil|YSize=39.5mil|CornerRadius=6.36mil|HoleSize=0mil|Usage=FLASHONLY|Rotation=0.000|XOffset=0mil|YOffset=0mil|HoleType=Round|Shape=RoundedRectangle|*
%AMROUNDEDRECTD27*
21,1,0.04737,0.02677,0,0,0.0*
21,1,0.03465,0.03950,0,0,0.0*
1,1,0.01272,0.01732,-0.01339*
1,1,0.01272,-0.01732,-0.01339*
1,1,0.01272,-0.01732,0.01339*
1,1,0.01272,0.01732,0.01339*
%
%ADD27ROUNDEDRECTD27*%
G04:AMPARAMS|DCode=28|XSize=47.37mil|YSize=39.5mil|CornerRadius=6.36mil|HoleSize=0mil|Usage=FLASHONLY|Rotation=270.000|XOffset=0mil|YOffset=0mil|HoleType=Round|Shape=RoundedRectangle|*
%AMROUNDEDRECTD28*
21,1,0.04737,0.02677,0,0,270.0*
21,1,0.03465,0.03950,0,0,270.0*
1,1,0.01272,-0.01339,-0.01732*
1,1,0.01272,-0.01339,0.01732*
1,1,0.01272,0.01339,0.01732*
1,1,0.01272,0.01339,-0.01732*
%
%ADD28ROUNDEDRECTD28*%
%ADD29R,0.02769X0.02769*%
%ADD30R,0.02769X0.02769*%
%ADD31R,0.02965X0.02965*%
%ADD32O,0.01784X0.03950*%
%ADD33O,0.03950X0.01784*%
%ADD34R,0.07493X0.07493*%
%ADD35R,0.03458X0.03162*%
%ADD36R,0.02965X0.03162*%
%ADD37R,0.03536X0.02454*%
%ADD38R,0.02965X0.01784*%
%ADD39R,0.02965X0.02965*%
%ADD40R,0.04737X0.05524*%
%ADD41C,0.15449*%
%ADD42C,0.06784*%
%ADD43C,0.05682*%
%ADD44R,0.05682X0.05682*%
%ADD45C,0.24422*%
%ADD46C,0.00800*%
%ADD47C,0.06824*%
%ADD48R,0.06824X0.06824*%
G36*
X107087Y188484D02*
X133760D01*
Y185335D01*
Y165650D01*
X130315D01*
Y185335D01*
X108110D01*
X107087Y184311D01*
Y181004D01*
Y74705D01*
Y71398D01*
X108110Y70374D01*
X164469D01*
Y70397D01*
X181677D01*
X182677Y71398D01*
Y181004D01*
Y184311D01*
D01*
X181653Y185335D01*
X159055D01*
Y165650D01*
X155610D01*
Y185335D01*
Y188484D01*
Y188509D01*
X159055D01*
Y188484D01*
X182677D01*
Y214440D01*
X183789Y214293D01*
X185529Y213827D01*
X185827Y213704D01*
X185827Y188484D01*
X185827D01*
Y185335D01*
Y181004D01*
Y67224D01*
X178347D01*
Y67247D01*
X164469D01*
Y67224D01*
X103937D01*
Y181004D01*
Y185335D01*
Y188484D01*
Y214528D01*
X107087D01*
X107087Y188484D01*
D02*
G37*
D16*
X128189Y206594D02*
D03*
X144882D02*
D03*
X161575D02*
D03*
X161575Y206594D02*
D03*
X144882D02*
D03*
X128189D02*
D03*
D17*
X142717Y178347D02*
D03*
X147047D02*
D03*
D18*
X144882Y174606D02*
D03*
Y182087D02*
D03*
D19*
X147441Y112106D02*
D03*
D20*
X73819Y101378D02*
D03*
X77756D02*
D03*
D21*
X68799Y106535D02*
D03*
Y101339D02*
D03*
D22*
X139764Y108169D02*
D03*
Y110138D02*
D03*
Y112106D02*
D03*
Y114075D02*
D03*
Y116043D02*
D03*
X155118D02*
D03*
Y114075D02*
D03*
Y112106D02*
D03*
Y110138D02*
D03*
Y108169D02*
D03*
D23*
X143504Y119783D02*
D03*
X145473D02*
D03*
X147441D02*
D03*
X149409D02*
D03*
X151378D02*
D03*
Y104429D02*
D03*
X149409D02*
D03*
X147441D02*
D03*
X145473D02*
D03*
X143504D02*
D03*
D24*
X155453Y126378D02*
D03*
X158917D02*
D03*
X155453Y130610D02*
D03*
X158917D02*
D03*
X148287Y169488D02*
D03*
X144823D02*
D03*
X166181Y109055D02*
D03*
X169646D02*
D03*
Y126772D02*
D03*
X166181D02*
D03*
D25*
X161713Y104193D02*
D03*
Y100728D02*
D03*
X166043Y104193D02*
D03*
Y100728D02*
D03*
X170374Y104193D02*
D03*
Y100728D02*
D03*
X174705D02*
D03*
Y104193D02*
D03*
X132972Y155945D02*
D03*
Y159409D02*
D03*
X128642Y155945D02*
D03*
Y159409D02*
D03*
X124311Y155945D02*
D03*
Y159409D02*
D03*
X119980Y155945D02*
D03*
Y159409D02*
D03*
X125886Y129890D02*
D03*
Y126425D02*
D03*
X120276Y115905D02*
D03*
Y112441D02*
D03*
X128937D02*
D03*
Y115905D02*
D03*
X133268Y112441D02*
D03*
Y115905D02*
D03*
X124606Y112441D02*
D03*
Y115905D02*
D03*
X133957Y107835D02*
D03*
Y104370D02*
D03*
X138976Y126425D02*
D03*
Y129890D02*
D03*
X130217Y126425D02*
D03*
Y129890D02*
D03*
X134547Y126425D02*
D03*
Y129890D02*
D03*
D26*
X174705Y95669D02*
D03*
Y90945D02*
D03*
X120079Y145866D02*
D03*
Y150591D02*
D03*
X120276Y107283D02*
D03*
Y102559D02*
D03*
D27*
X184252Y84547D02*
D03*
Y171161D02*
D03*
X105512D02*
D03*
Y84547D02*
D03*
D28*
X168504Y186909D02*
D03*
Y68799D02*
D03*
X121260D02*
D03*
Y186909D02*
D03*
D29*
X105512Y68799D02*
D03*
X184252Y186909D02*
D03*
D30*
Y68799D02*
D03*
X105512Y186909D02*
D03*
D31*
X158169Y159449D02*
D03*
Y162992D02*
D03*
X154232Y159449D02*
D03*
Y162992D02*
D03*
Y155512D02*
D03*
Y151969D02*
D03*
X176870Y142618D02*
D03*
Y146161D02*
D03*
D32*
X140847Y152854D02*
D03*
X142815D02*
D03*
X144783D02*
D03*
X146752D02*
D03*
Y164272D02*
D03*
X144783D02*
D03*
X142815D02*
D03*
X140847D02*
D03*
D33*
X149508Y155610D02*
D03*
Y157579D02*
D03*
Y159547D02*
D03*
Y161516D02*
D03*
X138091D02*
D03*
Y159547D02*
D03*
Y157579D02*
D03*
Y155610D02*
D03*
D34*
X143799Y158563D02*
D03*
D35*
X120866Y126484D02*
D03*
X116142D02*
D03*
D36*
X161122Y116142D02*
D03*
Y119488D02*
D03*
D37*
X172035Y146161D02*
D03*
Y141043D02*
D03*
X164382D02*
D03*
Y143602D02*
D03*
Y146161D02*
D03*
D38*
X150098Y126083D02*
D03*
X146752D02*
D03*
X150098Y130020D02*
D03*
X146752D02*
D03*
X150098Y128051D02*
D03*
X146752D02*
D03*
D39*
X171949Y136516D02*
D03*
X175492D02*
D03*
X133465Y120768D02*
D03*
X129921D02*
D03*
D40*
X171260Y114567D02*
D03*
Y121260D02*
D03*
X166142D02*
D03*
Y114567D02*
D03*
D41*
X17717Y66457D02*
D03*
D42*
X86614Y121417D02*
D03*
Y131417D02*
D03*
Y141417D02*
D03*
Y101417D02*
D03*
Y111417D02*
D03*
Y151417D02*
D03*
Y161417D02*
D03*
D43*
X73858Y29921D02*
D03*
Y39921D02*
D03*
X83858Y29921D02*
D03*
Y39921D02*
D03*
X93858Y29921D02*
D03*
Y39921D02*
D03*
X103858Y29921D02*
D03*
Y39921D02*
D03*
X113858Y29921D02*
D03*
Y39921D02*
D03*
X123858Y29921D02*
D03*
Y39921D02*
D03*
X133858Y29921D02*
D03*
D44*
Y39921D02*
D03*
D45*
X181102Y15748D02*
D03*
X62992Y66929D02*
D03*
X15748Y200787D02*
D03*
D46*
X29528Y12126D02*
D03*
D47*
X23622Y29134D02*
D03*
D48*
X35433D02*
D03*
M02*
