G04*
G04 #@! TF.GenerationSoftware,Altium Limited,Altium Designer,22.1.2 (22)*
G04*
G04 Layer_Color=32896*
%FSLAX25Y25*%
%MOIN*%
G70*
G04*
G04 #@! TF.SameCoordinates,36DEEAF7-B38F-4887-853D-DC1A27ABF5B6*
G04*
G04*
G04 #@! TF.FilePolarity,Positive*
G04*
G01*
G75*
%ADD10C,0.00787*%
%ADD13C,0.00500*%
%ADD14C,0.00591*%
%ADD15C,0.00598*%
%ADD104C,0.00600*%
G36*
X69989Y200855D02*
X69155D01*
Y200791D01*
X68641D01*
Y200727D01*
X68191D01*
Y200663D01*
X67870D01*
Y200599D01*
X67549D01*
Y200535D01*
X67292D01*
Y200470D01*
X67036D01*
Y200406D01*
X66843D01*
Y200342D01*
X66586D01*
Y200278D01*
X66394D01*
Y200214D01*
X66201D01*
Y200149D01*
X66008D01*
Y200085D01*
X65816D01*
Y200021D01*
X65623D01*
Y199957D01*
X65430D01*
Y199892D01*
X65238D01*
Y199828D01*
X65045D01*
Y199764D01*
X64917D01*
Y199700D01*
X64724D01*
Y199636D01*
X64532D01*
Y199571D01*
X64403D01*
Y199507D01*
X64275D01*
Y199443D01*
X64082D01*
Y199379D01*
X63954D01*
Y199315D01*
X63825D01*
Y199250D01*
X63633D01*
Y199186D01*
X63504D01*
Y199122D01*
X63376D01*
Y199058D01*
X63248D01*
Y198994D01*
X63119D01*
Y198929D01*
X62991D01*
Y198865D01*
X62862D01*
Y198801D01*
X62734D01*
Y198737D01*
X62605D01*
Y198672D01*
X62541D01*
Y198608D01*
X62413D01*
Y198544D01*
X62349D01*
Y198480D01*
X62220D01*
Y198416D01*
X62156D01*
Y198352D01*
X62092D01*
Y198287D01*
X61963D01*
Y198223D01*
X61899D01*
Y198159D01*
X61835D01*
Y198095D01*
X61771D01*
Y198030D01*
X61707D01*
Y197966D01*
X61578D01*
Y197902D01*
X61514D01*
Y197838D01*
X61450D01*
Y197774D01*
X61386D01*
Y197709D01*
X61321D01*
Y197645D01*
X61257D01*
Y197581D01*
X61193D01*
Y197517D01*
X61129D01*
Y197453D01*
X61064D01*
Y197388D01*
X61000D01*
Y197324D01*
X60936D01*
Y197260D01*
X60872D01*
Y197196D01*
X60808D01*
Y197132D01*
Y197067D01*
X60743D01*
Y197003D01*
X60679D01*
Y196939D01*
X60615D01*
Y196875D01*
X60551D01*
Y196811D01*
X60487D01*
Y196746D01*
Y196682D01*
X60422D01*
Y196618D01*
X60358D01*
Y196554D01*
X60294D01*
Y196490D01*
Y196425D01*
X60230D01*
Y196361D01*
X60166D01*
Y196297D01*
X60101D01*
Y196233D01*
Y196168D01*
X60037D01*
Y196104D01*
X59973D01*
Y196040D01*
Y195976D01*
X59909D01*
Y195912D01*
X59845D01*
Y195847D01*
Y195783D01*
X59780D01*
Y195719D01*
Y195655D01*
X59716D01*
Y195591D01*
X59652D01*
Y195527D01*
Y195462D01*
X59588D01*
Y195398D01*
X59524D01*
Y195334D01*
Y195270D01*
X59459D01*
Y195205D01*
Y195141D01*
Y195077D01*
X59395D01*
Y195013D01*
Y194949D01*
Y194884D01*
X59331D01*
Y194820D01*
Y194756D01*
Y194692D01*
X59267D01*
Y194628D01*
Y194563D01*
Y194499D01*
X59202D01*
Y194435D01*
Y194371D01*
X59138D01*
Y194307D01*
Y194242D01*
Y194178D01*
X59074D01*
Y194114D01*
Y194050D01*
Y193985D01*
X59010D01*
Y193921D01*
Y193857D01*
Y193793D01*
X58946D01*
Y193729D01*
Y193665D01*
Y193600D01*
X58881D01*
Y193536D01*
Y193472D01*
Y193408D01*
X58817D01*
Y193343D01*
Y193279D01*
Y193215D01*
X58753D01*
Y193151D01*
Y193087D01*
Y193022D01*
X58689D01*
Y192958D01*
Y192894D01*
Y192830D01*
X58625D01*
Y192766D01*
Y192701D01*
Y192637D01*
X58561D01*
Y192573D01*
Y192509D01*
Y192445D01*
X58496D01*
Y192380D01*
X58432D01*
Y192316D01*
X58368D01*
Y192252D01*
X58239D01*
Y192188D01*
X58175D01*
Y192123D01*
X58047D01*
Y192059D01*
X57983D01*
Y191995D01*
X57918D01*
Y191931D01*
X57854D01*
Y191867D01*
X57790D01*
Y191803D01*
X57726D01*
Y191738D01*
X57662D01*
Y191674D01*
X57597D01*
Y191610D01*
X57533D01*
Y191546D01*
Y191481D01*
X57469D01*
Y191417D01*
X57405D01*
Y191353D01*
Y191289D01*
X57341D01*
Y191225D01*
Y191160D01*
X57276D01*
Y191096D01*
Y191032D01*
Y190968D01*
X57212D01*
Y190904D01*
Y190839D01*
Y190775D01*
Y190711D01*
Y190647D01*
X57148D01*
Y190583D01*
Y190518D01*
Y190454D01*
Y190390D01*
Y190326D01*
Y190262D01*
Y190197D01*
Y190133D01*
Y190069D01*
Y190005D01*
X57212D01*
Y189941D01*
Y189876D01*
Y189812D01*
Y189748D01*
Y189684D01*
X57276D01*
Y189620D01*
Y189555D01*
Y189491D01*
Y189427D01*
X57341D01*
Y189363D01*
Y189298D01*
Y189234D01*
X57405D01*
Y189170D01*
Y189106D01*
Y189042D01*
X57469D01*
Y188977D01*
Y188913D01*
X57533D01*
Y188849D01*
Y188785D01*
X57597D01*
Y188721D01*
Y188656D01*
X57662D01*
Y188592D01*
Y188528D01*
X57726D01*
Y188464D01*
Y188400D01*
X57790D01*
Y188335D01*
Y188271D01*
X57854D01*
Y188207D01*
X57918D01*
Y188143D01*
Y188079D01*
X57983D01*
Y188014D01*
Y187950D01*
X58047D01*
Y187886D01*
X58111D01*
Y187822D01*
Y187758D01*
X58175D01*
Y187693D01*
X58239D01*
Y187629D01*
Y187565D01*
X58304D01*
Y187501D01*
X58368D01*
Y187436D01*
X58432D01*
Y187372D01*
Y187308D01*
X58496D01*
Y187244D01*
X58561D01*
Y187180D01*
Y187116D01*
X58625D01*
Y187051D01*
X58689D01*
Y186987D01*
X58753D01*
Y186923D01*
X58817D01*
Y186859D01*
Y186794D01*
X58881D01*
Y186730D01*
X58946D01*
Y186666D01*
X59010D01*
Y186602D01*
X59074D01*
Y186538D01*
Y186473D01*
X59138D01*
Y186409D01*
X59202D01*
Y186345D01*
X59267D01*
Y186281D01*
X59459D01*
Y186345D01*
X59524D01*
Y186409D01*
Y186473D01*
Y186538D01*
Y186602D01*
Y186666D01*
Y186730D01*
Y186794D01*
Y186859D01*
Y186923D01*
Y186987D01*
Y187051D01*
Y187116D01*
Y187180D01*
Y187244D01*
Y187308D01*
Y187372D01*
Y187436D01*
Y187501D01*
X59588D01*
Y187565D01*
Y187629D01*
Y187693D01*
Y187758D01*
Y187822D01*
Y187886D01*
Y187950D01*
Y188014D01*
Y188079D01*
Y188143D01*
Y188207D01*
X59652D01*
Y188271D01*
Y188335D01*
Y188400D01*
X59716D01*
Y188464D01*
Y188528D01*
Y188592D01*
X59780D01*
Y188656D01*
Y188721D01*
X59845D01*
Y188785D01*
X59909D01*
Y188849D01*
X59973D01*
Y188913D01*
X60037D01*
Y188977D01*
X60101D01*
Y189042D01*
X60166D01*
Y189106D01*
X60294D01*
Y189170D01*
X60358D01*
Y189234D01*
X60487D01*
Y189298D01*
X60615D01*
Y189363D01*
X60743D01*
Y189427D01*
X60936D01*
Y189491D01*
X61064D01*
Y189555D01*
X61193D01*
Y189620D01*
X61321D01*
Y189684D01*
X61450D01*
Y189748D01*
X61642D01*
Y189812D01*
X61771D01*
Y189876D01*
X61899D01*
Y189941D01*
X62028D01*
Y190005D01*
X62220D01*
Y190069D01*
X62349D01*
Y190133D01*
X62541D01*
Y190197D01*
X62670D01*
Y190262D01*
X62862D01*
Y190326D01*
X62991D01*
Y190390D01*
X63183D01*
Y190454D01*
X63376D01*
Y190518D01*
X63504D01*
Y190583D01*
X63697D01*
Y190647D01*
X63890D01*
Y190711D01*
X64082D01*
Y190775D01*
X64339D01*
Y190839D01*
X64532D01*
Y190904D01*
X64789D01*
Y190968D01*
X65045D01*
Y191032D01*
X65302D01*
Y191096D01*
X65623D01*
Y191160D01*
X66907D01*
Y191096D01*
X67164D01*
Y191032D01*
X67421D01*
Y190968D01*
X67549D01*
Y190904D01*
X67678D01*
Y190839D01*
X67806D01*
Y190775D01*
X67935D01*
Y190711D01*
X67999D01*
Y190647D01*
X68127D01*
Y190583D01*
X68191D01*
Y190518D01*
X68320D01*
Y190454D01*
X68384D01*
Y190390D01*
X68448D01*
Y190326D01*
X68577D01*
Y190262D01*
X68641D01*
Y190197D01*
X68705D01*
Y190133D01*
X68769D01*
Y190069D01*
X68833D01*
Y190005D01*
X68898D01*
Y189941D01*
X68962D01*
Y189876D01*
Y189812D01*
X69026D01*
Y189748D01*
X69090D01*
Y189684D01*
X69155D01*
Y189620D01*
Y189555D01*
X69219D01*
Y189491D01*
X69283D01*
Y189427D01*
Y189363D01*
X69347D01*
Y189298D01*
X69411D01*
Y189234D01*
Y189170D01*
X69476D01*
Y189106D01*
Y189042D01*
X69540D01*
Y188977D01*
Y188913D01*
X69604D01*
Y188849D01*
Y188785D01*
X69668D01*
Y188721D01*
Y188656D01*
Y188592D01*
X69732D01*
Y188528D01*
Y188464D01*
Y188400D01*
X69797D01*
Y188335D01*
Y188271D01*
Y188207D01*
Y188143D01*
X69861D01*
Y188079D01*
Y188014D01*
Y187950D01*
Y187886D01*
Y187822D01*
Y187758D01*
X69925D01*
Y187693D01*
Y187629D01*
Y187565D01*
Y187501D01*
Y187436D01*
Y187372D01*
Y187308D01*
Y187244D01*
Y187180D01*
Y187116D01*
Y187051D01*
Y186987D01*
Y186923D01*
Y186859D01*
Y186794D01*
X69861D01*
Y186730D01*
Y186666D01*
Y186602D01*
Y186538D01*
Y186473D01*
Y186409D01*
X69797D01*
Y186345D01*
Y186281D01*
Y186217D01*
Y186152D01*
X69732D01*
Y186088D01*
Y186024D01*
Y185960D01*
X69668D01*
Y185896D01*
Y185831D01*
Y185767D01*
X69604D01*
Y185703D01*
Y185639D01*
X69540D01*
Y185574D01*
Y185510D01*
X69476D01*
Y185446D01*
Y185382D01*
X69411D01*
Y185318D01*
Y185254D01*
X69347D01*
Y185189D01*
Y185125D01*
X69283D01*
Y185061D01*
X69219D01*
Y184997D01*
Y184932D01*
X69155D01*
Y184868D01*
X69090D01*
Y184804D01*
X69026D01*
Y184740D01*
Y184676D01*
X68962D01*
Y184611D01*
X68898D01*
Y184547D01*
X68833D01*
Y184483D01*
X68769D01*
Y184419D01*
X68705D01*
Y184355D01*
X68641D01*
Y184290D01*
X68577D01*
Y184226D01*
X68512D01*
Y184162D01*
X68384D01*
Y184098D01*
X68320D01*
Y184034D01*
X68256D01*
Y183969D01*
X68127D01*
Y183905D01*
X68063D01*
Y183841D01*
X67935D01*
Y183777D01*
X67806D01*
Y183713D01*
X67678D01*
Y183648D01*
X67549D01*
Y183584D01*
X67421D01*
Y183520D01*
X67228D01*
Y183456D01*
X67036D01*
Y183391D01*
X66779D01*
Y183327D01*
X66458D01*
Y183263D01*
X65366D01*
Y183327D01*
X65045D01*
Y183391D01*
X64789D01*
Y183456D01*
X64596D01*
Y183520D01*
X64403D01*
Y183584D01*
X64275D01*
Y183648D01*
X64146D01*
Y183713D01*
X64018D01*
Y183777D01*
X63890D01*
Y183841D01*
X63761D01*
Y183905D01*
X63697D01*
Y183969D01*
X63569D01*
Y184034D01*
X63504D01*
Y184098D01*
X63440D01*
Y184162D01*
X63376D01*
Y184226D01*
X63248D01*
Y184290D01*
X63183D01*
Y184355D01*
X63119D01*
Y184419D01*
X63055D01*
Y184483D01*
X62991D01*
Y184547D01*
X62927D01*
Y184611D01*
X62862D01*
Y184676D01*
Y184740D01*
X62798D01*
Y184804D01*
X62734D01*
Y184868D01*
X62670D01*
Y184932D01*
Y184997D01*
X62605D01*
Y185061D01*
X62541D01*
Y185125D01*
Y185189D01*
X62477D01*
Y185254D01*
X62413D01*
Y185318D01*
Y185382D01*
X62349D01*
Y185446D01*
Y185510D01*
X62284D01*
Y185574D01*
Y185639D01*
X62156D01*
Y185703D01*
X61963D01*
Y185639D01*
Y185574D01*
Y185510D01*
X62028D01*
Y185446D01*
Y185382D01*
Y185318D01*
X62092D01*
Y185254D01*
Y185189D01*
Y185125D01*
X62156D01*
Y185061D01*
Y184997D01*
Y184932D01*
X62220D01*
Y184868D01*
Y184804D01*
X62284D01*
Y184740D01*
Y184676D01*
X62349D01*
Y184611D01*
Y184547D01*
Y184483D01*
X62413D01*
Y184419D01*
Y184355D01*
X62477D01*
Y184290D01*
Y184226D01*
X62541D01*
Y184162D01*
X62605D01*
Y184098D01*
Y184034D01*
X62670D01*
Y183969D01*
Y183905D01*
X62734D01*
Y183841D01*
Y183777D01*
X62798D01*
Y183713D01*
X62862D01*
Y183648D01*
Y183584D01*
X62927D01*
Y183520D01*
X62991D01*
Y183456D01*
X63055D01*
Y183391D01*
Y183327D01*
X63119D01*
Y183263D01*
X63183D01*
Y183199D01*
X63248D01*
Y183135D01*
X63312D01*
Y183071D01*
X63376D01*
Y183006D01*
Y182942D01*
X63440D01*
Y182878D01*
X63504D01*
Y182814D01*
X63633D01*
Y182749D01*
X63697D01*
Y182685D01*
X63761D01*
Y182621D01*
X63825D01*
Y182557D01*
X63890D01*
Y182493D01*
X64018D01*
Y182428D01*
X64082D01*
Y182364D01*
X64146D01*
Y182300D01*
X64275D01*
Y182236D01*
X64403D01*
Y182172D01*
X64532D01*
Y182107D01*
X64660D01*
Y182043D01*
X64789D01*
Y181979D01*
X64981D01*
Y181915D01*
X65174D01*
Y181851D01*
X65430D01*
Y181786D01*
X65944D01*
Y181722D01*
X66522D01*
Y181786D01*
X66971D01*
Y181851D01*
X67228D01*
Y181915D01*
X67292D01*
Y181979D01*
X67357D01*
Y182043D01*
Y182107D01*
Y182172D01*
X67421D01*
Y182236D01*
X67485D01*
Y182172D01*
X67678D01*
Y182236D01*
X67935D01*
Y182172D01*
Y182107D01*
X67870D01*
Y182043D01*
Y181979D01*
X67806D01*
Y181915D01*
X67742D01*
Y181851D01*
Y181786D01*
X67678D01*
Y181722D01*
X67614D01*
Y181658D01*
X67549D01*
Y181594D01*
X67485D01*
Y181530D01*
X67421D01*
Y181465D01*
X67357D01*
Y181401D01*
X67292D01*
Y181337D01*
X67228D01*
Y181273D01*
X67164D01*
Y181209D01*
X67036D01*
Y181144D01*
X66971D01*
Y181080D01*
X66843D01*
Y181016D01*
X66779D01*
Y180952D01*
X66650D01*
Y180887D01*
X66458D01*
Y180823D01*
X66329D01*
Y180759D01*
X66137D01*
Y180695D01*
X65944D01*
Y180631D01*
X65687D01*
Y180567D01*
X65366D01*
Y180502D01*
X65045D01*
Y180438D01*
X64660D01*
Y180374D01*
X63825D01*
Y180310D01*
X63376D01*
Y180374D01*
X62605D01*
Y180438D01*
X62220D01*
Y180502D01*
X61963D01*
Y180567D01*
X61707D01*
Y180631D01*
X61514D01*
Y180695D01*
X61321D01*
Y180759D01*
X61193D01*
Y180823D01*
X61000D01*
Y180887D01*
X60872D01*
Y180952D01*
X60743D01*
Y181016D01*
X60615D01*
Y181080D01*
X60487D01*
Y181144D01*
X60422D01*
Y181209D01*
X60294D01*
Y181273D01*
X60166D01*
Y181337D01*
X60101D01*
Y181401D01*
X59973D01*
Y181465D01*
X59909D01*
Y181530D01*
X59780D01*
Y181594D01*
X59716D01*
Y181658D01*
X59652D01*
Y181722D01*
X59588D01*
Y181786D01*
X59459D01*
Y181851D01*
X59395D01*
Y181915D01*
X59331D01*
Y181979D01*
X59267D01*
Y182043D01*
X59202D01*
Y182107D01*
X59138D01*
Y182172D01*
X59074D01*
Y182236D01*
X59010D01*
Y182300D01*
X58946D01*
Y182364D01*
X58881D01*
Y182428D01*
X58817D01*
Y182493D01*
X58753D01*
Y182557D01*
X58689D01*
Y182621D01*
X58625D01*
Y182685D01*
Y182749D01*
X58561D01*
Y182814D01*
X58496D01*
Y182878D01*
X58432D01*
Y182942D01*
Y183006D01*
X58368D01*
Y183071D01*
X58304D01*
Y183135D01*
X58239D01*
Y183199D01*
Y183263D01*
X58175D01*
Y183327D01*
X58111D01*
Y183391D01*
Y183456D01*
X58047D01*
Y183520D01*
X57983D01*
Y183584D01*
Y183648D01*
X57918D01*
Y183713D01*
X57854D01*
Y183777D01*
Y183841D01*
X57790D01*
Y183905D01*
Y183969D01*
X57726D01*
Y184034D01*
Y184098D01*
X57662D01*
Y184162D01*
Y184226D01*
X57597D01*
Y184290D01*
Y184355D01*
X57533D01*
Y184419D01*
Y184483D01*
X57469D01*
Y184547D01*
Y184611D01*
X57405D01*
Y184676D01*
Y184740D01*
X57341D01*
Y184804D01*
Y184868D01*
X57276D01*
Y184932D01*
Y184997D01*
Y185061D01*
X57212D01*
Y185125D01*
Y185189D01*
X57148D01*
Y185254D01*
Y185318D01*
Y185382D01*
X57084D01*
Y185446D01*
Y185510D01*
Y185574D01*
X57020D01*
Y185639D01*
X56827D01*
Y185574D01*
X56763D01*
Y185510D01*
Y185446D01*
Y185382D01*
Y185318D01*
Y185254D01*
Y185189D01*
X56827D01*
Y185125D01*
Y185061D01*
Y184997D01*
Y184932D01*
Y184868D01*
X56891D01*
Y184804D01*
Y184740D01*
Y184676D01*
Y184611D01*
X56955D01*
Y184547D01*
Y184483D01*
Y184419D01*
Y184355D01*
X57020D01*
Y184290D01*
Y184226D01*
Y184162D01*
X57084D01*
Y184098D01*
Y184034D01*
Y183969D01*
Y183905D01*
X57148D01*
Y183841D01*
Y183777D01*
Y183713D01*
X57212D01*
Y183648D01*
Y183584D01*
Y183520D01*
X57276D01*
Y183456D01*
Y183391D01*
Y183327D01*
X57341D01*
Y183263D01*
Y183199D01*
X57405D01*
Y183135D01*
Y183071D01*
Y183006D01*
X57469D01*
Y182942D01*
Y182878D01*
X57533D01*
Y182814D01*
Y182749D01*
Y182685D01*
X57597D01*
Y182621D01*
Y182557D01*
X57662D01*
Y182493D01*
Y182428D01*
X57726D01*
Y182364D01*
Y182300D01*
X57790D01*
Y182236D01*
Y182172D01*
X57854D01*
Y182107D01*
Y182043D01*
X57918D01*
Y181979D01*
Y181915D01*
X57983D01*
Y181851D01*
Y181786D01*
X58047D01*
Y181722D01*
Y181658D01*
X58111D01*
Y181594D01*
Y181530D01*
X58175D01*
Y181465D01*
Y181401D01*
X58239D01*
Y181337D01*
X58304D01*
Y181273D01*
Y181209D01*
X58368D01*
Y181144D01*
Y181080D01*
X58432D01*
Y181016D01*
X58496D01*
Y180952D01*
Y180887D01*
X58561D01*
Y180823D01*
X58625D01*
Y180759D01*
Y180695D01*
X58689D01*
Y180631D01*
X58753D01*
Y180567D01*
Y180502D01*
X58817D01*
Y180438D01*
X58881D01*
Y180374D01*
X58946D01*
Y180310D01*
Y180245D01*
X59010D01*
Y180181D01*
X59074D01*
Y180117D01*
X59138D01*
Y180053D01*
X59202D01*
Y179989D01*
Y179924D01*
X59267D01*
Y179860D01*
X59331D01*
Y179796D01*
X59395D01*
Y179732D01*
X59459D01*
Y179668D01*
X59524D01*
Y179603D01*
X59588D01*
Y179539D01*
X59652D01*
Y179475D01*
X59716D01*
Y179411D01*
X59780D01*
Y179347D01*
X59845D01*
Y179282D01*
X59909D01*
Y179218D01*
X59973D01*
Y179154D01*
X60037D01*
Y179090D01*
X60166D01*
Y179025D01*
X60230D01*
Y178961D01*
X60294D01*
Y178897D01*
X60422D01*
Y178833D01*
X60487D01*
Y178769D01*
X60615D01*
Y178705D01*
X60743D01*
Y178640D01*
X60872D01*
Y178576D01*
X61000D01*
Y178512D01*
X61129D01*
Y178448D01*
X61257D01*
Y178384D01*
X61386D01*
Y178319D01*
X61578D01*
Y178255D01*
X61771D01*
Y178191D01*
X61963D01*
Y178127D01*
X62156D01*
Y178062D01*
X62413D01*
Y177998D01*
X62670D01*
Y177934D01*
X62991D01*
Y177870D01*
X63312D01*
Y177806D01*
X63825D01*
Y177741D01*
X64724D01*
Y177677D01*
X65623D01*
Y177741D01*
X66201D01*
Y177677D01*
X66073D01*
Y177613D01*
X65816D01*
Y177549D01*
X65559D01*
Y177485D01*
X65238D01*
Y177420D01*
X64917D01*
Y177356D01*
X64532D01*
Y177292D01*
X63954D01*
Y177228D01*
X62220D01*
Y177164D01*
X62092D01*
Y177099D01*
X61963D01*
Y177035D01*
X61899D01*
Y176971D01*
X62092D01*
Y176907D01*
X62477D01*
Y176842D01*
X62927D01*
Y176778D01*
X63376D01*
Y176714D01*
X64082D01*
Y176650D01*
X66650D01*
Y176714D01*
X67228D01*
Y176778D01*
X67678D01*
Y176842D01*
X68063D01*
Y176907D01*
X68320D01*
Y176971D01*
X68577D01*
Y177035D01*
X68833D01*
Y177099D01*
X69090D01*
Y177164D01*
X69283D01*
Y177228D01*
X69476D01*
Y177292D01*
X69604D01*
Y177356D01*
X69797D01*
Y177420D01*
X69925D01*
Y177485D01*
X70118D01*
Y177549D01*
X70246D01*
Y177613D01*
X70374D01*
Y177677D01*
X70503D01*
Y177741D01*
X70631D01*
Y177806D01*
X70760D01*
Y177870D01*
X70824D01*
Y177934D01*
X70952D01*
Y177998D01*
X71081D01*
Y178062D01*
X71145D01*
Y177998D01*
X71081D01*
Y177934D01*
X71016D01*
Y177870D01*
X70888D01*
Y177806D01*
X70824D01*
Y177741D01*
X70760D01*
Y177677D01*
X70631D01*
Y177613D01*
X70503D01*
Y177549D01*
X70374D01*
Y177485D01*
X70246D01*
Y177420D01*
X70118D01*
Y177356D01*
X69989D01*
Y177292D01*
X69861D01*
Y177228D01*
X69668D01*
Y177164D01*
X69476D01*
Y177099D01*
X69283D01*
Y177035D01*
X69090D01*
Y176971D01*
X68898D01*
Y176907D01*
X68641D01*
Y176842D01*
X68320D01*
Y176778D01*
X67999D01*
Y176714D01*
X67614D01*
Y176650D01*
X67100D01*
Y176586D01*
X66650D01*
Y176522D01*
X65880D01*
Y176457D01*
X65751D01*
Y176393D01*
X65623D01*
Y176329D01*
X65495D01*
Y176265D01*
X65751D01*
Y176200D01*
X66329D01*
Y176136D01*
X68384D01*
Y176200D01*
X69026D01*
Y176265D01*
X69476D01*
Y176329D01*
X69797D01*
Y176393D01*
X70118D01*
Y176457D01*
X70439D01*
Y176522D01*
X70631D01*
Y176586D01*
X70888D01*
Y176650D01*
X71081D01*
Y176714D01*
X71273D01*
Y176778D01*
X71466D01*
Y176842D01*
X71658D01*
Y176907D01*
X71851D01*
Y176971D01*
X71979D01*
Y177035D01*
X72044D01*
Y176971D01*
X71979D01*
Y176907D01*
X71851D01*
Y176842D01*
X71723D01*
Y176778D01*
X71594D01*
Y176714D01*
X71466D01*
Y176650D01*
X71337D01*
Y176586D01*
X71209D01*
Y176522D01*
X71081D01*
Y176457D01*
X70888D01*
Y176393D01*
X70760D01*
Y176329D01*
X70631D01*
Y176265D01*
X70439D01*
Y176200D01*
X70310D01*
Y176136D01*
X70118D01*
Y176072D01*
X69925D01*
Y176008D01*
X69732D01*
Y175944D01*
X69540D01*
Y175879D01*
X69347D01*
Y175815D01*
X69155D01*
Y175751D01*
X68962D01*
Y175687D01*
X68705D01*
Y175623D01*
X68512D01*
Y175558D01*
X68256D01*
Y175494D01*
X68127D01*
Y175430D01*
X67999D01*
Y175366D01*
X67935D01*
Y175302D01*
X67870D01*
Y175237D01*
X68127D01*
Y175173D01*
X68384D01*
Y175237D01*
X68833D01*
Y175302D01*
X69283D01*
Y175366D01*
X69668D01*
Y175430D01*
X69989D01*
Y175494D01*
X70310D01*
Y175558D01*
X70567D01*
Y175623D01*
X70824D01*
Y175687D01*
X71081D01*
Y175751D01*
X71273D01*
Y175815D01*
X71530D01*
Y175879D01*
X71723D01*
Y175944D01*
X71915D01*
Y176008D01*
X72108D01*
Y176072D01*
X72236D01*
Y176136D01*
X72429D01*
Y176200D01*
X72557D01*
Y176265D01*
X72750D01*
Y176329D01*
X72878D01*
Y176393D01*
X73007D01*
Y176457D01*
X73199D01*
Y176522D01*
X73328D01*
Y176586D01*
X73456D01*
Y176650D01*
X73585D01*
Y176714D01*
X73713D01*
Y176778D01*
X73777D01*
Y176842D01*
X73906D01*
Y176907D01*
X74034D01*
Y176971D01*
X74163D01*
Y177035D01*
X74227D01*
Y177099D01*
X74355D01*
Y177164D01*
X74484D01*
Y177228D01*
X74548D01*
Y177292D01*
X74676D01*
Y177356D01*
X74740D01*
Y177420D01*
X74869D01*
Y177485D01*
X74933D01*
Y177549D01*
X74997D01*
Y177613D01*
X75126D01*
Y177677D01*
X75190D01*
Y177741D01*
X75254D01*
Y177806D01*
X75382D01*
Y177870D01*
X75447D01*
Y177934D01*
X75511D01*
Y177998D01*
X75575D01*
Y178062D01*
X75704D01*
Y178127D01*
X75768D01*
Y178191D01*
X75832D01*
Y178255D01*
X75896D01*
Y178319D01*
X75960D01*
Y178384D01*
X76025D01*
Y178448D01*
X76089D01*
Y178512D01*
X76153D01*
Y178576D01*
X76217D01*
Y178640D01*
X76281D01*
Y178705D01*
X76345D01*
Y178769D01*
X76410D01*
Y178833D01*
X76474D01*
Y178897D01*
X76538D01*
Y178961D01*
X76602D01*
Y179025D01*
X76666D01*
Y179090D01*
X76731D01*
Y179154D01*
X76795D01*
Y179218D01*
X76859D01*
Y179282D01*
Y179347D01*
X76923D01*
Y179411D01*
X76988D01*
Y179475D01*
X77052D01*
Y179539D01*
X77116D01*
Y179603D01*
X77180D01*
Y179668D01*
Y179732D01*
X77244D01*
Y179796D01*
X77309D01*
Y179860D01*
X77373D01*
Y179924D01*
Y179989D01*
X77437D01*
Y180053D01*
X77501D01*
Y180117D01*
Y180181D01*
X77565D01*
Y180245D01*
X77630D01*
Y180310D01*
Y180374D01*
X77694D01*
Y180438D01*
X77758D01*
Y180502D01*
Y180567D01*
X77822D01*
Y180631D01*
X77886D01*
Y180695D01*
Y180759D01*
X77951D01*
Y180823D01*
Y180887D01*
X78015D01*
Y180952D01*
X78079D01*
Y181016D01*
Y181080D01*
X78143D01*
Y181144D01*
Y181209D01*
X78207D01*
Y181273D01*
Y181337D01*
X78272D01*
Y181401D01*
Y181465D01*
X78336D01*
Y181530D01*
Y181594D01*
X78400D01*
Y181658D01*
Y181722D01*
X78464D01*
Y181786D01*
Y181851D01*
X78528D01*
Y181915D01*
Y181979D01*
X78593D01*
Y182043D01*
Y182107D01*
Y182172D01*
X78657D01*
Y182236D01*
Y182300D01*
X78721D01*
Y182364D01*
Y182428D01*
X78785D01*
Y182493D01*
Y182557D01*
Y182621D01*
X78850D01*
Y182685D01*
Y182749D01*
Y182814D01*
X78914D01*
Y182878D01*
Y182942D01*
Y183006D01*
X78978D01*
Y183071D01*
Y183135D01*
X79042D01*
Y183199D01*
Y183263D01*
X79106D01*
Y183327D01*
Y183391D01*
Y183456D01*
Y183520D01*
Y183584D01*
X79171D01*
Y183648D01*
Y183713D01*
Y183777D01*
X79235D01*
Y183841D01*
Y183905D01*
Y183969D01*
X79299D01*
Y184034D01*
Y184098D01*
Y184162D01*
Y184226D01*
X79363D01*
Y184290D01*
Y184355D01*
Y184419D01*
Y184483D01*
X79427D01*
Y184547D01*
Y184611D01*
Y184676D01*
Y184740D01*
X79492D01*
Y184804D01*
Y184868D01*
Y184932D01*
Y184997D01*
X79556D01*
Y185061D01*
Y185125D01*
Y185189D01*
Y185254D01*
X79620D01*
Y185189D01*
Y185125D01*
X79684D01*
Y185061D01*
Y184997D01*
Y184932D01*
Y184868D01*
Y184804D01*
Y184740D01*
Y184676D01*
X79748D01*
Y184611D01*
Y184547D01*
Y184483D01*
Y184419D01*
Y184355D01*
Y184290D01*
Y184226D01*
Y184162D01*
Y184098D01*
Y184034D01*
X79813D01*
Y183969D01*
Y183905D01*
Y183841D01*
Y183777D01*
Y183713D01*
Y183648D01*
Y183584D01*
Y183520D01*
Y183456D01*
Y183391D01*
Y183327D01*
Y183263D01*
Y183199D01*
Y183135D01*
Y183071D01*
Y183006D01*
Y182942D01*
Y182878D01*
Y182814D01*
Y182749D01*
Y182685D01*
Y182621D01*
Y182557D01*
Y182493D01*
Y182428D01*
Y182364D01*
X79748D01*
Y182300D01*
Y182236D01*
Y182172D01*
Y182107D01*
Y182043D01*
Y181979D01*
Y181915D01*
Y181851D01*
Y181786D01*
Y181722D01*
X79684D01*
Y181658D01*
Y181594D01*
Y181530D01*
Y181465D01*
Y181401D01*
Y181337D01*
Y181273D01*
X79620D01*
Y181209D01*
Y181144D01*
Y181080D01*
Y181016D01*
Y180952D01*
X79556D01*
Y180887D01*
Y180823D01*
Y180759D01*
Y180695D01*
Y180631D01*
X79492D01*
Y180567D01*
Y180502D01*
Y180438D01*
Y180374D01*
X79427D01*
Y180310D01*
Y180245D01*
Y180181D01*
Y180117D01*
X79363D01*
Y180053D01*
Y179989D01*
Y179924D01*
Y179860D01*
X79299D01*
Y179796D01*
Y179732D01*
Y179668D01*
X79235D01*
Y179603D01*
Y179539D01*
Y179475D01*
X79171D01*
Y179411D01*
Y179347D01*
Y179282D01*
X79106D01*
Y179218D01*
Y179154D01*
X79042D01*
Y179090D01*
Y179025D01*
Y178961D01*
X78978D01*
Y178897D01*
Y178833D01*
Y178769D01*
Y178705D01*
X79042D01*
Y178640D01*
X79171D01*
Y178705D01*
X79299D01*
Y178769D01*
Y178833D01*
X79363D01*
Y178897D01*
X79427D01*
Y178961D01*
X79492D01*
Y179025D01*
X79556D01*
Y179090D01*
Y179154D01*
X79620D01*
Y179218D01*
X79684D01*
Y179282D01*
X79748D01*
Y179347D01*
X79813D01*
Y179411D01*
Y179475D01*
X79877D01*
Y179539D01*
X79941D01*
Y179603D01*
Y179668D01*
X80005D01*
Y179732D01*
X80070D01*
Y179796D01*
X80134D01*
Y179860D01*
Y179924D01*
X80198D01*
Y179989D01*
X80262D01*
Y180053D01*
Y180117D01*
X80326D01*
Y180181D01*
X80391D01*
Y180245D01*
Y180310D01*
X80455D01*
Y180374D01*
X80519D01*
Y180438D01*
Y180502D01*
X80583D01*
Y180567D01*
Y180631D01*
X80647D01*
Y180695D01*
X80712D01*
Y180759D01*
Y180823D01*
X80776D01*
Y180887D01*
Y180952D01*
X80840D01*
Y181016D01*
X80904D01*
Y181080D01*
Y181144D01*
X80968D01*
Y181209D01*
Y181273D01*
X81033D01*
Y181337D01*
Y181401D01*
X81097D01*
Y181465D01*
X81161D01*
Y181530D01*
Y181594D01*
X81225D01*
Y181658D01*
Y181722D01*
X81289D01*
Y181786D01*
Y181851D01*
X81354D01*
Y181915D01*
Y181979D01*
X81418D01*
Y182043D01*
Y182107D01*
X81482D01*
Y182172D01*
Y182236D01*
Y182300D01*
X81546D01*
Y182364D01*
Y182428D01*
X81610D01*
Y182493D01*
Y182557D01*
X81675D01*
Y182621D01*
Y182685D01*
X81739D01*
Y182749D01*
Y182814D01*
Y182878D01*
X81803D01*
Y182942D01*
Y183006D01*
X81867D01*
Y183071D01*
Y183135D01*
Y183199D01*
X81931D01*
Y183263D01*
Y183327D01*
X81996D01*
Y183391D01*
Y183456D01*
Y183520D01*
X82060D01*
Y183584D01*
Y183648D01*
Y183713D01*
X82124D01*
Y183777D01*
Y183841D01*
Y183905D01*
X82188D01*
Y183969D01*
Y184034D01*
Y184098D01*
X82253D01*
Y184162D01*
Y184226D01*
Y184290D01*
Y184355D01*
X82317D01*
Y184419D01*
Y184483D01*
Y184547D01*
X82381D01*
Y184611D01*
Y184676D01*
Y184740D01*
Y184804D01*
X82445D01*
Y184868D01*
Y184932D01*
Y184997D01*
Y185061D01*
Y185125D01*
X82509D01*
Y185189D01*
Y185254D01*
Y185318D01*
Y185382D01*
Y185446D01*
X82573D01*
Y185510D01*
Y185574D01*
Y185639D01*
Y185703D01*
Y185767D01*
Y185831D01*
X82638D01*
Y185896D01*
Y185960D01*
Y186024D01*
Y186088D01*
Y186152D01*
Y186217D01*
Y186281D01*
Y186345D01*
X82702D01*
Y186409D01*
Y186473D01*
Y186538D01*
Y186602D01*
Y186666D01*
Y186730D01*
Y186794D01*
Y186859D01*
Y186923D01*
Y186987D01*
Y187051D01*
Y187116D01*
Y187180D01*
Y187244D01*
Y187308D01*
Y187372D01*
Y187436D01*
Y187501D01*
Y187565D01*
Y187629D01*
Y187693D01*
Y187758D01*
Y187822D01*
Y187886D01*
Y187950D01*
Y188014D01*
Y188079D01*
Y188143D01*
Y188207D01*
Y188271D01*
Y188335D01*
Y188400D01*
Y188464D01*
Y188528D01*
X82638D01*
Y188592D01*
Y188656D01*
Y188721D01*
Y188785D01*
Y188849D01*
Y188913D01*
Y188977D01*
X82573D01*
Y189042D01*
Y189106D01*
Y189170D01*
Y189234D01*
Y189298D01*
Y189363D01*
X82509D01*
Y189427D01*
Y189491D01*
Y189555D01*
Y189620D01*
Y189684D01*
X82445D01*
Y189748D01*
Y189812D01*
Y189876D01*
Y189941D01*
X82381D01*
Y190005D01*
Y190069D01*
Y190133D01*
Y190197D01*
X82317D01*
Y190262D01*
Y190326D01*
Y190390D01*
X82253D01*
Y190454D01*
Y190518D01*
Y190583D01*
X82188D01*
Y190647D01*
Y190711D01*
Y190775D01*
X82124D01*
Y190839D01*
Y190904D01*
Y190968D01*
X82060D01*
Y191032D01*
Y191096D01*
Y191160D01*
X81996D01*
Y191225D01*
Y191289D01*
X81931D01*
Y191353D01*
Y191417D01*
Y191481D01*
X81867D01*
Y191546D01*
Y191610D01*
X81803D01*
Y191674D01*
Y191738D01*
X81739D01*
Y191803D01*
Y191867D01*
X81675D01*
Y191931D01*
Y191995D01*
Y192059D01*
X81610D01*
Y192123D01*
Y192188D01*
X81546D01*
Y192252D01*
Y192316D01*
X81482D01*
Y192380D01*
Y192445D01*
X81418D01*
Y192509D01*
Y192573D01*
X81354D01*
Y192637D01*
X81289D01*
Y192701D01*
Y192766D01*
X81225D01*
Y192830D01*
Y192894D01*
X81161D01*
Y192958D01*
Y193022D01*
X81097D01*
Y193087D01*
X81033D01*
Y193151D01*
Y193215D01*
X80968D01*
Y193279D01*
X80904D01*
Y193343D01*
Y193408D01*
X80840D01*
Y193472D01*
X80776D01*
Y193536D01*
Y193600D01*
X80712D01*
Y193665D01*
X80647D01*
Y193729D01*
X80583D01*
Y193793D01*
Y193857D01*
X80519D01*
Y193921D01*
X80455D01*
Y193985D01*
X80391D01*
Y194050D01*
X80326D01*
Y194114D01*
Y194178D01*
X80262D01*
Y194242D01*
X80198D01*
Y194307D01*
X80134D01*
Y194371D01*
X80070D01*
Y194435D01*
X80005D01*
Y194499D01*
X79941D01*
Y194563D01*
X79877D01*
Y194628D01*
X79813D01*
Y194692D01*
X79748D01*
Y194756D01*
X79684D01*
Y194820D01*
X79620D01*
Y194884D01*
X79556D01*
Y194949D01*
X79492D01*
Y195013D01*
X79427D01*
Y195077D01*
X79299D01*
Y195141D01*
X79235D01*
Y195205D01*
X79171D01*
Y195270D01*
X79106D01*
Y195334D01*
X78978D01*
Y195398D01*
X78914D01*
Y195462D01*
X78785D01*
Y195527D01*
X78721D01*
Y195591D01*
X78593D01*
Y195655D01*
X78528D01*
Y195719D01*
X78400D01*
Y195783D01*
X78272D01*
Y195847D01*
X78143D01*
Y195912D01*
X78015D01*
Y195976D01*
X77886D01*
Y196040D01*
X77758D01*
Y196104D01*
X77565D01*
Y196168D01*
X77373D01*
Y196233D01*
X77180D01*
Y196297D01*
X76988D01*
Y196361D01*
X76731D01*
Y196425D01*
X76345D01*
Y196490D01*
X75382D01*
Y196425D01*
Y196361D01*
Y196297D01*
X75447D01*
Y196233D01*
X75511D01*
Y196168D01*
X75639D01*
Y196104D01*
X75768D01*
Y196040D01*
X75896D01*
Y195976D01*
X75960D01*
Y195912D01*
X76025D01*
Y195847D01*
X76089D01*
Y195783D01*
X76153D01*
Y195719D01*
X76217D01*
Y195655D01*
Y195591D01*
X76281D01*
Y195527D01*
X76345D01*
Y195462D01*
Y195398D01*
X76410D01*
Y195334D01*
X76474D01*
Y195270D01*
Y195205D01*
X76538D01*
Y195141D01*
Y195077D01*
Y195013D01*
X76602D01*
Y194949D01*
Y194884D01*
X76666D01*
Y194820D01*
Y194756D01*
Y194692D01*
X76731D01*
Y194628D01*
Y194563D01*
Y194499D01*
Y194435D01*
X76795D01*
Y194371D01*
Y194307D01*
Y194242D01*
Y194178D01*
Y194114D01*
X76859D01*
Y194050D01*
Y193985D01*
Y193921D01*
Y193857D01*
Y193793D01*
Y193729D01*
Y193665D01*
Y193600D01*
X76923D01*
Y193536D01*
Y193472D01*
Y193408D01*
Y193343D01*
Y193279D01*
Y193215D01*
Y193151D01*
Y193087D01*
Y193022D01*
Y192958D01*
Y192894D01*
Y192830D01*
Y192766D01*
Y192701D01*
X76859D01*
Y192766D01*
X76795D01*
Y192830D01*
X76731D01*
Y192894D01*
X76666D01*
Y192958D01*
X76602D01*
Y193022D01*
X76474D01*
Y193087D01*
X76410D01*
Y193151D01*
X76345D01*
Y193215D01*
X76281D01*
Y193279D01*
X76153D01*
Y193343D01*
X76089D01*
Y193408D01*
X76025D01*
Y193472D01*
X75896D01*
Y193536D01*
X75832D01*
Y193600D01*
X75768D01*
Y193665D01*
X75639D01*
Y193729D01*
X75575D01*
Y193793D01*
X75447D01*
Y193857D01*
X75382D01*
Y193921D01*
X75254D01*
Y193985D01*
X75126D01*
Y194050D01*
X75061D01*
Y194114D01*
X74933D01*
Y194178D01*
X74805D01*
Y194242D01*
X74740D01*
Y194307D01*
X74612D01*
Y194371D01*
X74484D01*
Y194435D01*
X74355D01*
Y194499D01*
X74227D01*
Y194563D01*
X74098D01*
Y194628D01*
X73970D01*
Y194692D01*
X73842D01*
Y194756D01*
X73713D01*
Y194820D01*
X73520D01*
Y194884D01*
X73392D01*
Y194949D01*
X73264D01*
Y195013D01*
X73071D01*
Y195077D01*
X72878D01*
Y195141D01*
X72686D01*
Y195205D01*
X72493D01*
Y195270D01*
X72300D01*
Y195334D01*
X72044D01*
Y195398D01*
X71851D01*
Y195462D01*
X71530D01*
Y195527D01*
X71273D01*
Y195591D01*
X70888D01*
Y195655D01*
X70824D01*
Y195719D01*
X71081D01*
Y195783D01*
X71466D01*
Y195847D01*
X72172D01*
Y195783D01*
X72622D01*
Y195719D01*
X72878D01*
Y195655D01*
X73135D01*
Y195591D01*
X73328D01*
Y195527D01*
X73520D01*
Y195462D01*
X73649D01*
Y195398D01*
X73842D01*
Y195334D01*
X73970D01*
Y195270D01*
X74098D01*
Y195205D01*
X74227D01*
Y195141D01*
X74355D01*
Y195077D01*
X74484D01*
Y195013D01*
X74612D01*
Y194949D01*
X74740D01*
Y194884D01*
X74869D01*
Y194820D01*
X74933D01*
Y194756D01*
X75061D01*
Y194692D01*
X75126D01*
Y194628D01*
X75254D01*
Y194563D01*
X75318D01*
Y194499D01*
X75639D01*
Y194563D01*
Y194628D01*
Y194692D01*
Y194756D01*
X75575D01*
Y194820D01*
Y194884D01*
Y194949D01*
X75511D01*
Y195013D01*
Y195077D01*
X75447D01*
Y195141D01*
Y195205D01*
X75382D01*
Y195270D01*
X75318D01*
Y195334D01*
Y195398D01*
X75254D01*
Y195462D01*
X75190D01*
Y195527D01*
Y195591D01*
X75126D01*
Y195655D01*
X75061D01*
Y195719D01*
X74997D01*
Y195783D01*
Y195847D01*
X74933D01*
Y195912D01*
X74869D01*
Y195976D01*
X74805D01*
Y196040D01*
X74740D01*
Y196104D01*
X74676D01*
Y196168D01*
X74612D01*
Y196233D01*
X74548D01*
Y196297D01*
X74484D01*
Y196361D01*
X74419D01*
Y196425D01*
X74355D01*
Y196490D01*
X74291D01*
Y196554D01*
X74227D01*
Y196618D01*
X74163D01*
Y196682D01*
X74098D01*
Y196746D01*
X74034D01*
Y196811D01*
X73970D01*
Y196875D01*
X73906D01*
Y196939D01*
X73777D01*
Y197003D01*
X73713D01*
Y197067D01*
X73649D01*
Y197132D01*
X73585D01*
Y197196D01*
X73456D01*
Y197260D01*
X73392D01*
Y197324D01*
X73328D01*
Y197388D01*
X73199D01*
Y197453D01*
X73135D01*
Y197517D01*
X73071D01*
Y197581D01*
X73264D01*
Y197645D01*
X73456D01*
Y197709D01*
X73649D01*
Y197774D01*
X73906D01*
Y197838D01*
X74227D01*
Y197902D01*
X74548D01*
Y197966D01*
X74997D01*
Y198030D01*
X77052D01*
Y197966D01*
X77501D01*
Y197902D01*
X77886D01*
Y197838D01*
X78207D01*
Y197774D01*
X78464D01*
Y197709D01*
X78721D01*
Y197645D01*
X78914D01*
Y197581D01*
X79106D01*
Y197517D01*
X79299D01*
Y197453D01*
X79492D01*
Y197388D01*
X79684D01*
Y197324D01*
X79877D01*
Y197260D01*
X80005D01*
Y197196D01*
X80134D01*
Y197132D01*
X80326D01*
Y197067D01*
X80455D01*
Y197003D01*
X80583D01*
Y196939D01*
X80712D01*
Y196875D01*
X80840D01*
Y196811D01*
X80968D01*
Y196746D01*
X81097D01*
Y196682D01*
X81225D01*
Y196618D01*
X81354D01*
Y196554D01*
X81482D01*
Y196490D01*
X81610D01*
Y196425D01*
X81739D01*
Y196361D01*
X81803D01*
Y196297D01*
X81931D01*
Y196233D01*
X82060D01*
Y196168D01*
X82124D01*
Y196104D01*
X82253D01*
Y196040D01*
X82317D01*
Y195976D01*
X82445D01*
Y195912D01*
X82509D01*
Y195847D01*
X82638D01*
Y195783D01*
X82702D01*
Y195719D01*
X82830D01*
Y195655D01*
X82894D01*
Y195591D01*
X83023D01*
Y195527D01*
X83087D01*
Y195462D01*
X83151D01*
Y195398D01*
X83280D01*
Y195334D01*
X83344D01*
Y195270D01*
X83408D01*
Y195205D01*
X83537D01*
Y195141D01*
X83601D01*
Y195077D01*
X83665D01*
Y195013D01*
X83729D01*
Y194949D01*
X83858D01*
Y194884D01*
X83922D01*
Y194820D01*
X83986D01*
Y194756D01*
X84050D01*
Y194692D01*
X84179D01*
Y194628D01*
X84307D01*
Y194692D01*
Y194756D01*
Y194820D01*
Y194884D01*
Y194949D01*
Y195013D01*
X84243D01*
Y195077D01*
X84179D01*
Y195141D01*
Y195205D01*
X84114D01*
Y195270D01*
Y195334D01*
X84050D01*
Y195398D01*
X83986D01*
Y195462D01*
Y195527D01*
X83922D01*
Y195591D01*
X83858D01*
Y195655D01*
Y195719D01*
X83793D01*
Y195783D01*
X83729D01*
Y195847D01*
X83665D01*
Y195912D01*
Y195976D01*
X83601D01*
Y196040D01*
X83537D01*
Y196104D01*
X83472D01*
Y196168D01*
X83408D01*
Y196233D01*
X83344D01*
Y196297D01*
Y196361D01*
X83280D01*
Y196425D01*
X83216D01*
Y196490D01*
X83151D01*
Y196554D01*
X83087D01*
Y196618D01*
X83023D01*
Y196682D01*
X82959D01*
Y196746D01*
X82894D01*
Y196811D01*
X82830D01*
Y196875D01*
X82766D01*
Y196939D01*
X82702D01*
Y197003D01*
X82638D01*
Y197067D01*
X82573D01*
Y197132D01*
X82509D01*
Y197196D01*
X82445D01*
Y197260D01*
X82381D01*
Y197324D01*
X82253D01*
Y197388D01*
X82188D01*
Y197453D01*
X82124D01*
Y197517D01*
X82060D01*
Y197581D01*
X81996D01*
Y197645D01*
X81867D01*
Y197709D01*
X81803D01*
Y197774D01*
X81739D01*
Y197838D01*
X81610D01*
Y197902D01*
X81546D01*
Y197966D01*
X81482D01*
Y198030D01*
X81354D01*
Y198095D01*
X81289D01*
Y198159D01*
X81161D01*
Y198223D01*
X81097D01*
Y198287D01*
X80968D01*
Y198352D01*
X80904D01*
Y198416D01*
X80776D01*
Y198480D01*
X80647D01*
Y198544D01*
X80583D01*
Y198608D01*
X80455D01*
Y198672D01*
X80326D01*
Y198737D01*
X80198D01*
Y198801D01*
X80070D01*
Y198865D01*
X79941D01*
Y198929D01*
X79877D01*
Y198994D01*
X79748D01*
Y199058D01*
X79556D01*
Y199122D01*
X79427D01*
Y199186D01*
X79299D01*
Y199250D01*
X79171D01*
Y199315D01*
X79042D01*
Y199379D01*
X78850D01*
Y199443D01*
X78721D01*
Y199507D01*
X78528D01*
Y199571D01*
X78400D01*
Y199636D01*
X78207D01*
Y199700D01*
X78015D01*
Y199764D01*
X77886D01*
Y199828D01*
X77694D01*
Y199892D01*
X77501D01*
Y199957D01*
X77309D01*
Y200021D01*
X77052D01*
Y200085D01*
X76859D01*
Y200149D01*
X76602D01*
Y200214D01*
X76345D01*
Y200278D01*
X76089D01*
Y200342D01*
X75832D01*
Y200406D01*
X75575D01*
Y200470D01*
X75254D01*
Y200535D01*
X74933D01*
Y200599D01*
X74548D01*
Y200663D01*
X74098D01*
Y200727D01*
X73649D01*
Y200791D01*
X73007D01*
Y200855D01*
X72108D01*
Y200920D01*
X69989D01*
Y200855D01*
D02*
G37*
G36*
X56945Y10911D02*
X57055Y10900D01*
X57164Y10867D01*
X57251Y10834D01*
X57317Y10802D01*
X57372Y10780D01*
X57404Y10758D01*
X57415Y10747D01*
X57503Y10670D01*
X57579Y10572D01*
X57732Y10364D01*
X57787Y10266D01*
X57831Y10189D01*
X57863Y10135D01*
X57874Y10113D01*
Y10823D01*
X59426D01*
Y6484D01*
X57754D01*
Y7938D01*
Y8124D01*
X57743Y8298D01*
X57732Y8451D01*
X57710Y8594D01*
X57700Y8725D01*
X57678Y8845D01*
X57656Y8943D01*
X57623Y9042D01*
X57601Y9118D01*
X57579Y9184D01*
X57557Y9239D01*
X57546Y9282D01*
X57514Y9337D01*
X57503Y9359D01*
X57426Y9446D01*
X57339Y9512D01*
X57262Y9566D01*
X57175Y9599D01*
X57098Y9621D01*
X57044Y9632D01*
X56923D01*
X56847Y9610D01*
X56694Y9566D01*
X56628Y9544D01*
X56574Y9523D01*
X56541Y9512D01*
X56530Y9501D01*
X56084Y10514D01*
X54399Y6484D01*
X54442Y6364D01*
X54497Y6266D01*
X54552Y6189D01*
X54595Y6123D01*
X54639Y6069D01*
X54672Y6036D01*
X54694Y6025D01*
X54705Y6014D01*
X54781Y5970D01*
X54858Y5938D01*
X55011Y5894D01*
X55087Y5883D01*
X55131Y5872D01*
X55186D01*
X55349Y5883D01*
X55492Y5894D01*
X55634Y5916D01*
X55743Y5938D01*
X55841Y5959D01*
X55918Y5970D01*
X55962Y5992D01*
X55984D01*
X55852Y4823D01*
X55590Y4790D01*
X55360Y4768D01*
X55175Y4746D01*
X55022Y4735D01*
X54901D01*
X54814Y4724D01*
X54584D01*
X54431Y4746D01*
X54158Y4790D01*
X53939Y4845D01*
X53754Y4921D01*
X53612Y4998D01*
X53502Y5052D01*
X53448Y5096D01*
X53426Y5118D01*
X53371Y5173D01*
X53316Y5249D01*
X53207Y5402D01*
X53098Y5577D01*
X53010Y5763D01*
X52934Y5927D01*
X52879Y6058D01*
X52858Y6112D01*
X52836Y6156D01*
X52825Y6178D01*
Y6189D01*
X51098Y10823D01*
X52737D01*
X53568Y7927D01*
X54464Y10823D01*
X56213D01*
X56194Y10778D01*
X56322Y10823D01*
X56453Y10867D01*
X56574Y10889D01*
X56672Y10911D01*
X56749Y10922D01*
X56814D01*
X56945Y10911D01*
D02*
G37*
G36*
X42999Y9599D02*
X45064Y6484D01*
X42999D01*
X41818Y8408D01*
X40627Y6484D01*
X38550D01*
X40594Y9566D01*
X38725Y12474D01*
X40747D01*
X41785Y10627D01*
X42835Y12474D01*
X44879D01*
X42999Y9599D01*
D02*
G37*
G36*
X74226Y10911D02*
X74390Y10900D01*
X74532Y10867D01*
X74652Y10834D01*
X74750Y10802D01*
X74816Y10780D01*
X74871Y10758D01*
X74881Y10747D01*
X75013Y10670D01*
X75133Y10594D01*
X75242Y10495D01*
X75351Y10397D01*
X75439Y10321D01*
X75504Y10244D01*
X75548Y10200D01*
X75559Y10178D01*
Y10823D01*
X77111D01*
Y6484D01*
X75439D01*
Y8692D01*
X75428Y8867D01*
X75406Y9009D01*
X75384Y9129D01*
X75351Y9228D01*
X75319Y9304D01*
X75286Y9359D01*
X75275Y9392D01*
X75264Y9403D01*
X75187Y9479D01*
X75111Y9534D01*
X75034Y9566D01*
X74958Y9599D01*
X74881Y9610D01*
X74827Y9621D01*
X74783D01*
X74663Y9599D01*
X74564Y9566D01*
X74499Y9534D01*
X74488Y9512D01*
X74477D01*
X74390Y9424D01*
X74335Y9348D01*
X74302Y9282D01*
X74291Y9260D01*
Y9249D01*
X74280Y9206D01*
X74269Y9151D01*
X74258Y9020D01*
Y8965D01*
Y8911D01*
Y8878D01*
Y8867D01*
Y6484D01*
X72586D01*
Y8725D01*
X72575Y8889D01*
X72553Y9031D01*
X72531Y9151D01*
X72499Y9239D01*
X72466Y9315D01*
X72433Y9359D01*
X72422Y9392D01*
X72411Y9403D01*
X72346Y9479D01*
X72258Y9534D01*
X72182Y9566D01*
X72105Y9599D01*
X72040Y9610D01*
X71985Y9621D01*
X71941D01*
X71854Y9610D01*
X71766Y9588D01*
X71701Y9544D01*
X71635Y9512D01*
X71592Y9468D01*
X71559Y9424D01*
X71537Y9403D01*
X71526Y9392D01*
X71482Y9337D01*
X71460Y9260D01*
X71417Y9118D01*
Y9053D01*
X71406Y8998D01*
Y8965D01*
Y8954D01*
Y6484D01*
X69733D01*
Y9206D01*
Y9370D01*
X69755Y9512D01*
X69799Y9785D01*
X69854Y10004D01*
X69930Y10189D01*
X70007Y10332D01*
X70061Y10430D01*
X70105Y10485D01*
X70127Y10506D01*
X70291Y10649D01*
X70466Y10747D01*
X70641Y10823D01*
X70815Y10867D01*
X70979Y10900D01*
X71100Y10911D01*
X71154Y10922D01*
X71220D01*
X71395Y10911D01*
X71548Y10900D01*
X71690Y10867D01*
X71799Y10845D01*
X71898Y10812D01*
X71974Y10780D01*
X72018Y10769D01*
X72029Y10758D01*
X72149Y10692D01*
X72269Y10605D01*
X72389Y10506D01*
X72499Y10408D01*
X72597Y10321D01*
X72674Y10244D01*
X72717Y10200D01*
X72739Y10178D01*
X72816Y10310D01*
X72892Y10419D01*
X72980Y10517D01*
X73056Y10594D01*
X73122Y10659D01*
X73176Y10703D01*
X73220Y10725D01*
X73231Y10736D01*
X73351Y10802D01*
X73482Y10845D01*
X73624Y10878D01*
X73756Y10900D01*
X73876Y10911D01*
X73963Y10922D01*
X74051D01*
X74226Y10911D01*
D02*
G37*
G36*
X62826Y11610D02*
Y10823D01*
X63438D01*
Y9610D01*
X62826D01*
Y8080D01*
X62815Y7829D01*
X62804Y7610D01*
X62782Y7424D01*
X62760Y7271D01*
X62738Y7162D01*
X62716Y7085D01*
X62695Y7031D01*
Y7020D01*
X62640Y6910D01*
X62563Y6812D01*
X62498Y6725D01*
X62421Y6659D01*
X62356Y6604D01*
X62301Y6572D01*
X62268Y6550D01*
X62257Y6539D01*
X62137Y6484D01*
X61984Y6451D01*
X61842Y6419D01*
X61689Y6408D01*
X61547Y6397D01*
X61437Y6386D01*
X61339D01*
X61132Y6397D01*
X60935Y6408D01*
X60738Y6430D01*
X60563Y6451D01*
X60410Y6473D01*
X60290Y6495D01*
X60246Y6506D01*
X60213Y6517D01*
X60181D01*
X60312Y7665D01*
X60432Y7632D01*
X60530Y7610D01*
X60618Y7588D01*
X60694Y7577D01*
X60749D01*
X60793Y7566D01*
X60825D01*
X60891Y7577D01*
X60957Y7588D01*
X61044Y7632D01*
X61088Y7676D01*
X61110Y7697D01*
X61121Y7741D01*
X61132Y7796D01*
X61142Y7916D01*
X61153Y7971D01*
Y8025D01*
Y8058D01*
Y8069D01*
Y9610D01*
X60235D01*
Y10823D01*
X61153D01*
Y12474D01*
X62826Y11610D01*
D02*
G37*
G36*
X89047Y10911D02*
X89243Y10900D01*
X89429Y10867D01*
X89604Y10823D01*
X89768Y10780D01*
X89910Y10725D01*
X90052Y10659D01*
X90172Y10605D01*
X90282Y10550D01*
X90369Y10485D01*
X90457Y10430D01*
X90522Y10386D01*
X90577Y10342D01*
X90610Y10321D01*
X90632Y10299D01*
X90642Y10288D01*
X90752Y10167D01*
X90850Y10036D01*
X90938Y9905D01*
X91014Y9763D01*
X91080Y9621D01*
X91134Y9490D01*
X91211Y9228D01*
X91233Y9107D01*
X91255Y8998D01*
X91265Y8889D01*
X91276Y8801D01*
X91287Y8736D01*
Y8681D01*
Y8648D01*
Y8637D01*
X91276Y8375D01*
X91233Y8145D01*
X91189Y7927D01*
X91123Y7752D01*
X91069Y7599D01*
X91014Y7490D01*
X91003Y7446D01*
X90981Y7413D01*
X90970Y7402D01*
Y7391D01*
X90839Y7205D01*
X90708Y7052D01*
X90566Y6921D01*
X90435Y6812D01*
X90325Y6735D01*
X90227Y6670D01*
X90172Y6637D01*
X90151Y6626D01*
X89954Y6550D01*
X89735Y6484D01*
X89506Y6440D01*
X89287Y6419D01*
X89090Y6397D01*
X89014D01*
X88937Y6386D01*
X88609D01*
X88446Y6397D01*
X88282Y6408D01*
X88139Y6430D01*
X87997Y6451D01*
X87877Y6473D01*
X87768Y6506D01*
X87659Y6528D01*
X87571Y6550D01*
X87495Y6583D01*
X87429Y6604D01*
X87374Y6626D01*
X87331Y6648D01*
X87298Y6659D01*
X87287Y6670D01*
X87276D01*
X87079Y6790D01*
X86904Y6932D01*
X86751Y7096D01*
X86620Y7249D01*
X86511Y7391D01*
X86423Y7501D01*
X86402Y7544D01*
X86380Y7577D01*
X86358Y7599D01*
Y7610D01*
X87997Y7763D01*
X88052Y7686D01*
X88118Y7632D01*
X88161Y7577D01*
X88205Y7544D01*
X88271Y7490D01*
X88282Y7479D01*
X88292D01*
X88380Y7435D01*
X88456Y7413D01*
X88599Y7369D01*
X88664D01*
X88708Y7359D01*
X88752D01*
X88894Y7369D01*
X89014Y7402D01*
X89123Y7446D01*
X89211Y7501D01*
X89287Y7555D01*
X89342Y7599D01*
X89375Y7632D01*
X89385Y7643D01*
X89440Y7730D01*
X89484Y7818D01*
X89549Y8014D01*
X89571Y8102D01*
X89582Y8178D01*
X89593Y8222D01*
Y8244D01*
X86260D01*
Y8430D01*
X86270Y8736D01*
X86303Y9009D01*
X86347Y9239D01*
X86402Y9446D01*
X86456Y9599D01*
X86478Y9665D01*
X86500Y9719D01*
X86522Y9763D01*
X86533Y9796D01*
X86544Y9807D01*
Y9818D01*
X86664Y10004D01*
X86795Y10167D01*
X86926Y10310D01*
X87068Y10430D01*
X87189Y10517D01*
X87287Y10583D01*
X87353Y10627D01*
X87363Y10638D01*
X87374D01*
X87593Y10736D01*
X87833Y10802D01*
X88074Y10856D01*
X88304Y10889D01*
X88511Y10911D01*
X88609D01*
X88686Y10922D01*
X88839D01*
X89047Y10911D01*
D02*
G37*
G36*
X80674D02*
X80871Y10900D01*
X81057Y10867D01*
X81232Y10823D01*
X81396Y10780D01*
X81538Y10725D01*
X81680Y10659D01*
X81800Y10605D01*
X81909Y10550D01*
X81997Y10485D01*
X82084Y10430D01*
X82150Y10386D01*
X82205Y10342D01*
X82237Y10321D01*
X82259Y10299D01*
X82270Y10288D01*
X82379Y10167D01*
X82478Y10036D01*
X82565Y9905D01*
X82642Y9763D01*
X82707Y9621D01*
X82762Y9490D01*
X82838Y9228D01*
X82860Y9107D01*
X82882Y8998D01*
X82893Y8889D01*
X82904Y8801D01*
X82915Y8736D01*
Y8681D01*
Y8648D01*
Y8637D01*
X82904Y8375D01*
X82860Y8145D01*
X82817Y7927D01*
X82751Y7752D01*
X82696Y7599D01*
X82642Y7490D01*
X82631Y7446D01*
X82609Y7413D01*
X82598Y7402D01*
Y7391D01*
X82467Y7205D01*
X82336Y7052D01*
X82194Y6921D01*
X82062Y6812D01*
X81953Y6735D01*
X81855Y6670D01*
X81800Y6637D01*
X81778Y6626D01*
X81581Y6550D01*
X81363Y6484D01*
X81133Y6440D01*
X80915Y6419D01*
X80718Y6397D01*
X80642D01*
X80565Y6386D01*
X80237D01*
X80073Y6397D01*
X79909Y6408D01*
X79767Y6430D01*
X79625Y6451D01*
X79505Y6473D01*
X79396Y6506D01*
X79286Y6528D01*
X79199Y6550D01*
X79122Y6583D01*
X79057Y6604D01*
X79002Y6626D01*
X78958Y6648D01*
X78926Y6659D01*
X78915Y6670D01*
X78904D01*
X78707Y6790D01*
X78532Y6932D01*
X78379Y7096D01*
X78248Y7249D01*
X78139Y7391D01*
X78051Y7501D01*
X78029Y7544D01*
X78007Y7577D01*
X77986Y7599D01*
Y7610D01*
X79625Y7763D01*
X79680Y7686D01*
X79745Y7632D01*
X79789Y7577D01*
X79833Y7544D01*
X79898Y7490D01*
X79909Y7479D01*
X79920D01*
X80008Y7435D01*
X80084Y7413D01*
X80226Y7369D01*
X80292D01*
X80335Y7359D01*
X80379D01*
X80521Y7369D01*
X80642Y7402D01*
X80751Y7446D01*
X80838Y7501D01*
X80915Y7555D01*
X80969Y7599D01*
X81002Y7632D01*
X81013Y7643D01*
X81068Y7730D01*
X81112Y7818D01*
X81177Y8014D01*
X81199Y8102D01*
X81210Y8178D01*
X81221Y8222D01*
Y8244D01*
X77887D01*
Y8430D01*
X77898Y8736D01*
X77931Y9009D01*
X77975Y9239D01*
X78029Y9446D01*
X78084Y9599D01*
X78106Y9665D01*
X78128Y9719D01*
X78149Y9763D01*
X78160Y9796D01*
X78171Y9807D01*
Y9818D01*
X78292Y10004D01*
X78423Y10167D01*
X78554Y10310D01*
X78696Y10430D01*
X78816Y10517D01*
X78915Y10583D01*
X78980Y10627D01*
X78991Y10638D01*
X79002D01*
X79221Y10736D01*
X79461Y10802D01*
X79702Y10856D01*
X79931Y10889D01*
X80139Y10911D01*
X80237D01*
X80314Y10922D01*
X80467D01*
X80674Y10911D01*
D02*
G37*
G36*
X66717D02*
X66913Y10900D01*
X67099Y10867D01*
X67274Y10823D01*
X67438Y10780D01*
X67580Y10725D01*
X67722Y10659D01*
X67843Y10605D01*
X67952Y10550D01*
X68039Y10485D01*
X68127Y10430D01*
X68192Y10386D01*
X68247Y10342D01*
X68280Y10321D01*
X68302Y10299D01*
X68313Y10288D01*
X68422Y10167D01*
X68520Y10036D01*
X68608Y9905D01*
X68684Y9763D01*
X68750Y9621D01*
X68804Y9490D01*
X68881Y9228D01*
X68903Y9107D01*
X68925Y8998D01*
X68936Y8889D01*
X68946Y8801D01*
X68957Y8736D01*
Y8681D01*
Y8648D01*
Y8637D01*
X68946Y8375D01*
X68903Y8145D01*
X68859Y7927D01*
X68793Y7752D01*
X68739Y7599D01*
X68684Y7490D01*
X68673Y7446D01*
X68651Y7413D01*
X68640Y7402D01*
Y7391D01*
X68509Y7205D01*
X68378Y7052D01*
X68236Y6921D01*
X68105Y6812D01*
X67996Y6735D01*
X67897Y6670D01*
X67843Y6637D01*
X67821Y6626D01*
X67624Y6550D01*
X67405Y6484D01*
X67176Y6440D01*
X66957Y6419D01*
X66760Y6397D01*
X66684D01*
X66607Y6386D01*
X66280D01*
X66116Y6397D01*
X65952Y6408D01*
X65810Y6430D01*
X65667Y6451D01*
X65547Y6473D01*
X65438Y6506D01*
X65329Y6528D01*
X65241Y6550D01*
X65165Y6583D01*
X65099Y6604D01*
X65044Y6626D01*
X65001Y6648D01*
X64968Y6659D01*
X64957Y6670D01*
X64946D01*
X64749Y6790D01*
X64574Y6932D01*
X64421Y7096D01*
X64290Y7249D01*
X64181Y7391D01*
X64094Y7501D01*
X64072Y7544D01*
X64050Y7577D01*
X64028Y7599D01*
Y7610D01*
X65667Y7763D01*
X65722Y7686D01*
X65788Y7632D01*
X65831Y7577D01*
X65875Y7544D01*
X65941Y7490D01*
X65952Y7479D01*
X65962D01*
X66050Y7435D01*
X66127Y7413D01*
X66269Y7369D01*
X66334D01*
X66378Y7359D01*
X66422D01*
X66564Y7369D01*
X66684Y7402D01*
X66793Y7446D01*
X66881Y7501D01*
X66957Y7555D01*
X67012Y7599D01*
X67045Y7632D01*
X67055Y7643D01*
X67110Y7730D01*
X67154Y7818D01*
X67220Y8014D01*
X67241Y8102D01*
X67252Y8178D01*
X67263Y8222D01*
Y8244D01*
X63930D01*
Y8430D01*
X63941Y8736D01*
X63973Y9009D01*
X64017Y9239D01*
X64072Y9446D01*
X64126Y9599D01*
X64148Y9665D01*
X64170Y9719D01*
X64192Y9763D01*
X64203Y9796D01*
X64214Y9807D01*
Y9818D01*
X64334Y10004D01*
X64465Y10167D01*
X64596Y10310D01*
X64738Y10430D01*
X64859Y10517D01*
X64957Y10583D01*
X65023Y10627D01*
X65034Y10638D01*
X65044D01*
X65263Y10736D01*
X65504Y10802D01*
X65744Y10856D01*
X65974Y10889D01*
X66181Y10911D01*
X66280D01*
X66356Y10922D01*
X66509D01*
X66717Y10911D01*
D02*
G37*
G36*
X97441Y10998D02*
X95550D01*
Y6484D01*
X93703D01*
Y10998D01*
X91812D01*
Y12474D01*
X97441D01*
Y10998D01*
D02*
G37*
G36*
X85440Y6484D02*
X83767D01*
Y12474D01*
X85440D01*
Y6484D01*
D02*
G37*
G36*
X50934Y10998D02*
X49043D01*
Y6484D01*
X47196D01*
Y10998D01*
X45305D01*
Y12474D01*
X50934D01*
Y10998D01*
D02*
G37*
%LPC*%
G36*
X67678Y200214D02*
X70182D01*
Y200149D01*
X71145D01*
Y200085D01*
X71787D01*
Y200021D01*
X72236D01*
Y199957D01*
X72686D01*
Y199892D01*
X73007D01*
Y199828D01*
X73328D01*
Y199764D01*
X73585D01*
Y199700D01*
X73842D01*
Y199636D01*
X74098D01*
Y199571D01*
X74291D01*
Y199507D01*
X74484D01*
Y199443D01*
X74676D01*
Y199379D01*
X74869D01*
Y199315D01*
X74997D01*
Y199250D01*
X75126D01*
Y199186D01*
X75190D01*
Y199122D01*
X74740D01*
Y199058D01*
X74355D01*
Y198994D01*
X74034D01*
Y198929D01*
X73777D01*
Y198865D01*
X73520D01*
Y198801D01*
X73328D01*
Y198737D01*
X73135D01*
Y198672D01*
X72943D01*
Y198608D01*
X72750D01*
Y198544D01*
X72622D01*
Y198480D01*
X72429D01*
Y198416D01*
X72300D01*
Y198352D01*
X72172D01*
Y198287D01*
X72044D01*
Y198223D01*
X71915D01*
Y198159D01*
X71851D01*
Y198095D01*
X71723D01*
Y198030D01*
X71594D01*
Y197966D01*
X71530D01*
Y197902D01*
X71466D01*
Y197838D01*
X71337D01*
Y197774D01*
Y197709D01*
Y197645D01*
Y197581D01*
X71402D01*
Y197517D01*
X71466D01*
Y197453D01*
X71594D01*
Y197388D01*
X71658D01*
Y197324D01*
X71723D01*
Y197260D01*
X71787D01*
Y197196D01*
X71915D01*
Y197132D01*
X71979D01*
Y197067D01*
X72044D01*
Y197003D01*
X72108D01*
Y196939D01*
X72236D01*
Y196875D01*
Y196811D01*
X71658D01*
Y196746D01*
X71273D01*
Y196682D01*
X71016D01*
Y196618D01*
X70824D01*
Y196554D01*
X70567D01*
Y196490D01*
X70374D01*
Y196425D01*
X70246D01*
Y196361D01*
X70053D01*
Y196297D01*
X69925D01*
Y196233D01*
X69797D01*
Y196168D01*
X69668D01*
Y196104D01*
X69540D01*
Y196040D01*
X69411D01*
Y195976D01*
X69283D01*
Y195912D01*
X69155D01*
Y195847D01*
X69090D01*
Y195783D01*
X69026D01*
Y195719D01*
X68962D01*
Y195655D01*
Y195591D01*
Y195527D01*
X69026D01*
Y195462D01*
X69219D01*
Y195398D01*
X69476D01*
Y195334D01*
X69668D01*
Y195270D01*
X69861D01*
Y195205D01*
X70053D01*
Y195141D01*
X70246D01*
Y195077D01*
X70439D01*
Y195013D01*
X70631D01*
Y194949D01*
X70760D01*
Y194884D01*
X70952D01*
Y194820D01*
X71081D01*
Y194756D01*
X71273D01*
Y194692D01*
X71402D01*
Y194628D01*
X71530D01*
Y194563D01*
X71723D01*
Y194499D01*
X71851D01*
Y194435D01*
X71979D01*
Y194371D01*
X72108D01*
Y194307D01*
X72236D01*
Y194242D01*
X72365D01*
Y194178D01*
X72493D01*
Y194114D01*
X72622D01*
Y194050D01*
X72750D01*
Y193985D01*
X72878D01*
Y193921D01*
X73007D01*
Y193857D01*
X73135D01*
Y193793D01*
X73199D01*
Y193729D01*
X73328D01*
Y193665D01*
X73456D01*
Y193600D01*
X73585D01*
Y193536D01*
X73649D01*
Y193472D01*
X73777D01*
Y193408D01*
X73906D01*
Y193343D01*
X73970D01*
Y193279D01*
X74098D01*
Y193215D01*
X74163D01*
Y193151D01*
X74291D01*
Y193087D01*
X74355D01*
Y193022D01*
X74484D01*
Y192958D01*
X74548D01*
Y192894D01*
X74612D01*
Y192830D01*
X74740D01*
Y192766D01*
X74805D01*
Y192701D01*
X74869D01*
Y192637D01*
X74997D01*
Y192573D01*
X75061D01*
Y192509D01*
X75126D01*
Y192445D01*
X75190D01*
Y192380D01*
X75318D01*
Y192316D01*
X75382D01*
Y192252D01*
X75447D01*
Y192188D01*
X75511D01*
Y192123D01*
X75575D01*
Y192059D01*
X75639D01*
Y191995D01*
X75704D01*
Y191931D01*
X75832D01*
Y191867D01*
X75896D01*
Y191803D01*
X75960D01*
Y191738D01*
X76025D01*
Y191674D01*
X76089D01*
Y191610D01*
X76153D01*
Y191546D01*
X76217D01*
Y191481D01*
X76281D01*
Y191417D01*
X76345D01*
Y191353D01*
X76410D01*
Y191289D01*
X76474D01*
Y191225D01*
X76538D01*
Y191160D01*
Y191096D01*
X76602D01*
Y191032D01*
X76666D01*
Y190968D01*
X76731D01*
Y190904D01*
X76795D01*
Y190839D01*
X76859D01*
Y190775D01*
X76923D01*
Y190711D01*
Y190647D01*
X76988D01*
Y190583D01*
X77052D01*
Y190518D01*
X77116D01*
Y190454D01*
Y190390D01*
X77180D01*
Y190326D01*
X77244D01*
Y190262D01*
X77309D01*
Y190197D01*
Y190133D01*
X77373D01*
Y190069D01*
X77437D01*
Y190005D01*
Y189941D01*
X77501D01*
Y189876D01*
X77565D01*
Y189812D01*
Y189748D01*
X77630D01*
Y189684D01*
Y189620D01*
X77694D01*
Y189555D01*
X77758D01*
Y189491D01*
Y189427D01*
X77822D01*
Y189363D01*
Y189298D01*
X77886D01*
Y189234D01*
Y189170D01*
X77951D01*
Y189106D01*
Y189042D01*
X78015D01*
Y188977D01*
Y188913D01*
X78079D01*
Y188849D01*
Y188785D01*
X78143D01*
Y188721D01*
Y188656D01*
X78207D01*
Y188592D01*
Y188528D01*
Y188464D01*
X78272D01*
Y188400D01*
Y188335D01*
X78336D01*
Y188271D01*
Y188207D01*
Y188143D01*
X78400D01*
Y188079D01*
Y188014D01*
Y187950D01*
X78464D01*
Y187886D01*
Y187822D01*
Y187758D01*
X78528D01*
Y187693D01*
Y187629D01*
Y187565D01*
Y187501D01*
X78593D01*
Y187436D01*
Y187372D01*
Y187308D01*
X78657D01*
Y187244D01*
Y187180D01*
Y187116D01*
Y187051D01*
Y186987D01*
X78721D01*
Y186923D01*
Y186859D01*
Y186794D01*
Y186730D01*
Y186666D01*
Y186602D01*
X78785D01*
Y186538D01*
Y186473D01*
Y186409D01*
Y186345D01*
Y186281D01*
Y186217D01*
Y186152D01*
Y186088D01*
X78850D01*
Y186024D01*
Y185960D01*
Y185896D01*
Y185831D01*
Y185767D01*
Y185703D01*
Y185639D01*
Y185574D01*
Y185510D01*
Y185446D01*
Y185382D01*
Y185318D01*
Y185254D01*
Y185189D01*
Y185125D01*
Y185061D01*
Y184997D01*
Y184932D01*
Y184868D01*
Y184804D01*
Y184740D01*
Y184676D01*
Y184611D01*
Y184547D01*
Y184483D01*
Y184419D01*
Y184355D01*
Y184290D01*
Y184226D01*
X78785D01*
Y184162D01*
Y184098D01*
Y184034D01*
Y183969D01*
Y183905D01*
Y183841D01*
Y183777D01*
Y183713D01*
X78721D01*
Y183648D01*
Y183584D01*
Y183520D01*
Y183456D01*
Y183391D01*
Y183327D01*
Y183263D01*
X78657D01*
Y183199D01*
Y183135D01*
Y183071D01*
Y183006D01*
Y182942D01*
X78593D01*
Y182878D01*
Y182814D01*
Y182749D01*
X78528D01*
Y182685D01*
Y182621D01*
Y182557D01*
X78464D01*
Y182493D01*
Y182428D01*
X78400D01*
Y182364D01*
Y182300D01*
X78336D01*
Y182236D01*
Y182172D01*
Y182107D01*
X78272D01*
Y182043D01*
Y181979D01*
X78207D01*
Y181915D01*
Y181851D01*
X78143D01*
Y181786D01*
Y181722D01*
X78079D01*
Y181658D01*
Y181594D01*
X78015D01*
Y181530D01*
Y181465D01*
X77951D01*
Y181401D01*
Y181337D01*
X77886D01*
Y181273D01*
Y181209D01*
X77822D01*
Y181144D01*
Y181080D01*
X77758D01*
Y181016D01*
X77694D01*
Y180952D01*
Y180887D01*
X77630D01*
Y180823D01*
Y180759D01*
X77565D01*
Y180695D01*
X77501D01*
Y180631D01*
Y180567D01*
X77437D01*
Y180502D01*
X77373D01*
Y180438D01*
Y180374D01*
X77309D01*
Y180310D01*
X77244D01*
Y180245D01*
Y180181D01*
X77180D01*
Y180117D01*
X77116D01*
Y180053D01*
Y179989D01*
X77052D01*
Y179924D01*
X76988D01*
Y179860D01*
X76923D01*
Y179796D01*
X76859D01*
Y179732D01*
Y179668D01*
X76795D01*
Y179603D01*
X76731D01*
Y179539D01*
X76666D01*
Y179475D01*
X76602D01*
Y179411D01*
Y179347D01*
X76538D01*
Y179282D01*
X76474D01*
Y179218D01*
X76410D01*
Y179154D01*
X76345D01*
Y179090D01*
X76281D01*
Y179025D01*
X76217D01*
Y178961D01*
X76153D01*
Y178897D01*
X76089D01*
Y178833D01*
X76025D01*
Y178769D01*
X75960D01*
Y178705D01*
X75896D01*
Y178640D01*
X75832D01*
Y178576D01*
X75768D01*
Y178512D01*
X75704D01*
Y178448D01*
X75639D01*
Y178384D01*
X75511D01*
Y178319D01*
X75447D01*
Y178255D01*
X75382D01*
Y178191D01*
X75318D01*
Y178127D01*
X75254D01*
Y178062D01*
X75126D01*
Y177998D01*
X75061D01*
Y177934D01*
X74997D01*
Y177870D01*
X74869D01*
Y177806D01*
X74805D01*
Y177741D01*
X74740D01*
Y177677D01*
X74612D01*
Y177613D01*
X74548D01*
Y177549D01*
X74419D01*
Y177485D01*
X74355D01*
Y177420D01*
X74227D01*
Y177356D01*
X74098D01*
Y177292D01*
X74034D01*
Y177228D01*
X73906D01*
Y177164D01*
X73777D01*
Y177099D01*
X73649D01*
Y177035D01*
X73520D01*
Y176971D01*
X73456D01*
Y176907D01*
X73328D01*
Y176842D01*
X73199D01*
Y176778D01*
X73007D01*
Y176714D01*
X72878D01*
Y176650D01*
X72750D01*
Y176586D01*
X72622D01*
Y176522D01*
X72429D01*
Y176457D01*
X72300D01*
Y176393D01*
X72108D01*
Y176329D01*
X71979D01*
Y176265D01*
X71787D01*
Y176200D01*
X71594D01*
Y176136D01*
X71402D01*
Y176072D01*
X71145D01*
Y176008D01*
X70952D01*
Y175944D01*
X70695D01*
Y175879D01*
X70439D01*
Y175815D01*
X70310D01*
Y175879D01*
X70439D01*
Y175944D01*
X70567D01*
Y176008D01*
X70760D01*
Y176072D01*
X70888D01*
Y176136D01*
X71016D01*
Y176200D01*
X71209D01*
Y176265D01*
X71337D01*
Y176329D01*
X71466D01*
Y176393D01*
X71594D01*
Y176457D01*
X71723D01*
Y176522D01*
X71851D01*
Y176586D01*
X71979D01*
Y176650D01*
X72108D01*
Y176714D01*
X72172D01*
Y176778D01*
X72300D01*
Y176842D01*
X72429D01*
Y176907D01*
X72557D01*
Y176971D01*
X72622D01*
Y177035D01*
X72750D01*
Y177099D01*
X72814D01*
Y177164D01*
X72943D01*
Y177228D01*
X73007D01*
Y177292D01*
X73135D01*
Y177356D01*
X73199D01*
Y177420D01*
X73264D01*
Y177485D01*
X73392D01*
Y177549D01*
X73456D01*
Y177613D01*
X73520D01*
Y177677D01*
X73585D01*
Y177741D01*
X73713D01*
Y177806D01*
X73777D01*
Y177870D01*
X73842D01*
Y177934D01*
X73906D01*
Y177998D01*
X73970D01*
Y178062D01*
X74098D01*
Y178127D01*
X74163D01*
Y178191D01*
X74227D01*
Y178255D01*
X74291D01*
Y178319D01*
X74355D01*
Y178384D01*
X74419D01*
Y178448D01*
Y178512D01*
X74484D01*
Y178576D01*
X74548D01*
Y178640D01*
X74612D01*
Y178705D01*
X74676D01*
Y178769D01*
X74740D01*
Y178833D01*
Y178897D01*
X74805D01*
Y178961D01*
X74869D01*
Y179025D01*
X74933D01*
Y179090D01*
Y179154D01*
X74997D01*
Y179218D01*
X75061D01*
Y179282D01*
Y179347D01*
X75126D01*
Y179411D01*
X75190D01*
Y179475D01*
Y179539D01*
X75254D01*
Y179603D01*
Y179668D01*
X75318D01*
Y179732D01*
Y179796D01*
X75382D01*
Y179860D01*
X75447D01*
Y179924D01*
Y179989D01*
X75511D01*
Y180053D01*
Y180117D01*
Y180181D01*
X75575D01*
Y180245D01*
Y180310D01*
X75639D01*
Y180374D01*
Y180438D01*
Y180502D01*
X75704D01*
Y180567D01*
Y180631D01*
X75768D01*
Y180695D01*
Y180759D01*
Y180823D01*
X75832D01*
Y180887D01*
Y180952D01*
Y181016D01*
Y181080D01*
X75896D01*
Y181144D01*
Y181209D01*
Y181273D01*
Y181337D01*
X75960D01*
Y181401D01*
Y181465D01*
Y181530D01*
Y181594D01*
Y181658D01*
X76025D01*
Y181722D01*
Y181786D01*
Y181851D01*
Y181915D01*
Y181979D01*
Y182043D01*
Y182107D01*
Y182172D01*
Y182236D01*
X76089D01*
Y182300D01*
Y182364D01*
Y182428D01*
Y182493D01*
Y182557D01*
Y182621D01*
Y182685D01*
Y182749D01*
Y182814D01*
Y182878D01*
Y182942D01*
Y183006D01*
Y183071D01*
Y183135D01*
Y183199D01*
Y183263D01*
Y183327D01*
Y183391D01*
X76025D01*
Y183456D01*
Y183520D01*
Y183584D01*
Y183648D01*
Y183713D01*
Y183777D01*
Y183841D01*
Y183905D01*
Y183969D01*
X75960D01*
Y184034D01*
Y184098D01*
Y184162D01*
Y184226D01*
Y184290D01*
Y184355D01*
X75896D01*
Y184419D01*
Y184483D01*
Y184547D01*
Y184611D01*
Y184676D01*
X75832D01*
Y184740D01*
Y184804D01*
Y184868D01*
Y184932D01*
X75768D01*
Y184997D01*
Y185061D01*
Y185125D01*
X75704D01*
Y185189D01*
Y185254D01*
Y185318D01*
Y185382D01*
X75639D01*
Y185446D01*
Y185510D01*
Y185574D01*
X75575D01*
Y185639D01*
Y185703D01*
Y185767D01*
X75511D01*
Y185831D01*
Y185896D01*
X75447D01*
Y185960D01*
Y186024D01*
Y186088D01*
X75382D01*
Y186152D01*
Y186217D01*
X75318D01*
Y186281D01*
Y186345D01*
Y186409D01*
X75254D01*
Y186473D01*
Y186538D01*
X75190D01*
Y186602D01*
Y186666D01*
X75126D01*
Y186730D01*
Y186794D01*
X75061D01*
Y186859D01*
Y186923D01*
X74997D01*
Y186987D01*
Y187051D01*
X74869D01*
Y186987D01*
X74740D01*
Y186923D01*
X74676D01*
Y186859D01*
X74740D01*
Y186794D01*
Y186730D01*
X74805D01*
Y186666D01*
Y186602D01*
Y186538D01*
X74869D01*
Y186473D01*
Y186409D01*
X74805D01*
Y186345D01*
Y186281D01*
X74869D01*
Y186217D01*
X74933D01*
Y186152D01*
Y186088D01*
X74997D01*
Y186024D01*
Y185960D01*
Y185896D01*
Y185831D01*
Y185767D01*
X75061D01*
Y185703D01*
Y185639D01*
Y185574D01*
Y185510D01*
Y185446D01*
Y185382D01*
Y185318D01*
Y185254D01*
Y185189D01*
X75126D01*
Y185125D01*
Y185061D01*
Y184997D01*
Y184932D01*
Y184868D01*
Y184804D01*
Y184740D01*
Y184676D01*
Y184611D01*
Y184547D01*
Y184483D01*
Y184419D01*
X75061D01*
Y184355D01*
Y184290D01*
Y184226D01*
Y184162D01*
Y184098D01*
Y184034D01*
Y183969D01*
Y183905D01*
Y183841D01*
X74997D01*
Y183777D01*
Y183713D01*
Y183648D01*
Y183584D01*
Y183520D01*
Y183456D01*
X74933D01*
Y183391D01*
Y183327D01*
Y183263D01*
Y183199D01*
Y183135D01*
X74869D01*
Y183071D01*
Y183006D01*
Y182942D01*
Y182878D01*
X74805D01*
Y182814D01*
Y182749D01*
Y182685D01*
X74740D01*
Y182621D01*
Y182557D01*
Y182493D01*
Y182428D01*
X74676D01*
Y182364D01*
Y182300D01*
Y182236D01*
X74612D01*
Y182172D01*
Y182107D01*
Y182043D01*
X74548D01*
Y181979D01*
Y181915D01*
Y181851D01*
X74484D01*
Y181786D01*
Y181722D01*
Y181658D01*
X74419D01*
Y181594D01*
Y181530D01*
X74355D01*
Y181465D01*
Y181401D01*
Y181337D01*
X74291D01*
Y181273D01*
Y181209D01*
X74227D01*
Y181144D01*
Y181080D01*
X74163D01*
Y181016D01*
Y180952D01*
X74098D01*
Y180887D01*
Y180823D01*
Y180759D01*
X74034D01*
Y180695D01*
Y180631D01*
X73970D01*
Y180567D01*
Y180502D01*
X73906D01*
Y180438D01*
Y180374D01*
X73842D01*
Y180310D01*
Y180245D01*
X73777D01*
Y180181D01*
X73713D01*
Y180117D01*
Y180053D01*
X73649D01*
Y179989D01*
Y179924D01*
X73585D01*
Y179860D01*
Y179796D01*
X73520D01*
Y179732D01*
Y179668D01*
X73456D01*
Y179603D01*
X73392D01*
Y179539D01*
Y179475D01*
X73328D01*
Y179411D01*
X73264D01*
Y179347D01*
Y179282D01*
X73199D01*
Y179218D01*
X73135D01*
Y179154D01*
X73071D01*
Y179090D01*
X73007D01*
Y179025D01*
X72943D01*
Y178961D01*
X72878D01*
Y178897D01*
X72814D01*
Y178833D01*
X72750D01*
Y178769D01*
X72686D01*
Y178705D01*
X72622D01*
Y178640D01*
X72557D01*
Y178576D01*
X72493D01*
Y178512D01*
X72429D01*
Y178576D01*
Y178640D01*
X72493D01*
Y178705D01*
Y178769D01*
Y178833D01*
X72557D01*
Y178897D01*
Y178961D01*
Y179025D01*
X72622D01*
Y179090D01*
Y179154D01*
Y179218D01*
X72686D01*
Y179282D01*
Y179347D01*
Y179411D01*
Y179475D01*
X72750D01*
Y179539D01*
Y179603D01*
Y179668D01*
Y179732D01*
Y179796D01*
X72814D01*
Y179860D01*
Y179924D01*
Y179989D01*
Y180053D01*
Y180117D01*
Y180181D01*
Y180245D01*
Y180310D01*
Y180374D01*
Y180438D01*
Y180502D01*
Y180567D01*
Y180631D01*
Y180695D01*
Y180759D01*
X72750D01*
Y180823D01*
Y180887D01*
Y180952D01*
Y181016D01*
Y181080D01*
Y181144D01*
X72686D01*
Y181209D01*
Y181273D01*
Y181337D01*
Y181401D01*
Y181465D01*
Y181530D01*
X72622D01*
Y181594D01*
Y181658D01*
Y181722D01*
Y181786D01*
Y181851D01*
X72557D01*
Y181915D01*
X72493D01*
Y181979D01*
Y182043D01*
X72429D01*
Y182107D01*
X72365D01*
Y182043D01*
X72300D01*
Y181979D01*
Y181915D01*
Y181851D01*
Y181786D01*
X72236D01*
Y181722D01*
Y181658D01*
Y181594D01*
Y181530D01*
X72172D01*
Y181465D01*
Y181401D01*
Y181337D01*
X72108D01*
Y181273D01*
Y181209D01*
Y181144D01*
X72044D01*
Y181080D01*
Y181016D01*
X71979D01*
Y180952D01*
Y180887D01*
X71915D01*
Y180823D01*
Y180759D01*
X71851D01*
Y180695D01*
Y180631D01*
X71787D01*
Y180567D01*
Y180502D01*
X71723D01*
Y180438D01*
X71658D01*
Y180374D01*
Y180310D01*
X71594D01*
Y180245D01*
X71530D01*
Y180181D01*
Y180117D01*
X71466D01*
Y180053D01*
X71402D01*
Y179989D01*
X71337D01*
Y179924D01*
Y179860D01*
X71273D01*
Y179796D01*
X71209D01*
Y179732D01*
X71145D01*
Y179668D01*
X71081D01*
Y179603D01*
X71016D01*
Y179539D01*
X70952D01*
Y179475D01*
X70888D01*
Y179411D01*
X70824D01*
Y179347D01*
X70760D01*
Y179282D01*
X70695D01*
Y179218D01*
X70631D01*
Y179154D01*
X70567D01*
Y179090D01*
X70439D01*
Y179025D01*
X70374D01*
Y178961D01*
X70310D01*
Y178897D01*
X70246D01*
Y178961D01*
X70310D01*
Y179025D01*
X70374D01*
Y179090D01*
X70439D01*
Y179154D01*
X70503D01*
Y179218D01*
X70567D01*
Y179282D01*
X70631D01*
Y179347D01*
X70695D01*
Y179411D01*
X70760D01*
Y179475D01*
Y179539D01*
X70824D01*
Y179603D01*
X70888D01*
Y179668D01*
X70952D01*
Y179732D01*
X71016D01*
Y179796D01*
Y179860D01*
X71081D01*
Y179924D01*
X71145D01*
Y179989D01*
Y180053D01*
X71209D01*
Y180117D01*
X71273D01*
Y180181D01*
Y180245D01*
X71337D01*
Y180310D01*
Y180374D01*
X71402D01*
Y180438D01*
Y180502D01*
X71466D01*
Y180567D01*
Y180631D01*
X71530D01*
Y180695D01*
Y180759D01*
X71594D01*
Y180823D01*
Y180887D01*
Y180952D01*
X71658D01*
Y181016D01*
Y181080D01*
Y181144D01*
X71723D01*
Y181209D01*
Y181273D01*
Y181337D01*
X71787D01*
Y181401D01*
Y181465D01*
Y181530D01*
Y181594D01*
X71851D01*
Y181658D01*
Y181722D01*
Y181786D01*
Y181851D01*
Y181915D01*
X71915D01*
Y181979D01*
Y182043D01*
Y182107D01*
Y182172D01*
Y182236D01*
Y182300D01*
Y182364D01*
Y182428D01*
Y182493D01*
Y182557D01*
X71979D01*
Y182621D01*
Y182685D01*
Y182749D01*
Y182814D01*
Y182878D01*
Y182942D01*
X71915D01*
Y183006D01*
Y183071D01*
Y183135D01*
Y183199D01*
Y183263D01*
Y183327D01*
Y183391D01*
Y183456D01*
Y183520D01*
Y183584D01*
X71851D01*
Y183648D01*
Y183713D01*
Y183777D01*
Y183841D01*
Y183905D01*
X71787D01*
Y183969D01*
Y184034D01*
Y184098D01*
Y184162D01*
X71723D01*
Y184226D01*
Y184290D01*
Y184355D01*
X71658D01*
Y184419D01*
Y184483D01*
Y184547D01*
X71594D01*
Y184611D01*
Y184676D01*
X71530D01*
Y184740D01*
Y184804D01*
X71466D01*
Y184868D01*
Y184932D01*
Y184997D01*
X71402D01*
Y185061D01*
Y185125D01*
X71337D01*
Y185189D01*
X71273D01*
Y185254D01*
Y185318D01*
X71209D01*
Y185382D01*
X71145D01*
Y185446D01*
Y185510D01*
X71081D01*
Y185574D01*
X71016D01*
Y185639D01*
Y185703D01*
X70952D01*
Y185767D01*
X70888D01*
Y185831D01*
X70824D01*
Y185896D01*
X70760D01*
Y185960D01*
X70695D01*
Y186024D01*
Y186088D01*
X70631D01*
Y186152D01*
X70567D01*
Y186217D01*
X70503D01*
Y186281D01*
X70439D01*
Y186345D01*
X70374D01*
Y186409D01*
X70310D01*
Y186473D01*
X70246D01*
Y186538D01*
X70182D01*
Y186602D01*
Y186666D01*
Y186730D01*
Y186794D01*
Y186859D01*
Y186923D01*
Y186987D01*
Y187051D01*
Y187116D01*
Y187180D01*
Y187244D01*
Y187308D01*
Y187372D01*
Y187436D01*
Y187501D01*
Y187565D01*
Y187629D01*
Y187693D01*
Y187758D01*
Y187822D01*
Y187886D01*
Y187950D01*
X70118D01*
Y188014D01*
Y188079D01*
Y188143D01*
Y188207D01*
Y188271D01*
X70053D01*
Y188335D01*
Y188400D01*
Y188464D01*
Y188528D01*
X69989D01*
Y188592D01*
Y188656D01*
Y188721D01*
X69925D01*
Y188785D01*
Y188849D01*
Y188913D01*
X69861D01*
Y188977D01*
Y189042D01*
X69797D01*
Y189106D01*
Y189170D01*
X69732D01*
Y189234D01*
Y189298D01*
X69668D01*
Y189363D01*
Y189427D01*
X69604D01*
Y189491D01*
Y189555D01*
X69540D01*
Y189620D01*
X69476D01*
Y189684D01*
Y189748D01*
X69411D01*
Y189812D01*
X69347D01*
Y189876D01*
X69283D01*
Y189941D01*
Y190005D01*
X69219D01*
Y190069D01*
X69155D01*
Y190133D01*
X69090D01*
Y190197D01*
X69026D01*
Y190262D01*
X68962D01*
Y190326D01*
X68898D01*
Y190390D01*
X68833D01*
Y190454D01*
X68769D01*
Y190518D01*
X68705D01*
Y190583D01*
X68641D01*
Y190647D01*
X68512D01*
Y190711D01*
X68448D01*
Y190775D01*
X68384D01*
Y190839D01*
X68256D01*
Y190904D01*
X68127D01*
Y190968D01*
X68063D01*
Y191032D01*
X67935D01*
Y191096D01*
X67806D01*
Y191160D01*
X67678D01*
Y191225D01*
X67549D01*
Y191289D01*
X67357D01*
Y191353D01*
X67228D01*
Y191417D01*
X67100D01*
Y191481D01*
X66971D01*
Y191546D01*
X66843D01*
Y191610D01*
X66650D01*
Y191674D01*
X66522D01*
Y191738D01*
X66329D01*
Y191803D01*
X66201D01*
Y191867D01*
X66008D01*
Y191931D01*
X65816D01*
Y191995D01*
X65623D01*
Y192059D01*
X65495D01*
Y192123D01*
X65302D01*
Y192188D01*
X65109D01*
Y192252D01*
X64853D01*
Y192316D01*
X64660D01*
Y192380D01*
X64467D01*
Y192445D01*
Y192509D01*
X64532D01*
Y192573D01*
X64596D01*
Y192637D01*
X64660D01*
Y192701D01*
X64724D01*
Y192766D01*
X64789D01*
Y192830D01*
X64917D01*
Y192894D01*
X64981D01*
Y192958D01*
X65109D01*
Y193022D01*
X65238D01*
Y193087D01*
X65430D01*
Y193151D01*
X65687D01*
Y193215D01*
X66008D01*
Y193279D01*
X66843D01*
Y193215D01*
X67164D01*
Y193151D01*
X67357D01*
Y193087D01*
X67485D01*
Y193022D01*
X67614D01*
Y192958D01*
X67678D01*
Y192894D01*
X67485D01*
Y192830D01*
X67292D01*
Y192766D01*
X67164D01*
Y192701D01*
X67100D01*
Y192637D01*
X66971D01*
Y192573D01*
X66907D01*
Y192509D01*
X66843D01*
Y192445D01*
X66779D01*
Y192380D01*
X66715D01*
Y192316D01*
Y192252D01*
X66650D01*
Y192188D01*
Y192123D01*
Y192059D01*
X66907D01*
Y191995D01*
X67228D01*
Y191931D01*
X67485D01*
Y191867D01*
X67614D01*
Y191803D01*
X67806D01*
Y191738D01*
X67935D01*
Y191674D01*
X67999D01*
Y191610D01*
X68127D01*
Y191546D01*
X68256D01*
Y191481D01*
X68320D01*
Y191417D01*
X68448D01*
Y191353D01*
X68512D01*
Y191289D01*
X68577D01*
Y191225D01*
X68641D01*
Y191160D01*
X68769D01*
Y191096D01*
X68833D01*
Y191032D01*
X68898D01*
Y190968D01*
X69026D01*
Y190904D01*
X69219D01*
Y190968D01*
Y191032D01*
Y191096D01*
Y191160D01*
Y191225D01*
X69155D01*
Y191289D01*
Y191353D01*
Y191417D01*
X69090D01*
Y191481D01*
Y191546D01*
X69026D01*
Y191610D01*
Y191674D01*
X68962D01*
Y191738D01*
X68898D01*
Y191803D01*
Y191867D01*
X68833D01*
Y191931D01*
X68769D01*
Y191995D01*
X68641D01*
Y192059D01*
X68577D01*
Y192123D01*
X68705D01*
Y192059D01*
X69090D01*
Y191995D01*
X69219D01*
Y192059D01*
X69283D01*
Y192123D01*
Y192188D01*
Y192252D01*
Y192316D01*
Y192380D01*
Y192445D01*
X69219D01*
Y192509D01*
Y192573D01*
Y192637D01*
X69155D01*
Y192701D01*
Y192766D01*
X69090D01*
Y192830D01*
Y192894D01*
X69026D01*
Y192958D01*
Y193022D01*
X68962D01*
Y193087D01*
Y193151D01*
X68898D01*
Y193215D01*
X68833D01*
Y193279D01*
Y193343D01*
X68769D01*
Y193408D01*
X68705D01*
Y193472D01*
X68641D01*
Y193536D01*
X68577D01*
Y193600D01*
X68512D01*
Y193665D01*
X68448D01*
Y193729D01*
X68384D01*
Y193793D01*
X68256D01*
Y193857D01*
X68191D01*
Y193921D01*
X68127D01*
Y193985D01*
X67999D01*
Y194050D01*
X67935D01*
Y194114D01*
X67806D01*
Y194178D01*
X67678D01*
Y194242D01*
X67549D01*
Y194307D01*
X67421D01*
Y194371D01*
X67292D01*
Y194435D01*
X67100D01*
Y194499D01*
X66907D01*
Y194563D01*
X66715D01*
Y194628D01*
X66522D01*
Y194692D01*
X66458D01*
Y194756D01*
Y194820D01*
Y194884D01*
Y194949D01*
Y195013D01*
Y195077D01*
Y195141D01*
Y195205D01*
Y195270D01*
Y195334D01*
Y195398D01*
X66394D01*
Y195462D01*
Y195527D01*
Y195591D01*
X66329D01*
Y195655D01*
Y195719D01*
X66265D01*
Y195783D01*
Y195847D01*
X66201D01*
Y195912D01*
Y195976D01*
X66137D01*
Y196040D01*
X66073D01*
Y196104D01*
X66008D01*
Y196168D01*
X66329D01*
Y196104D01*
X66458D01*
Y196040D01*
X66522D01*
Y195976D01*
X66586D01*
Y195912D01*
X66715D01*
Y195847D01*
X66779D01*
Y195783D01*
Y195719D01*
X67100D01*
Y195783D01*
Y195847D01*
Y195912D01*
Y195976D01*
Y196040D01*
Y196104D01*
Y196168D01*
Y196233D01*
Y196297D01*
Y196361D01*
Y196425D01*
X67036D01*
Y196490D01*
Y196554D01*
X66971D01*
Y196618D01*
Y196682D01*
X66907D01*
Y196746D01*
Y196811D01*
X66843D01*
Y196875D01*
X66779D01*
Y196939D01*
X66843D01*
Y197003D01*
Y197067D01*
X66971D01*
Y197132D01*
X67036D01*
Y197196D01*
X67100D01*
Y197260D01*
X67164D01*
Y197324D01*
X67292D01*
Y197388D01*
X67357D01*
Y197453D01*
X67485D01*
Y197517D01*
X67614D01*
Y197581D01*
X67678D01*
Y197645D01*
X67806D01*
Y197709D01*
X67935D01*
Y197774D01*
X68063D01*
Y197838D01*
X68127D01*
Y197902D01*
X68191D01*
Y197966D01*
Y198030D01*
X68256D01*
Y198095D01*
X68320D01*
Y198159D01*
X67870D01*
Y198095D01*
X67549D01*
Y198030D01*
X67292D01*
Y197966D01*
X67036D01*
Y197902D01*
X66843D01*
Y197838D01*
X66586D01*
Y197774D01*
X66394D01*
Y197709D01*
X66265D01*
Y197645D01*
X66073D01*
Y197581D01*
X65944D01*
Y197517D01*
X65751D01*
Y197453D01*
X65623D01*
Y197388D01*
X65495D01*
Y197324D01*
X65366D01*
Y197260D01*
X65238D01*
Y197196D01*
X65109D01*
Y197132D01*
X64981D01*
Y197067D01*
X64853D01*
Y197003D01*
X64789D01*
Y196939D01*
X64660D01*
Y196875D01*
X64532D01*
Y196811D01*
X64467D01*
Y196746D01*
X64339D01*
Y196682D01*
X64275D01*
Y196618D01*
X64211D01*
Y196554D01*
X64082D01*
Y196490D01*
X64018D01*
Y196425D01*
X63954D01*
Y196361D01*
X63890D01*
Y196297D01*
X63761D01*
Y196233D01*
X63697D01*
Y196168D01*
X63633D01*
Y196104D01*
X63569D01*
Y196040D01*
X63504D01*
Y195976D01*
X63440D01*
Y195912D01*
X63376D01*
Y195847D01*
X63312D01*
Y195783D01*
X63248D01*
Y195719D01*
X63183D01*
Y195655D01*
X63119D01*
Y195591D01*
X62991D01*
Y195527D01*
X62927D01*
Y195462D01*
X62862D01*
Y195398D01*
X62734D01*
Y195334D01*
X62670D01*
Y195270D01*
X62541D01*
Y195205D01*
X62413D01*
Y195141D01*
X62284D01*
Y195077D01*
X62156D01*
Y195013D01*
X62028D01*
Y194949D01*
X61835D01*
Y194884D01*
X61642D01*
Y194820D01*
X61450D01*
Y194756D01*
X61193D01*
Y194692D01*
X60294D01*
Y194756D01*
X60101D01*
Y194820D01*
X59973D01*
Y194884D01*
X59909D01*
Y194949D01*
X59845D01*
Y195013D01*
X59780D01*
Y195077D01*
Y195141D01*
Y195205D01*
X59845D01*
Y195270D01*
Y195334D01*
X59909D01*
Y195398D01*
X59973D01*
Y195462D01*
Y195527D01*
X60037D01*
Y195591D01*
Y195655D01*
X60101D01*
Y195719D01*
X60166D01*
Y195783D01*
Y195847D01*
X60230D01*
Y195912D01*
Y195976D01*
X60294D01*
Y196040D01*
X60358D01*
Y196104D01*
X60422D01*
Y196168D01*
Y196233D01*
X60487D01*
Y196297D01*
X60551D01*
Y196361D01*
Y196425D01*
X60615D01*
Y196490D01*
X60679D01*
Y196554D01*
X60743D01*
Y196618D01*
Y196682D01*
X60808D01*
Y196746D01*
X60872D01*
Y196811D01*
X60936D01*
Y196875D01*
X61000D01*
Y196939D01*
X61064D01*
Y197003D01*
X61129D01*
Y197067D01*
Y197132D01*
X61193D01*
Y197196D01*
X61257D01*
Y197260D01*
X61321D01*
Y197324D01*
X61386D01*
Y197388D01*
X61450D01*
Y197453D01*
X61514D01*
Y197517D01*
X61578D01*
Y197581D01*
X61642D01*
Y197645D01*
X61771D01*
Y197709D01*
X61835D01*
Y197774D01*
X61899D01*
Y197838D01*
X61963D01*
Y197902D01*
X62028D01*
Y197966D01*
X62092D01*
Y198030D01*
X62220D01*
Y198095D01*
X62284D01*
Y198159D01*
X62349D01*
Y198223D01*
X62477D01*
Y198287D01*
X62541D01*
Y198352D01*
X62670D01*
Y198416D01*
X62798D01*
Y198480D01*
X62862D01*
Y198544D01*
X62991D01*
Y198608D01*
X63119D01*
Y198672D01*
X63248D01*
Y198737D01*
X63376D01*
Y198801D01*
X63504D01*
Y198865D01*
X63633D01*
Y198929D01*
X63761D01*
Y198994D01*
X63954D01*
Y199058D01*
X64082D01*
Y199122D01*
X64211D01*
Y199186D01*
X64403D01*
Y199250D01*
X64532D01*
Y199315D01*
X64724D01*
Y199379D01*
X64853D01*
Y199443D01*
X65045D01*
Y199507D01*
X65174D01*
Y199571D01*
X65366D01*
Y199636D01*
X65559D01*
Y199700D01*
X65751D01*
Y199764D01*
X65944D01*
Y199828D01*
X66137D01*
Y199892D01*
X66329D01*
Y199957D01*
X66522D01*
Y200021D01*
X66715D01*
Y200085D01*
X66971D01*
Y200149D01*
X67678D01*
Y200214D01*
D02*
G37*
G36*
X65045Y195783D02*
X65174D01*
Y195719D01*
X65238D01*
Y195655D01*
Y195591D01*
X65302D01*
Y195527D01*
Y195462D01*
Y195398D01*
Y195334D01*
Y195270D01*
Y195205D01*
Y195141D01*
Y195077D01*
Y195013D01*
Y194949D01*
Y194884D01*
Y194820D01*
Y194756D01*
Y194692D01*
Y194628D01*
X65238D01*
Y194563D01*
Y194499D01*
Y194435D01*
X65174D01*
Y194371D01*
Y194307D01*
X65109D01*
Y194242D01*
Y194178D01*
X65045D01*
Y194114D01*
X64981D01*
Y194050D01*
X64917D01*
Y193985D01*
X64853D01*
Y193921D01*
X64789D01*
Y193857D01*
X64724D01*
Y193793D01*
X64596D01*
Y193729D01*
X64467D01*
Y193665D01*
X64146D01*
Y193600D01*
X63890D01*
Y193665D01*
X63569D01*
Y193729D01*
X63376D01*
Y193793D01*
X63248D01*
Y193857D01*
X63055D01*
Y193921D01*
X62991D01*
Y193985D01*
X62862D01*
Y194050D01*
X62734D01*
Y194114D01*
X62670D01*
Y194178D01*
X62605D01*
Y194242D01*
X62477D01*
Y194307D01*
Y194371D01*
X62541D01*
Y194435D01*
X62670D01*
Y194499D01*
X62798D01*
Y194563D01*
X62862D01*
Y194628D01*
X62991D01*
Y194692D01*
X63183D01*
Y194628D01*
X63376D01*
Y194563D01*
X64018D01*
Y194628D01*
X64082D01*
Y194692D01*
X64146D01*
Y194756D01*
X64211D01*
Y194820D01*
Y194884D01*
X64275D01*
Y194949D01*
Y195013D01*
Y195077D01*
Y195141D01*
Y195205D01*
Y195270D01*
Y195334D01*
Y195398D01*
Y195462D01*
Y195527D01*
Y195591D01*
Y195655D01*
X64596D01*
Y195719D01*
X65045D01*
Y195783D01*
D02*
G37*
G36*
X88839Y9938D02*
X88774D01*
X88653Y9927D01*
X88533Y9905D01*
X88446Y9872D01*
X88358Y9829D01*
X88304Y9785D01*
X88249Y9752D01*
X88227Y9730D01*
X88216Y9719D01*
X88139Y9632D01*
X88085Y9523D01*
X88041Y9413D01*
X88008Y9304D01*
X87986Y9206D01*
X87965Y9118D01*
X87954Y9064D01*
Y9053D01*
Y9042D01*
X89593D01*
X89571Y9173D01*
X89549Y9293D01*
X89517Y9392D01*
X89484Y9479D01*
X89451Y9534D01*
X89429Y9588D01*
X89418Y9610D01*
X89407Y9621D01*
X89309Y9730D01*
X89211Y9807D01*
X89101Y9861D01*
X89003Y9894D01*
X88915Y9927D01*
X88839Y9938D01*
D02*
G37*
G36*
X80467D02*
X80401D01*
X80281Y9927D01*
X80161Y9905D01*
X80073Y9872D01*
X79986Y9829D01*
X79931Y9785D01*
X79876Y9752D01*
X79855Y9730D01*
X79844Y9719D01*
X79767Y9632D01*
X79712Y9523D01*
X79669Y9413D01*
X79636Y9304D01*
X79614Y9206D01*
X79592Y9118D01*
X79581Y9064D01*
Y9053D01*
Y9042D01*
X81221D01*
X81199Y9173D01*
X81177Y9293D01*
X81144Y9392D01*
X81112Y9479D01*
X81079Y9534D01*
X81057Y9588D01*
X81046Y9610D01*
X81035Y9621D01*
X80937Y9730D01*
X80838Y9807D01*
X80729Y9861D01*
X80631Y9894D01*
X80543Y9927D01*
X80467Y9938D01*
D02*
G37*
G36*
X66509D02*
X66444D01*
X66323Y9927D01*
X66203Y9905D01*
X66116Y9872D01*
X66028Y9829D01*
X65974Y9785D01*
X65919Y9752D01*
X65897Y9730D01*
X65886Y9719D01*
X65810Y9632D01*
X65755Y9523D01*
X65711Y9413D01*
X65678Y9304D01*
X65657Y9206D01*
X65635Y9118D01*
X65624Y9064D01*
Y9053D01*
Y9042D01*
X67263D01*
X67241Y9173D01*
X67220Y9293D01*
X67187Y9392D01*
X67154Y9479D01*
X67121Y9534D01*
X67099Y9588D01*
X67088Y9610D01*
X67077Y9621D01*
X66979Y9730D01*
X66881Y9807D01*
X66771Y9861D01*
X66673Y9894D01*
X66586Y9927D01*
X66509Y9938D01*
D02*
G37*
%LPD*%
D10*
X47638Y109350D02*
X51575D01*
Y108169D02*
Y109350D01*
X47638Y108169D02*
Y109350D01*
X172047Y58465D02*
X175984D01*
Y57284D02*
Y58465D01*
X172047Y57284D02*
Y58465D01*
X179921Y57284D02*
Y58465D01*
X183858Y57284D02*
Y58465D01*
X179921D02*
X183858D01*
D13*
X155748Y35630D02*
Y41929D01*
X160984Y35630D02*
Y41929D01*
X173484Y35630D02*
Y41929D01*
X168248Y35630D02*
Y41929D01*
X167185Y35630D02*
Y41929D01*
X161949Y35630D02*
Y41929D01*
X180847Y35630D02*
Y41929D01*
X186083Y35630D02*
Y41929D01*
X179744Y35630D02*
Y41929D01*
X174508Y35630D02*
Y41929D01*
X149547Y35630D02*
Y41929D01*
X154783Y35630D02*
Y41929D01*
D14*
X96260Y166142D02*
Y165092D01*
Y165617D01*
X93111D01*
X93636Y166142D01*
X96260Y161419D02*
Y163518D01*
X94161Y161419D01*
X93636D01*
X93111Y161944D01*
Y162993D01*
X93636Y163518D01*
X93111Y160369D02*
X95210D01*
X96260Y159320D01*
X95210Y158270D01*
X93111D01*
X93636Y153708D02*
X93111Y154233D01*
Y155282D01*
X93636Y155807D01*
X95735D01*
X96260Y155282D01*
Y154233D01*
X95735Y153708D01*
X94686D01*
Y154758D01*
X96260Y152658D02*
X93111D01*
X96260Y150559D01*
X93111D01*
Y149510D02*
X96260D01*
Y147936D01*
X95735Y147411D01*
X93636D01*
X93111Y147936D01*
Y149510D01*
X93636Y125263D02*
X93111Y125788D01*
Y126838D01*
X93636Y127362D01*
X95735D01*
X96260Y126838D01*
Y125788D01*
X95735Y125263D01*
X94686D01*
Y126313D01*
X96260Y124214D02*
X93111D01*
X96260Y122115D01*
X93111D01*
Y121065D02*
X96260D01*
Y119491D01*
X95735Y118966D01*
X93636D01*
X93111Y119491D01*
Y121065D01*
X93636Y105709D02*
X93111Y105184D01*
Y104134D01*
X93636Y103610D01*
X94161D01*
X94686Y104134D01*
Y104659D01*
Y104134D01*
X95210Y103610D01*
X95735D01*
X96260Y104134D01*
Y105184D01*
X95735Y105709D01*
X93111Y102560D02*
X95210D01*
X96260Y101511D01*
X95210Y100461D01*
X93111D01*
X93636Y99411D02*
X93111Y98887D01*
Y97837D01*
X93636Y97312D01*
X94161D01*
X94686Y97837D01*
Y98362D01*
Y97837D01*
X95210Y97312D01*
X95735D01*
X96260Y97837D01*
Y98887D01*
X95735Y99411D01*
X93636Y114338D02*
X93111Y114863D01*
Y115912D01*
X93636Y116437D01*
X95735D01*
X96260Y115912D01*
Y114863D01*
X95735Y114338D01*
X94686D01*
Y115387D01*
X96260Y113288D02*
X93111D01*
X96260Y111189D01*
X93111D01*
Y110140D02*
X96260D01*
Y108566D01*
X95735Y108041D01*
X93636D01*
X93111Y108566D01*
Y110140D01*
D15*
X37524Y37812D02*
X38058Y38345D01*
X39124D01*
X39658Y37812D01*
Y35679D01*
X39124Y35146D01*
X38058D01*
X37524Y35679D01*
Y36746D01*
X38591D01*
X36458Y35146D02*
Y38345D01*
X34325Y35146D01*
Y38345D01*
X33258D02*
Y35146D01*
X31658D01*
X31125Y35679D01*
Y37812D01*
X31658Y38345D01*
X33258D01*
X27354Y36746D02*
X25221D01*
X26288Y37812D02*
Y35679D01*
X24155Y35146D02*
X23088D01*
X23621D01*
Y38345D01*
X24155Y37812D01*
X19355Y35146D02*
X21488D01*
X19355Y37279D01*
Y37812D01*
X19888Y38345D01*
X20955D01*
X21488Y37812D01*
X135851Y48048D02*
X136384Y48582D01*
X137451D01*
X137984Y48048D01*
Y45915D01*
X137451Y45382D01*
X136384D01*
X135851Y45915D01*
Y46982D01*
X136918D01*
X134784Y45382D02*
Y48582D01*
X132651Y45382D01*
Y48582D01*
X131585D02*
Y45382D01*
X129985D01*
X129452Y45915D01*
Y48048D01*
X129985Y48582D01*
X131585D01*
X125910Y53265D02*
X126443Y53798D01*
X127510D01*
X128043Y53265D01*
Y51132D01*
X127510Y50598D01*
X126443D01*
X125910Y51132D01*
Y52198D01*
X126977D01*
X124844Y50598D02*
Y53798D01*
X122710Y50598D01*
Y53798D01*
X121644D02*
Y50598D01*
X120044D01*
X119511Y51132D01*
Y53265D01*
X120044Y53798D01*
X121644D01*
X115772Y48048D02*
X116306Y48582D01*
X117372D01*
X117905Y48048D01*
Y45915D01*
X117372Y45382D01*
X116306D01*
X115772Y45915D01*
Y46982D01*
X116839D01*
X114706Y45382D02*
Y48582D01*
X112573Y45382D01*
Y48582D01*
X111506D02*
Y45382D01*
X109906D01*
X109373Y45915D01*
Y48048D01*
X109906Y48582D01*
X111506D01*
X105930Y53265D02*
X106463Y53798D01*
X107530D01*
X108063Y53265D01*
Y51132D01*
X107530Y50598D01*
X106463D01*
X105930Y51132D01*
Y52198D01*
X106996D01*
X104863Y50598D02*
Y53798D01*
X102730Y50598D01*
Y53798D01*
X101663D02*
Y50598D01*
X100064D01*
X99530Y51132D01*
Y53265D01*
X100064Y53798D01*
X101663D01*
X95890Y48048D02*
X96424Y48582D01*
X97490D01*
X98024Y48048D01*
Y45915D01*
X97490Y45382D01*
X96424D01*
X95890Y45915D01*
Y46982D01*
X96957D01*
X94824Y45382D02*
Y48582D01*
X92691Y45382D01*
Y48582D01*
X91624D02*
Y45382D01*
X90024D01*
X89491Y45915D01*
Y48048D01*
X90024Y48582D01*
X91624D01*
X85851Y53265D02*
X86384Y53798D01*
X87451D01*
X87984Y53265D01*
Y51132D01*
X87451Y50598D01*
X86384D01*
X85851Y51132D01*
Y52198D01*
X86918D01*
X84785Y50598D02*
Y53798D01*
X82651Y50598D01*
Y53798D01*
X81585D02*
Y50598D01*
X79985D01*
X79452Y51132D01*
Y53265D01*
X79985Y53798D01*
X81585D01*
X76009Y48048D02*
X76542Y48582D01*
X77609D01*
X78142Y48048D01*
Y45915D01*
X77609Y45382D01*
X76542D01*
X76009Y45915D01*
Y46982D01*
X77075D01*
X74942Y45382D02*
Y48582D01*
X72809Y45382D01*
Y48582D01*
X71742D02*
Y45382D01*
X70142D01*
X69609Y45915D01*
Y48048D01*
X70142Y48582D01*
X71742D01*
X76009Y24328D02*
X76542Y24861D01*
X77609D01*
X78142Y24328D01*
Y22195D01*
X77609Y21661D01*
X76542D01*
X76009Y22195D01*
Y23261D01*
X77075D01*
X74942Y21661D02*
Y24861D01*
X72809Y21661D01*
Y24861D01*
X71742D02*
Y21661D01*
X70142D01*
X69609Y22195D01*
Y24328D01*
X70142Y24861D01*
X71742D01*
X104650Y19210D02*
X105184Y19743D01*
X106250D01*
X106783Y19210D01*
Y17077D01*
X106250Y16543D01*
X105184D01*
X104650Y17077D01*
X101451Y19743D02*
X103584D01*
Y16543D01*
X101451D01*
X103584Y18143D02*
X102517D01*
X139559Y21661D02*
Y24861D01*
X138493Y23795D01*
X137426Y24861D01*
Y21661D01*
X134759Y24861D02*
X135826D01*
X136359Y24328D01*
Y22195D01*
X135826Y21661D01*
X134759D01*
X134226Y22195D01*
Y24328D01*
X134759Y24861D01*
X131026Y24328D02*
X131560Y24861D01*
X132626D01*
X133159Y24328D01*
Y23795D01*
X132626Y23261D01*
X131560D01*
X131026Y22728D01*
Y22195D01*
X131560Y21661D01*
X132626D01*
X133159Y22195D01*
X129960Y24861D02*
X128893D01*
X129427D01*
Y21661D01*
X129960D01*
X128893D01*
X129913Y16543D02*
Y19743D01*
X128847Y18677D01*
X127780Y19743D01*
Y16543D01*
X126714Y19743D02*
X125647D01*
X126180D01*
Y16543D01*
X126714D01*
X125647D01*
X121914Y19210D02*
X122447Y19743D01*
X123514D01*
X124047Y19210D01*
Y18677D01*
X123514Y18143D01*
X122447D01*
X121914Y17610D01*
Y17077D01*
X122447Y16543D01*
X123514D01*
X124047Y17077D01*
X119247Y19743D02*
X120314D01*
X120847Y19210D01*
Y17077D01*
X120314Y16543D01*
X119247D01*
X118714Y17077D01*
Y19210D01*
X119247Y19743D01*
X117839Y24328D02*
X118373Y24861D01*
X119439D01*
X119973Y24328D01*
Y23795D01*
X119439Y23261D01*
X118373D01*
X117839Y22728D01*
Y22195D01*
X118373Y21661D01*
X119439D01*
X119973Y22195D01*
X114639Y24328D02*
X115173Y24861D01*
X116239D01*
X116773Y24328D01*
Y22195D01*
X116239Y21661D01*
X115173D01*
X114639Y22195D01*
X113573Y24861D02*
Y21661D01*
X111440D01*
X110373Y24861D02*
Y21661D01*
Y22728D01*
X108240Y24861D01*
X109840Y23261D01*
X108240Y21661D01*
X97827Y24861D02*
X96760D01*
X97294D01*
Y21661D01*
X97827D01*
X96760D01*
X95160D02*
Y24861D01*
X93560D01*
X93027Y24328D01*
Y23261D01*
X93560Y22728D01*
X95160D01*
X94094D02*
X93027Y21661D01*
X89827Y22195D02*
Y24328D01*
X90361Y24861D01*
X91427D01*
X91961Y24328D01*
Y22195D01*
X91427Y21661D01*
X90361D01*
X90894Y22728D02*
X89827Y21661D01*
X90361D02*
X89827Y22195D01*
X84670Y19210D02*
X85203Y19743D01*
X86270D01*
X86803Y19210D01*
Y17077D01*
X86270Y16543D01*
X85203D01*
X84670Y17077D01*
X81470Y19210D02*
X82003Y19743D01*
X83070D01*
X83603Y19210D01*
Y18677D01*
X83070Y18143D01*
X82003D01*
X81470Y17610D01*
Y17077D01*
X82003Y16543D01*
X83070D01*
X83603Y17077D01*
D104*
X53773Y119767D02*
X53240Y120300D01*
X52174D01*
X51640Y119767D01*
Y119234D01*
X52174Y118701D01*
X52707D01*
X52174D01*
X51640Y118168D01*
Y117634D01*
X52174Y117101D01*
X53240D01*
X53773Y117634D01*
X50574Y120300D02*
Y118168D01*
X49508Y117101D01*
X48442Y118168D01*
Y120300D01*
X47375Y119767D02*
X46842Y120300D01*
X45776D01*
X45243Y119767D01*
Y119234D01*
X45776Y118701D01*
X46309D01*
X45776D01*
X45243Y118168D01*
Y117634D01*
X45776Y117101D01*
X46842D01*
X47375Y117634D01*
X189985Y60934D02*
X186786D01*
Y59334D01*
X187320Y58801D01*
X188386D01*
X188919Y59334D01*
Y60934D01*
Y59867D02*
X189985Y58801D01*
X186786Y57735D02*
X189985Y55602D01*
X186786D02*
X189985Y57735D01*
X166019Y60934D02*
Y58801D01*
Y59867D01*
X169218D01*
X166019Y57735D02*
X169218Y55602D01*
X166019D02*
X169218Y57735D01*
M02*
