<?xml version="1.0" encoding="UTF-8" standalone="no"?>
<svg
   xmlns:dc="http://purl.org/dc/elements/1.1/"
   xmlns:cc="http://creativecommons.org/ns#"
   xmlns:rdf="http://www.w3.org/1999/02/22-rdf-syntax-ns#"
   xmlns:svg="http://www.w3.org/2000/svg"
   xmlns="http://www.w3.org/2000/svg"
   xmlns:sodipodi="http://sodipodi.sourceforge.net/DTD/sodipodi-0.dtd"
   xmlns:inkscape="http://www.inkscape.org/namespaces/inkscape"
   version="1.1"
   id="svg10"
   xml:space="preserve"
   width="1122.5601"
   height="793.76001"
   viewBox="0 0 1122.5601 793.76001"
   sodipodi:docname="Top_Paste.svg"
   inkscape:version="1.0.2-2 (e86c870879, 2021-01-15)"><metadata
     id="metadata16"><rdf:RDF><cc:Work
         rdf:about=""><dc:format>image/svg+xml</dc:format><dc:type
           rdf:resource="http://purl.org/dc/dcmitype/StillImage" /><dc:title></dc:title></cc:Work></rdf:RDF></metadata><defs
     id="defs14" /><sodipodi:namedview
     pagecolor="#ffffff"
     bordercolor="#666666"
     borderopacity="1"
     objecttolerance="10"
     gridtolerance="10"
     guidetolerance="10"
     inkscape:pageopacity="0"
     inkscape:pageshadow="2"
     inkscape:window-width="1920"
     inkscape:window-height="991"
     id="namedview12"
     showgrid="false"
     inkscape:zoom="3.5918344"
     inkscape:cx="535.92359"
     inkscape:cy="385.02238"
     inkscape:window-x="-9"
     inkscape:window-y="1304"
     inkscape:window-maximized="1"
     inkscape:current-layer="g18" /><g
     id="g18"
     inkscape:groupmode="layer"
     inkscape:label="Top_Paste"
     transform="translate(0,2.0510667e-5)"><g
       id="g20"><path
         d="m 569.57001,430.25 v 3.17001 l 0.97998,0.98999 h 3.17999 v 3.01999 h -7.17999 V 430.25 Z"
         style="fill:#000000;fill-opacity:1;fill-rule:evenodd;stroke:none"
         id="path22" /></g><g
       id="g24"><path
         d="m 641.15997,434.41 0.98004,-0.98999 V 430.25 h 3.01996 v 7.17999 h -7.17999 V 434.41 Z"
         style="fill:#000000;fill-opacity:1;fill-rule:evenodd;stroke:none"
         id="path26" /></g><g
       id="g28"><path
         d="m 645.15997,321.01001 v 7.19 h -3.01996 v -3.18002 l -0.98004,-0.97998 h -3.17999 v -3.03 z"
         style="fill:#000000;fill-opacity:1;fill-rule:evenodd;stroke:none"
         id="path30" /></g><g
       id="g32"><path
         d="m 573.72998,321.01001 v 3.03 h -3.17999 l -0.97998,0.97998 v 3.18002 h -3.02002 v -7.19 z"
         style="fill:#000000;fill-opacity:1;fill-rule:evenodd;stroke:none"
         id="path34" /></g><g
       id="g36"><path
         d="m 603.40002,389.42999 h 9.82996 V 399.25 h -9.82996 z M 536.5,403.32001 h 2.27002 v 2.63998 H 536.5 Z m 3.78003,0 h 2.26996 v 2.63998 h -2.26996 z M 532.06,398.78 h 1.51001 v 1.82001 H 532.06 Z m 0,4.98999 h 1.51001 V 405.59 H 532.06 Z"
         style="fill:#000000;fill-opacity:1;fill-rule:evenodd;stroke:none"
         id="path38" /></g><g
       id="g40"><path
         d="m 599.71002,398.12 h 2.45996"
         style="fill:none;stroke:#000000;stroke-width:0.945;stroke-linecap:round;stroke-linejoin:round;stroke-miterlimit:10;stroke-dasharray:none;stroke-opacity:1"
         id="path42" /></g><g
       id="g44"><path
         d="m 599.71002,396.23001 h 2.45996"
         style="fill:none;stroke:#000000;stroke-width:0.945;stroke-linecap:round;stroke-linejoin:round;stroke-miterlimit:10;stroke-dasharray:none;stroke-opacity:1"
         id="path46" /></g><g
       id="g48"><path
         d="m 599.71002,394.34 h 2.45996"
         style="fill:none;stroke:#000000;stroke-width:0.945;stroke-linecap:round;stroke-linejoin:round;stroke-miterlimit:10;stroke-dasharray:none;stroke-opacity:1"
         id="path50" /></g><g
       id="g52"><path
         d="m 599.71002,392.45001 h 2.45996"
         style="fill:none;stroke:#000000;stroke-width:0.945;stroke-linecap:round;stroke-linejoin:round;stroke-miterlimit:10;stroke-dasharray:none;stroke-opacity:1"
         id="path54" /></g><g
       id="g56"><path
         d="m 599.71002,390.56 h 2.45996"
         style="fill:none;stroke:#000000;stroke-width:0.945;stroke-linecap:round;stroke-linejoin:round;stroke-miterlimit:10;stroke-dasharray:none;stroke-opacity:1"
         id="path58" /></g><g
       id="g60"><path
         d="m 604.53003,388.20001 v -2.46002"
         style="fill:none;stroke:#000000;stroke-width:0.945;stroke-linecap:round;stroke-linejoin:round;stroke-miterlimit:10;stroke-dasharray:none;stroke-opacity:1"
         id="path62" /></g><g
       id="g64"><path
         d="m 606.41998,388.20001 v -2.46002"
         style="fill:none;stroke:#000000;stroke-width:0.945;stroke-linecap:round;stroke-linejoin:round;stroke-miterlimit:10;stroke-dasharray:none;stroke-opacity:1"
         id="path66" /></g><g
       id="g68"><path
         d="m 608.31,388.20001 v -2.46002"
         style="fill:none;stroke:#000000;stroke-width:0.945;stroke-linecap:round;stroke-linejoin:round;stroke-miterlimit:10;stroke-dasharray:none;stroke-opacity:1"
         id="path70" /></g><g
       id="g72"><path
         d="m 610.20001,388.20001 v -2.46002"
         style="fill:none;stroke:#000000;stroke-width:0.945;stroke-linecap:round;stroke-linejoin:round;stroke-miterlimit:10;stroke-dasharray:none;stroke-opacity:1"
         id="path74" /></g><g
       id="g76"><path
         d="m 612.09003,388.20001 v -2.46002"
         style="fill:none;stroke:#000000;stroke-width:0.945;stroke-linecap:round;stroke-linejoin:round;stroke-miterlimit:10;stroke-dasharray:none;stroke-opacity:1"
         id="path78" /></g><g
       id="g80"><path
         d="m 614.45001,390.56 h 2.45996"
         style="fill:none;stroke:#000000;stroke-width:0.945;stroke-linecap:round;stroke-linejoin:round;stroke-miterlimit:10;stroke-dasharray:none;stroke-opacity:1"
         id="path82" /></g><g
       id="g84"><path
         d="m 614.45001,392.45001 h 2.45996"
         style="fill:none;stroke:#000000;stroke-width:0.945;stroke-linecap:round;stroke-linejoin:round;stroke-miterlimit:10;stroke-dasharray:none;stroke-opacity:1"
         id="path86" /></g><g
       id="g88"><path
         d="m 614.45001,394.34 h 2.45996"
         style="fill:none;stroke:#000000;stroke-width:0.945;stroke-linecap:round;stroke-linejoin:round;stroke-miterlimit:10;stroke-dasharray:none;stroke-opacity:1"
         id="path90" /></g><g
       id="g92"><path
         d="m 614.45001,396.23001 h 2.45996"
         style="fill:none;stroke:#000000;stroke-width:0.945;stroke-linecap:round;stroke-linejoin:round;stroke-miterlimit:10;stroke-dasharray:none;stroke-opacity:1"
         id="path94" /></g><g
       id="g96"><path
         d="m 614.45001,398.12 h 2.45996"
         style="fill:none;stroke:#000000;stroke-width:0.945;stroke-linecap:round;stroke-linejoin:round;stroke-miterlimit:10;stroke-dasharray:none;stroke-opacity:1"
         id="path98" /></g><g
       id="g100"><path
         d="m 612.09003,402.94 v -2.45999"
         style="fill:none;stroke:#000000;stroke-width:0.945;stroke-linecap:round;stroke-linejoin:round;stroke-miterlimit:10;stroke-dasharray:none;stroke-opacity:1"
         id="path102" /></g><g
       id="g104"><path
         d="m 610.20001,402.94 v -2.45999"
         style="fill:none;stroke:#000000;stroke-width:0.945;stroke-linecap:round;stroke-linejoin:round;stroke-miterlimit:10;stroke-dasharray:none;stroke-opacity:1"
         id="path106" /></g><g
       id="g108"><path
         d="m 608.31,402.94 v -2.45999"
         style="fill:none;stroke:#000000;stroke-width:0.945;stroke-linecap:round;stroke-linejoin:round;stroke-miterlimit:10;stroke-dasharray:none;stroke-opacity:1"
         id="path110" /></g><g
       id="g112"><path
         d="m 606.41998,402.94 v -2.45999"
         style="fill:none;stroke:#000000;stroke-width:0.945;stroke-linecap:round;stroke-linejoin:round;stroke-miterlimit:10;stroke-dasharray:none;stroke-opacity:1"
         id="path114" /></g><g
       id="g116"><path
         d="m 604.53003,402.94 v -2.45999"
         style="fill:none;stroke:#000000;stroke-width:0.945;stroke-linecap:round;stroke-linejoin:round;stroke-miterlimit:10;stroke-dasharray:none;stroke-opacity:1"
         id="path118" /></g><g
       id="g120"><path
         d="m 614.71997,379.42999 h 2.57001 v 2.42002 h -2.57001 z m 3.32001,0 h 2.57001 v 2.42002 h -2.57001 z M 614.71997,375.37 h 2.57001 v 2.42001 h -2.57001 z m 3.33002,0 H 620.62 v 2.41 h -2.57001 z m 2.76001,25.27999 h 2.40997 V 403.22 H 620.81 Z m 0,3.33002 h 2.40997 v 2.56998 H 620.81 Z m 4.15002,-3.33002 H 627.38 V 403.22 h -2.41998 z m 0,3.33002 H 627.38 v 2.56998 h -2.41998 z m 4.15998,-3.33002 h 2.41998 V 403.22 H 629.12 Z m 0,3.33002 h 2.41998 v 2.56998 H 629.12 Z m 4.16003,0 h 2.41998 v 2.56998 h -2.41998 z m 0,-3.33002 h 2.41998 V 403.22 h -2.41998 z m 0.0699,8.19001 h 2.27002 v 2.55999 h -2.27002 z m 0,4.54 h 2.27002 v 2.54999 h -2.27002 z"
         style="fill:#000000;fill-opacity:1;fill-rule:evenodd;stroke:none"
         id="path122" /></g><g
       id="g124"
       transform="translate(645.53998,419.51001)"><path
         d="M 0,0 -0.22,-0.22 H -3.55 L -3.78,0 v 2.57 l 0.23,0.23 h 3.33 L 0,2.57 Z"
         style="fill:#000000;fill-opacity:1;fill-rule:evenodd;stroke:none"
         id="path126" /></g><g
       id="g128"
       transform="translate(645.32001,419.51001)"><path
         d="m 0,0 v -0.22 0 c 0.13,0 0.23,0.1 0.23,0.23 0,0 0,0 0,0 z"
         style="fill:#000000;fill-opacity:1;fill-rule:evenodd;stroke:none"
         id="path130" /></g><g
       id="g132"
       transform="translate(641.98999,419.51001)"><path
         d="m 0,0 h -0.23 v 0.01 c 0,-0.13 0.1,-0.23 0.23,-0.23 0,0 0,0 0,0 z"
         style="fill:#000000;fill-opacity:1;fill-rule:evenodd;stroke:none"
         id="path134" /></g><g
       id="g136"
       transform="translate(641.98999,422.07999)"><path
         d="m 0,0 v 0.23 0.01 c -0.13,0 -0.23,-0.1 -0.23,-0.23 0,0 0,0 0,0 z"
         style="fill:#000000;fill-opacity:1;fill-rule:evenodd;stroke:none"
         id="path138" /></g><g
       id="g140"
       transform="translate(645.32001,422.07999)"><path
         d="m 0,0 h 0.22 l 0.01,0.01 c 0,0.13 -0.1,0.23 -0.23,0.23 0,0 0,0 0,0 z"
         style="fill:#000000;fill-opacity:1;fill-rule:evenodd;stroke:none"
         id="path142" /></g><g
       id="g144"
       transform="translate(645.53998,336.35999)"><path
         d="M 0,0 -0.22,-0.22 H -3.55 L -3.78,0 v 2.57 l 0.23,0.23 h 3.33 L 0,2.57 Z"
         style="fill:#000000;fill-opacity:1;fill-rule:evenodd;stroke:none"
         id="path146" /></g><g
       id="g148"
       transform="translate(645.32001,336.35999)"><path
         d="m 0,0 v -0.22 0 c 0.13,0 0.23,0.1 0.23,0.23 0,0 0,0 0,0 z"
         style="fill:#000000;fill-opacity:1;fill-rule:evenodd;stroke:none"
         id="path150" /></g><g
       id="g152"
       transform="translate(641.98999,336.35999)"><path
         d="m 0,0 h -0.23 v 0.01 c 0,-0.13 0.1,-0.23 0.23,-0.23 0,0 0,0 0,0 z"
         style="fill:#000000;fill-opacity:1;fill-rule:evenodd;stroke:none"
         id="path154" /></g><g
       id="g156"
       transform="translate(641.98999,338.92999)"><path
         d="m 0,0 v 0.23 0.01 c -0.13,0 -0.23,-0.1 -0.23,-0.23 0,0 0,0 0,0 z"
         style="fill:#000000;fill-opacity:1;fill-rule:evenodd;stroke:none"
         id="path158" /></g><g
       id="g160"
       transform="translate(645.32001,338.92999)"><path
         d="m 0,0 h 0.22 l 0.01,0.01 c 0,0.13 -0.1,0.23 -0.23,0.23 0,0 0,0 0,0 z"
         style="fill:#000000;fill-opacity:1;fill-rule:evenodd;stroke:none"
         id="path162" /></g><g
       id="g164"
       transform="translate(629.82001,324.42001)"><path
         d="M 0,0 0.23,-0.23 V -3.56 L 0,-3.78 h -2.57 l -0.23,0.22 v 3.33 L -2.57,0 Z"
         style="fill:#000000;fill-opacity:1;fill-rule:evenodd;stroke:none"
         id="path166" /></g><g
       id="g168"
       transform="translate(629.82001,324.19)"><path
         d="m 0,0 h 0.22 l 0.01,0.01 c 0,0.13 -0.1,0.23 -0.23,0.23 0,0 0,0 0,0 z"
         style="fill:#000000;fill-opacity:1;fill-rule:evenodd;stroke:none"
         id="path170" /></g><g
       id="g172"
       transform="translate(629.82001,320.85999)"><path
         d="m 0,0 v -0.22 0 c 0.13,0 0.23,0.1 0.23,0.23 0,0 0,0 0,0 z"
         style="fill:#000000;fill-opacity:1;fill-rule:evenodd;stroke:none"
         id="path174" /></g><g
       id="g176"
       transform="translate(627.25,320.85999)"><path
         d="m 0,0 h -0.23 v 0.01 c 0,-0.13 0.1,-0.23 0.23,-0.23 0,0 0,0 0,0 z"
         style="fill:#000000;fill-opacity:1;fill-rule:evenodd;stroke:none"
         id="path178" /></g><g
       id="g180"
       transform="translate(627.25,324.19)"><path
         d="m 0,0 v 0.23 0.01 c -0.13,0 -0.23,-0.1 -0.23,-0.23 0,0 0,0 0,0 z"
         style="fill:#000000;fill-opacity:1;fill-rule:evenodd;stroke:none"
         id="path182" /></g><g
       id="g184"
       transform="translate(629.82001,437.81)"><path
         d="M 0,0 0.23,-0.23 V -3.56 L 0,-3.78 h -2.57 l -0.23,0.22 v 3.33 L -2.57,0 Z"
         style="fill:#000000;fill-opacity:1;fill-rule:evenodd;stroke:none"
         id="path186" /></g><g
       id="g188"
       transform="translate(629.82001,437.57999)"><path
         d="m 0,0 h 0.22 l 0.01,0.01 c 0,0.13 -0.1,0.23 -0.23,0.23 0,0 0,0 0,0 z"
         style="fill:#000000;fill-opacity:1;fill-rule:evenodd;stroke:none"
         id="path190" /></g><g
       id="g192"
       transform="translate(629.82001,434.25)"><path
         d="m 0,0 v -0.22 0 c 0.13,0 0.23,0.1 0.23,0.23 0,0 0,0 0,0 z"
         style="fill:#000000;fill-opacity:1;fill-rule:evenodd;stroke:none"
         id="path194" /></g><g
       id="g196"
       transform="translate(627.25,434.25)"><path
         d="m 0,0 h -0.23 v 0.01 c 0,-0.13 0.1,-0.23 0.23,-0.23 0,0 0,0 0,0 z"
         style="fill:#000000;fill-opacity:1;fill-rule:evenodd;stroke:none"
         id="path198" /></g><g
       id="g200"
       transform="translate(627.25,437.57999)"><path
         d="m 0,0 v 0.23 0.01 c -0.13,0 -0.23,-0.1 -0.23,-0.23 0,0 0,0 0,0 z"
         style="fill:#000000;fill-opacity:1;fill-rule:evenodd;stroke:none"
         id="path202" /></g><g
       id="g204"
       transform="translate(584.46002,437.81)"><path
         d="M 0,0 0.23,-0.23 V -3.56 L 0,-3.78 h -2.57 l -0.23,0.22 v 3.33 L -2.57,0 Z"
         style="fill:#000000;fill-opacity:1;fill-rule:evenodd;stroke:none"
         id="path206" /></g><g
       id="g208"
       transform="translate(584.46002,437.57999)"><path
         d="m 0,0 h 0.22 l 0.01,0.01 c 0,0.13 -0.1,0.23 -0.23,0.23 0,0 0,0 0,0 z"
         style="fill:#000000;fill-opacity:1;fill-rule:evenodd;stroke:none"
         id="path210" /></g><g
       id="g212"
       transform="translate(584.46002,434.25)"><path
         d="m 0,0 v -0.22 0 c 0.13,0 0.23,0.1 0.23,0.23 0,0 0,0 0,0 z"
         style="fill:#000000;fill-opacity:1;fill-rule:evenodd;stroke:none"
         id="path214" /></g><g
       id="g216"
       transform="translate(581.89001,434.25)"><path
         d="m 0,0 h -0.23 v 0.01 c 0,-0.13 0.1,-0.23 0.23,-0.23 0,0 0,0 0,0 z"
         style="fill:#000000;fill-opacity:1;fill-rule:evenodd;stroke:none"
         id="path218" /></g><g
       id="g220"
       transform="translate(581.89001,437.57999)"><path
         d="m 0,0 v 0.23 0.01 c -0.13,0 -0.23,-0.1 -0.23,-0.23 0,0 0,0 0,0 z"
         style="fill:#000000;fill-opacity:1;fill-rule:evenodd;stroke:none"
         id="path222" /></g><g
       id="g224"
       transform="translate(581.89001,320.64001)"><path
         d="M 0,0 -0.22,0.22 V 3.55 L 0,3.78 H 2.57 L 2.8,3.55 V 0.22 L 2.57,0 Z"
         style="fill:#000000;fill-opacity:1;fill-rule:evenodd;stroke:none"
         id="path226" /></g><g
       id="g228"
       transform="translate(581.89001,320.85999)"><path
         d="m 0,0 h -0.23 v 0.01 c 0,-0.13 0.1,-0.23 0.23,-0.23 0,0 0,0 0,0 z"
         style="fill:#000000;fill-opacity:1;fill-rule:evenodd;stroke:none"
         id="path230" /></g><g
       id="g232"
       transform="translate(581.89001,324.19)"><path
         d="m 0,0 v 0.23 0.01 c -0.13,0 -0.23,-0.1 -0.23,-0.23 0,0 0,0 0,0 z"
         style="fill:#000000;fill-opacity:1;fill-rule:evenodd;stroke:none"
         id="path234" /></g><g
       id="g236"
       transform="translate(584.46002,324.19)"><path
         d="m 0,0 h 0.22 l 0.01,0.01 c 0,0.13 -0.1,0.23 -0.23,0.23 0,0 0,0 0,0 z"
         style="fill:#000000;fill-opacity:1;fill-rule:evenodd;stroke:none"
         id="path238" /></g><g
       id="g240"
       transform="translate(584.46002,320.85999)"><path
         d="m 0,0 v -0.22 0 c 0.13,0 0.23,0.1 0.23,0.23 0,0 0,0 0,0 z"
         style="fill:#000000;fill-opacity:1;fill-rule:evenodd;stroke:none"
         id="path242" /></g><g
       id="g244"><path
         d="M 567.12,434.97 H 569 v 1.88999 h -1.88 z m 75.59002,0 h 1.88996 v 1.88999 h -1.88996 z m 0,-113.39001 h 1.88996 V 323.47 h -1.88996 z m -75.59002,0 H 569 V 323.47 h -1.88 z"
         style="fill:#000000;fill-opacity:1;fill-rule:evenodd;stroke:none"
         id="path246" /></g><g
       id="g248"
       transform="translate(566.16998,338.92999)"><path
         d="M 0,0 0.23,0.23 H 3.55 L 3.78,0 V -2.57 L 3.55,-2.8 H 0.23 L 0,-2.57 Z"
         style="fill:#000000;fill-opacity:1;fill-rule:evenodd;stroke:none"
         id="path250" /></g><g
       id="g252"
       transform="translate(566.40002,338.92999)"><path
         d="m 0,0 v 0.23 0.01 c -0.13,0 -0.23,-0.1 -0.23,-0.23 0,0 0,0 0,0 z"
         style="fill:#000000;fill-opacity:1;fill-rule:evenodd;stroke:none"
         id="path254" /></g><g
       id="g256"
       transform="translate(569.71997,338.92999)"><path
         d="m 0,0 h 0.22 l 0.01,0.01 c 0,0.13 -0.1,0.23 -0.23,0.23 0,0 0,0 0,0 z"
         style="fill:#000000;fill-opacity:1;fill-rule:evenodd;stroke:none"
         id="path258" /></g><g
       id="g260"
       transform="translate(569.71997,336.35999)"><path
         d="m 0,0 v -0.22 0 c 0.13,0 0.23,0.1 0.23,0.23 0,0 0,0 0,0 z"
         style="fill:#000000;fill-opacity:1;fill-rule:evenodd;stroke:none"
         id="path262" /></g><g
       id="g264"
       transform="translate(566.40002,336.35999)"><path
         d="m 0,0 h -0.23 v 0.01 c 0,-0.13 0.1,-0.23 0.23,-0.23 0,0 0,0 0,0 z"
         style="fill:#000000;fill-opacity:1;fill-rule:evenodd;stroke:none"
         id="path266" /></g><g
       id="g268"
       transform="translate(566.16998,422.07999)"><path
         d="M 0,0 0.23,0.23 H 3.55 L 3.78,0 V -2.57 L 3.55,-2.8 H 0.23 L 0,-2.57 Z"
         style="fill:#000000;fill-opacity:1;fill-rule:evenodd;stroke:none"
         id="path270" /></g><g
       id="g272"
       transform="translate(566.40002,422.07999)"><path
         d="m 0,0 v 0.23 0.01 c -0.13,0 -0.23,-0.1 -0.23,-0.23 0,0 0,0 0,0 z"
         style="fill:#000000;fill-opacity:1;fill-rule:evenodd;stroke:none"
         id="path274" /></g><g
       id="g276"
       transform="translate(569.71997,422.07999)"><path
         d="m 0,0 h 0.22 l 0.01,0.01 c 0,0.13 -0.1,0.23 -0.23,0.23 0,0 0,0 0,0 z"
         style="fill:#000000;fill-opacity:1;fill-rule:evenodd;stroke:none"
         id="path278" /></g><g
       id="g280"
       transform="translate(569.71997,419.51001)"><path
         d="m 0,0 v -0.22 0 c 0.13,0 0.23,0.1 0.23,0.23 0,0 0,0 0,0 z"
         style="fill:#000000;fill-opacity:1;fill-rule:evenodd;stroke:none"
         id="path282" /></g><g
       id="g284"
       transform="translate(566.40002,419.51001)"><path
         d="m 0,0 h -0.23 v 0.01 c 0,-0.13 0.1,-0.23 0.23,-0.23 0,0 0,0 0,0 z"
         style="fill:#000000;fill-opacity:1;fill-rule:evenodd;stroke:none"
         id="path286" /></g><g
       id="g288"><path
         d="m 605.28998,325.92999 h 1.13 v 2.46002 h -1.13 z m 0,7.18 h 1.13 v 2.46002 h -1.13 z m 1.32001,-3.87 h 2.65002 v 3.02002 h -2.65002 z m -4.15998,0 h 2.64997 v 3.02002 h -2.64997 z m 5.39002,8.80002 h 2.56994 v 2.41998 h -2.56994 z m -3.33002,0 h 2.57001 v 2.41998 h -2.57001 z m 13.06,9.81 h 2.08001 v 2.07998 h -2.08001 z m 0,-3.4 h 2.08001 V 346.53 h -2.08001 z m -3.78003,3.4 h 2.08001 v 2.07998 h -2.08001 z m 0,-3.4 h 2.08001 V 346.53 h -2.08001 z m 0,7.17999 h 2.08001 v 2.07999 h -2.08001 z m 0,3.4 h 2.08001 v 2.07999 h -2.08001 z"
         style="fill:#000000;fill-opacity:1;fill-rule:evenodd;stroke:none"
         id="path290" /></g><g
       id="g292"><path
         d="m 601.97998,356.26001 v -2.08002"
         style="fill:none;stroke:#000000;stroke-width:0.945;stroke-linecap:round;stroke-linejoin:round;stroke-miterlimit:10;stroke-dasharray:none;stroke-opacity:1"
         id="path294" /></g><g
       id="g296"><path
         d="m 603.86999,356.26001 v -2.08002"
         style="fill:none;stroke:#000000;stroke-width:0.945;stroke-linecap:round;stroke-linejoin:round;stroke-miterlimit:10;stroke-dasharray:none;stroke-opacity:1"
         id="path298" /></g><g
       id="g300"><path
         d="m 605.76001,356.26001 v -2.08002"
         style="fill:none;stroke:#000000;stroke-width:0.945;stroke-linecap:round;stroke-linejoin:round;stroke-miterlimit:10;stroke-dasharray:none;stroke-opacity:1"
         id="path302" /></g><g
       id="g304"><path
         d="m 607.65002,356.26001 v -2.08002"
         style="fill:none;stroke:#000000;stroke-width:0.945;stroke-linecap:round;stroke-linejoin:round;stroke-miterlimit:10;stroke-dasharray:none;stroke-opacity:1"
         id="path306" /></g><g
       id="g308"><path
         d="m 609.26001,352.57999 h 2.08002"
         style="fill:none;stroke:#000000;stroke-width:0.945;stroke-linecap:round;stroke-linejoin:round;stroke-miterlimit:10;stroke-dasharray:none;stroke-opacity:1"
         id="path310" /></g><g
       id="g312"><path
         d="m 609.26001,350.69 h 2.08002"
         style="fill:none;stroke:#000000;stroke-width:0.945;stroke-linecap:round;stroke-linejoin:round;stroke-miterlimit:10;stroke-dasharray:none;stroke-opacity:1"
         id="path314" /></g><g
       id="g316"><path
         d="m 609.26001,348.79999 h 2.08002"
         style="fill:none;stroke:#000000;stroke-width:0.945;stroke-linecap:round;stroke-linejoin:round;stroke-miterlimit:10;stroke-dasharray:none;stroke-opacity:1"
         id="path318" /></g><g
       id="g320"><path
         d="m 609.26001,346.91 h 2.08002"
         style="fill:none;stroke:#000000;stroke-width:0.945;stroke-linecap:round;stroke-linejoin:round;stroke-miterlimit:10;stroke-dasharray:none;stroke-opacity:1"
         id="path322" /></g><g
       id="g324"><path
         d="M 607.65002,345.29999 V 343.22"
         style="fill:none;stroke:#000000;stroke-width:0.945;stroke-linecap:round;stroke-linejoin:round;stroke-miterlimit:10;stroke-dasharray:none;stroke-opacity:1"
         id="path326" /></g><g
       id="g328"><path
         d="M 605.76001,345.29999 V 343.22"
         style="fill:none;stroke:#000000;stroke-width:0.945;stroke-linecap:round;stroke-linejoin:round;stroke-miterlimit:10;stroke-dasharray:none;stroke-opacity:1"
         id="path330" /></g><g
       id="g332"><path
         d="M 603.86999,345.29999 V 343.22"
         style="fill:none;stroke:#000000;stroke-width:0.945;stroke-linecap:round;stroke-linejoin:round;stroke-miterlimit:10;stroke-dasharray:none;stroke-opacity:1"
         id="path334" /></g><g
       id="g336"><path
         d="M 601.97998,345.29999 V 343.22"
         style="fill:none;stroke:#000000;stroke-width:0.945;stroke-linecap:round;stroke-linejoin:round;stroke-miterlimit:10;stroke-dasharray:none;stroke-opacity:1"
         id="path338" /></g><g
       id="g340"><path
         d="M 598.29999,346.91 H 600.38"
         style="fill:none;stroke:#000000;stroke-width:0.945;stroke-linecap:round;stroke-linejoin:round;stroke-miterlimit:10;stroke-dasharray:none;stroke-opacity:1"
         id="path342" /></g><g
       id="g344"><path
         d="M 598.29999,348.79999 H 600.38"
         style="fill:none;stroke:#000000;stroke-width:0.945;stroke-linecap:round;stroke-linejoin:round;stroke-miterlimit:10;stroke-dasharray:none;stroke-opacity:1"
         id="path346" /></g><g
       id="g348"><path
         d="M 598.29999,350.69 H 600.38"
         style="fill:none;stroke:#000000;stroke-width:0.945;stroke-linecap:round;stroke-linejoin:round;stroke-miterlimit:10;stroke-dasharray:none;stroke-opacity:1"
         id="path350" /></g><g
       id="g352"><path
         d="M 598.29999,352.57999 H 600.38"
         style="fill:none;stroke:#000000;stroke-width:0.945;stroke-linecap:round;stroke-linejoin:round;stroke-miterlimit:10;stroke-dasharray:none;stroke-opacity:1"
         id="path354" /></g><g
       id="g356"><path
         d="m 601.59998,346.53 h 6.43005 v 6.42001 h -6.43005 z m -8.38996,4.44 H 595.63 v 2.57001 h -2.41998 z m 0,-3.32999 H 595.63 v 2.56998 h -2.41998 z M 589.06,350.97 h 2.40997 v 2.57001 H 589.06 Z m 0,-3.32999 h 2.40997 v 2.56998 H 589.06 Z m -4.15998,3.32999 h 2.41999 v 2.57001 h -2.41999 z m 0,-3.32999 h 2.41999 v 2.56998 h -2.41999 z m -4.16003,3.32999 h 2.41998 v 2.57001 h -2.41998 z m 0,-3.32999 h 2.41998 v 2.56998 h -2.41998 z m 0.16998,13.00998 h 2.27002 v 2.56 h -2.27002 z m 0,-4.52999 h 2.27002 v 2.55001 h -2.27002 z m 0.61005,23.27999 h 2.56 v 2.27002 h -2.56 z m -4.53003,0 h 2.54999 v 2.27002 h -2.54999 z m 9.41998,-3.41998 h 2.42005 v 2.56998 h -2.42005 z m 0,3.32999 h 2.42005 v 2.57 h -2.42005 z m -5.30999,18.39001 h 2.27001 V 400.25 h -2.27001 z m 0,4.53 h 2.27001 V 404.78 h -2.27001 z m -0.08,-12.82001 h 2.41998 v 2.57001 h -2.41998 z m 0,3.32001 h 2.41998 v 2.56998 h -2.41998 z m 39.38995,-3.40002 h 2.08002 v 2.27002 h -2.08002 z m 0,-3.20999 h 2.08002 v 2.27001 h -2.08002 z m 10.20002,-25.26999 h 2.63 V 362.44 h -2.63 z m 0,4.91998 h 2.63 v 1.58002 h -2.63 z m -7.34998,0 h 2.63 v 1.58002 h -2.63 z m 0,-2.45999 h 2.63 v 1.58999 h -2.63 z m 0,-2.45999 h 2.63 V 362.44 h -2.63 z m -13.44,19.6 h 2.08001 v 0.94998 h -2.08001 z m -3.21002,0 h 2.08001 v 0.94998 h -2.08001 z m 3.21002,-3.78 h 2.08001 V 377.62 h -2.08001 z m -3.21002,0 h 2.08001 V 377.62 h -2.08001 z m 3.21002,1.88999 h 2.08001 v 0.95001 h -2.08001 z m -3.21002,0 h 2.08001 v 0.95001 h -2.08001 z m 18.41003,17.5 h 2.57001 v 2.42001 h -2.57001 z m 3.32996,0 h 2.57 v 2.42001 h -2.57 z m 7.18005,-32.04999 h 2.07996 V 366.09 h -2.07996 z m 0,-3.40002 h 2.07996 V 362.69 h -2.07996 z m -4.73004,9.26001 h 2.08001 v 2.08001 h -2.08001 z m 3.40002,0 h 2.08002 v 2.08001 h -2.08002 z m -44.85998,22.86001 h 2.41998 v 2.56998 h -2.41998 z m 0,-3.32001 h 2.41998 v 2.57001 h -2.41998 z m 4.15997,3.32001 h 2.41998 v 2.56998 h -2.41998 z m 0,-3.32001 h 2.41998 v 2.57001 h -2.41998 z m 34.84998,-10.36001 h 2.57 V 381.47 h -2.57 z m -3.32996,0 h 2.57001 V 381.47 h -2.57001 z m 4.26996,10.66 h 3.78003 V 394.25 h -3.78003 z m 0,-6.41998 h 3.78003 v 4.53 h -3.78003 z m -4.90998,0 h 3.77997 v 4.53 h -3.77997 z m 0,6.41998 h 3.77997 V 394.25 h -3.77997 z m -39.20001,3.02002 h 2.41999 v 2.56998 h -2.41999 z m 0,-3.32001 h 2.41999 v 2.57001 h -2.41999 z m 8.97998,7.75 h 2.42005 v 2.57001 h -2.42005 z m 0,3.32001 h 2.42005 v 2.56998 h -2.42005 z m -0.29999,-15.49002 h 2.07001 v 2.08002 h -2.07001 z m -3.40997,0 h 2.08002 V 387.06 h -2.08002 z m 8.52997,-5.67999 h 2.42004 v 2.57 h -2.42004 z m 0,-3.32999 h 2.42004 v 2.56998 h -2.42004 z m -8.40997,3.32999 h 2.40997 v 2.57 h -2.40997 z m 0,-3.32999 h 2.40997 v 2.56998 h -2.40997 z m 4.14996,3.32999 h 2.42004 v 2.57 h -2.42004 z m 0,-3.32999 h 2.42004 v 2.56998 h -2.42004 z"
         style="fill:#000000;fill-opacity:1;fill-rule:evenodd;stroke:none"
         id="path358" /></g></g></svg>
